G04 #@! TF.GenerationSoftware,KiCad,Pcbnew,8.0.2*
G04 #@! TF.CreationDate,2024-05-07T14:07:02-06:00*
G04 #@! TF.ProjectId,Perfboard_Panel,50657266-626f-4617-9264-5f50616e656c,rev?*
G04 #@! TF.SameCoordinates,Original*
G04 #@! TF.FileFunction,Copper,L1,Top*
G04 #@! TF.FilePolarity,Positive*
%FSLAX46Y46*%
G04 Gerber Fmt 4.6, Leading zero omitted, Abs format (unit mm)*
G04 Created by KiCad (PCBNEW 8.0.2) date 2024-05-07 14:07:02*
%MOMM*%
%LPD*%
G01*
G04 APERTURE LIST*
G04 Aperture macros list*
%AMFreePoly0*
4,1,19,0.500000,-0.750000,0.000000,-0.750000,0.000000,-0.744911,-0.071157,-0.744911,-0.207708,-0.704816,-0.327430,-0.627875,-0.420627,-0.520320,-0.479746,-0.390866,-0.500000,-0.250000,-0.500000,0.250000,-0.479746,0.390866,-0.420627,0.520320,-0.327430,0.627875,-0.207708,0.704816,-0.071157,0.744911,0.000000,0.744911,0.000000,0.750000,0.500000,0.750000,0.500000,-0.750000,0.500000,-0.750000,
$1*%
%AMFreePoly1*
4,1,19,0.000000,0.744911,0.071157,0.744911,0.207708,0.704816,0.327430,0.627875,0.420627,0.520320,0.479746,0.390866,0.500000,0.250000,0.500000,-0.250000,0.479746,-0.390866,0.420627,-0.520320,0.327430,-0.627875,0.207708,-0.704816,0.071157,-0.744911,0.000000,-0.744911,0.000000,-0.750000,-0.500000,-0.750000,-0.500000,0.750000,0.000000,0.750000,0.000000,0.744911,0.000000,0.744911,
$1*%
%AMFreePoly2*
4,1,19,0.000000,0.744911,0.071157,0.744911,0.207708,0.704816,0.327430,0.627875,0.420627,0.520320,0.479746,0.390866,0.500000,0.250000,0.500000,-0.250000,0.479746,-0.390866,0.420627,-0.520320,0.327430,-0.627875,0.207708,-0.704816,0.071157,-0.744911,0.000000,-0.744911,0.000000,-0.750000,-0.550000,-0.750000,-0.550000,0.750000,0.000000,0.750000,0.000000,0.744911,0.000000,0.744911,
$1*%
%AMFreePoly3*
4,1,19,0.550000,-0.750000,0.000000,-0.750000,0.000000,-0.744911,-0.071157,-0.744911,-0.207708,-0.704816,-0.327430,-0.627875,-0.420627,-0.520320,-0.479746,-0.390866,-0.500000,-0.250000,-0.500000,0.250000,-0.479746,0.390866,-0.420627,0.520320,-0.327430,0.627875,-0.207708,0.704816,-0.071157,0.744911,0.000000,0.744911,0.000000,0.750000,0.550000,0.750000,0.550000,-0.750000,0.550000,-0.750000,
$1*%
G04 Aperture macros list end*
G04 #@! TA.AperFunction,ComponentPad*
%ADD10C,1.600000*%
G04 #@! TD*
G04 #@! TA.AperFunction,SMDPad,CuDef*
%ADD11FreePoly0,0.000000*%
G04 #@! TD*
G04 #@! TA.AperFunction,SMDPad,CuDef*
%ADD12FreePoly1,0.000000*%
G04 #@! TD*
G04 #@! TA.AperFunction,ComponentPad*
%ADD13C,2.600000*%
G04 #@! TD*
G04 #@! TA.AperFunction,ConnectorPad*
%ADD14C,3.800000*%
G04 #@! TD*
G04 #@! TA.AperFunction,SMDPad,CuDef*
%ADD15FreePoly0,90.000000*%
G04 #@! TD*
G04 #@! TA.AperFunction,SMDPad,CuDef*
%ADD16FreePoly1,90.000000*%
G04 #@! TD*
G04 #@! TA.AperFunction,SMDPad,CuDef*
%ADD17FreePoly2,0.000000*%
G04 #@! TD*
G04 #@! TA.AperFunction,SMDPad,CuDef*
%ADD18R,1.000000X1.500000*%
G04 #@! TD*
G04 #@! TA.AperFunction,SMDPad,CuDef*
%ADD19FreePoly3,0.000000*%
G04 #@! TD*
G04 #@! TA.AperFunction,SMDPad,CuDef*
%ADD20FreePoly0,270.000000*%
G04 #@! TD*
G04 #@! TA.AperFunction,SMDPad,CuDef*
%ADD21FreePoly1,270.000000*%
G04 #@! TD*
G04 #@! TA.AperFunction,Conductor*
%ADD22C,1.000000*%
G04 #@! TD*
G04 #@! TA.AperFunction,Conductor*
%ADD23C,1.500000*%
G04 #@! TD*
G04 APERTURE END LIST*
D10*
X107580000Y-105440000D03*
X229700000Y-113040000D03*
X69160000Y-87640000D03*
X140540000Y-118140000D03*
X64140000Y-191780000D03*
X163400000Y-130840000D03*
X64080000Y-133360000D03*
X56460000Y-110500000D03*
X38680000Y-110500000D03*
D11*
X45060000Y-60970000D03*
D12*
X46360000Y-60970000D03*
D10*
X196680000Y-138440000D03*
X97420000Y-105440000D03*
X76780000Y-115580000D03*
X61540000Y-123200000D03*
X112660000Y-82580000D03*
X46300000Y-90180000D03*
X69220000Y-174000000D03*
X176100000Y-128300000D03*
X125480000Y-213440000D03*
X51380000Y-69860000D03*
X211920000Y-102880000D03*
X48840000Y-133360000D03*
X211920000Y-77480000D03*
X71760000Y-168920000D03*
X138180000Y-188040000D03*
X125360000Y-125760000D03*
X48840000Y-138440000D03*
X115320000Y-223600000D03*
X184480000Y-195660000D03*
X76780000Y-219720000D03*
X214460000Y-85100000D03*
X76780000Y-92720000D03*
X112660000Y-120680000D03*
X105040000Y-141000000D03*
X69220000Y-191780000D03*
X135640000Y-198200000D03*
X130440000Y-69880000D03*
X107580000Y-95280000D03*
X234780000Y-87640000D03*
X76780000Y-140980000D03*
X237320000Y-92720000D03*
X76780000Y-135900000D03*
X110120000Y-80040000D03*
X211920000Y-115580000D03*
X127900000Y-107980000D03*
X150700000Y-85120000D03*
X176100000Y-125760000D03*
X66680000Y-161300000D03*
X229700000Y-128280000D03*
X229700000Y-85100000D03*
X168480000Y-141000000D03*
X168480000Y-105440000D03*
X237320000Y-133360000D03*
X76780000Y-156220000D03*
X99960000Y-125760000D03*
X197180000Y-213440000D03*
X229700000Y-90180000D03*
X122820000Y-74960000D03*
X120280000Y-80040000D03*
X66680000Y-207020000D03*
X211920000Y-125740000D03*
X234780000Y-69860000D03*
X224620000Y-107960000D03*
X140540000Y-115600000D03*
X110120000Y-107980000D03*
X110120000Y-69880000D03*
X69160000Y-118120000D03*
X171020000Y-125760000D03*
X176100000Y-90200000D03*
X66680000Y-214640000D03*
X122820000Y-118140000D03*
X237320000Y-135900000D03*
X48900000Y-146060000D03*
X64080000Y-87640000D03*
X125360000Y-120680000D03*
D13*
X193000000Y-51000000D03*
D14*
X193000000Y-51000000D03*
D10*
X66680000Y-186700000D03*
X48840000Y-90180000D03*
X153240000Y-90200000D03*
X237320000Y-90180000D03*
X219540000Y-128280000D03*
X150700000Y-133380000D03*
X174320000Y-190580000D03*
X166700000Y-190580000D03*
X219540000Y-138440000D03*
X71760000Y-148600000D03*
X168480000Y-128300000D03*
X148160000Y-125760000D03*
X156540000Y-198200000D03*
X135640000Y-218520000D03*
X105160000Y-215980000D03*
X64080000Y-120660000D03*
X156540000Y-221060000D03*
X64080000Y-123200000D03*
X150700000Y-141000000D03*
X97420000Y-133380000D03*
X148160000Y-69880000D03*
X71700000Y-105420000D03*
X46300000Y-115580000D03*
X125360000Y-85120000D03*
X165940000Y-87660000D03*
X48840000Y-110500000D03*
X165940000Y-74960000D03*
X138000000Y-100360000D03*
X56520000Y-148600000D03*
X153240000Y-87660000D03*
X184480000Y-210900000D03*
X227160000Y-77480000D03*
X66620000Y-69860000D03*
X189560000Y-203280000D03*
X64080000Y-115580000D03*
X128020000Y-198200000D03*
X145620000Y-90200000D03*
X209380000Y-95260000D03*
X130440000Y-105440000D03*
X115200000Y-135920000D03*
X160860000Y-77500000D03*
X64140000Y-189240000D03*
X229700000Y-110500000D03*
X135460000Y-72420000D03*
X76780000Y-74940000D03*
X165940000Y-130840000D03*
X122820000Y-107980000D03*
X61600000Y-166380000D03*
X171020000Y-97820000D03*
X138180000Y-198200000D03*
X56460000Y-115580000D03*
X61600000Y-176540000D03*
X56520000Y-209560000D03*
X127900000Y-74960000D03*
X69160000Y-140980000D03*
X76780000Y-133360000D03*
X171020000Y-69880000D03*
X69220000Y-201940000D03*
X107580000Y-120680000D03*
X53980000Y-171460000D03*
X189560000Y-193120000D03*
X41220000Y-120660000D03*
X56460000Y-100340000D03*
X204300000Y-77480000D03*
X64140000Y-212100000D03*
X105160000Y-208360000D03*
X155780000Y-118140000D03*
X48900000Y-156220000D03*
X209380000Y-100340000D03*
X196680000Y-128280000D03*
X168480000Y-110520000D03*
X165940000Y-69880000D03*
X53920000Y-110500000D03*
X97420000Y-128300000D03*
X171780000Y-195660000D03*
X211920000Y-123200000D03*
X196680000Y-97800000D03*
X166700000Y-215980000D03*
X97540000Y-218520000D03*
X51440000Y-204480000D03*
X138000000Y-92740000D03*
X53920000Y-100340000D03*
X178640000Y-115600000D03*
X130440000Y-128300000D03*
X61540000Y-107960000D03*
X38740000Y-191780000D03*
X107580000Y-138460000D03*
X163400000Y-102900000D03*
X196680000Y-69860000D03*
X66620000Y-125740000D03*
X135460000Y-143540000D03*
X194640000Y-215980000D03*
X110120000Y-120680000D03*
X100080000Y-188040000D03*
X155780000Y-80040000D03*
X229700000Y-80020000D03*
X160860000Y-110520000D03*
X48900000Y-207020000D03*
X169240000Y-218520000D03*
X71700000Y-95260000D03*
X38680000Y-184160000D03*
X229700000Y-72400000D03*
X107700000Y-198200000D03*
X79320000Y-133360000D03*
X209380000Y-118120000D03*
X181940000Y-195660000D03*
X61540000Y-143520000D03*
X155780000Y-72420000D03*
X206840000Y-120660000D03*
X145620000Y-110520000D03*
X150700000Y-100360000D03*
X224620000Y-92720000D03*
X112780000Y-213440000D03*
X224620000Y-125740000D03*
X97420000Y-113060000D03*
X199220000Y-97800000D03*
X237320000Y-130820000D03*
X105040000Y-138460000D03*
X237320000Y-128280000D03*
X159080000Y-188040000D03*
X105040000Y-80040000D03*
X219540000Y-80020000D03*
X214460000Y-138440000D03*
X211920000Y-74940000D03*
X196680000Y-82560000D03*
X197180000Y-193120000D03*
X56520000Y-212100000D03*
D15*
X239860000Y-106070000D03*
D16*
X239860000Y-104770000D03*
D10*
X214460000Y-90180000D03*
X153240000Y-92740000D03*
X165940000Y-113060000D03*
X112780000Y-195660000D03*
X51440000Y-146060000D03*
X237320000Y-69860000D03*
X53980000Y-146060000D03*
X120280000Y-107980000D03*
X176100000Y-92740000D03*
X61540000Y-105420000D03*
X64080000Y-143520000D03*
X130560000Y-208360000D03*
X206840000Y-123200000D03*
X196680000Y-87640000D03*
X125360000Y-87660000D03*
X112660000Y-141000000D03*
X38680000Y-80020000D03*
X166700000Y-213440000D03*
X41220000Y-133360000D03*
X69220000Y-171460000D03*
X138000000Y-87660000D03*
X153240000Y-118140000D03*
X51440000Y-184160000D03*
X138000000Y-138460000D03*
X153240000Y-130840000D03*
X100080000Y-200740000D03*
X187020000Y-193120000D03*
X204300000Y-90180000D03*
X120280000Y-113060000D03*
X163400000Y-74960000D03*
X214460000Y-95260000D03*
X160860000Y-80040000D03*
X148160000Y-107980000D03*
X66620000Y-80020000D03*
X107580000Y-128300000D03*
X122820000Y-72420000D03*
X174320000Y-208360000D03*
X234780000Y-80020000D03*
X168480000Y-143540000D03*
X209380000Y-130820000D03*
X38680000Y-82560000D03*
D13*
X94000000Y-169000000D03*
D14*
X94000000Y-169000000D03*
D10*
X214460000Y-135900000D03*
X110240000Y-218520000D03*
X128020000Y-210900000D03*
X153240000Y-97820000D03*
X163400000Y-105440000D03*
X163400000Y-100360000D03*
X196680000Y-72400000D03*
D11*
X103860000Y-182960000D03*
D12*
X105160000Y-182960000D03*
D10*
X76780000Y-181620000D03*
X219540000Y-95260000D03*
X100080000Y-195660000D03*
X184480000Y-221060000D03*
X110120000Y-95280000D03*
X112660000Y-85120000D03*
X224620000Y-97800000D03*
X61540000Y-125740000D03*
X214460000Y-110500000D03*
X56460000Y-77480000D03*
X169240000Y-198200000D03*
X53920000Y-128280000D03*
X138180000Y-215980000D03*
X79320000Y-115580000D03*
X211920000Y-100340000D03*
X159080000Y-205820000D03*
X79320000Y-92720000D03*
X48900000Y-171460000D03*
X165940000Y-97820000D03*
X125480000Y-210900000D03*
X112780000Y-205820000D03*
X105160000Y-193120000D03*
X51380000Y-107960000D03*
X112660000Y-97820000D03*
X56460000Y-69860000D03*
X56460000Y-74940000D03*
X51380000Y-143520000D03*
X46300000Y-72400000D03*
D13*
X94000000Y-230000000D03*
D14*
X94000000Y-230000000D03*
D10*
X56520000Y-146060000D03*
X206840000Y-110500000D03*
X112660000Y-107980000D03*
X46300000Y-133360000D03*
X51440000Y-194320000D03*
X127900000Y-105440000D03*
X153240000Y-123220000D03*
X166700000Y-208360000D03*
X46300000Y-110500000D03*
X99960000Y-92740000D03*
X115200000Y-130840000D03*
X224620000Y-100340000D03*
X179400000Y-188040000D03*
X64080000Y-102880000D03*
X120400000Y-205820000D03*
X97540000Y-210900000D03*
X51380000Y-74940000D03*
X206840000Y-135900000D03*
X112660000Y-135920000D03*
X122940000Y-193120000D03*
X169240000Y-188040000D03*
X150700000Y-135920000D03*
X69220000Y-166380000D03*
X204300000Y-143520000D03*
X99960000Y-133380000D03*
X99960000Y-120680000D03*
X41220000Y-168920000D03*
X204300000Y-72400000D03*
X38680000Y-97800000D03*
X229700000Y-77480000D03*
X38680000Y-87640000D03*
X56520000Y-166380000D03*
X125480000Y-200740000D03*
X53920000Y-69860000D03*
X41280000Y-105420000D03*
X120400000Y-190580000D03*
X105160000Y-190580000D03*
X179400000Y-223600000D03*
X61600000Y-148600000D03*
X122820000Y-87660000D03*
X229700000Y-102880000D03*
X184480000Y-218520000D03*
X41280000Y-194320000D03*
X130440000Y-97820000D03*
X229700000Y-105420000D03*
X135640000Y-210900000D03*
X127900000Y-69880000D03*
X105160000Y-200740000D03*
X48900000Y-191780000D03*
X48900000Y-153680000D03*
X41220000Y-201940000D03*
X122940000Y-221060000D03*
X66620000Y-113040000D03*
X97420000Y-118140000D03*
X214460000Y-80020000D03*
X115320000Y-198200000D03*
X199220000Y-135900000D03*
X164160000Y-210900000D03*
X145620000Y-87660000D03*
X99960000Y-90200000D03*
X181940000Y-221060000D03*
X171780000Y-190580000D03*
X110240000Y-215980000D03*
X153240000Y-115600000D03*
X199220000Y-118120000D03*
X112780000Y-198200000D03*
X194640000Y-210900000D03*
X199220000Y-77480000D03*
X130440000Y-100360000D03*
X130440000Y-113060000D03*
X56520000Y-196860000D03*
X105160000Y-210900000D03*
X110120000Y-113060000D03*
X53980000Y-209560000D03*
X64080000Y-130820000D03*
X69220000Y-156220000D03*
X237320000Y-82560000D03*
X159080000Y-218520000D03*
X66620000Y-85100000D03*
X197180000Y-218520000D03*
D13*
X83000000Y-229880000D03*
D14*
X83000000Y-229880000D03*
D10*
X105040000Y-113060000D03*
X156540000Y-188040000D03*
X115200000Y-97820000D03*
X41220000Y-113040000D03*
X71700000Y-72400000D03*
X125480000Y-218520000D03*
X229700000Y-130820000D03*
X61600000Y-184160000D03*
X64140000Y-168920000D03*
X153240000Y-110520000D03*
X125480000Y-203280000D03*
X237320000Y-118120000D03*
X209380000Y-102880000D03*
X227160000Y-120660000D03*
X214460000Y-102880000D03*
X194640000Y-213440000D03*
X138060000Y-105440000D03*
X211920000Y-85100000D03*
X97420000Y-123220000D03*
X165940000Y-138460000D03*
X110120000Y-133380000D03*
X148160000Y-105440000D03*
X125480000Y-195660000D03*
X171780000Y-221060000D03*
X51440000Y-161300000D03*
X53980000Y-151140000D03*
X76780000Y-209560000D03*
X64140000Y-214640000D03*
X99960000Y-72420000D03*
X222080000Y-82560000D03*
X53980000Y-163840000D03*
X38680000Y-92720000D03*
X181940000Y-215980000D03*
X41220000Y-74940000D03*
X56460000Y-72400000D03*
X219540000Y-77480000D03*
X46360000Y-196860000D03*
X153240000Y-143540000D03*
X51380000Y-85100000D03*
X187020000Y-215980000D03*
D14*
X182000000Y-51000000D03*
D13*
X182000000Y-51000000D03*
D10*
X227160000Y-135900000D03*
X178640000Y-118140000D03*
X38680000Y-130820000D03*
X181940000Y-208360000D03*
X197180000Y-205820000D03*
X168480000Y-87660000D03*
X71760000Y-171460000D03*
X79320000Y-87640000D03*
X53920000Y-82560000D03*
X105040000Y-90200000D03*
X168480000Y-120680000D03*
X69160000Y-72400000D03*
D13*
X193000000Y-150000000D03*
D14*
X193000000Y-150000000D03*
D10*
X127900000Y-77500000D03*
X176100000Y-69880000D03*
X145620000Y-107980000D03*
X66620000Y-77480000D03*
X79380000Y-189240000D03*
X214460000Y-115580000D03*
X71760000Y-176540000D03*
X48840000Y-82560000D03*
X56520000Y-156220000D03*
X127900000Y-87660000D03*
X160860000Y-107980000D03*
X128020000Y-208360000D03*
X79380000Y-194320000D03*
X38680000Y-168920000D03*
X41220000Y-143520000D03*
X227160000Y-123200000D03*
X160860000Y-133380000D03*
X38680000Y-204480000D03*
X150700000Y-102900000D03*
X168480000Y-80040000D03*
X169240000Y-200740000D03*
X222080000Y-135900000D03*
X224620000Y-110500000D03*
X150700000Y-113060000D03*
X61540000Y-133360000D03*
X76780000Y-163840000D03*
X51380000Y-135900000D03*
X107700000Y-195660000D03*
X41220000Y-166380000D03*
X166700000Y-223600000D03*
X61540000Y-77480000D03*
X112780000Y-188040000D03*
X176100000Y-74960000D03*
X227160000Y-102880000D03*
X234780000Y-140980000D03*
X130560000Y-200740000D03*
X71700000Y-69860000D03*
X41220000Y-171460000D03*
X115200000Y-110520000D03*
X153240000Y-72420000D03*
X48840000Y-130820000D03*
X41220000Y-85100000D03*
X120280000Y-110520000D03*
X48900000Y-176540000D03*
X209380000Y-80020000D03*
X178700000Y-102900000D03*
X56460000Y-113040000D03*
X140540000Y-97820000D03*
X127900000Y-135920000D03*
X150700000Y-69880000D03*
X71760000Y-196860000D03*
D11*
X204320000Y-61150000D03*
D12*
X205620000Y-61150000D03*
D10*
X135460000Y-97820000D03*
X53920000Y-80020000D03*
X148160000Y-141000000D03*
X53980000Y-179080000D03*
X38680000Y-199400000D03*
X199220000Y-80020000D03*
X140600000Y-105440000D03*
X76840000Y-194320000D03*
X155780000Y-128300000D03*
X156540000Y-190580000D03*
X204300000Y-110500000D03*
X179400000Y-208360000D03*
X76780000Y-158760000D03*
X46300000Y-140980000D03*
X97540000Y-200740000D03*
X153240000Y-80040000D03*
X79320000Y-174000000D03*
X209380000Y-123200000D03*
X199220000Y-138440000D03*
X160860000Y-128300000D03*
X204300000Y-69860000D03*
X155780000Y-69880000D03*
X209380000Y-87640000D03*
X174320000Y-210900000D03*
X140540000Y-87660000D03*
D11*
X103860000Y-179150000D03*
D12*
X105160000Y-179150000D03*
D10*
X214460000Y-82560000D03*
X76780000Y-85100000D03*
X105040000Y-143540000D03*
X204300000Y-140980000D03*
X100080000Y-215980000D03*
X135460000Y-69880000D03*
X194640000Y-188040000D03*
X127900000Y-130840000D03*
X71760000Y-219720000D03*
X41220000Y-196860000D03*
X153240000Y-105440000D03*
X224620000Y-143520000D03*
X125360000Y-74960000D03*
X46300000Y-87640000D03*
X211920000Y-95260000D03*
X176100000Y-110520000D03*
X79320000Y-95260000D03*
X79320000Y-74940000D03*
X46360000Y-171460000D03*
X130440000Y-102900000D03*
X168480000Y-72420000D03*
X237320000Y-138440000D03*
X155780000Y-133380000D03*
X166700000Y-205820000D03*
X196680000Y-123200000D03*
X168480000Y-130840000D03*
X71700000Y-130820000D03*
X107580000Y-69880000D03*
X56520000Y-219720000D03*
X110120000Y-110520000D03*
X163400000Y-107980000D03*
X107700000Y-188040000D03*
X120280000Y-125760000D03*
X61600000Y-161300000D03*
X145620000Y-85120000D03*
X125360000Y-100360000D03*
X76780000Y-110500000D03*
X46360000Y-161300000D03*
X138000000Y-110520000D03*
X222080000Y-105420000D03*
X125360000Y-77500000D03*
X79380000Y-102880000D03*
X112660000Y-102900000D03*
X206840000Y-133360000D03*
X165940000Y-80040000D03*
X69220000Y-176540000D03*
X130440000Y-85120000D03*
X229700000Y-100340000D03*
X209380000Y-110500000D03*
X105040000Y-100360000D03*
X56520000Y-158760000D03*
X155780000Y-115600000D03*
X112660000Y-77500000D03*
X53980000Y-158760000D03*
X135640000Y-221060000D03*
X97540000Y-215980000D03*
X41220000Y-123200000D03*
X107580000Y-125760000D03*
X110120000Y-143540000D03*
X107700000Y-205820000D03*
X234780000Y-135900000D03*
X69160000Y-110500000D03*
X222080000Y-110500000D03*
X138180000Y-221060000D03*
X46360000Y-191780000D03*
X38680000Y-95260000D03*
X115200000Y-141000000D03*
X148160000Y-130840000D03*
X168480000Y-69880000D03*
X138180000Y-193120000D03*
X48840000Y-113040000D03*
X71700000Y-113040000D03*
X127900000Y-110520000D03*
X155780000Y-74960000D03*
D15*
X199220000Y-106070000D03*
D16*
X199220000Y-104770000D03*
D13*
X142000000Y-230000000D03*
D14*
X142000000Y-230000000D03*
D10*
X66680000Y-158760000D03*
X234780000Y-120660000D03*
X148160000Y-90200000D03*
X145620000Y-69880000D03*
X46300000Y-95260000D03*
X171780000Y-198200000D03*
X71760000Y-217180000D03*
X211920000Y-87640000D03*
X51380000Y-125740000D03*
X135520000Y-107980000D03*
X148160000Y-143540000D03*
X38680000Y-163840000D03*
X234780000Y-118120000D03*
X159080000Y-203280000D03*
X48840000Y-120660000D03*
X156540000Y-215980000D03*
X64080000Y-140980000D03*
X99960000Y-102900000D03*
X120280000Y-123220000D03*
X51380000Y-123200000D03*
X115200000Y-113060000D03*
X160860000Y-143540000D03*
X150700000Y-130840000D03*
X128020000Y-205820000D03*
X181940000Y-205820000D03*
X237320000Y-97800000D03*
X97540000Y-190580000D03*
X155780000Y-123220000D03*
X227160000Y-69860000D03*
X110120000Y-141000000D03*
X51380000Y-115580000D03*
X122820000Y-82580000D03*
X120280000Y-115600000D03*
X61600000Y-181620000D03*
X229700000Y-125740000D03*
X110240000Y-200740000D03*
X64140000Y-176540000D03*
X178640000Y-90200000D03*
X41220000Y-90180000D03*
X194640000Y-223600000D03*
X135460000Y-92740000D03*
X153240000Y-120680000D03*
X155780000Y-130840000D03*
X97540000Y-195660000D03*
X222080000Y-107960000D03*
X53920000Y-135900000D03*
X163400000Y-80040000D03*
X237320000Y-113040000D03*
X178640000Y-113060000D03*
X187020000Y-208360000D03*
X51380000Y-77480000D03*
X48900000Y-199400000D03*
X127900000Y-80040000D03*
X176100000Y-133380000D03*
X138180000Y-190580000D03*
X171020000Y-72420000D03*
X61600000Y-191780000D03*
X234780000Y-115580000D03*
X197180000Y-190580000D03*
X48840000Y-80020000D03*
X56520000Y-214640000D03*
X38740000Y-107960000D03*
X99960000Y-95280000D03*
X48840000Y-105420000D03*
X127900000Y-82580000D03*
X38680000Y-153680000D03*
X194640000Y-198200000D03*
X56520000Y-171460000D03*
X199220000Y-110500000D03*
X169240000Y-208360000D03*
X38680000Y-138440000D03*
X97420000Y-120680000D03*
X125360000Y-69880000D03*
X112660000Y-143540000D03*
X199220000Y-72400000D03*
X110240000Y-208360000D03*
X61600000Y-151140000D03*
X53920000Y-120660000D03*
X130440000Y-115600000D03*
X155780000Y-107980000D03*
X112780000Y-200740000D03*
X79320000Y-209560000D03*
X150700000Y-80040000D03*
X38680000Y-186700000D03*
X107580000Y-115600000D03*
X41220000Y-130820000D03*
X125360000Y-113060000D03*
X71760000Y-153680000D03*
X168480000Y-77500000D03*
X41220000Y-128280000D03*
X229700000Y-69860000D03*
X125360000Y-105440000D03*
X79320000Y-110500000D03*
X127900000Y-100360000D03*
X199220000Y-92720000D03*
X79320000Y-214640000D03*
X204300000Y-100340000D03*
X41220000Y-100340000D03*
X61600000Y-163840000D03*
X38740000Y-189240000D03*
X199220000Y-82560000D03*
X168480000Y-125760000D03*
X237320000Y-74940000D03*
X189560000Y-190580000D03*
X178640000Y-143540000D03*
X115320000Y-208360000D03*
X214460000Y-97800000D03*
X61600000Y-196860000D03*
X100080000Y-213440000D03*
X120280000Y-133380000D03*
X115320000Y-205820000D03*
X122940000Y-213440000D03*
X128020000Y-218520000D03*
X227160000Y-87640000D03*
X138000000Y-128300000D03*
X156540000Y-195660000D03*
X135640000Y-193120000D03*
X204300000Y-128280000D03*
X48840000Y-74940000D03*
X38680000Y-90180000D03*
X53920000Y-77480000D03*
X227160000Y-128280000D03*
X110240000Y-190580000D03*
X169240000Y-193120000D03*
X168480000Y-135920000D03*
X219540000Y-110500000D03*
X178640000Y-110520000D03*
X125360000Y-138460000D03*
X48900000Y-186700000D03*
X64080000Y-82560000D03*
X105160000Y-205820000D03*
X97420000Y-115600000D03*
X125360000Y-130840000D03*
X187020000Y-205820000D03*
X171020000Y-135920000D03*
X71760000Y-181620000D03*
D11*
X45710000Y-226070000D03*
D12*
X47010000Y-226070000D03*
D10*
X79320000Y-90180000D03*
X76780000Y-130820000D03*
X148160000Y-133380000D03*
X125360000Y-133380000D03*
X138180000Y-200740000D03*
X148160000Y-110520000D03*
X97420000Y-80040000D03*
X214460000Y-123200000D03*
X76840000Y-102880000D03*
X155780000Y-100360000D03*
X176100000Y-143540000D03*
X79320000Y-217180000D03*
X122820000Y-141000000D03*
X168480000Y-113060000D03*
X120280000Y-143540000D03*
X38680000Y-196860000D03*
X56520000Y-181620000D03*
X120400000Y-193120000D03*
X122820000Y-115600000D03*
X237320000Y-143520000D03*
X110120000Y-74960000D03*
X150700000Y-138460000D03*
X150700000Y-72420000D03*
X145620000Y-125760000D03*
X69220000Y-207020000D03*
X110120000Y-138460000D03*
X196680000Y-80020000D03*
X71700000Y-97800000D03*
X234780000Y-85100000D03*
X115320000Y-218520000D03*
X135460000Y-85120000D03*
X178640000Y-135920000D03*
D15*
X194140000Y-106070000D03*
D16*
X194140000Y-104770000D03*
D10*
X115320000Y-193120000D03*
X122820000Y-133380000D03*
X69160000Y-128280000D03*
X150700000Y-143540000D03*
X135520000Y-105440000D03*
X155780000Y-135920000D03*
X125480000Y-205820000D03*
X127900000Y-138460000D03*
X48900000Y-214640000D03*
D17*
X139300000Y-151000000D03*
D18*
X138000000Y-151000000D03*
D19*
X136700000Y-151000000D03*
D10*
X76840000Y-191780000D03*
X194640000Y-195660000D03*
X79320000Y-85100000D03*
X222080000Y-102880000D03*
X53980000Y-199400000D03*
X56520000Y-199400000D03*
X153240000Y-102900000D03*
X229700000Y-135900000D03*
X171780000Y-205820000D03*
X69220000Y-217180000D03*
X160860000Y-105440000D03*
X115200000Y-80040000D03*
X64080000Y-95260000D03*
X160860000Y-118140000D03*
X166700000Y-203280000D03*
X53920000Y-92720000D03*
X64140000Y-184160000D03*
X120280000Y-100360000D03*
X181940000Y-203280000D03*
X171020000Y-128300000D03*
X165940000Y-120680000D03*
X115200000Y-72420000D03*
X115200000Y-143540000D03*
X224620000Y-77480000D03*
X120280000Y-82580000D03*
X61600000Y-219720000D03*
X138000000Y-133380000D03*
X41220000Y-135900000D03*
X76780000Y-80020000D03*
X130440000Y-74960000D03*
X206840000Y-115580000D03*
X64080000Y-118120000D03*
X38680000Y-143520000D03*
X115200000Y-133380000D03*
X189560000Y-188040000D03*
X150700000Y-90200000D03*
X115200000Y-118140000D03*
X160860000Y-85120000D03*
X219540000Y-118120000D03*
D15*
X234780000Y-106070000D03*
D16*
X234780000Y-104770000D03*
D10*
X105040000Y-72420000D03*
X130560000Y-188040000D03*
X211920000Y-107960000D03*
X174320000Y-218520000D03*
X163400000Y-135920000D03*
X61600000Y-204480000D03*
X179400000Y-210900000D03*
X199220000Y-133360000D03*
X237320000Y-95260000D03*
X122820000Y-135920000D03*
X150700000Y-105440000D03*
D11*
X45710000Y-229880000D03*
D12*
X47010000Y-229880000D03*
D10*
X115200000Y-138460000D03*
X38680000Y-118120000D03*
X176160000Y-102900000D03*
X97420000Y-135920000D03*
X179400000Y-218520000D03*
X234780000Y-125740000D03*
X79320000Y-207020000D03*
X178640000Y-92740000D03*
X120280000Y-118140000D03*
X178640000Y-130840000D03*
X206840000Y-113040000D03*
X219540000Y-97800000D03*
X145620000Y-77500000D03*
X135460000Y-141000000D03*
X234780000Y-77480000D03*
X71700000Y-87640000D03*
X76780000Y-161300000D03*
X46360000Y-168920000D03*
X138180000Y-203280000D03*
X171020000Y-82580000D03*
X130560000Y-210900000D03*
X122940000Y-195660000D03*
X178640000Y-133380000D03*
X38680000Y-158760000D03*
X107700000Y-218520000D03*
X181940000Y-223600000D03*
X76780000Y-184160000D03*
X214460000Y-87640000D03*
X197180000Y-195660000D03*
X196680000Y-77480000D03*
X99960000Y-77500000D03*
X171780000Y-188040000D03*
X227160000Y-110500000D03*
X61540000Y-100340000D03*
X150700000Y-115600000D03*
X214460000Y-143520000D03*
X66620000Y-128280000D03*
X76840000Y-189240000D03*
X46360000Y-199400000D03*
X153240000Y-77500000D03*
X112660000Y-125760000D03*
X130560000Y-195660000D03*
X189560000Y-200740000D03*
X199220000Y-130820000D03*
X160860000Y-125760000D03*
X176160000Y-105440000D03*
X171020000Y-100360000D03*
X130440000Y-80040000D03*
X41220000Y-219720000D03*
X64140000Y-219720000D03*
X107700000Y-223600000D03*
X79320000Y-176540000D03*
X209380000Y-125740000D03*
X194640000Y-203280000D03*
X79320000Y-80020000D03*
X138000000Y-118140000D03*
X194640000Y-218520000D03*
X66680000Y-176540000D03*
X176160000Y-107980000D03*
X112660000Y-90200000D03*
X64080000Y-107960000D03*
X41220000Y-199400000D03*
X99960000Y-135920000D03*
X140540000Y-80040000D03*
X196680000Y-110500000D03*
X115200000Y-85120000D03*
X227160000Y-82560000D03*
X51380000Y-72400000D03*
X148160000Y-118140000D03*
X66680000Y-171460000D03*
X148160000Y-82580000D03*
X140540000Y-128300000D03*
X64140000Y-181620000D03*
X56520000Y-153680000D03*
X76780000Y-120660000D03*
X165940000Y-72420000D03*
X105040000Y-74960000D03*
X211920000Y-133360000D03*
X196680000Y-143520000D03*
X110240000Y-195660000D03*
X112660000Y-95280000D03*
X196680000Y-90180000D03*
X219540000Y-135900000D03*
X38680000Y-133360000D03*
X100080000Y-210900000D03*
X229700000Y-143520000D03*
X41220000Y-217180000D03*
X155780000Y-110520000D03*
X71700000Y-82560000D03*
X178640000Y-141000000D03*
X214460000Y-77480000D03*
X214460000Y-74940000D03*
X206840000Y-87640000D03*
X135460000Y-87660000D03*
X227160000Y-72400000D03*
X79320000Y-72400000D03*
X66680000Y-189240000D03*
X120280000Y-77500000D03*
X130440000Y-123220000D03*
X64080000Y-74940000D03*
X153240000Y-69880000D03*
X166700000Y-198200000D03*
X125480000Y-215980000D03*
X224620000Y-133360000D03*
X110240000Y-210900000D03*
X145620000Y-113060000D03*
X187020000Y-218520000D03*
X66620000Y-92720000D03*
X127900000Y-85120000D03*
X214460000Y-107960000D03*
X71700000Y-102880000D03*
X166700000Y-195660000D03*
X165940000Y-128300000D03*
X46300000Y-77480000D03*
X204300000Y-105420000D03*
X206840000Y-130820000D03*
X159080000Y-190580000D03*
X135460000Y-115600000D03*
X211920000Y-92720000D03*
X130440000Y-141000000D03*
X127900000Y-141000000D03*
X69160000Y-85100000D03*
X234780000Y-95260000D03*
X69160000Y-125740000D03*
X38680000Y-212100000D03*
X69160000Y-80020000D03*
X196680000Y-133360000D03*
X105160000Y-195660000D03*
X138180000Y-210900000D03*
X76780000Y-123200000D03*
X174320000Y-188040000D03*
X71700000Y-135900000D03*
X206840000Y-69860000D03*
X181940000Y-210900000D03*
X61600000Y-217180000D03*
X229700000Y-138440000D03*
X204300000Y-118120000D03*
X197180000Y-210900000D03*
X110120000Y-135920000D03*
X105040000Y-120680000D03*
X105040000Y-123220000D03*
X130440000Y-107980000D03*
X222080000Y-77480000D03*
X153240000Y-128300000D03*
X148160000Y-128300000D03*
X219540000Y-87640000D03*
X56520000Y-176540000D03*
X176100000Y-113060000D03*
X171020000Y-92740000D03*
X140540000Y-74960000D03*
X176100000Y-87660000D03*
X46300000Y-125740000D03*
X179400000Y-198200000D03*
X56460000Y-87640000D03*
X105040000Y-105440000D03*
X69220000Y-196860000D03*
X99960000Y-138460000D03*
X79320000Y-168920000D03*
X187020000Y-223600000D03*
X171020000Y-110520000D03*
X196680000Y-113040000D03*
X56460000Y-102880000D03*
X38680000Y-85100000D03*
X138000000Y-135920000D03*
X135640000Y-208360000D03*
X222080000Y-85100000D03*
X61540000Y-102880000D03*
X97420000Y-77500000D03*
X79380000Y-107960000D03*
X163400000Y-72420000D03*
D11*
X162860000Y-179150000D03*
D12*
X164160000Y-179150000D03*
D10*
X135460000Y-120680000D03*
X53980000Y-148600000D03*
X53920000Y-140980000D03*
X171780000Y-213440000D03*
X165940000Y-77500000D03*
X130440000Y-138460000D03*
X46360000Y-186700000D03*
X209380000Y-113040000D03*
X224620000Y-87640000D03*
X168480000Y-115600000D03*
X56520000Y-186700000D03*
X148160000Y-120680000D03*
X48900000Y-219720000D03*
X138000000Y-97820000D03*
X165940000Y-90200000D03*
X76780000Y-171460000D03*
X178640000Y-80040000D03*
X219540000Y-69860000D03*
X165940000Y-92740000D03*
X115200000Y-87660000D03*
X110120000Y-87660000D03*
X71700000Y-128280000D03*
X174320000Y-195660000D03*
X171020000Y-105440000D03*
X69160000Y-92720000D03*
X122820000Y-125760000D03*
X61540000Y-110500000D03*
X53980000Y-156220000D03*
X64140000Y-209560000D03*
X110120000Y-97820000D03*
X222080000Y-97800000D03*
X165940000Y-82580000D03*
X46360000Y-156220000D03*
X115200000Y-105440000D03*
X115200000Y-92740000D03*
X38680000Y-214640000D03*
X76780000Y-95260000D03*
X48840000Y-140980000D03*
X53920000Y-125740000D03*
X145620000Y-123220000D03*
X66620000Y-107960000D03*
X148160000Y-95280000D03*
X163400000Y-128300000D03*
X159080000Y-198200000D03*
X107580000Y-74960000D03*
X156540000Y-193120000D03*
X130440000Y-82580000D03*
X209380000Y-82560000D03*
X105160000Y-223600000D03*
X110120000Y-85120000D03*
X51380000Y-102880000D03*
X178700000Y-105440000D03*
X51380000Y-113040000D03*
X197180000Y-200740000D03*
X187020000Y-198200000D03*
X234780000Y-130820000D03*
X61600000Y-189240000D03*
X69220000Y-163840000D03*
X148160000Y-77500000D03*
X99960000Y-128300000D03*
X159080000Y-193120000D03*
X138000000Y-141000000D03*
X53920000Y-90180000D03*
X127900000Y-90200000D03*
X48900000Y-217180000D03*
X41220000Y-97800000D03*
X153240000Y-85120000D03*
X66680000Y-217180000D03*
X105040000Y-130840000D03*
X130440000Y-90200000D03*
X66680000Y-184160000D03*
X100080000Y-208360000D03*
X41280000Y-191780000D03*
X138000000Y-95280000D03*
X48900000Y-158760000D03*
X211920000Y-69860000D03*
X79320000Y-153680000D03*
X179400000Y-190580000D03*
X130560000Y-190580000D03*
X224620000Y-72400000D03*
X38680000Y-77480000D03*
X234780000Y-90180000D03*
X79320000Y-128280000D03*
X160860000Y-102900000D03*
X135640000Y-203280000D03*
X155780000Y-85120000D03*
X112780000Y-203280000D03*
X56460000Y-133360000D03*
X156540000Y-205820000D03*
X112660000Y-87660000D03*
X53920000Y-133360000D03*
X171020000Y-118140000D03*
X189560000Y-221060000D03*
X178640000Y-125760000D03*
X64140000Y-146060000D03*
X64140000Y-196860000D03*
X76780000Y-204480000D03*
X53980000Y-217180000D03*
X76780000Y-217180000D03*
X211920000Y-72400000D03*
X76780000Y-82560000D03*
X41220000Y-214640000D03*
X163400000Y-143540000D03*
X100080000Y-203280000D03*
X56460000Y-90180000D03*
X211920000Y-80020000D03*
X135460000Y-82580000D03*
X171780000Y-208360000D03*
X115320000Y-188040000D03*
X214460000Y-105420000D03*
X171020000Y-123220000D03*
X128020000Y-215980000D03*
D13*
X241000000Y-150000000D03*
D14*
X241000000Y-150000000D03*
D10*
X69160000Y-97800000D03*
X219540000Y-130820000D03*
X130560000Y-198200000D03*
X69160000Y-113040000D03*
X51440000Y-176540000D03*
X135460000Y-135920000D03*
X115320000Y-215980000D03*
X196680000Y-140980000D03*
X222080000Y-143520000D03*
X165940000Y-133380000D03*
X56520000Y-179080000D03*
X56520000Y-207020000D03*
X219540000Y-125740000D03*
X69160000Y-135900000D03*
X110240000Y-193120000D03*
D15*
X41280000Y-149250000D03*
D16*
X41280000Y-147950000D03*
D10*
X122820000Y-120680000D03*
X178640000Y-82580000D03*
X153240000Y-133380000D03*
X130440000Y-133380000D03*
X79320000Y-123200000D03*
X153240000Y-125760000D03*
X163400000Y-85120000D03*
X51380000Y-105420000D03*
X120400000Y-198200000D03*
X168480000Y-92740000D03*
X51380000Y-100340000D03*
X155780000Y-143540000D03*
X127900000Y-95280000D03*
X71700000Y-125740000D03*
X125360000Y-92740000D03*
X100080000Y-205820000D03*
X145620000Y-105440000D03*
X38680000Y-166380000D03*
X227160000Y-140980000D03*
X168480000Y-123220000D03*
X138000000Y-143540000D03*
X122820000Y-97820000D03*
X120280000Y-69880000D03*
X130560000Y-221060000D03*
X159080000Y-215980000D03*
X224620000Y-69860000D03*
X61600000Y-168920000D03*
X66620000Y-95260000D03*
X222080000Y-100340000D03*
X112660000Y-123220000D03*
X69160000Y-74940000D03*
X112780000Y-221060000D03*
X130440000Y-92740000D03*
X97540000Y-193120000D03*
X127900000Y-102900000D03*
X66620000Y-82560000D03*
X234780000Y-82560000D03*
X110120000Y-123220000D03*
X53920000Y-123200000D03*
X79320000Y-69860000D03*
X229700000Y-95260000D03*
X184480000Y-208360000D03*
X71700000Y-120660000D03*
X41280000Y-102880000D03*
X69160000Y-82560000D03*
X163400000Y-123220000D03*
X148160000Y-135920000D03*
X148160000Y-102900000D03*
X71760000Y-201940000D03*
D11*
X204970000Y-152590000D03*
D12*
X206270000Y-152590000D03*
D10*
X79320000Y-82560000D03*
X79320000Y-199400000D03*
X214460000Y-133360000D03*
X209380000Y-85100000D03*
X234780000Y-97800000D03*
X153240000Y-74960000D03*
X127900000Y-115600000D03*
X148160000Y-97820000D03*
X171020000Y-130840000D03*
X227160000Y-113040000D03*
X209380000Y-140980000D03*
X125360000Y-80040000D03*
X105040000Y-85120000D03*
X76780000Y-138440000D03*
X97420000Y-141000000D03*
X79320000Y-77480000D03*
X211920000Y-118120000D03*
X219540000Y-140980000D03*
X100080000Y-190580000D03*
X61540000Y-97800000D03*
X38680000Y-219720000D03*
X105160000Y-213440000D03*
X112780000Y-218520000D03*
X51440000Y-163840000D03*
X179400000Y-200740000D03*
X46360000Y-148600000D03*
X179400000Y-205820000D03*
X46360000Y-153680000D03*
X66680000Y-219720000D03*
X222080000Y-95260000D03*
X219540000Y-115580000D03*
X199220000Y-95260000D03*
X127900000Y-125760000D03*
X97420000Y-97820000D03*
X204300000Y-113040000D03*
X112660000Y-110520000D03*
X64080000Y-138440000D03*
X53980000Y-166380000D03*
X48840000Y-72400000D03*
X48900000Y-166380000D03*
X135640000Y-215980000D03*
X61600000Y-212100000D03*
X181940000Y-213440000D03*
X187020000Y-203280000D03*
X115320000Y-213440000D03*
X99960000Y-100360000D03*
X120400000Y-200740000D03*
X56520000Y-151140000D03*
X38680000Y-69860000D03*
X69220000Y-146060000D03*
X122940000Y-188040000D03*
X61540000Y-90180000D03*
X64140000Y-156220000D03*
X138000000Y-123220000D03*
X105040000Y-115600000D03*
X169240000Y-205820000D03*
X224620000Y-82560000D03*
X51440000Y-171460000D03*
X76840000Y-107960000D03*
X176100000Y-77500000D03*
X112660000Y-92740000D03*
X128020000Y-213440000D03*
X138000000Y-69880000D03*
X64140000Y-158760000D03*
X227160000Y-95260000D03*
X189560000Y-210900000D03*
X140540000Y-110520000D03*
X41220000Y-153680000D03*
X69220000Y-151140000D03*
X66620000Y-123200000D03*
X184480000Y-190580000D03*
X53980000Y-219720000D03*
X76780000Y-179080000D03*
X69160000Y-123200000D03*
X163400000Y-97820000D03*
X38740000Y-194320000D03*
X224620000Y-102880000D03*
X174320000Y-198200000D03*
X69220000Y-212100000D03*
X71760000Y-204480000D03*
X150700000Y-107980000D03*
X51440000Y-156220000D03*
X64140000Y-161300000D03*
X140540000Y-143540000D03*
X112780000Y-210900000D03*
X71700000Y-140980000D03*
X97420000Y-90200000D03*
X38680000Y-74940000D03*
X97540000Y-205820000D03*
X76780000Y-186700000D03*
X130560000Y-203280000D03*
X110120000Y-115600000D03*
X229700000Y-87640000D03*
X41220000Y-118120000D03*
X159080000Y-210900000D03*
X112660000Y-69880000D03*
X122820000Y-130840000D03*
X184480000Y-203280000D03*
X176100000Y-123220000D03*
X189560000Y-195660000D03*
X135460000Y-80040000D03*
X46360000Y-176540000D03*
X145620000Y-80040000D03*
X164160000Y-198200000D03*
X71700000Y-143520000D03*
X138000000Y-115600000D03*
X206840000Y-95260000D03*
X66680000Y-153680000D03*
X164160000Y-208360000D03*
X76780000Y-176540000D03*
X176100000Y-120680000D03*
X46360000Y-174000000D03*
X153240000Y-138460000D03*
X110120000Y-77500000D03*
X46300000Y-105420000D03*
X48900000Y-161300000D03*
X204300000Y-85100000D03*
X38680000Y-171460000D03*
X120280000Y-92740000D03*
X48900000Y-196860000D03*
X148160000Y-80040000D03*
X66680000Y-156220000D03*
X194640000Y-193120000D03*
X105040000Y-92740000D03*
X130440000Y-95280000D03*
X140540000Y-130840000D03*
X209380000Y-133360000D03*
X138000000Y-130840000D03*
X219540000Y-74940000D03*
X159080000Y-208360000D03*
X46360000Y-212100000D03*
X209380000Y-92720000D03*
X66620000Y-118120000D03*
X48840000Y-100340000D03*
X71760000Y-184160000D03*
X209380000Y-128280000D03*
X61540000Y-128280000D03*
X163400000Y-138460000D03*
X69160000Y-100340000D03*
X128020000Y-188040000D03*
X130440000Y-143540000D03*
X165940000Y-141000000D03*
X46300000Y-100340000D03*
X206840000Y-74940000D03*
X224620000Y-118120000D03*
X130440000Y-120680000D03*
X160860000Y-113060000D03*
X79320000Y-163840000D03*
X171020000Y-90200000D03*
X51380000Y-138440000D03*
X53980000Y-189240000D03*
X160860000Y-100360000D03*
X97420000Y-143540000D03*
X71760000Y-199400000D03*
X140600000Y-107980000D03*
X206840000Y-128280000D03*
X187020000Y-213440000D03*
X227160000Y-125740000D03*
X61600000Y-199400000D03*
X38680000Y-156220000D03*
X76780000Y-77480000D03*
X53980000Y-196860000D03*
X79320000Y-181620000D03*
X214460000Y-118120000D03*
X97420000Y-82580000D03*
X64080000Y-97800000D03*
X66680000Y-151140000D03*
X97540000Y-198200000D03*
X234780000Y-138440000D03*
X64140000Y-151140000D03*
X97420000Y-125760000D03*
X76780000Y-212100000D03*
X46360000Y-194320000D03*
X159080000Y-195660000D03*
X51440000Y-191780000D03*
X174320000Y-223600000D03*
X61600000Y-194320000D03*
X53920000Y-130820000D03*
X107580000Y-143540000D03*
X105040000Y-69880000D03*
X51380000Y-110500000D03*
X41220000Y-184160000D03*
X125360000Y-123220000D03*
X229700000Y-97800000D03*
X53920000Y-138440000D03*
X53920000Y-107960000D03*
X112660000Y-100360000D03*
X56520000Y-174000000D03*
X112780000Y-208360000D03*
X135460000Y-77500000D03*
X204300000Y-97800000D03*
X66680000Y-194320000D03*
X53920000Y-95260000D03*
X115320000Y-195660000D03*
X160860000Y-90200000D03*
X48840000Y-125740000D03*
X79320000Y-140980000D03*
X79320000Y-166380000D03*
X140540000Y-138460000D03*
X171020000Y-138460000D03*
X79320000Y-130820000D03*
X66620000Y-130820000D03*
X206840000Y-100340000D03*
X56520000Y-163840000D03*
X51380000Y-130820000D03*
X110240000Y-203280000D03*
X51440000Y-209560000D03*
X112660000Y-133380000D03*
X120280000Y-85120000D03*
X107580000Y-77500000D03*
X64140000Y-199400000D03*
X135460000Y-123220000D03*
X222080000Y-90180000D03*
X46360000Y-217180000D03*
X61540000Y-82560000D03*
X189560000Y-218520000D03*
X171020000Y-80040000D03*
X153240000Y-95280000D03*
X41220000Y-186700000D03*
X171020000Y-143540000D03*
X51380000Y-90180000D03*
X128020000Y-203280000D03*
X46300000Y-118120000D03*
X107700000Y-221060000D03*
X171780000Y-200740000D03*
X69220000Y-158760000D03*
X120280000Y-135920000D03*
X176100000Y-118140000D03*
X176100000Y-141000000D03*
X165940000Y-102900000D03*
X204300000Y-95260000D03*
X125360000Y-82580000D03*
X66680000Y-209560000D03*
X150700000Y-110520000D03*
X176100000Y-135920000D03*
X38680000Y-72400000D03*
X211920000Y-90180000D03*
X66680000Y-199400000D03*
X130440000Y-77500000D03*
X107580000Y-118140000D03*
X66680000Y-191780000D03*
X71700000Y-115580000D03*
X199220000Y-128280000D03*
X187020000Y-210900000D03*
X56460000Y-138440000D03*
X150700000Y-125760000D03*
X164160000Y-200740000D03*
X150700000Y-74960000D03*
X64140000Y-194320000D03*
X120400000Y-218520000D03*
X171020000Y-113060000D03*
X38680000Y-176540000D03*
X99960000Y-123220000D03*
X38680000Y-135900000D03*
X110120000Y-82580000D03*
X64080000Y-90180000D03*
X140540000Y-72420000D03*
X156540000Y-203280000D03*
X53920000Y-102880000D03*
X122820000Y-69880000D03*
X206840000Y-107960000D03*
X135640000Y-205820000D03*
X53920000Y-143520000D03*
X156540000Y-208360000D03*
X234780000Y-100340000D03*
X237320000Y-115580000D03*
X107580000Y-133380000D03*
X97420000Y-138460000D03*
X227160000Y-105420000D03*
X64140000Y-153680000D03*
X122820000Y-113060000D03*
X48840000Y-128280000D03*
X41220000Y-80020000D03*
X107580000Y-141000000D03*
X219540000Y-92720000D03*
X76780000Y-166380000D03*
X209380000Y-105420000D03*
X145620000Y-82580000D03*
X97420000Y-85120000D03*
X234780000Y-113040000D03*
X138060000Y-107980000D03*
X222080000Y-123200000D03*
X165940000Y-143540000D03*
X227160000Y-85100000D03*
X115200000Y-102900000D03*
X61540000Y-135900000D03*
X46360000Y-201940000D03*
X120400000Y-188040000D03*
X145620000Y-143540000D03*
X71760000Y-161300000D03*
X61540000Y-115580000D03*
X110120000Y-100360000D03*
X160860000Y-69880000D03*
X160860000Y-141000000D03*
X53980000Y-194320000D03*
D14*
X94000000Y-150000000D03*
D13*
X94000000Y-150000000D03*
D10*
X76780000Y-90180000D03*
X214460000Y-125740000D03*
X160860000Y-82580000D03*
X64140000Y-207020000D03*
X110240000Y-205820000D03*
X97540000Y-188040000D03*
X160860000Y-115600000D03*
X69160000Y-120660000D03*
X169240000Y-195660000D03*
X115200000Y-107980000D03*
X204300000Y-120660000D03*
X122820000Y-77500000D03*
X115200000Y-125760000D03*
X125480000Y-208360000D03*
X164160000Y-188040000D03*
X164160000Y-205820000D03*
D15*
X36200000Y-149250000D03*
D16*
X36200000Y-147950000D03*
D10*
X209380000Y-90180000D03*
X160860000Y-72420000D03*
X122820000Y-143540000D03*
X51440000Y-189240000D03*
D13*
X200860000Y-169000000D03*
D14*
X200860000Y-169000000D03*
D10*
X53920000Y-85100000D03*
X112780000Y-215980000D03*
X97420000Y-100360000D03*
D14*
X182000000Y-150000000D03*
D13*
X182000000Y-150000000D03*
D10*
X105040000Y-97820000D03*
X168480000Y-133380000D03*
X107580000Y-107980000D03*
X234780000Y-110500000D03*
X181940000Y-190580000D03*
X51380000Y-87640000D03*
X66620000Y-72400000D03*
X71760000Y-156220000D03*
X46300000Y-92720000D03*
X176100000Y-130840000D03*
X155780000Y-97820000D03*
X53920000Y-74940000D03*
X148160000Y-92740000D03*
X61600000Y-207020000D03*
X99960000Y-87660000D03*
X125360000Y-143540000D03*
X148160000Y-113060000D03*
X171020000Y-87660000D03*
X163400000Y-141000000D03*
X53980000Y-181620000D03*
X171020000Y-77500000D03*
X150700000Y-92740000D03*
X110120000Y-128300000D03*
X145620000Y-118140000D03*
X38680000Y-140980000D03*
X125360000Y-97820000D03*
X122940000Y-203280000D03*
X41220000Y-92720000D03*
X122820000Y-102900000D03*
X48900000Y-181620000D03*
X110240000Y-198200000D03*
X156540000Y-200740000D03*
X99960000Y-143540000D03*
X41220000Y-204480000D03*
X140540000Y-123220000D03*
X51440000Y-207020000D03*
X71760000Y-146060000D03*
X204300000Y-115580000D03*
X156540000Y-213440000D03*
X168480000Y-95280000D03*
X199220000Y-115580000D03*
X46300000Y-97800000D03*
X127900000Y-118140000D03*
X48900000Y-209560000D03*
X79320000Y-196860000D03*
X209380000Y-74940000D03*
X41220000Y-140980000D03*
X227160000Y-100340000D03*
X219540000Y-85100000D03*
X138000000Y-120680000D03*
X196680000Y-115580000D03*
X71700000Y-123200000D03*
X76780000Y-72400000D03*
X56520000Y-191780000D03*
X120400000Y-195660000D03*
X112660000Y-72420000D03*
X71700000Y-74940000D03*
X206840000Y-118120000D03*
X71760000Y-174000000D03*
X120400000Y-213440000D03*
X46360000Y-166380000D03*
X168480000Y-107980000D03*
X66680000Y-146060000D03*
X38680000Y-217180000D03*
X71760000Y-194320000D03*
X179400000Y-213440000D03*
X79320000Y-171460000D03*
X140600000Y-102900000D03*
X69220000Y-189240000D03*
X107580000Y-100360000D03*
X51380000Y-133360000D03*
X61540000Y-80020000D03*
X76840000Y-105420000D03*
X135460000Y-74960000D03*
X122820000Y-95280000D03*
X128020000Y-195660000D03*
X189560000Y-208360000D03*
X145620000Y-100360000D03*
X56460000Y-118120000D03*
X178640000Y-123220000D03*
X110240000Y-223600000D03*
X160860000Y-123220000D03*
X66680000Y-196860000D03*
X145620000Y-74960000D03*
X184480000Y-193120000D03*
X61600000Y-209560000D03*
X56520000Y-189240000D03*
X237320000Y-72400000D03*
X229700000Y-133360000D03*
X107580000Y-72420000D03*
X69160000Y-130820000D03*
X110120000Y-130840000D03*
X224620000Y-90180000D03*
X99960000Y-80040000D03*
X176100000Y-82580000D03*
X69160000Y-138440000D03*
X155780000Y-113060000D03*
X194640000Y-208360000D03*
X64080000Y-110500000D03*
X48840000Y-135900000D03*
X56460000Y-85100000D03*
X174320000Y-205820000D03*
X97540000Y-221060000D03*
X214460000Y-120660000D03*
X148160000Y-123220000D03*
X224620000Y-123200000D03*
X105040000Y-135920000D03*
X66620000Y-102880000D03*
X76780000Y-153680000D03*
X150700000Y-120680000D03*
X227160000Y-130820000D03*
X171020000Y-74960000D03*
X199220000Y-113040000D03*
X187020000Y-188040000D03*
X41220000Y-212100000D03*
X222080000Y-115580000D03*
X145620000Y-141000000D03*
X168480000Y-100360000D03*
X79320000Y-161300000D03*
X66620000Y-133360000D03*
X56460000Y-123200000D03*
X53980000Y-176540000D03*
X222080000Y-74940000D03*
X125360000Y-90200000D03*
X168480000Y-74960000D03*
X145620000Y-128300000D03*
X61600000Y-174000000D03*
X120280000Y-97820000D03*
X227160000Y-97800000D03*
X41220000Y-209560000D03*
X51440000Y-181620000D03*
X112660000Y-128300000D03*
X237320000Y-125740000D03*
X155780000Y-105440000D03*
X71760000Y-158760000D03*
X171780000Y-203280000D03*
X61540000Y-69860000D03*
X99960000Y-105440000D03*
X107580000Y-92740000D03*
X97420000Y-87660000D03*
X110120000Y-72420000D03*
X229700000Y-118120000D03*
X150700000Y-77500000D03*
X53980000Y-161300000D03*
X125480000Y-223600000D03*
X163400000Y-87660000D03*
X219540000Y-72400000D03*
X105160000Y-198200000D03*
X69220000Y-148600000D03*
X115200000Y-90200000D03*
X66620000Y-110500000D03*
X56460000Y-92720000D03*
X38740000Y-105420000D03*
X184480000Y-198200000D03*
X76780000Y-214640000D03*
X51440000Y-201940000D03*
X48840000Y-107960000D03*
X204300000Y-87640000D03*
X206840000Y-125740000D03*
X46300000Y-74940000D03*
X181940000Y-188040000D03*
X140540000Y-77500000D03*
X163400000Y-90200000D03*
X76780000Y-113040000D03*
X153240000Y-135920000D03*
X155780000Y-95280000D03*
X171780000Y-193120000D03*
X178640000Y-74960000D03*
X178640000Y-85120000D03*
X120280000Y-90200000D03*
X160860000Y-92740000D03*
X197180000Y-208360000D03*
X79320000Y-158760000D03*
X48840000Y-95260000D03*
X41220000Y-156220000D03*
X214460000Y-92720000D03*
X206840000Y-92720000D03*
X224620000Y-128280000D03*
X120400000Y-208360000D03*
X38680000Y-179080000D03*
X125360000Y-141000000D03*
X51440000Y-153680000D03*
X48840000Y-85100000D03*
X41220000Y-179080000D03*
X79320000Y-120660000D03*
X71700000Y-107960000D03*
X125360000Y-95280000D03*
X105040000Y-102900000D03*
X138000000Y-125760000D03*
X199220000Y-87640000D03*
X156540000Y-210900000D03*
X112780000Y-223600000D03*
X178700000Y-107980000D03*
X130560000Y-215980000D03*
X164160000Y-213440000D03*
X110120000Y-90200000D03*
X165940000Y-118140000D03*
X222080000Y-140980000D03*
X145620000Y-115600000D03*
X196680000Y-85100000D03*
X51440000Y-217180000D03*
X135460000Y-110520000D03*
X160860000Y-138460000D03*
X127900000Y-113060000D03*
X163400000Y-82580000D03*
X214460000Y-69860000D03*
X171020000Y-85120000D03*
X178640000Y-120680000D03*
X209380000Y-143520000D03*
X79320000Y-97800000D03*
X46360000Y-214640000D03*
X160860000Y-135920000D03*
X56520000Y-161300000D03*
X196680000Y-130820000D03*
X140540000Y-92740000D03*
D13*
X241000000Y-51000000D03*
D14*
X241000000Y-51000000D03*
D10*
X176100000Y-85120000D03*
X46360000Y-151140000D03*
X199220000Y-69860000D03*
X38680000Y-125740000D03*
X48840000Y-118120000D03*
X178640000Y-128300000D03*
X79320000Y-113040000D03*
X120400000Y-210900000D03*
X160860000Y-120680000D03*
X107700000Y-190580000D03*
X196680000Y-92720000D03*
X97540000Y-213440000D03*
X184480000Y-213440000D03*
X206840000Y-77480000D03*
X51380000Y-92720000D03*
X211920000Y-113040000D03*
X41220000Y-207020000D03*
X46300000Y-120660000D03*
X122820000Y-123220000D03*
X224620000Y-138440000D03*
X219540000Y-113040000D03*
X41220000Y-181620000D03*
X76780000Y-125740000D03*
X53980000Y-186700000D03*
X237320000Y-87640000D03*
X48900000Y-148600000D03*
X48900000Y-174000000D03*
X69220000Y-219720000D03*
X64080000Y-113040000D03*
X64080000Y-135900000D03*
X61540000Y-140980000D03*
X79320000Y-135900000D03*
X135460000Y-95280000D03*
X69160000Y-107960000D03*
X112780000Y-190580000D03*
X122820000Y-80040000D03*
X164160000Y-193120000D03*
X71700000Y-110500000D03*
X56460000Y-130820000D03*
X105160000Y-188040000D03*
X112660000Y-130840000D03*
X41220000Y-158760000D03*
X222080000Y-87640000D03*
X41220000Y-77480000D03*
X46360000Y-184160000D03*
X51440000Y-174000000D03*
X48840000Y-87640000D03*
X166700000Y-200740000D03*
X53920000Y-87640000D03*
X196680000Y-120660000D03*
X138180000Y-218520000D03*
X128020000Y-190580000D03*
X46360000Y-209560000D03*
X178640000Y-69880000D03*
D20*
X81920000Y-147950000D03*
D21*
X81920000Y-149250000D03*
D10*
X61540000Y-74940000D03*
X196680000Y-135900000D03*
X166700000Y-188040000D03*
X48840000Y-102880000D03*
X107580000Y-113060000D03*
X61600000Y-158760000D03*
X224620000Y-74940000D03*
X69220000Y-179080000D03*
X79320000Y-201940000D03*
X79380000Y-191780000D03*
X224620000Y-140980000D03*
X155780000Y-138460000D03*
X163400000Y-95280000D03*
X176100000Y-72420000D03*
X46300000Y-80020000D03*
X107580000Y-130840000D03*
X41220000Y-174000000D03*
X71760000Y-207020000D03*
X51440000Y-179080000D03*
X53980000Y-204480000D03*
X107700000Y-210900000D03*
X69220000Y-194320000D03*
X56460000Y-105420000D03*
X51380000Y-82560000D03*
X127900000Y-143540000D03*
X48840000Y-69860000D03*
X110240000Y-213440000D03*
X56520000Y-168920000D03*
X64140000Y-166380000D03*
X171020000Y-95280000D03*
X229700000Y-82560000D03*
X229700000Y-123200000D03*
X199220000Y-85100000D03*
X53920000Y-97800000D03*
X130440000Y-118140000D03*
X107700000Y-193120000D03*
X140540000Y-85120000D03*
X138180000Y-205820000D03*
X61600000Y-156220000D03*
X122940000Y-200740000D03*
X76780000Y-168920000D03*
X130440000Y-87660000D03*
X79320000Y-186700000D03*
X197180000Y-221060000D03*
X100080000Y-221060000D03*
X130440000Y-110520000D03*
X41220000Y-82560000D03*
X229700000Y-74940000D03*
X178640000Y-87660000D03*
X64140000Y-174000000D03*
X197180000Y-215980000D03*
X227160000Y-80020000D03*
X194640000Y-190580000D03*
X211920000Y-135900000D03*
X76780000Y-87640000D03*
X66680000Y-168920000D03*
X165940000Y-110520000D03*
X199220000Y-120660000D03*
X38680000Y-161300000D03*
X156540000Y-223600000D03*
X79320000Y-179080000D03*
X69160000Y-69860000D03*
X56460000Y-120660000D03*
X110240000Y-221060000D03*
X115200000Y-77500000D03*
X237320000Y-85100000D03*
X164160000Y-215980000D03*
X53980000Y-168920000D03*
X140540000Y-120680000D03*
X187020000Y-200740000D03*
X197180000Y-223600000D03*
X211920000Y-97800000D03*
X204300000Y-130820000D03*
X140540000Y-95280000D03*
X155780000Y-120680000D03*
X155780000Y-141000000D03*
X107580000Y-123220000D03*
X99960000Y-130840000D03*
X122940000Y-210900000D03*
X140540000Y-82580000D03*
X61540000Y-92720000D03*
X237320000Y-123200000D03*
X222080000Y-69860000D03*
X122820000Y-138460000D03*
X140540000Y-100360000D03*
X99960000Y-118140000D03*
X125480000Y-198200000D03*
X171020000Y-107980000D03*
X79320000Y-143520000D03*
X120400000Y-223600000D03*
X115200000Y-120680000D03*
X204300000Y-123200000D03*
X211920000Y-143520000D03*
X168480000Y-90200000D03*
X227160000Y-118120000D03*
X189560000Y-198200000D03*
X125360000Y-118140000D03*
X224620000Y-120660000D03*
X204300000Y-107960000D03*
X120280000Y-105440000D03*
X97420000Y-72420000D03*
X181940000Y-198200000D03*
X69160000Y-105420000D03*
X61600000Y-171460000D03*
X155780000Y-102900000D03*
X56460000Y-140980000D03*
X107580000Y-90200000D03*
X76780000Y-199400000D03*
X99960000Y-110520000D03*
X171020000Y-102900000D03*
X122940000Y-205820000D03*
X69220000Y-184160000D03*
X176100000Y-95280000D03*
X127900000Y-72420000D03*
X165940000Y-100360000D03*
X61540000Y-138440000D03*
X179400000Y-215980000D03*
X169240000Y-203280000D03*
X138000000Y-85120000D03*
X125360000Y-128300000D03*
D11*
X162860000Y-182960000D03*
D12*
X164160000Y-182960000D03*
D10*
X234780000Y-123200000D03*
X46360000Y-146060000D03*
X46300000Y-123200000D03*
X178640000Y-97820000D03*
X237320000Y-140980000D03*
D20*
X76840000Y-147950000D03*
D21*
X76840000Y-149250000D03*
D10*
X38680000Y-181620000D03*
X122940000Y-198200000D03*
X71760000Y-179080000D03*
X79320000Y-184160000D03*
X224620000Y-130820000D03*
X145620000Y-102900000D03*
X46300000Y-138440000D03*
X122820000Y-110520000D03*
X122940000Y-190580000D03*
X171780000Y-215980000D03*
X97420000Y-107980000D03*
X99960000Y-107980000D03*
X56460000Y-97800000D03*
X163400000Y-110520000D03*
X148160000Y-87660000D03*
X112660000Y-80040000D03*
X122820000Y-128300000D03*
X234780000Y-133360000D03*
X196680000Y-125740000D03*
X99960000Y-74960000D03*
X135460000Y-100360000D03*
X148160000Y-72420000D03*
X51440000Y-196860000D03*
X110120000Y-105440000D03*
X153240000Y-141000000D03*
X171780000Y-218520000D03*
X99960000Y-141000000D03*
X51440000Y-168920000D03*
X107580000Y-82580000D03*
X222080000Y-80020000D03*
X145620000Y-97820000D03*
X125480000Y-190580000D03*
X160860000Y-97820000D03*
X115320000Y-210900000D03*
X130440000Y-130840000D03*
X138000000Y-90200000D03*
X165940000Y-135920000D03*
X229700000Y-120660000D03*
D13*
X201000000Y-230000000D03*
D14*
X201000000Y-230000000D03*
D10*
X165940000Y-85120000D03*
X79320000Y-212100000D03*
X155780000Y-82580000D03*
X138000000Y-113060000D03*
X211920000Y-138440000D03*
X64140000Y-163840000D03*
X204300000Y-125740000D03*
X165940000Y-125760000D03*
X122940000Y-208360000D03*
X66620000Y-143520000D03*
X110240000Y-188040000D03*
X181940000Y-193120000D03*
X237320000Y-120660000D03*
X214460000Y-113040000D03*
X197180000Y-203280000D03*
X51380000Y-140980000D03*
X145620000Y-72420000D03*
X56520000Y-184160000D03*
X61540000Y-85100000D03*
X120400000Y-215980000D03*
X61600000Y-153680000D03*
X110120000Y-102900000D03*
X164160000Y-195660000D03*
X169240000Y-215980000D03*
X211920000Y-105420000D03*
X53920000Y-105420000D03*
X64140000Y-171460000D03*
X204300000Y-92720000D03*
X38680000Y-209560000D03*
X76780000Y-207020000D03*
X51440000Y-158760000D03*
X120280000Y-130840000D03*
X66680000Y-212100000D03*
X227160000Y-74940000D03*
X219540000Y-133360000D03*
X169240000Y-210900000D03*
X53980000Y-214640000D03*
X120280000Y-74960000D03*
X79320000Y-100340000D03*
X206840000Y-72400000D03*
D14*
X94000000Y-51000000D03*
D13*
X94000000Y-51000000D03*
D10*
X64140000Y-201940000D03*
X184480000Y-188040000D03*
X64080000Y-100340000D03*
X128020000Y-221060000D03*
X53980000Y-174000000D03*
X69220000Y-204480000D03*
X71760000Y-186700000D03*
X51440000Y-199400000D03*
X69160000Y-115580000D03*
X138000000Y-77500000D03*
X224620000Y-85100000D03*
X112660000Y-105440000D03*
X135460000Y-113060000D03*
X51380000Y-118120000D03*
X115200000Y-128300000D03*
X112660000Y-138460000D03*
X127900000Y-120680000D03*
X51380000Y-80020000D03*
X64080000Y-80020000D03*
X135640000Y-200740000D03*
X120280000Y-141000000D03*
X211920000Y-82560000D03*
X222080000Y-72400000D03*
X46360000Y-163840000D03*
X48840000Y-123200000D03*
X222080000Y-118120000D03*
X100080000Y-198200000D03*
X56520000Y-201940000D03*
X163400000Y-113060000D03*
X222080000Y-128280000D03*
X164160000Y-190580000D03*
X199220000Y-90180000D03*
X125480000Y-193120000D03*
X222080000Y-138440000D03*
X97540000Y-223600000D03*
X227160000Y-138440000D03*
X51380000Y-128280000D03*
X148160000Y-100360000D03*
X69160000Y-143520000D03*
X227160000Y-92720000D03*
X206840000Y-138440000D03*
X51440000Y-148600000D03*
X168480000Y-138460000D03*
D11*
X204970000Y-148780000D03*
D12*
X206270000Y-148780000D03*
D10*
X48840000Y-77480000D03*
X171780000Y-223600000D03*
X61600000Y-146060000D03*
X48900000Y-201940000D03*
X71700000Y-100340000D03*
X38680000Y-128280000D03*
X61540000Y-72400000D03*
X66680000Y-148600000D03*
D13*
X141860000Y-169000000D03*
D14*
X141860000Y-169000000D03*
D10*
X199220000Y-143520000D03*
X115200000Y-95280000D03*
X99960000Y-69880000D03*
X64080000Y-69860000D03*
X237320000Y-110500000D03*
X61540000Y-118120000D03*
X51440000Y-166380000D03*
X107580000Y-80040000D03*
X71760000Y-189240000D03*
X105160000Y-203280000D03*
X115200000Y-74960000D03*
X135460000Y-128300000D03*
X56520000Y-194320000D03*
X163400000Y-115600000D03*
X135460000Y-133380000D03*
X150700000Y-87660000D03*
X105040000Y-133380000D03*
X97420000Y-130840000D03*
X204300000Y-80020000D03*
X199220000Y-123200000D03*
X122820000Y-85120000D03*
X206840000Y-143520000D03*
X69220000Y-209560000D03*
X164160000Y-223600000D03*
X165940000Y-107980000D03*
X138180000Y-223600000D03*
X112780000Y-193120000D03*
X64080000Y-128280000D03*
X46360000Y-158760000D03*
X168480000Y-102900000D03*
X160860000Y-130840000D03*
X64140000Y-186700000D03*
X125360000Y-115600000D03*
X214460000Y-140980000D03*
X224620000Y-105420000D03*
X48900000Y-194320000D03*
X38680000Y-100340000D03*
X99960000Y-115600000D03*
X135460000Y-118140000D03*
X53980000Y-191780000D03*
X219540000Y-120660000D03*
X38680000Y-201940000D03*
X56460000Y-143520000D03*
X159080000Y-200740000D03*
X229700000Y-140980000D03*
X66620000Y-74940000D03*
X64140000Y-148600000D03*
X229700000Y-92720000D03*
X79320000Y-156220000D03*
X99960000Y-113060000D03*
X211920000Y-110500000D03*
X164160000Y-218520000D03*
X41280000Y-189240000D03*
X127900000Y-92740000D03*
X174320000Y-215980000D03*
X171780000Y-210900000D03*
X171020000Y-120680000D03*
X206840000Y-97800000D03*
X222080000Y-125740000D03*
X79320000Y-204480000D03*
X128020000Y-200740000D03*
X41220000Y-110500000D03*
X211920000Y-128280000D03*
X41220000Y-69860000D03*
X46300000Y-135900000D03*
X135640000Y-223600000D03*
X56460000Y-125740000D03*
X234780000Y-72400000D03*
X138000000Y-82580000D03*
X176100000Y-115600000D03*
X174320000Y-193120000D03*
X71700000Y-133360000D03*
D11*
X204320000Y-64960000D03*
D12*
X205620000Y-64960000D03*
D10*
X219540000Y-102880000D03*
X135460000Y-130840000D03*
X61540000Y-130820000D03*
X140540000Y-69880000D03*
X107580000Y-97820000D03*
X46300000Y-128280000D03*
X76780000Y-100340000D03*
X196680000Y-118120000D03*
X163400000Y-77500000D03*
X107700000Y-203280000D03*
X145620000Y-95280000D03*
X69160000Y-77480000D03*
X145620000Y-135920000D03*
X178640000Y-72420000D03*
X112660000Y-113060000D03*
X79320000Y-138440000D03*
X194640000Y-200740000D03*
X150700000Y-128300000D03*
X69220000Y-214640000D03*
X48900000Y-189240000D03*
X46300000Y-113040000D03*
X79320000Y-125740000D03*
X53920000Y-72400000D03*
X179400000Y-195660000D03*
X64140000Y-204480000D03*
X105040000Y-107980000D03*
X204300000Y-82560000D03*
X171020000Y-133380000D03*
X168480000Y-82580000D03*
X125360000Y-135920000D03*
X61600000Y-179080000D03*
X169240000Y-190580000D03*
X206840000Y-90180000D03*
X176100000Y-100360000D03*
X135460000Y-90200000D03*
X211920000Y-140980000D03*
X38680000Y-120660000D03*
X130560000Y-223600000D03*
X187020000Y-195660000D03*
X66620000Y-140980000D03*
X105040000Y-87660000D03*
X138060000Y-102900000D03*
X209380000Y-135900000D03*
X184480000Y-215980000D03*
X69220000Y-199400000D03*
X97540000Y-203280000D03*
X194640000Y-221060000D03*
X128020000Y-223600000D03*
X69220000Y-161300000D03*
X46360000Y-207020000D03*
X214460000Y-72400000D03*
X222080000Y-120660000D03*
X79380000Y-105420000D03*
X115200000Y-123220000D03*
X51440000Y-186700000D03*
X178640000Y-138460000D03*
X53980000Y-153680000D03*
X135520000Y-102900000D03*
X51440000Y-214640000D03*
X159080000Y-221060000D03*
X115200000Y-100360000D03*
X219540000Y-123200000D03*
X130440000Y-72420000D03*
D11*
X45060000Y-64780000D03*
D12*
X46360000Y-64780000D03*
D10*
X69160000Y-102880000D03*
X46300000Y-82560000D03*
X189560000Y-205820000D03*
X184480000Y-200740000D03*
X197180000Y-198200000D03*
X166700000Y-210900000D03*
X160860000Y-87660000D03*
X66620000Y-105420000D03*
X145620000Y-133380000D03*
X224620000Y-113040000D03*
X155780000Y-90200000D03*
X120280000Y-138460000D03*
X163400000Y-69880000D03*
X56460000Y-95260000D03*
X46360000Y-219720000D03*
X64080000Y-92720000D03*
X97420000Y-92740000D03*
X209380000Y-69860000D03*
X48900000Y-151140000D03*
X237320000Y-100340000D03*
X222080000Y-130820000D03*
X69220000Y-153680000D03*
X69160000Y-90180000D03*
X53980000Y-201940000D03*
X38680000Y-115580000D03*
X229700000Y-115580000D03*
X140540000Y-135920000D03*
X148160000Y-138460000D03*
X127900000Y-97820000D03*
X71700000Y-118120000D03*
X71700000Y-85100000D03*
X222080000Y-92720000D03*
X53920000Y-115580000D03*
X138000000Y-72420000D03*
X122820000Y-90200000D03*
X48900000Y-179080000D03*
X160860000Y-95280000D03*
X187020000Y-221060000D03*
X168480000Y-118140000D03*
X148160000Y-115600000D03*
X130560000Y-213440000D03*
X48840000Y-92720000D03*
X64140000Y-217180000D03*
X76780000Y-201940000D03*
X125480000Y-188040000D03*
X66680000Y-181620000D03*
X204300000Y-74940000D03*
X120400000Y-203280000D03*
D13*
X35000000Y-229880000D03*
D14*
X35000000Y-229880000D03*
D10*
X153240000Y-100360000D03*
X135640000Y-195660000D03*
X125360000Y-72420000D03*
X48840000Y-143520000D03*
X41220000Y-95260000D03*
X209380000Y-138440000D03*
X97420000Y-95280000D03*
X66620000Y-87640000D03*
X48840000Y-97800000D03*
X219540000Y-82560000D03*
X155780000Y-77500000D03*
X181940000Y-200740000D03*
X61600000Y-186700000D03*
X204300000Y-135900000D03*
X107580000Y-87660000D03*
X206840000Y-82560000D03*
X206840000Y-105420000D03*
X174320000Y-213440000D03*
X76780000Y-143520000D03*
X71760000Y-163840000D03*
X166700000Y-218520000D03*
X115320000Y-190580000D03*
X178640000Y-100360000D03*
X38680000Y-174000000D03*
X56460000Y-82560000D03*
X76780000Y-196860000D03*
X176100000Y-97820000D03*
X168480000Y-85120000D03*
X120280000Y-95280000D03*
X184480000Y-223600000D03*
X196680000Y-74940000D03*
X179400000Y-203280000D03*
X165940000Y-115600000D03*
X219540000Y-105420000D03*
X69160000Y-95260000D03*
X138000000Y-80040000D03*
X38680000Y-123200000D03*
X64080000Y-77480000D03*
X38740000Y-102880000D03*
X71700000Y-90180000D03*
X153240000Y-82580000D03*
X64080000Y-72400000D03*
X163400000Y-92740000D03*
X110120000Y-125760000D03*
X38680000Y-207020000D03*
X219540000Y-100340000D03*
X97420000Y-69880000D03*
X140540000Y-125760000D03*
X105160000Y-218520000D03*
X61540000Y-87640000D03*
X155780000Y-87660000D03*
X227160000Y-107960000D03*
X164160000Y-221060000D03*
X189560000Y-213440000D03*
D13*
X153000000Y-230000000D03*
D14*
X153000000Y-230000000D03*
D10*
X125360000Y-110520000D03*
X159080000Y-223600000D03*
X211920000Y-130820000D03*
X56460000Y-128280000D03*
X122940000Y-223600000D03*
X234780000Y-74940000D03*
X138180000Y-208360000D03*
X51440000Y-219720000D03*
X107700000Y-213440000D03*
X69220000Y-186700000D03*
X150700000Y-97820000D03*
X71700000Y-77480000D03*
X41220000Y-176540000D03*
X66680000Y-204480000D03*
X100080000Y-223600000D03*
X122820000Y-92740000D03*
X105040000Y-82580000D03*
X107580000Y-85120000D03*
X138180000Y-213440000D03*
X53980000Y-207020000D03*
X160860000Y-74960000D03*
X127900000Y-128300000D03*
X130560000Y-205820000D03*
X76780000Y-128280000D03*
X150700000Y-95280000D03*
X204300000Y-102880000D03*
X56520000Y-217180000D03*
X41220000Y-87640000D03*
X66680000Y-174000000D03*
X66620000Y-120660000D03*
X165940000Y-95280000D03*
X120280000Y-102900000D03*
X234780000Y-143520000D03*
X110120000Y-92740000D03*
X66680000Y-163840000D03*
X181940000Y-218520000D03*
X53920000Y-113040000D03*
X196680000Y-95260000D03*
X194640000Y-205820000D03*
X64080000Y-85100000D03*
X66620000Y-135900000D03*
X211920000Y-120660000D03*
X46360000Y-204480000D03*
X122940000Y-218520000D03*
X66680000Y-166380000D03*
X99960000Y-85120000D03*
X69220000Y-181620000D03*
X206840000Y-85100000D03*
X110120000Y-118140000D03*
X227160000Y-133360000D03*
X237320000Y-77480000D03*
X145620000Y-120680000D03*
X64080000Y-105420000D03*
X41220000Y-125740000D03*
X76780000Y-69860000D03*
X222080000Y-133360000D03*
X66620000Y-138440000D03*
X41220000Y-72400000D03*
X187020000Y-190580000D03*
X150700000Y-123220000D03*
X135460000Y-138460000D03*
X219540000Y-143520000D03*
X48900000Y-163840000D03*
X135640000Y-190580000D03*
X66680000Y-179080000D03*
X140540000Y-141000000D03*
X165940000Y-105440000D03*
X196680000Y-100340000D03*
X179400000Y-221060000D03*
X148160000Y-85120000D03*
X53980000Y-212100000D03*
X224620000Y-135900000D03*
X174320000Y-203280000D03*
X199220000Y-125740000D03*
X140540000Y-90200000D03*
X66620000Y-100340000D03*
X107580000Y-110520000D03*
X199220000Y-140980000D03*
X41220000Y-163840000D03*
X176100000Y-138460000D03*
X115320000Y-203280000D03*
X105040000Y-95280000D03*
X148160000Y-74960000D03*
X224620000Y-80020000D03*
X71700000Y-92720000D03*
X169240000Y-221060000D03*
X41220000Y-115580000D03*
X127900000Y-133380000D03*
X150700000Y-82580000D03*
X97420000Y-74960000D03*
X179400000Y-193120000D03*
X120280000Y-72420000D03*
X107700000Y-200740000D03*
X224620000Y-115580000D03*
X120280000Y-120680000D03*
X115320000Y-221060000D03*
X115320000Y-200740000D03*
X125480000Y-221060000D03*
X46300000Y-130820000D03*
X163400000Y-125760000D03*
X61540000Y-95260000D03*
X219540000Y-107960000D03*
X214460000Y-128280000D03*
X128020000Y-193120000D03*
X48900000Y-168920000D03*
X48840000Y-115580000D03*
X46360000Y-179080000D03*
X71760000Y-214640000D03*
X227160000Y-115580000D03*
X61600000Y-201940000D03*
X56520000Y-204480000D03*
X197180000Y-188040000D03*
X135460000Y-125760000D03*
X61540000Y-120660000D03*
X53920000Y-118120000D03*
X122820000Y-105440000D03*
X107580000Y-102900000D03*
X120280000Y-87660000D03*
X145620000Y-92740000D03*
X171020000Y-141000000D03*
X105160000Y-221060000D03*
X56460000Y-135900000D03*
X76780000Y-174000000D03*
D13*
X153000000Y-169000000D03*
D14*
X153000000Y-169000000D03*
D10*
X199220000Y-74940000D03*
X206840000Y-140980000D03*
X130560000Y-218520000D03*
X115200000Y-69880000D03*
X71760000Y-209560000D03*
X219540000Y-90180000D03*
X76780000Y-97800000D03*
D13*
X35000000Y-51000000D03*
D14*
X35000000Y-51000000D03*
D10*
X140540000Y-113060000D03*
X48900000Y-184160000D03*
X130440000Y-125760000D03*
X46360000Y-189240000D03*
X69160000Y-133360000D03*
X51380000Y-95260000D03*
X214460000Y-100340000D03*
X169240000Y-213440000D03*
X66620000Y-97800000D03*
X125360000Y-107980000D03*
X112660000Y-115600000D03*
X100080000Y-193120000D03*
X100080000Y-218520000D03*
X127900000Y-123220000D03*
X174320000Y-200740000D03*
X237320000Y-80020000D03*
X222080000Y-113040000D03*
X227160000Y-90180000D03*
X99960000Y-82580000D03*
X171020000Y-115600000D03*
X165940000Y-123220000D03*
X97420000Y-102900000D03*
X69220000Y-168920000D03*
X115200000Y-82580000D03*
X46300000Y-107960000D03*
X145620000Y-138460000D03*
X204300000Y-133360000D03*
X130560000Y-193120000D03*
X64140000Y-179080000D03*
X56460000Y-80020000D03*
X155780000Y-92740000D03*
X164160000Y-203280000D03*
X61540000Y-113040000D03*
X76780000Y-118120000D03*
X209380000Y-107960000D03*
X153240000Y-107980000D03*
X166700000Y-221060000D03*
X61600000Y-214640000D03*
X189560000Y-223600000D03*
X199220000Y-100340000D03*
X145620000Y-130840000D03*
X46300000Y-102880000D03*
X107700000Y-208360000D03*
X163400000Y-120680000D03*
X130440000Y-135920000D03*
X51440000Y-151140000D03*
X38680000Y-113040000D03*
X140540000Y-133380000D03*
X51380000Y-120660000D03*
X48900000Y-212100000D03*
X71760000Y-212100000D03*
X159080000Y-213440000D03*
X105040000Y-110520000D03*
X66680000Y-201940000D03*
X41280000Y-107960000D03*
X209380000Y-97800000D03*
X79320000Y-118120000D03*
X153240000Y-113060000D03*
X206840000Y-80020000D03*
X115200000Y-115600000D03*
X234780000Y-128280000D03*
X46300000Y-143520000D03*
X64080000Y-125740000D03*
X107700000Y-215980000D03*
X176100000Y-80040000D03*
X66620000Y-115580000D03*
D13*
X83000000Y-51000000D03*
D14*
X83000000Y-51000000D03*
D10*
X184480000Y-205820000D03*
X105040000Y-77500000D03*
X227160000Y-143520000D03*
X135640000Y-213440000D03*
X71760000Y-151140000D03*
X169240000Y-223600000D03*
X71700000Y-138440000D03*
X178640000Y-77500000D03*
X71760000Y-191780000D03*
X206840000Y-102880000D03*
X125360000Y-102900000D03*
X97420000Y-110520000D03*
X209380000Y-72400000D03*
X163400000Y-118140000D03*
X138180000Y-195660000D03*
X105040000Y-125760000D03*
X163400000Y-133380000D03*
X138000000Y-74960000D03*
X112660000Y-74960000D03*
X234780000Y-92720000D03*
X79320000Y-219720000D03*
X107580000Y-135920000D03*
X71760000Y-166380000D03*
X41220000Y-161300000D03*
X150700000Y-118140000D03*
X166700000Y-193120000D03*
X105040000Y-118140000D03*
X156540000Y-218520000D03*
X97540000Y-208360000D03*
X229700000Y-107960000D03*
X224620000Y-95260000D03*
X99960000Y-97820000D03*
X51380000Y-97800000D03*
X178640000Y-95280000D03*
X48900000Y-204480000D03*
X51440000Y-212100000D03*
X105040000Y-128300000D03*
X53980000Y-184160000D03*
X174320000Y-221060000D03*
X122940000Y-215980000D03*
X122820000Y-100360000D03*
X168480000Y-97820000D03*
X135640000Y-188040000D03*
X120400000Y-221060000D03*
X71700000Y-80020000D03*
X112660000Y-118140000D03*
X46360000Y-181620000D03*
X189560000Y-215980000D03*
X209380000Y-120660000D03*
X66620000Y-90180000D03*
X120280000Y-128300000D03*
X41220000Y-138440000D03*
X56460000Y-107960000D03*
X204300000Y-138440000D03*
X46300000Y-69860000D03*
X46300000Y-85100000D03*
X214460000Y-130820000D03*
X209380000Y-77480000D03*
X209380000Y-115580000D03*
X155780000Y-125760000D03*
D22*
X45060000Y-64780000D02*
X42550000Y-64780000D01*
D23*
X120280000Y-95280000D02*
X130440000Y-95280000D01*
X145620000Y-74960000D02*
X155780000Y-74960000D01*
X46300000Y-113040000D02*
X56460000Y-113040000D01*
X189560000Y-215980000D02*
X179400000Y-215980000D01*
D22*
X156540000Y-188040000D02*
X156540000Y-182960000D01*
D23*
X219540000Y-69860000D02*
X229700000Y-69860000D01*
D22*
X160350000Y-179150000D02*
X162860000Y-179150000D01*
D23*
X46360000Y-189240000D02*
X56520000Y-189240000D01*
X214460000Y-135900000D02*
X204300000Y-135900000D01*
X219540000Y-130820000D02*
X229700000Y-130820000D01*
X61540000Y-120660000D02*
X71700000Y-120660000D01*
D22*
X41220000Y-224740000D02*
X41220000Y-219720000D01*
D23*
X120280000Y-118140000D02*
X130440000Y-118140000D01*
X160860000Y-115600000D02*
X171020000Y-115600000D01*
X214460000Y-72400000D02*
X204300000Y-72400000D01*
X145620000Y-105440000D02*
X155780000Y-105440000D01*
X71700000Y-92720000D02*
X61540000Y-92720000D01*
D22*
X234830000Y-67500000D02*
X232290000Y-64960000D01*
D23*
X229700000Y-102880000D02*
X219540000Y-102880000D01*
X105040000Y-102900000D02*
X115200000Y-102900000D01*
D22*
X194140000Y-104770000D02*
X194140000Y-102880000D01*
D23*
X179400000Y-200740000D02*
X189560000Y-200740000D01*
X46360000Y-186700000D02*
X56520000Y-186700000D01*
X61600000Y-153680000D02*
X71760000Y-153680000D01*
X194640000Y-188040000D02*
X194640000Y-223600000D01*
X97420000Y-110520000D02*
X97420000Y-100360000D01*
X46300000Y-80020000D02*
X56460000Y-80020000D01*
X130560000Y-210900000D02*
X120400000Y-210900000D01*
X145620000Y-90200000D02*
X155780000Y-90200000D01*
D22*
X237320000Y-108610000D02*
X239860000Y-106070000D01*
D23*
X140540000Y-110520000D02*
X140540000Y-100360000D01*
X145620000Y-115600000D02*
X155780000Y-115600000D01*
X97420000Y-143540000D02*
X97420000Y-110520000D01*
X105040000Y-95280000D02*
X115200000Y-95280000D01*
D22*
X46360000Y-64780000D02*
X75570000Y-64780000D01*
D23*
X171020000Y-141000000D02*
X160860000Y-141000000D01*
X61540000Y-87640000D02*
X71700000Y-87640000D01*
X219540000Y-133360000D02*
X229700000Y-133360000D01*
X120400000Y-203280000D02*
X130560000Y-203280000D01*
X145620000Y-102900000D02*
X155780000Y-102900000D01*
D22*
X237320000Y-147560000D02*
X237320000Y-143520000D01*
D23*
X46360000Y-156220000D02*
X56520000Y-156220000D01*
X115320000Y-195660000D02*
X105160000Y-195660000D01*
X204300000Y-74940000D02*
X214460000Y-74940000D01*
D22*
X201810000Y-61150000D02*
X204320000Y-61150000D01*
D23*
X178640000Y-110520000D02*
X178640000Y-100360000D01*
X46300000Y-120660000D02*
X56460000Y-120660000D01*
X71760000Y-217180000D02*
X61600000Y-217180000D01*
D22*
X36200000Y-147950000D02*
X36200000Y-146000000D01*
D23*
X120400000Y-198200000D02*
X130560000Y-198200000D01*
X160860000Y-80040000D02*
X171020000Y-80040000D01*
X179400000Y-198200000D02*
X189560000Y-198200000D01*
X229700000Y-107960000D02*
X219540000Y-107960000D01*
X179400000Y-223600000D02*
X189560000Y-223600000D01*
X71760000Y-174000000D02*
X61600000Y-174000000D01*
X61540000Y-118120000D02*
X71700000Y-118120000D01*
X71700000Y-97800000D02*
X61540000Y-97800000D01*
X229700000Y-97800000D02*
X219540000Y-97800000D01*
X214460000Y-140980000D02*
X204300000Y-140980000D01*
X120400000Y-208360000D02*
X130560000Y-208360000D01*
X105160000Y-218520000D02*
X115320000Y-218520000D01*
X115320000Y-205820000D02*
X105160000Y-205820000D01*
X174320000Y-195660000D02*
X164160000Y-195660000D01*
D22*
X192100000Y-182960000D02*
X194640000Y-185500000D01*
D23*
X61600000Y-176540000D02*
X71760000Y-176540000D01*
X71700000Y-102880000D02*
X61540000Y-102880000D01*
X135460000Y-110520000D02*
X135460000Y-100360000D01*
X46300000Y-138440000D02*
X56460000Y-138440000D01*
X229700000Y-135900000D02*
X219540000Y-135900000D01*
X160860000Y-85120000D02*
X171020000Y-85120000D01*
X179400000Y-203280000D02*
X189560000Y-203280000D01*
D22*
X97540000Y-188040000D02*
X97540000Y-182960000D01*
X156540000Y-182960000D02*
X160350000Y-179150000D01*
D23*
X61600000Y-181620000D02*
X71760000Y-181620000D01*
X61540000Y-74940000D02*
X71700000Y-74940000D01*
X160860000Y-72420000D02*
X171020000Y-72420000D01*
X56460000Y-77480000D02*
X46300000Y-77480000D01*
X155780000Y-77500000D02*
X145620000Y-77500000D01*
X219540000Y-85100000D02*
X229700000Y-85100000D01*
D22*
X76840000Y-147950000D02*
X76840000Y-143580000D01*
D23*
X61540000Y-85100000D02*
X71700000Y-85100000D01*
D22*
X199220000Y-69860000D02*
X199220000Y-67550000D01*
X194140000Y-102880000D02*
X196680000Y-100340000D01*
D23*
X46360000Y-174000000D02*
X56520000Y-174000000D01*
X56460000Y-92720000D02*
X46300000Y-92720000D01*
X160860000Y-125760000D02*
X171020000Y-125760000D01*
X174320000Y-200740000D02*
X164160000Y-200740000D01*
X61600000Y-207020000D02*
X71760000Y-207020000D01*
X160860000Y-100360000D02*
X171020000Y-100360000D01*
X105160000Y-215980000D02*
X115320000Y-215980000D01*
D22*
X237320000Y-110500000D02*
X237320000Y-108610000D01*
D23*
X61600000Y-214640000D02*
X71760000Y-214640000D01*
D22*
X75570000Y-229880000D02*
X79320000Y-226130000D01*
D23*
X204300000Y-125740000D02*
X214460000Y-125740000D01*
X46360000Y-199400000D02*
X56520000Y-199400000D01*
X56520000Y-168920000D02*
X46360000Y-168920000D01*
X120280000Y-113060000D02*
X130440000Y-113060000D01*
D22*
X136700000Y-151000000D02*
X105000000Y-151000000D01*
D23*
X61600000Y-151140000D02*
X71760000Y-151140000D01*
D22*
X232290000Y-152590000D02*
X237320000Y-147560000D01*
D23*
X56520000Y-153680000D02*
X46360000Y-153680000D01*
X56460000Y-82560000D02*
X46300000Y-82560000D01*
X105160000Y-198200000D02*
X115320000Y-198200000D01*
X115200000Y-87660000D02*
X105040000Y-87660000D01*
D22*
X199220000Y-106070000D02*
X199220000Y-110500000D01*
D23*
X189560000Y-210900000D02*
X179400000Y-210900000D01*
D22*
X164160000Y-179150000D02*
X192100000Y-179150000D01*
D23*
X46360000Y-151140000D02*
X56520000Y-151140000D01*
X56460000Y-135900000D02*
X46300000Y-135900000D01*
X145620000Y-120680000D02*
X155780000Y-120680000D01*
X176100000Y-110520000D02*
X176100000Y-100360000D01*
X179400000Y-190580000D02*
X189560000Y-190580000D01*
X204300000Y-115580000D02*
X214460000Y-115580000D01*
X171020000Y-128300000D02*
X160860000Y-128300000D01*
X204300000Y-102880000D02*
X214460000Y-102880000D01*
X145620000Y-118140000D02*
X155780000Y-118140000D01*
X204300000Y-107960000D02*
X214460000Y-107960000D01*
D22*
X105160000Y-179150000D02*
X133100000Y-179150000D01*
D23*
X61540000Y-77480000D02*
X71700000Y-77480000D01*
X120280000Y-72420000D02*
X130440000Y-72420000D01*
X46300000Y-128280000D02*
X56460000Y-128280000D01*
X219540000Y-80020000D02*
X229700000Y-80020000D01*
D22*
X192100000Y-179150000D02*
X197180000Y-184230000D01*
X45060000Y-60970000D02*
X42550000Y-60970000D01*
D23*
X120280000Y-123220000D02*
X130440000Y-123220000D01*
X130560000Y-221060000D02*
X120400000Y-221060000D01*
X105040000Y-123220000D02*
X115200000Y-123220000D01*
D22*
X199220000Y-146190000D02*
X201810000Y-148780000D01*
X46360000Y-60970000D02*
X75570000Y-60970000D01*
X75570000Y-64780000D02*
X76840000Y-66050000D01*
D23*
X105160000Y-203280000D02*
X115320000Y-203280000D01*
X179400000Y-193120000D02*
X189560000Y-193120000D01*
X120280000Y-77500000D02*
X130440000Y-77500000D01*
X61600000Y-189240000D02*
X71760000Y-189240000D01*
X105160000Y-188040000D02*
X115320000Y-188040000D01*
D22*
X239860000Y-104770000D02*
X239860000Y-102880000D01*
D23*
X105040000Y-128300000D02*
X115200000Y-128300000D01*
X79320000Y-143520000D02*
X79320000Y-69860000D01*
X105040000Y-143540000D02*
X115200000Y-143540000D01*
D22*
X234780000Y-110500000D02*
X234780000Y-106070000D01*
X196680000Y-66280000D02*
X201810000Y-61150000D01*
D23*
X219540000Y-77480000D02*
X229700000Y-77480000D01*
X61540000Y-95260000D02*
X71700000Y-95260000D01*
X160860000Y-90200000D02*
X171020000Y-90200000D01*
D22*
X239860000Y-102880000D02*
X237320000Y-100340000D01*
D23*
X46300000Y-110500000D02*
X56460000Y-110500000D01*
X164160000Y-218520000D02*
X174320000Y-218520000D01*
X219540000Y-120660000D02*
X229700000Y-120660000D01*
X105040000Y-110520000D02*
X115200000Y-110520000D01*
X199220000Y-143520000D02*
X199220000Y-110500000D01*
D22*
X196680000Y-108610000D02*
X194140000Y-106070000D01*
D23*
X204300000Y-80020000D02*
X214460000Y-80020000D01*
X174320000Y-190580000D02*
X164160000Y-190580000D01*
X105160000Y-213440000D02*
X115320000Y-213440000D01*
D22*
X36200000Y-151200000D02*
X38680000Y-153680000D01*
D23*
X46360000Y-166380000D02*
X56520000Y-166380000D01*
X156540000Y-188040000D02*
X156540000Y-223600000D01*
D22*
X42550000Y-64780000D02*
X41220000Y-66110000D01*
D23*
X56460000Y-87640000D02*
X46300000Y-87640000D01*
X229700000Y-92720000D02*
X219540000Y-92720000D01*
D22*
X133100000Y-179150000D02*
X138180000Y-184230000D01*
D23*
X219540000Y-110500000D02*
X229700000Y-110500000D01*
X219540000Y-113040000D02*
X229700000Y-113040000D01*
X61600000Y-166380000D02*
X71760000Y-166380000D01*
X130440000Y-92740000D02*
X120280000Y-92740000D01*
X46360000Y-191780000D02*
X56520000Y-191780000D01*
X155780000Y-130840000D02*
X145620000Y-130840000D01*
X120280000Y-80040000D02*
X130440000Y-80040000D01*
X46300000Y-143520000D02*
X56460000Y-143520000D01*
X115200000Y-92740000D02*
X105040000Y-92740000D01*
X61540000Y-82560000D02*
X71700000Y-82560000D01*
X160860000Y-87660000D02*
X171020000Y-87660000D01*
X160860000Y-123220000D02*
X171020000Y-123220000D01*
D22*
X233560000Y-148780000D02*
X234780000Y-147560000D01*
D23*
X159080000Y-188040000D02*
X159080000Y-223600000D01*
X61540000Y-138440000D02*
X71700000Y-138440000D01*
D22*
X205620000Y-61150000D02*
X232290000Y-61150000D01*
D23*
X204300000Y-100340000D02*
X214460000Y-100340000D01*
X204300000Y-90180000D02*
X214460000Y-90180000D01*
X178640000Y-100360000D02*
X178640000Y-69880000D01*
D22*
X76840000Y-149250000D02*
X76840000Y-153620000D01*
D23*
X99960000Y-143540000D02*
X99960000Y-110520000D01*
X214460000Y-82560000D02*
X204300000Y-82560000D01*
X120280000Y-90200000D02*
X130440000Y-90200000D01*
X214460000Y-130820000D02*
X204300000Y-130820000D01*
X71700000Y-140980000D02*
X61540000Y-140980000D01*
D22*
X234780000Y-147560000D02*
X234780000Y-143520000D01*
D23*
X179400000Y-188040000D02*
X189560000Y-188040000D01*
X219540000Y-143520000D02*
X229700000Y-143520000D01*
X38680000Y-69860000D02*
X38680000Y-143520000D01*
X61540000Y-113040000D02*
X71700000Y-113040000D01*
X61600000Y-161300000D02*
X71760000Y-161300000D01*
X204300000Y-113040000D02*
X214460000Y-113040000D01*
X120400000Y-200740000D02*
X130560000Y-200740000D01*
X176100000Y-143540000D02*
X176100000Y-110520000D01*
X214460000Y-87640000D02*
X204300000Y-87640000D01*
X71760000Y-212100000D02*
X61600000Y-212100000D01*
X196680000Y-100340000D02*
X196680000Y-97800000D01*
X46300000Y-123200000D02*
X56460000Y-123200000D01*
X179400000Y-205820000D02*
X189560000Y-205820000D01*
D22*
X41280000Y-153620000D02*
X41220000Y-153680000D01*
D23*
X204300000Y-120660000D02*
X214460000Y-120660000D01*
X204300000Y-133360000D02*
X214460000Y-133360000D01*
D22*
X237370000Y-66230000D02*
X237370000Y-67500000D01*
D23*
X61600000Y-191780000D02*
X71760000Y-191780000D01*
X219540000Y-118120000D02*
X229700000Y-118120000D01*
D22*
X234780000Y-104770000D02*
X234780000Y-100340000D01*
D23*
X46360000Y-204480000D02*
X56520000Y-204480000D01*
X120280000Y-138460000D02*
X130440000Y-138460000D01*
X145620000Y-95280000D02*
X155780000Y-95280000D01*
X160860000Y-143540000D02*
X171020000Y-143540000D01*
X178640000Y-143540000D02*
X178640000Y-110520000D01*
X105040000Y-105440000D02*
X115200000Y-105440000D01*
X56460000Y-140980000D02*
X46300000Y-140980000D01*
D22*
X232290000Y-61150000D02*
X237370000Y-66230000D01*
D23*
X61600000Y-148600000D02*
X71760000Y-148600000D01*
X71700000Y-107960000D02*
X61540000Y-107960000D01*
D22*
X76840000Y-66050000D02*
X76840000Y-67320000D01*
X99960000Y-145960000D02*
X99960000Y-143540000D01*
D23*
X105040000Y-74960000D02*
X115200000Y-74960000D01*
X46360000Y-219720000D02*
X56520000Y-219720000D01*
X61540000Y-133360000D02*
X71700000Y-133360000D01*
D22*
X237320000Y-67550000D02*
X237320000Y-69860000D01*
D23*
X145620000Y-133380000D02*
X155780000Y-133380000D01*
X120400000Y-223600000D02*
X130560000Y-223600000D01*
X229700000Y-140980000D02*
X219540000Y-140980000D01*
X160860000Y-133380000D02*
X171020000Y-133380000D01*
X237320000Y-143520000D02*
X237320000Y-110500000D01*
X145620000Y-113060000D02*
X155780000Y-113060000D01*
X105160000Y-223600000D02*
X115320000Y-223600000D01*
X160860000Y-77500000D02*
X171020000Y-77500000D01*
X155780000Y-72420000D02*
X145620000Y-72420000D01*
D22*
X101350000Y-182960000D02*
X103860000Y-182960000D01*
D23*
X140540000Y-143540000D02*
X140540000Y-110520000D01*
X100080000Y-188040000D02*
X100080000Y-223600000D01*
X71760000Y-204480000D02*
X61600000Y-204480000D01*
X130560000Y-215980000D02*
X120400000Y-215980000D01*
X105040000Y-120680000D02*
X115200000Y-120680000D01*
X145620000Y-107980000D02*
X155780000Y-107980000D01*
X115200000Y-82580000D02*
X105040000Y-82580000D01*
X204300000Y-123200000D02*
X214460000Y-123200000D01*
X61600000Y-199400000D02*
X71760000Y-199400000D01*
X164160000Y-208360000D02*
X174320000Y-208360000D01*
X219540000Y-87640000D02*
X229700000Y-87640000D01*
X164160000Y-198200000D02*
X174320000Y-198200000D01*
X46300000Y-97800000D02*
X56460000Y-97800000D01*
X120280000Y-133380000D02*
X130440000Y-133380000D01*
X196680000Y-143520000D02*
X196680000Y-110500000D01*
X115200000Y-135920000D02*
X105040000Y-135920000D01*
D22*
X42550000Y-226070000D02*
X41220000Y-224740000D01*
D23*
X160860000Y-113060000D02*
X171020000Y-113060000D01*
X145620000Y-110520000D02*
X155780000Y-110520000D01*
X105040000Y-118140000D02*
X115200000Y-118140000D01*
X115200000Y-72420000D02*
X105040000Y-72420000D01*
X130440000Y-141000000D02*
X120280000Y-141000000D01*
X164160000Y-223600000D02*
X174320000Y-223600000D01*
X145620000Y-125760000D02*
X155780000Y-125760000D01*
X46300000Y-102880000D02*
X56460000Y-102880000D01*
X46300000Y-107960000D02*
X56460000Y-107960000D01*
D22*
X138180000Y-184230000D02*
X138180000Y-188040000D01*
D23*
X120400000Y-193120000D02*
X130560000Y-193120000D01*
X219540000Y-105420000D02*
X229700000Y-105420000D01*
X204300000Y-118120000D02*
X214460000Y-118120000D01*
X56460000Y-130820000D02*
X46300000Y-130820000D01*
X97420000Y-69880000D02*
X97420000Y-97820000D01*
X46300000Y-95260000D02*
X56460000Y-95260000D01*
X61540000Y-125740000D02*
X71700000Y-125740000D01*
X160860000Y-95280000D02*
X171020000Y-95280000D01*
D22*
X36200000Y-149250000D02*
X36200000Y-151200000D01*
D23*
X234780000Y-100340000D02*
X234780000Y-69860000D01*
D22*
X199220000Y-67550000D02*
X201810000Y-64960000D01*
D23*
X199220000Y-100340000D02*
X199220000Y-69860000D01*
D22*
X76840000Y-153620000D02*
X76780000Y-153680000D01*
X159080000Y-184230000D02*
X160350000Y-182960000D01*
D23*
X189560000Y-221060000D02*
X179400000Y-221060000D01*
X130440000Y-135920000D02*
X120280000Y-135920000D01*
X61540000Y-90180000D02*
X71700000Y-90180000D01*
X105040000Y-100360000D02*
X115200000Y-100360000D01*
D22*
X42550000Y-60970000D02*
X38680000Y-64840000D01*
D23*
X120280000Y-110520000D02*
X130440000Y-110520000D01*
X105040000Y-107980000D02*
X115200000Y-107980000D01*
X76780000Y-219720000D02*
X76780000Y-153680000D01*
X120280000Y-143540000D02*
X130440000Y-143540000D01*
X56520000Y-217180000D02*
X46360000Y-217180000D01*
X145620000Y-80040000D02*
X155780000Y-80040000D01*
X61600000Y-156220000D02*
X71760000Y-156220000D01*
D22*
X100080000Y-188040000D02*
X100080000Y-184230000D01*
D23*
X105040000Y-133380000D02*
X115200000Y-133380000D01*
D22*
X201810000Y-64960000D02*
X204320000Y-64960000D01*
D23*
X219540000Y-115580000D02*
X229700000Y-115580000D01*
D22*
X237370000Y-67500000D02*
X237320000Y-67550000D01*
D23*
X179400000Y-218520000D02*
X189560000Y-218520000D01*
X105040000Y-113060000D02*
X115200000Y-113060000D01*
X56520000Y-212100000D02*
X46360000Y-212100000D01*
D22*
X138000000Y-151000000D02*
X138000000Y-143540000D01*
X164160000Y-182960000D02*
X192100000Y-182960000D01*
D23*
X196680000Y-69860000D02*
X196680000Y-97800000D01*
X71760000Y-168920000D02*
X61600000Y-168920000D01*
D22*
X196680000Y-143520000D02*
X196680000Y-147460000D01*
D23*
X164160000Y-221060000D02*
X174320000Y-221060000D01*
X204300000Y-105420000D02*
X214460000Y-105420000D01*
X46360000Y-146060000D02*
X56520000Y-146060000D01*
X61540000Y-100340000D02*
X71700000Y-100340000D01*
X204300000Y-143520000D02*
X214460000Y-143520000D01*
X115320000Y-200740000D02*
X105160000Y-200740000D01*
D22*
X199220000Y-100340000D02*
X199220000Y-104770000D01*
X101350000Y-179150000D02*
X103860000Y-179150000D01*
X196680000Y-69860000D02*
X196680000Y-66280000D01*
D23*
X160860000Y-118140000D02*
X171020000Y-118140000D01*
D22*
X76780000Y-67380000D02*
X76780000Y-69860000D01*
D23*
X61540000Y-69860000D02*
X71700000Y-69860000D01*
X120280000Y-125760000D02*
X130440000Y-125760000D01*
X219540000Y-138440000D02*
X229700000Y-138440000D01*
X120280000Y-82580000D02*
X130440000Y-82580000D01*
X115320000Y-190580000D02*
X105160000Y-190580000D01*
D22*
X206270000Y-148780000D02*
X233560000Y-148780000D01*
D23*
X105040000Y-80040000D02*
X115200000Y-80040000D01*
D22*
X135640000Y-185500000D02*
X135640000Y-188040000D01*
D23*
X105040000Y-138460000D02*
X115200000Y-138460000D01*
X41220000Y-153680000D02*
X41220000Y-219720000D01*
D22*
X105000000Y-151000000D02*
X99960000Y-145960000D01*
D23*
X61600000Y-163840000D02*
X71760000Y-163840000D01*
X105160000Y-208360000D02*
X115320000Y-208360000D01*
D22*
X79320000Y-64840000D02*
X79320000Y-69860000D01*
D23*
X120400000Y-213440000D02*
X130560000Y-213440000D01*
X237320000Y-100340000D02*
X237320000Y-69860000D01*
X120400000Y-205820000D02*
X130560000Y-205820000D01*
X130440000Y-128300000D02*
X120280000Y-128300000D01*
X115200000Y-130840000D02*
X105040000Y-130840000D01*
X174320000Y-205820000D02*
X164160000Y-205820000D01*
X155780000Y-82580000D02*
X145620000Y-82580000D01*
D22*
X100080000Y-184230000D02*
X101350000Y-182960000D01*
X38680000Y-64840000D02*
X38680000Y-69860000D01*
D23*
X105040000Y-85120000D02*
X115200000Y-85120000D01*
X120280000Y-105440000D02*
X130440000Y-105440000D01*
X105040000Y-90200000D02*
X115200000Y-90200000D01*
X105040000Y-115600000D02*
X115200000Y-115600000D01*
X56520000Y-163840000D02*
X46360000Y-163840000D01*
D22*
X199220000Y-143520000D02*
X199220000Y-146190000D01*
X232290000Y-64960000D02*
X205620000Y-64960000D01*
D23*
X138000000Y-143540000D02*
X138000000Y-110520000D01*
D22*
X194640000Y-185500000D02*
X194640000Y-188040000D01*
D23*
X164160000Y-215980000D02*
X174320000Y-215980000D01*
X46300000Y-69860000D02*
X56460000Y-69860000D01*
X76780000Y-69860000D02*
X76780000Y-143520000D01*
X120280000Y-120680000D02*
X130440000Y-120680000D01*
X160860000Y-74960000D02*
X171020000Y-74960000D01*
X46300000Y-90180000D02*
X56460000Y-90180000D01*
X46360000Y-201940000D02*
X56520000Y-201940000D01*
X61540000Y-105420000D02*
X71700000Y-105420000D01*
X145620000Y-143540000D02*
X155780000Y-143540000D01*
D22*
X41280000Y-229880000D02*
X38680000Y-227280000D01*
X133100000Y-182960000D02*
X135640000Y-185500000D01*
D23*
X138000000Y-110520000D02*
X138000000Y-100360000D01*
X46300000Y-115580000D02*
X56460000Y-115580000D01*
D22*
X36200000Y-146000000D02*
X38680000Y-143520000D01*
D23*
X155780000Y-141000000D02*
X145620000Y-141000000D01*
D22*
X45710000Y-226070000D02*
X42550000Y-226070000D01*
D23*
X46300000Y-85100000D02*
X56460000Y-85100000D01*
X46360000Y-176540000D02*
X56520000Y-176540000D01*
X204300000Y-110500000D02*
X214460000Y-110500000D01*
D22*
X206270000Y-152590000D02*
X232290000Y-152590000D01*
D23*
X105160000Y-221060000D02*
X115320000Y-221060000D01*
X214460000Y-92720000D02*
X204300000Y-92720000D01*
X219540000Y-125740000D02*
X229700000Y-125740000D01*
X229700000Y-128280000D02*
X219540000Y-128280000D01*
D22*
X176100000Y-145900000D02*
X176100000Y-143540000D01*
D23*
X219540000Y-100340000D02*
X229700000Y-100340000D01*
X46360000Y-194320000D02*
X56520000Y-194320000D01*
X164160000Y-188040000D02*
X174320000Y-188040000D01*
X120400000Y-188040000D02*
X130560000Y-188040000D01*
X174320000Y-210900000D02*
X164160000Y-210900000D01*
X145620000Y-123220000D02*
X155780000Y-123220000D01*
D22*
X47010000Y-229880000D02*
X75570000Y-229880000D01*
D23*
X61540000Y-110500000D02*
X71700000Y-110500000D01*
X71760000Y-184160000D02*
X61600000Y-184160000D01*
X204300000Y-85100000D02*
X214460000Y-85100000D01*
X164160000Y-203280000D02*
X174320000Y-203280000D01*
X160860000Y-120680000D02*
X171020000Y-120680000D01*
D22*
X45710000Y-229880000D02*
X41280000Y-229880000D01*
X79320000Y-226130000D02*
X79320000Y-219720000D01*
D23*
X160860000Y-138460000D02*
X171020000Y-138460000D01*
X120280000Y-69880000D02*
X130440000Y-69880000D01*
X145620000Y-69880000D02*
X155780000Y-69880000D01*
X204300000Y-128280000D02*
X214460000Y-128280000D01*
X46300000Y-105420000D02*
X56460000Y-105420000D01*
X61600000Y-219720000D02*
X71760000Y-219720000D01*
X61600000Y-171460000D02*
X71760000Y-171460000D01*
X105040000Y-97820000D02*
X115200000Y-97820000D01*
X171020000Y-135920000D02*
X160860000Y-135920000D01*
X61600000Y-209560000D02*
X71760000Y-209560000D01*
D22*
X79380000Y-64780000D02*
X79320000Y-64840000D01*
D23*
X61600000Y-201940000D02*
X71760000Y-201940000D01*
X38680000Y-219720000D02*
X38680000Y-153680000D01*
X160860000Y-69880000D02*
X171020000Y-69880000D01*
X105040000Y-69880000D02*
X115200000Y-69880000D01*
X61540000Y-115580000D02*
X71700000Y-115580000D01*
X160860000Y-110520000D02*
X171020000Y-110520000D01*
X71760000Y-179080000D02*
X61600000Y-179080000D01*
X120280000Y-100360000D02*
X130440000Y-100360000D01*
D22*
X97540000Y-182960000D02*
X101350000Y-179150000D01*
X47010000Y-226070000D02*
X75570000Y-226070000D01*
D23*
X219540000Y-123200000D02*
X229700000Y-123200000D01*
X214460000Y-77480000D02*
X204300000Y-77480000D01*
D22*
X234780000Y-67550000D02*
X234830000Y-67500000D01*
D23*
X61600000Y-158760000D02*
X71760000Y-158760000D01*
X160860000Y-105440000D02*
X171020000Y-105440000D01*
D22*
X201810000Y-152590000D02*
X204970000Y-152590000D01*
X196680000Y-110500000D02*
X196680000Y-108610000D01*
D23*
X61540000Y-130820000D02*
X71700000Y-130820000D01*
D22*
X38680000Y-227280000D02*
X38680000Y-219720000D01*
D23*
X204300000Y-69860000D02*
X214460000Y-69860000D01*
X138180000Y-188040000D02*
X138180000Y-223600000D01*
X46360000Y-179080000D02*
X56520000Y-179080000D01*
D22*
X160350000Y-182960000D02*
X162860000Y-182960000D01*
X75570000Y-226070000D02*
X76780000Y-224860000D01*
D23*
X46360000Y-209560000D02*
X56520000Y-209560000D01*
X138000000Y-100360000D02*
X138000000Y-69880000D01*
D22*
X76840000Y-67320000D02*
X76780000Y-67380000D01*
D23*
X61600000Y-186700000D02*
X71760000Y-186700000D01*
X46360000Y-171460000D02*
X56520000Y-171460000D01*
X46300000Y-100340000D02*
X56460000Y-100340000D01*
X219540000Y-90180000D02*
X229700000Y-90180000D01*
X130440000Y-97820000D02*
X120280000Y-97820000D01*
X46300000Y-125740000D02*
X56460000Y-125740000D01*
X197180000Y-188040000D02*
X197180000Y-223600000D01*
D22*
X234780000Y-69860000D02*
X234780000Y-67550000D01*
D23*
X176100000Y-100360000D02*
X176100000Y-69880000D01*
X130440000Y-107980000D02*
X120280000Y-107980000D01*
X135460000Y-100360000D02*
X135460000Y-69880000D01*
X41220000Y-143520000D02*
X41220000Y-69860000D01*
X61600000Y-146060000D02*
X71760000Y-146060000D01*
D22*
X41280000Y-149250000D02*
X41280000Y-153620000D01*
D23*
X61600000Y-194320000D02*
X71760000Y-194320000D01*
X61540000Y-123200000D02*
X71700000Y-123200000D01*
X171020000Y-92740000D02*
X160860000Y-92740000D01*
X135640000Y-188040000D02*
X135640000Y-223600000D01*
X179400000Y-208360000D02*
X189560000Y-208360000D01*
X46360000Y-196860000D02*
X56520000Y-196860000D01*
X145620000Y-85120000D02*
X155780000Y-85120000D01*
X171020000Y-107980000D02*
X160860000Y-107980000D01*
D22*
X76840000Y-143580000D02*
X76780000Y-143520000D01*
D23*
X204300000Y-97800000D02*
X214460000Y-97800000D01*
X46360000Y-214640000D02*
X56520000Y-214640000D01*
X171020000Y-97820000D02*
X160860000Y-97820000D01*
D22*
X201810000Y-148780000D02*
X204970000Y-148780000D01*
D23*
X99960000Y-100360000D02*
X99960000Y-69880000D01*
X46360000Y-181620000D02*
X56520000Y-181620000D01*
X155780000Y-92740000D02*
X145620000Y-92740000D01*
X115320000Y-210900000D02*
X105160000Y-210900000D01*
X120400000Y-190580000D02*
X130560000Y-190580000D01*
X164160000Y-193120000D02*
X174320000Y-193120000D01*
X46300000Y-74940000D02*
X56460000Y-74940000D01*
X219540000Y-72400000D02*
X229700000Y-72400000D01*
X61540000Y-72400000D02*
X71700000Y-72400000D01*
D22*
X75570000Y-60970000D02*
X79380000Y-64780000D01*
X41280000Y-143580000D02*
X41220000Y-143520000D01*
D23*
X179400000Y-213440000D02*
X189560000Y-213440000D01*
X204300000Y-95260000D02*
X214460000Y-95260000D01*
X204300000Y-138440000D02*
X214460000Y-138440000D01*
D22*
X76780000Y-224860000D02*
X76780000Y-219720000D01*
X81920000Y-147950000D02*
X81920000Y-146120000D01*
D23*
X120280000Y-74960000D02*
X130440000Y-74960000D01*
X120400000Y-195660000D02*
X130560000Y-195660000D01*
X120280000Y-130840000D02*
X130440000Y-130840000D01*
X115200000Y-77500000D02*
X105040000Y-77500000D01*
X105160000Y-193120000D02*
X115320000Y-193120000D01*
X46360000Y-184160000D02*
X56520000Y-184160000D01*
D22*
X197180000Y-184230000D02*
X197180000Y-188040000D01*
D23*
X155780000Y-135920000D02*
X145620000Y-135920000D01*
X97540000Y-188040000D02*
X97540000Y-223600000D01*
X46360000Y-161300000D02*
X56520000Y-161300000D01*
X105040000Y-125760000D02*
X115200000Y-125760000D01*
X120280000Y-85120000D02*
X130440000Y-85120000D01*
X61600000Y-196860000D02*
X71760000Y-196860000D01*
X56520000Y-148600000D02*
X46360000Y-148600000D01*
X145620000Y-100360000D02*
X155780000Y-100360000D01*
X99960000Y-110520000D02*
X99960000Y-100360000D01*
X160860000Y-82580000D02*
X171020000Y-82580000D01*
X71700000Y-128280000D02*
X61540000Y-128280000D01*
D22*
X139300000Y-151000000D02*
X171000000Y-151000000D01*
D23*
X46300000Y-133360000D02*
X56460000Y-133360000D01*
X71700000Y-135900000D02*
X61540000Y-135900000D01*
D22*
X171000000Y-151000000D02*
X176100000Y-145900000D01*
D23*
X130440000Y-102900000D02*
X120280000Y-102900000D01*
X46300000Y-118120000D02*
X56460000Y-118120000D01*
D22*
X105160000Y-182960000D02*
X133100000Y-182960000D01*
D23*
X219540000Y-74940000D02*
X229700000Y-74940000D01*
X56520000Y-158760000D02*
X46360000Y-158760000D01*
X135460000Y-143540000D02*
X135460000Y-110520000D01*
X120400000Y-218520000D02*
X130560000Y-218520000D01*
D22*
X81920000Y-146120000D02*
X79320000Y-143520000D01*
D23*
X171020000Y-102900000D02*
X160860000Y-102900000D01*
X120280000Y-87660000D02*
X130440000Y-87660000D01*
X179400000Y-195660000D02*
X189560000Y-195660000D01*
X61540000Y-80020000D02*
X71700000Y-80020000D01*
X56520000Y-207020000D02*
X46360000Y-207020000D01*
X145620000Y-138460000D02*
X155780000Y-138460000D01*
X79320000Y-153680000D02*
X79320000Y-219720000D01*
D22*
X196680000Y-147460000D02*
X201810000Y-152590000D01*
D23*
X56460000Y-72400000D02*
X46300000Y-72400000D01*
X97420000Y-100360000D02*
X97420000Y-97820000D01*
X219540000Y-95260000D02*
X229700000Y-95260000D01*
X155780000Y-87660000D02*
X145620000Y-87660000D01*
X160860000Y-130840000D02*
X171020000Y-130840000D01*
D22*
X159080000Y-188040000D02*
X159080000Y-184230000D01*
X81920000Y-149250000D02*
X81920000Y-151080000D01*
D23*
X234780000Y-143520000D02*
X234780000Y-110500000D01*
X145620000Y-128300000D02*
X155780000Y-128300000D01*
X61540000Y-143520000D02*
X71700000Y-143520000D01*
D22*
X41220000Y-66110000D02*
X41220000Y-69860000D01*
X41280000Y-147950000D02*
X41280000Y-143580000D01*
D23*
X219540000Y-82560000D02*
X229700000Y-82560000D01*
X115200000Y-141000000D02*
X105040000Y-141000000D01*
X164160000Y-213440000D02*
X174320000Y-213440000D01*
X145620000Y-97820000D02*
X155780000Y-97820000D01*
D22*
X81920000Y-151080000D02*
X79320000Y-153680000D01*
D23*
X140540000Y-100360000D02*
X140540000Y-69880000D01*
X120280000Y-115600000D02*
X130440000Y-115600000D01*
M02*
