M48
; DRILL file {KiCad 8.0.2} date 2024-05-07T14:07:20-0600
; FORMAT={-:-/ absolute / metric / decimal}
; #@! TF.CreationDate,2024-05-07T14:07:20-06:00
; #@! TF.GenerationSoftware,Kicad,Pcbnew,8.0.2
; #@! TF.FileFunction,NonPlated,1,2,NPTH
FMAT,2
METRIC
; #@! TA.AperFunction,NonPlated,NPTH,ComponentDrill
T1C0.500
%
G90
G05
T1
X87.0Y-48.476
X87.0Y-49.25
X87.0Y-50.0
X87.0Y-50.75
X87.0Y-51.512
X87.0Y-150.476
X87.0Y-151.25
X87.0Y-152.0
X87.0Y-152.75
X87.0Y-153.512
X87.0Y-166.476
X87.0Y-167.25
X87.0Y-168.0
X87.0Y-168.75
X87.0Y-169.512
X87.0Y-229.476
X87.0Y-230.25
X87.0Y-231.0
X87.0Y-231.75
X87.0Y-232.512
X90.0Y-48.476
X90.0Y-49.25
X90.0Y-50.0
X90.0Y-50.762
X90.0Y-51.512
X90.0Y-150.476
X90.0Y-151.25
X90.0Y-152.0
X90.0Y-152.762
X90.0Y-153.512
X90.0Y-166.476
X90.0Y-167.25
X90.0Y-168.0
X90.0Y-168.762
X90.0Y-169.512
X90.0Y-229.476
X90.0Y-230.25
X90.0Y-231.0
X90.0Y-231.762
X90.0Y-232.512
X146.0Y-166.476
X146.0Y-167.25
X146.0Y-168.0
X146.0Y-168.75
X146.0Y-169.512
X146.0Y-229.476
X146.0Y-230.25
X146.0Y-231.0
X146.0Y-231.75
X146.0Y-232.512
X149.0Y-166.476
X149.0Y-167.25
X149.0Y-168.0
X149.0Y-168.762
X149.0Y-169.512
X149.0Y-229.476
X149.0Y-230.25
X149.0Y-231.0
X149.0Y-231.762
X149.0Y-232.512
X186.0Y-48.476
X186.0Y-49.25
X186.0Y-50.0
X186.0Y-50.75
X186.0Y-51.512
X186.0Y-150.476
X186.0Y-151.25
X186.0Y-152.0
X186.0Y-152.75
X186.0Y-153.512
X189.0Y-48.476
X189.0Y-49.25
X189.0Y-50.0
X189.0Y-50.762
X189.0Y-51.512
X189.0Y-150.476
X189.0Y-151.25
X189.0Y-152.0
X189.0Y-152.762
X189.0Y-153.512
X205.0Y-166.476
X205.0Y-167.25
X205.0Y-168.0
X205.0Y-168.75
X205.0Y-169.512
X205.0Y-229.476
X205.0Y-230.25
X205.0Y-231.0
X205.0Y-231.75
X205.0Y-232.512
X208.0Y-166.476
X208.0Y-167.25
X208.0Y-168.0
X208.0Y-168.762
X208.0Y-169.512
X208.0Y-229.476
X208.0Y-230.25
X208.0Y-231.0
X208.0Y-231.762
X208.0Y-232.512
X209.488Y-155.0
X209.488Y-158.0
X210.238Y-158.0
X210.25Y-155.0
X211.0Y-155.0
X211.0Y-158.0
X211.75Y-155.0
X211.75Y-158.0
X212.524Y-155.0
X212.524Y-158.0
X240.488Y-155.0
X240.488Y-158.0
X241.238Y-158.0
X241.25Y-155.0
X242.0Y-155.0
X242.0Y-158.0
X242.75Y-155.0
X242.75Y-158.0
X243.524Y-155.0
X243.524Y-158.0
M30
