G04 #@! TF.GenerationSoftware,KiCad,Pcbnew,8.0.2*
G04 #@! TF.CreationDate,2024-05-07T14:07:03-06:00*
G04 #@! TF.ProjectId,Perfboard_Panel,50657266-626f-4617-9264-5f50616e656c,rev?*
G04 #@! TF.SameCoordinates,Original*
G04 #@! TF.FileFunction,Profile,NP*
%FSLAX46Y46*%
G04 Gerber Fmt 4.6, Leading zero omitted, Abs format (unit mm)*
G04 Created by KiCad (PCBNEW 8.0.2) date 2024-05-07 14:07:03*
%MOMM*%
%LPD*%
G01*
G04 APERTURE LIST*
G04 #@! TA.AperFunction,Profile*
%ADD10C,0.050000*%
G04 #@! TD*
G04 APERTURE END LIST*
D10*
X214000000Y-155000000D02*
X239000000Y-155000000D01*
X90000000Y-228000000D02*
G75*
G02*
X87000000Y-228000000I-1500000J0D01*
G01*
X90000000Y-165000000D02*
G75*
G02*
X87000000Y-165000000I-1500000J0D01*
G01*
X205000000Y-234000000D02*
G75*
G02*
X208000000Y-234000000I1500000J0D01*
G01*
X245000000Y-47000000D02*
X189000000Y-47000000D01*
X87000000Y-155000000D02*
X87000000Y-165000000D01*
X149000000Y-171000000D02*
X149000000Y-228000000D01*
X189000000Y-155000000D02*
X208000000Y-155000000D01*
X208000000Y-228000000D02*
X208000000Y-171000000D01*
X87000000Y-47000000D02*
X31000000Y-47000000D01*
X186000000Y-155000000D02*
G75*
G02*
X189000000Y-155000000I1500000J0D01*
G01*
X208000000Y-155000000D02*
G75*
G02*
X208000000Y-158000000I0J-1500000D01*
G01*
X31000000Y-234000000D02*
X87000000Y-234000000D01*
X208000000Y-158000000D02*
X208000000Y-165000000D01*
X90000000Y-47000000D02*
G75*
G02*
X87000000Y-47000000I-1500000J0D01*
G01*
X90000000Y-149000000D02*
X90000000Y-53000000D01*
X239000000Y-158000000D02*
X214000000Y-158000000D01*
X245000000Y-47000000D02*
X245000000Y-155000000D01*
X146000000Y-228000000D02*
X146000000Y-171000000D01*
X146000000Y-234000000D02*
G75*
G02*
X149000000Y-234000000I1500000J0D01*
G01*
X87000000Y-53000000D02*
X87000000Y-149000000D01*
X90000000Y-234000000D02*
X146000000Y-234000000D01*
X205000000Y-171000000D02*
X205000000Y-228000000D01*
X208000000Y-165000000D02*
G75*
G02*
X205000000Y-165000000I-1500000J0D01*
G01*
X87000000Y-155000000D02*
G75*
G02*
X90000000Y-155000000I1500000J0D01*
G01*
X205000000Y-171000000D02*
G75*
G02*
X208000000Y-171000000I1500000J0D01*
G01*
X189000000Y-149000000D02*
G75*
G02*
X186000000Y-149000000I-1500000J0D01*
G01*
X90000000Y-149000000D02*
G75*
G02*
X87000000Y-149000000I-1500000J0D01*
G01*
X186000000Y-47000000D02*
X90000000Y-47000000D01*
X189000000Y-47000000D02*
G75*
G02*
X186000000Y-47000000I-1500000J0D01*
G01*
X87000000Y-228000000D02*
X87000000Y-171000000D01*
X208000000Y-234000000D02*
X245000000Y-234000000D01*
X208000000Y-228000000D02*
G75*
G02*
X205000000Y-228000000I-1500000J0D01*
G01*
X87000000Y-234000000D02*
G75*
G02*
X90000000Y-234000000I1500000J0D01*
G01*
X245000000Y-158000000D02*
G75*
G02*
X245000000Y-155000000I0J1500000D01*
G01*
X186000000Y-149000000D02*
X186000000Y-53000000D01*
X87000000Y-171000000D02*
G75*
G02*
X90000000Y-171000000I1500000J0D01*
G01*
X186000000Y-53000000D02*
G75*
G02*
X189000000Y-53000000I1500000J0D01*
G01*
X205000000Y-234000000D02*
X149000000Y-234000000D01*
X214000000Y-158000000D02*
G75*
G02*
X214000000Y-155000000I0J1500000D01*
G01*
X146000000Y-171000000D02*
G75*
G02*
X149000000Y-171000000I1500000J0D01*
G01*
X239000000Y-155000000D02*
G75*
G02*
X239000000Y-158000000I0J-1500000D01*
G01*
X87000000Y-53000000D02*
G75*
G02*
X90000000Y-53000000I1500000J0D01*
G01*
X149000000Y-228000000D02*
G75*
G02*
X146000000Y-228000000I-1500000J0D01*
G01*
X189000000Y-53000000D02*
X189000000Y-149000000D01*
X149000000Y-165000000D02*
X205000000Y-165000000D01*
X31000000Y-47000000D02*
X31000000Y-234000000D01*
X90000000Y-155000000D02*
X186000000Y-155000000D01*
X149000000Y-165000000D02*
G75*
G02*
X146000000Y-165000000I-1500000J0D01*
G01*
X90000000Y-171000000D02*
X90000000Y-228000000D01*
X146000000Y-165000000D02*
X90000000Y-165000000D01*
X245000000Y-234000000D02*
X245000000Y-158000000D01*
M02*
