M48
; DRILL file {KiCad 8.0.2} date 2024-05-07T14:07:20-0600
; FORMAT={-:-/ absolute / metric / decimal}
; #@! TF.CreationDate,2024-05-07T14:07:20-06:00
; #@! TF.GenerationSoftware,Kicad,Pcbnew,8.0.2
; #@! TF.FileFunction,Plated,1,2,PTH
FMAT,2
METRIC
; #@! TA.AperFunction,Plated,PTH,ComponentDrill
T1C0.950
; #@! TA.AperFunction,Plated,PTH,ComponentDrill
T2C2.200
%
G90
G05
T1
X38.68Y-69.86
X38.68Y-72.4
X38.68Y-74.94
X38.68Y-77.48
X38.68Y-80.02
X38.68Y-82.56
X38.68Y-85.1
X38.68Y-87.64
X38.68Y-90.18
X38.68Y-92.72
X38.68Y-95.26
X38.68Y-97.8
X38.68Y-100.34
X38.68Y-110.5
X38.68Y-113.04
X38.68Y-115.58
X38.68Y-118.12
X38.68Y-120.66
X38.68Y-123.2
X38.68Y-125.74
X38.68Y-128.28
X38.68Y-130.82
X38.68Y-133.36
X38.68Y-135.9
X38.68Y-138.44
X38.68Y-140.98
X38.68Y-143.52
X38.68Y-153.68
X38.68Y-156.22
X38.68Y-158.76
X38.68Y-161.3
X38.68Y-163.84
X38.68Y-166.38
X38.68Y-168.92
X38.68Y-171.46
X38.68Y-174.0
X38.68Y-176.54
X38.68Y-179.08
X38.68Y-181.62
X38.68Y-184.16
X38.68Y-186.7
X38.68Y-196.86
X38.68Y-199.4
X38.68Y-201.94
X38.68Y-204.48
X38.68Y-207.02
X38.68Y-209.56
X38.68Y-212.1
X38.68Y-214.64
X38.68Y-217.18
X38.68Y-219.72
X38.74Y-102.88
X38.74Y-105.42
X38.74Y-107.96
X38.74Y-189.24
X38.74Y-191.78
X38.74Y-194.32
X41.22Y-69.86
X41.22Y-72.4
X41.22Y-74.94
X41.22Y-77.48
X41.22Y-80.02
X41.22Y-82.56
X41.22Y-85.1
X41.22Y-87.64
X41.22Y-90.18
X41.22Y-92.72
X41.22Y-95.26
X41.22Y-97.8
X41.22Y-100.34
X41.22Y-110.5
X41.22Y-113.04
X41.22Y-115.58
X41.22Y-118.12
X41.22Y-120.66
X41.22Y-123.2
X41.22Y-125.74
X41.22Y-128.28
X41.22Y-130.82
X41.22Y-133.36
X41.22Y-135.9
X41.22Y-138.44
X41.22Y-140.98
X41.22Y-143.52
X41.22Y-153.68
X41.22Y-156.22
X41.22Y-158.76
X41.22Y-161.3
X41.22Y-163.84
X41.22Y-166.38
X41.22Y-168.92
X41.22Y-171.46
X41.22Y-174.0
X41.22Y-176.54
X41.22Y-179.08
X41.22Y-181.62
X41.22Y-184.16
X41.22Y-186.7
X41.22Y-196.86
X41.22Y-199.4
X41.22Y-201.94
X41.22Y-204.48
X41.22Y-207.02
X41.22Y-209.56
X41.22Y-212.1
X41.22Y-214.64
X41.22Y-217.18
X41.22Y-219.72
X41.28Y-102.88
X41.28Y-105.42
X41.28Y-107.96
X41.28Y-189.24
X41.28Y-191.78
X41.28Y-194.32
X46.3Y-69.86
X46.3Y-72.4
X46.3Y-74.94
X46.3Y-77.48
X46.3Y-80.02
X46.3Y-82.56
X46.3Y-85.1
X46.3Y-87.64
X46.3Y-90.18
X46.3Y-92.72
X46.3Y-95.26
X46.3Y-97.8
X46.3Y-100.34
X46.3Y-102.88
X46.3Y-105.42
X46.3Y-107.96
X46.3Y-110.5
X46.3Y-113.04
X46.3Y-115.58
X46.3Y-118.12
X46.3Y-120.66
X46.3Y-123.2
X46.3Y-125.74
X46.3Y-128.28
X46.3Y-130.82
X46.3Y-133.36
X46.3Y-135.9
X46.3Y-138.44
X46.3Y-140.98
X46.3Y-143.52
X46.36Y-146.06
X46.36Y-148.6
X46.36Y-151.14
X46.36Y-153.68
X46.36Y-156.22
X46.36Y-158.76
X46.36Y-161.3
X46.36Y-163.84
X46.36Y-166.38
X46.36Y-168.92
X46.36Y-171.46
X46.36Y-174.0
X46.36Y-176.54
X46.36Y-179.08
X46.36Y-181.62
X46.36Y-184.16
X46.36Y-186.7
X46.36Y-189.24
X46.36Y-191.78
X46.36Y-194.32
X46.36Y-196.86
X46.36Y-199.4
X46.36Y-201.94
X46.36Y-204.48
X46.36Y-207.02
X46.36Y-209.56
X46.36Y-212.1
X46.36Y-214.64
X46.36Y-217.18
X46.36Y-219.72
X48.84Y-69.86
X48.84Y-72.4
X48.84Y-74.94
X48.84Y-77.48
X48.84Y-80.02
X48.84Y-82.56
X48.84Y-85.1
X48.84Y-87.64
X48.84Y-90.18
X48.84Y-92.72
X48.84Y-95.26
X48.84Y-97.8
X48.84Y-100.34
X48.84Y-102.88
X48.84Y-105.42
X48.84Y-107.96
X48.84Y-110.5
X48.84Y-113.04
X48.84Y-115.58
X48.84Y-118.12
X48.84Y-120.66
X48.84Y-123.2
X48.84Y-125.74
X48.84Y-128.28
X48.84Y-130.82
X48.84Y-133.36
X48.84Y-135.9
X48.84Y-138.44
X48.84Y-140.98
X48.84Y-143.52
X48.9Y-146.06
X48.9Y-148.6
X48.9Y-151.14
X48.9Y-153.68
X48.9Y-156.22
X48.9Y-158.76
X48.9Y-161.3
X48.9Y-163.84
X48.9Y-166.38
X48.9Y-168.92
X48.9Y-171.46
X48.9Y-174.0
X48.9Y-176.54
X48.9Y-179.08
X48.9Y-181.62
X48.9Y-184.16
X48.9Y-186.7
X48.9Y-189.24
X48.9Y-191.78
X48.9Y-194.32
X48.9Y-196.86
X48.9Y-199.4
X48.9Y-201.94
X48.9Y-204.48
X48.9Y-207.02
X48.9Y-209.56
X48.9Y-212.1
X48.9Y-214.64
X48.9Y-217.18
X48.9Y-219.72
X51.38Y-69.86
X51.38Y-72.4
X51.38Y-74.94
X51.38Y-77.48
X51.38Y-80.02
X51.38Y-82.56
X51.38Y-85.1
X51.38Y-87.64
X51.38Y-90.18
X51.38Y-92.72
X51.38Y-95.26
X51.38Y-97.8
X51.38Y-100.34
X51.38Y-102.88
X51.38Y-105.42
X51.38Y-107.96
X51.38Y-110.5
X51.38Y-113.04
X51.38Y-115.58
X51.38Y-118.12
X51.38Y-120.66
X51.38Y-123.2
X51.38Y-125.74
X51.38Y-128.28
X51.38Y-130.82
X51.38Y-133.36
X51.38Y-135.9
X51.38Y-138.44
X51.38Y-140.98
X51.38Y-143.52
X51.44Y-146.06
X51.44Y-148.6
X51.44Y-151.14
X51.44Y-153.68
X51.44Y-156.22
X51.44Y-158.76
X51.44Y-161.3
X51.44Y-163.84
X51.44Y-166.38
X51.44Y-168.92
X51.44Y-171.46
X51.44Y-174.0
X51.44Y-176.54
X51.44Y-179.08
X51.44Y-181.62
X51.44Y-184.16
X51.44Y-186.7
X51.44Y-189.24
X51.44Y-191.78
X51.44Y-194.32
X51.44Y-196.86
X51.44Y-199.4
X51.44Y-201.94
X51.44Y-204.48
X51.44Y-207.02
X51.44Y-209.56
X51.44Y-212.1
X51.44Y-214.64
X51.44Y-217.18
X51.44Y-219.72
X53.92Y-69.86
X53.92Y-72.4
X53.92Y-74.94
X53.92Y-77.48
X53.92Y-80.02
X53.92Y-82.56
X53.92Y-85.1
X53.92Y-87.64
X53.92Y-90.18
X53.92Y-92.72
X53.92Y-95.26
X53.92Y-97.8
X53.92Y-100.34
X53.92Y-102.88
X53.92Y-105.42
X53.92Y-107.96
X53.92Y-110.5
X53.92Y-113.04
X53.92Y-115.58
X53.92Y-118.12
X53.92Y-120.66
X53.92Y-123.2
X53.92Y-125.74
X53.92Y-128.28
X53.92Y-130.82
X53.92Y-133.36
X53.92Y-135.9
X53.92Y-138.44
X53.92Y-140.98
X53.92Y-143.52
X53.98Y-146.06
X53.98Y-148.6
X53.98Y-151.14
X53.98Y-153.68
X53.98Y-156.22
X53.98Y-158.76
X53.98Y-161.3
X53.98Y-163.84
X53.98Y-166.38
X53.98Y-168.92
X53.98Y-171.46
X53.98Y-174.0
X53.98Y-176.54
X53.98Y-179.08
X53.98Y-181.62
X53.98Y-184.16
X53.98Y-186.7
X53.98Y-189.24
X53.98Y-191.78
X53.98Y-194.32
X53.98Y-196.86
X53.98Y-199.4
X53.98Y-201.94
X53.98Y-204.48
X53.98Y-207.02
X53.98Y-209.56
X53.98Y-212.1
X53.98Y-214.64
X53.98Y-217.18
X53.98Y-219.72
X56.46Y-69.86
X56.46Y-72.4
X56.46Y-74.94
X56.46Y-77.48
X56.46Y-80.02
X56.46Y-82.56
X56.46Y-85.1
X56.46Y-87.64
X56.46Y-90.18
X56.46Y-92.72
X56.46Y-95.26
X56.46Y-97.8
X56.46Y-100.34
X56.46Y-102.88
X56.46Y-105.42
X56.46Y-107.96
X56.46Y-110.5
X56.46Y-113.04
X56.46Y-115.58
X56.46Y-118.12
X56.46Y-120.66
X56.46Y-123.2
X56.46Y-125.74
X56.46Y-128.28
X56.46Y-130.82
X56.46Y-133.36
X56.46Y-135.9
X56.46Y-138.44
X56.46Y-140.98
X56.46Y-143.52
X56.52Y-146.06
X56.52Y-148.6
X56.52Y-151.14
X56.52Y-153.68
X56.52Y-156.22
X56.52Y-158.76
X56.52Y-161.3
X56.52Y-163.84
X56.52Y-166.38
X56.52Y-168.92
X56.52Y-171.46
X56.52Y-174.0
X56.52Y-176.54
X56.52Y-179.08
X56.52Y-181.62
X56.52Y-184.16
X56.52Y-186.7
X56.52Y-189.24
X56.52Y-191.78
X56.52Y-194.32
X56.52Y-196.86
X56.52Y-199.4
X56.52Y-201.94
X56.52Y-204.48
X56.52Y-207.02
X56.52Y-209.56
X56.52Y-212.1
X56.52Y-214.64
X56.52Y-217.18
X56.52Y-219.72
X61.54Y-69.86
X61.54Y-72.4
X61.54Y-74.94
X61.54Y-77.48
X61.54Y-80.02
X61.54Y-82.56
X61.54Y-85.1
X61.54Y-87.64
X61.54Y-90.18
X61.54Y-92.72
X61.54Y-95.26
X61.54Y-97.8
X61.54Y-100.34
X61.54Y-102.88
X61.54Y-105.42
X61.54Y-107.96
X61.54Y-110.5
X61.54Y-113.04
X61.54Y-115.58
X61.54Y-118.12
X61.54Y-120.66
X61.54Y-123.2
X61.54Y-125.74
X61.54Y-128.28
X61.54Y-130.82
X61.54Y-133.36
X61.54Y-135.9
X61.54Y-138.44
X61.54Y-140.98
X61.54Y-143.52
X61.6Y-146.06
X61.6Y-148.6
X61.6Y-151.14
X61.6Y-153.68
X61.6Y-156.22
X61.6Y-158.76
X61.6Y-161.3
X61.6Y-163.84
X61.6Y-166.38
X61.6Y-168.92
X61.6Y-171.46
X61.6Y-174.0
X61.6Y-176.54
X61.6Y-179.08
X61.6Y-181.62
X61.6Y-184.16
X61.6Y-186.7
X61.6Y-189.24
X61.6Y-191.78
X61.6Y-194.32
X61.6Y-196.86
X61.6Y-199.4
X61.6Y-201.94
X61.6Y-204.48
X61.6Y-207.02
X61.6Y-209.56
X61.6Y-212.1
X61.6Y-214.64
X61.6Y-217.18
X61.6Y-219.72
X64.08Y-69.86
X64.08Y-72.4
X64.08Y-74.94
X64.08Y-77.48
X64.08Y-80.02
X64.08Y-82.56
X64.08Y-85.1
X64.08Y-87.64
X64.08Y-90.18
X64.08Y-92.72
X64.08Y-95.26
X64.08Y-97.8
X64.08Y-100.34
X64.08Y-102.88
X64.08Y-105.42
X64.08Y-107.96
X64.08Y-110.5
X64.08Y-113.04
X64.08Y-115.58
X64.08Y-118.12
X64.08Y-120.66
X64.08Y-123.2
X64.08Y-125.74
X64.08Y-128.28
X64.08Y-130.82
X64.08Y-133.36
X64.08Y-135.9
X64.08Y-138.44
X64.08Y-140.98
X64.08Y-143.52
X64.14Y-146.06
X64.14Y-148.6
X64.14Y-151.14
X64.14Y-153.68
X64.14Y-156.22
X64.14Y-158.76
X64.14Y-161.3
X64.14Y-163.84
X64.14Y-166.38
X64.14Y-168.92
X64.14Y-171.46
X64.14Y-174.0
X64.14Y-176.54
X64.14Y-179.08
X64.14Y-181.62
X64.14Y-184.16
X64.14Y-186.7
X64.14Y-189.24
X64.14Y-191.78
X64.14Y-194.32
X64.14Y-196.86
X64.14Y-199.4
X64.14Y-201.94
X64.14Y-204.48
X64.14Y-207.02
X64.14Y-209.56
X64.14Y-212.1
X64.14Y-214.64
X64.14Y-217.18
X64.14Y-219.72
X66.62Y-69.86
X66.62Y-72.4
X66.62Y-74.94
X66.62Y-77.48
X66.62Y-80.02
X66.62Y-82.56
X66.62Y-85.1
X66.62Y-87.64
X66.62Y-90.18
X66.62Y-92.72
X66.62Y-95.26
X66.62Y-97.8
X66.62Y-100.34
X66.62Y-102.88
X66.62Y-105.42
X66.62Y-107.96
X66.62Y-110.5
X66.62Y-113.04
X66.62Y-115.58
X66.62Y-118.12
X66.62Y-120.66
X66.62Y-123.2
X66.62Y-125.74
X66.62Y-128.28
X66.62Y-130.82
X66.62Y-133.36
X66.62Y-135.9
X66.62Y-138.44
X66.62Y-140.98
X66.62Y-143.52
X66.68Y-146.06
X66.68Y-148.6
X66.68Y-151.14
X66.68Y-153.68
X66.68Y-156.22
X66.68Y-158.76
X66.68Y-161.3
X66.68Y-163.84
X66.68Y-166.38
X66.68Y-168.92
X66.68Y-171.46
X66.68Y-174.0
X66.68Y-176.54
X66.68Y-179.08
X66.68Y-181.62
X66.68Y-184.16
X66.68Y-186.7
X66.68Y-189.24
X66.68Y-191.78
X66.68Y-194.32
X66.68Y-196.86
X66.68Y-199.4
X66.68Y-201.94
X66.68Y-204.48
X66.68Y-207.02
X66.68Y-209.56
X66.68Y-212.1
X66.68Y-214.64
X66.68Y-217.18
X66.68Y-219.72
X69.16Y-69.86
X69.16Y-72.4
X69.16Y-74.94
X69.16Y-77.48
X69.16Y-80.02
X69.16Y-82.56
X69.16Y-85.1
X69.16Y-87.64
X69.16Y-90.18
X69.16Y-92.72
X69.16Y-95.26
X69.16Y-97.8
X69.16Y-100.34
X69.16Y-102.88
X69.16Y-105.42
X69.16Y-107.96
X69.16Y-110.5
X69.16Y-113.04
X69.16Y-115.58
X69.16Y-118.12
X69.16Y-120.66
X69.16Y-123.2
X69.16Y-125.74
X69.16Y-128.28
X69.16Y-130.82
X69.16Y-133.36
X69.16Y-135.9
X69.16Y-138.44
X69.16Y-140.98
X69.16Y-143.52
X69.22Y-146.06
X69.22Y-148.6
X69.22Y-151.14
X69.22Y-153.68
X69.22Y-156.22
X69.22Y-158.76
X69.22Y-161.3
X69.22Y-163.84
X69.22Y-166.38
X69.22Y-168.92
X69.22Y-171.46
X69.22Y-174.0
X69.22Y-176.54
X69.22Y-179.08
X69.22Y-181.62
X69.22Y-184.16
X69.22Y-186.7
X69.22Y-189.24
X69.22Y-191.78
X69.22Y-194.32
X69.22Y-196.86
X69.22Y-199.4
X69.22Y-201.94
X69.22Y-204.48
X69.22Y-207.02
X69.22Y-209.56
X69.22Y-212.1
X69.22Y-214.64
X69.22Y-217.18
X69.22Y-219.72
X71.7Y-69.86
X71.7Y-72.4
X71.7Y-74.94
X71.7Y-77.48
X71.7Y-80.02
X71.7Y-82.56
X71.7Y-85.1
X71.7Y-87.64
X71.7Y-90.18
X71.7Y-92.72
X71.7Y-95.26
X71.7Y-97.8
X71.7Y-100.34
X71.7Y-102.88
X71.7Y-105.42
X71.7Y-107.96
X71.7Y-110.5
X71.7Y-113.04
X71.7Y-115.58
X71.7Y-118.12
X71.7Y-120.66
X71.7Y-123.2
X71.7Y-125.74
X71.7Y-128.28
X71.7Y-130.82
X71.7Y-133.36
X71.7Y-135.9
X71.7Y-138.44
X71.7Y-140.98
X71.7Y-143.52
X71.76Y-146.06
X71.76Y-148.6
X71.76Y-151.14
X71.76Y-153.68
X71.76Y-156.22
X71.76Y-158.76
X71.76Y-161.3
X71.76Y-163.84
X71.76Y-166.38
X71.76Y-168.92
X71.76Y-171.46
X71.76Y-174.0
X71.76Y-176.54
X71.76Y-179.08
X71.76Y-181.62
X71.76Y-184.16
X71.76Y-186.7
X71.76Y-189.24
X71.76Y-191.78
X71.76Y-194.32
X71.76Y-196.86
X71.76Y-199.4
X71.76Y-201.94
X71.76Y-204.48
X71.76Y-207.02
X71.76Y-209.56
X71.76Y-212.1
X71.76Y-214.64
X71.76Y-217.18
X71.76Y-219.72
X76.78Y-69.86
X76.78Y-72.4
X76.78Y-74.94
X76.78Y-77.48
X76.78Y-80.02
X76.78Y-82.56
X76.78Y-85.1
X76.78Y-87.64
X76.78Y-90.18
X76.78Y-92.72
X76.78Y-95.26
X76.78Y-97.8
X76.78Y-100.34
X76.78Y-110.5
X76.78Y-113.04
X76.78Y-115.58
X76.78Y-118.12
X76.78Y-120.66
X76.78Y-123.2
X76.78Y-125.74
X76.78Y-128.28
X76.78Y-130.82
X76.78Y-133.36
X76.78Y-135.9
X76.78Y-138.44
X76.78Y-140.98
X76.78Y-143.52
X76.78Y-153.68
X76.78Y-156.22
X76.78Y-158.76
X76.78Y-161.3
X76.78Y-163.84
X76.78Y-166.38
X76.78Y-168.92
X76.78Y-171.46
X76.78Y-174.0
X76.78Y-176.54
X76.78Y-179.08
X76.78Y-181.62
X76.78Y-184.16
X76.78Y-186.7
X76.78Y-196.86
X76.78Y-199.4
X76.78Y-201.94
X76.78Y-204.48
X76.78Y-207.02
X76.78Y-209.56
X76.78Y-212.1
X76.78Y-214.64
X76.78Y-217.18
X76.78Y-219.72
X76.84Y-102.88
X76.84Y-105.42
X76.84Y-107.96
X76.84Y-189.24
X76.84Y-191.78
X76.84Y-194.32
X79.32Y-69.86
X79.32Y-72.4
X79.32Y-74.94
X79.32Y-77.48
X79.32Y-80.02
X79.32Y-82.56
X79.32Y-85.1
X79.32Y-87.64
X79.32Y-90.18
X79.32Y-92.72
X79.32Y-95.26
X79.32Y-97.8
X79.32Y-100.34
X79.32Y-110.5
X79.32Y-113.04
X79.32Y-115.58
X79.32Y-118.12
X79.32Y-120.66
X79.32Y-123.2
X79.32Y-125.74
X79.32Y-128.28
X79.32Y-130.82
X79.32Y-133.36
X79.32Y-135.9
X79.32Y-138.44
X79.32Y-140.98
X79.32Y-143.52
X79.32Y-153.68
X79.32Y-156.22
X79.32Y-158.76
X79.32Y-161.3
X79.32Y-163.84
X79.32Y-166.38
X79.32Y-168.92
X79.32Y-171.46
X79.32Y-174.0
X79.32Y-176.54
X79.32Y-179.08
X79.32Y-181.62
X79.32Y-184.16
X79.32Y-186.7
X79.32Y-196.86
X79.32Y-199.4
X79.32Y-201.94
X79.32Y-204.48
X79.32Y-207.02
X79.32Y-209.56
X79.32Y-212.1
X79.32Y-214.64
X79.32Y-217.18
X79.32Y-219.72
X79.38Y-102.88
X79.38Y-105.42
X79.38Y-107.96
X79.38Y-189.24
X79.38Y-191.78
X79.38Y-194.32
X97.42Y-69.88
X97.42Y-72.42
X97.42Y-74.96
X97.42Y-77.5
X97.42Y-80.04
X97.42Y-82.58
X97.42Y-85.12
X97.42Y-87.66
X97.42Y-90.2
X97.42Y-92.74
X97.42Y-95.28
X97.42Y-97.82
X97.42Y-100.36
X97.42Y-102.9
X97.42Y-105.44
X97.42Y-107.98
X97.42Y-110.52
X97.42Y-113.06
X97.42Y-115.6
X97.42Y-118.14
X97.42Y-120.68
X97.42Y-123.22
X97.42Y-125.76
X97.42Y-128.3
X97.42Y-130.84
X97.42Y-133.38
X97.42Y-135.92
X97.42Y-138.46
X97.42Y-141.0
X97.42Y-143.54
X97.54Y-188.04
X97.54Y-190.58
X97.54Y-193.12
X97.54Y-195.66
X97.54Y-198.2
X97.54Y-200.74
X97.54Y-203.28
X97.54Y-205.82
X97.54Y-208.36
X97.54Y-210.9
X97.54Y-213.44
X97.54Y-215.98
X97.54Y-218.52
X97.54Y-221.06
X97.54Y-223.6
X99.96Y-69.88
X99.96Y-72.42
X99.96Y-74.96
X99.96Y-77.5
X99.96Y-80.04
X99.96Y-82.58
X99.96Y-85.12
X99.96Y-87.66
X99.96Y-90.2
X99.96Y-92.74
X99.96Y-95.28
X99.96Y-97.82
X99.96Y-100.36
X99.96Y-102.9
X99.96Y-105.44
X99.96Y-107.98
X99.96Y-110.52
X99.96Y-113.06
X99.96Y-115.6
X99.96Y-118.14
X99.96Y-120.68
X99.96Y-123.22
X99.96Y-125.76
X99.96Y-128.3
X99.96Y-130.84
X99.96Y-133.38
X99.96Y-135.92
X99.96Y-138.46
X99.96Y-141.0
X99.96Y-143.54
X100.08Y-188.04
X100.08Y-190.58
X100.08Y-193.12
X100.08Y-195.66
X100.08Y-198.2
X100.08Y-200.74
X100.08Y-203.28
X100.08Y-205.82
X100.08Y-208.36
X100.08Y-210.9
X100.08Y-213.44
X100.08Y-215.98
X100.08Y-218.52
X100.08Y-221.06
X100.08Y-223.6
X105.04Y-69.88
X105.04Y-72.42
X105.04Y-74.96
X105.04Y-77.5
X105.04Y-80.04
X105.04Y-82.58
X105.04Y-85.12
X105.04Y-87.66
X105.04Y-90.2
X105.04Y-92.74
X105.04Y-95.28
X105.04Y-97.82
X105.04Y-100.36
X105.04Y-102.9
X105.04Y-105.44
X105.04Y-107.98
X105.04Y-110.52
X105.04Y-113.06
X105.04Y-115.6
X105.04Y-118.14
X105.04Y-120.68
X105.04Y-123.22
X105.04Y-125.76
X105.04Y-128.3
X105.04Y-130.84
X105.04Y-133.38
X105.04Y-135.92
X105.04Y-138.46
X105.04Y-141.0
X105.04Y-143.54
X105.16Y-188.04
X105.16Y-190.58
X105.16Y-193.12
X105.16Y-195.66
X105.16Y-198.2
X105.16Y-200.74
X105.16Y-203.28
X105.16Y-205.82
X105.16Y-208.36
X105.16Y-210.9
X105.16Y-213.44
X105.16Y-215.98
X105.16Y-218.52
X105.16Y-221.06
X105.16Y-223.6
X107.58Y-69.88
X107.58Y-72.42
X107.58Y-74.96
X107.58Y-77.5
X107.58Y-80.04
X107.58Y-82.58
X107.58Y-85.12
X107.58Y-87.66
X107.58Y-90.2
X107.58Y-92.74
X107.58Y-95.28
X107.58Y-97.82
X107.58Y-100.36
X107.58Y-102.9
X107.58Y-105.44
X107.58Y-107.98
X107.58Y-110.52
X107.58Y-113.06
X107.58Y-115.6
X107.58Y-118.14
X107.58Y-120.68
X107.58Y-123.22
X107.58Y-125.76
X107.58Y-128.3
X107.58Y-130.84
X107.58Y-133.38
X107.58Y-135.92
X107.58Y-138.46
X107.58Y-141.0
X107.58Y-143.54
X107.7Y-188.04
X107.7Y-190.58
X107.7Y-193.12
X107.7Y-195.66
X107.7Y-198.2
X107.7Y-200.74
X107.7Y-203.28
X107.7Y-205.82
X107.7Y-208.36
X107.7Y-210.9
X107.7Y-213.44
X107.7Y-215.98
X107.7Y-218.52
X107.7Y-221.06
X107.7Y-223.6
X110.12Y-69.88
X110.12Y-72.42
X110.12Y-74.96
X110.12Y-77.5
X110.12Y-80.04
X110.12Y-82.58
X110.12Y-85.12
X110.12Y-87.66
X110.12Y-90.2
X110.12Y-92.74
X110.12Y-95.28
X110.12Y-97.82
X110.12Y-100.36
X110.12Y-102.9
X110.12Y-105.44
X110.12Y-107.98
X110.12Y-110.52
X110.12Y-113.06
X110.12Y-115.6
X110.12Y-118.14
X110.12Y-120.68
X110.12Y-123.22
X110.12Y-125.76
X110.12Y-128.3
X110.12Y-130.84
X110.12Y-133.38
X110.12Y-135.92
X110.12Y-138.46
X110.12Y-141.0
X110.12Y-143.54
X110.24Y-188.04
X110.24Y-190.58
X110.24Y-193.12
X110.24Y-195.66
X110.24Y-198.2
X110.24Y-200.74
X110.24Y-203.28
X110.24Y-205.82
X110.24Y-208.36
X110.24Y-210.9
X110.24Y-213.44
X110.24Y-215.98
X110.24Y-218.52
X110.24Y-221.06
X110.24Y-223.6
X112.66Y-69.88
X112.66Y-72.42
X112.66Y-74.96
X112.66Y-77.5
X112.66Y-80.04
X112.66Y-82.58
X112.66Y-85.12
X112.66Y-87.66
X112.66Y-90.2
X112.66Y-92.74
X112.66Y-95.28
X112.66Y-97.82
X112.66Y-100.36
X112.66Y-102.9
X112.66Y-105.44
X112.66Y-107.98
X112.66Y-110.52
X112.66Y-113.06
X112.66Y-115.6
X112.66Y-118.14
X112.66Y-120.68
X112.66Y-123.22
X112.66Y-125.76
X112.66Y-128.3
X112.66Y-130.84
X112.66Y-133.38
X112.66Y-135.92
X112.66Y-138.46
X112.66Y-141.0
X112.66Y-143.54
X112.78Y-188.04
X112.78Y-190.58
X112.78Y-193.12
X112.78Y-195.66
X112.78Y-198.2
X112.78Y-200.74
X112.78Y-203.28
X112.78Y-205.82
X112.78Y-208.36
X112.78Y-210.9
X112.78Y-213.44
X112.78Y-215.98
X112.78Y-218.52
X112.78Y-221.06
X112.78Y-223.6
X115.2Y-69.88
X115.2Y-72.42
X115.2Y-74.96
X115.2Y-77.5
X115.2Y-80.04
X115.2Y-82.58
X115.2Y-85.12
X115.2Y-87.66
X115.2Y-90.2
X115.2Y-92.74
X115.2Y-95.28
X115.2Y-97.82
X115.2Y-100.36
X115.2Y-102.9
X115.2Y-105.44
X115.2Y-107.98
X115.2Y-110.52
X115.2Y-113.06
X115.2Y-115.6
X115.2Y-118.14
X115.2Y-120.68
X115.2Y-123.22
X115.2Y-125.76
X115.2Y-128.3
X115.2Y-130.84
X115.2Y-133.38
X115.2Y-135.92
X115.2Y-138.46
X115.2Y-141.0
X115.2Y-143.54
X115.32Y-188.04
X115.32Y-190.58
X115.32Y-193.12
X115.32Y-195.66
X115.32Y-198.2
X115.32Y-200.74
X115.32Y-203.28
X115.32Y-205.82
X115.32Y-208.36
X115.32Y-210.9
X115.32Y-213.44
X115.32Y-215.98
X115.32Y-218.52
X115.32Y-221.06
X115.32Y-223.6
X120.28Y-69.88
X120.28Y-72.42
X120.28Y-74.96
X120.28Y-77.5
X120.28Y-80.04
X120.28Y-82.58
X120.28Y-85.12
X120.28Y-87.66
X120.28Y-90.2
X120.28Y-92.74
X120.28Y-95.28
X120.28Y-97.82
X120.28Y-100.36
X120.28Y-102.9
X120.28Y-105.44
X120.28Y-107.98
X120.28Y-110.52
X120.28Y-113.06
X120.28Y-115.6
X120.28Y-118.14
X120.28Y-120.68
X120.28Y-123.22
X120.28Y-125.76
X120.28Y-128.3
X120.28Y-130.84
X120.28Y-133.38
X120.28Y-135.92
X120.28Y-138.46
X120.28Y-141.0
X120.28Y-143.54
X120.4Y-188.04
X120.4Y-190.58
X120.4Y-193.12
X120.4Y-195.66
X120.4Y-198.2
X120.4Y-200.74
X120.4Y-203.28
X120.4Y-205.82
X120.4Y-208.36
X120.4Y-210.9
X120.4Y-213.44
X120.4Y-215.98
X120.4Y-218.52
X120.4Y-221.06
X120.4Y-223.6
X122.82Y-69.88
X122.82Y-72.42
X122.82Y-74.96
X122.82Y-77.5
X122.82Y-80.04
X122.82Y-82.58
X122.82Y-85.12
X122.82Y-87.66
X122.82Y-90.2
X122.82Y-92.74
X122.82Y-95.28
X122.82Y-97.82
X122.82Y-100.36
X122.82Y-102.9
X122.82Y-105.44
X122.82Y-107.98
X122.82Y-110.52
X122.82Y-113.06
X122.82Y-115.6
X122.82Y-118.14
X122.82Y-120.68
X122.82Y-123.22
X122.82Y-125.76
X122.82Y-128.3
X122.82Y-130.84
X122.82Y-133.38
X122.82Y-135.92
X122.82Y-138.46
X122.82Y-141.0
X122.82Y-143.54
X122.94Y-188.04
X122.94Y-190.58
X122.94Y-193.12
X122.94Y-195.66
X122.94Y-198.2
X122.94Y-200.74
X122.94Y-203.28
X122.94Y-205.82
X122.94Y-208.36
X122.94Y-210.9
X122.94Y-213.44
X122.94Y-215.98
X122.94Y-218.52
X122.94Y-221.06
X122.94Y-223.6
X125.36Y-69.88
X125.36Y-72.42
X125.36Y-74.96
X125.36Y-77.5
X125.36Y-80.04
X125.36Y-82.58
X125.36Y-85.12
X125.36Y-87.66
X125.36Y-90.2
X125.36Y-92.74
X125.36Y-95.28
X125.36Y-97.82
X125.36Y-100.36
X125.36Y-102.9
X125.36Y-105.44
X125.36Y-107.98
X125.36Y-110.52
X125.36Y-113.06
X125.36Y-115.6
X125.36Y-118.14
X125.36Y-120.68
X125.36Y-123.22
X125.36Y-125.76
X125.36Y-128.3
X125.36Y-130.84
X125.36Y-133.38
X125.36Y-135.92
X125.36Y-138.46
X125.36Y-141.0
X125.36Y-143.54
X125.48Y-188.04
X125.48Y-190.58
X125.48Y-193.12
X125.48Y-195.66
X125.48Y-198.2
X125.48Y-200.74
X125.48Y-203.28
X125.48Y-205.82
X125.48Y-208.36
X125.48Y-210.9
X125.48Y-213.44
X125.48Y-215.98
X125.48Y-218.52
X125.48Y-221.06
X125.48Y-223.6
X127.9Y-69.88
X127.9Y-72.42
X127.9Y-74.96
X127.9Y-77.5
X127.9Y-80.04
X127.9Y-82.58
X127.9Y-85.12
X127.9Y-87.66
X127.9Y-90.2
X127.9Y-92.74
X127.9Y-95.28
X127.9Y-97.82
X127.9Y-100.36
X127.9Y-102.9
X127.9Y-105.44
X127.9Y-107.98
X127.9Y-110.52
X127.9Y-113.06
X127.9Y-115.6
X127.9Y-118.14
X127.9Y-120.68
X127.9Y-123.22
X127.9Y-125.76
X127.9Y-128.3
X127.9Y-130.84
X127.9Y-133.38
X127.9Y-135.92
X127.9Y-138.46
X127.9Y-141.0
X127.9Y-143.54
X128.02Y-188.04
X128.02Y-190.58
X128.02Y-193.12
X128.02Y-195.66
X128.02Y-198.2
X128.02Y-200.74
X128.02Y-203.28
X128.02Y-205.82
X128.02Y-208.36
X128.02Y-210.9
X128.02Y-213.44
X128.02Y-215.98
X128.02Y-218.52
X128.02Y-221.06
X128.02Y-223.6
X130.44Y-69.88
X130.44Y-72.42
X130.44Y-74.96
X130.44Y-77.5
X130.44Y-80.04
X130.44Y-82.58
X130.44Y-85.12
X130.44Y-87.66
X130.44Y-90.2
X130.44Y-92.74
X130.44Y-95.28
X130.44Y-97.82
X130.44Y-100.36
X130.44Y-102.9
X130.44Y-105.44
X130.44Y-107.98
X130.44Y-110.52
X130.44Y-113.06
X130.44Y-115.6
X130.44Y-118.14
X130.44Y-120.68
X130.44Y-123.22
X130.44Y-125.76
X130.44Y-128.3
X130.44Y-130.84
X130.44Y-133.38
X130.44Y-135.92
X130.44Y-138.46
X130.44Y-141.0
X130.44Y-143.54
X130.56Y-188.04
X130.56Y-190.58
X130.56Y-193.12
X130.56Y-195.66
X130.56Y-198.2
X130.56Y-200.74
X130.56Y-203.28
X130.56Y-205.82
X130.56Y-208.36
X130.56Y-210.9
X130.56Y-213.44
X130.56Y-215.98
X130.56Y-218.52
X130.56Y-221.06
X130.56Y-223.6
X135.46Y-69.88
X135.46Y-72.42
X135.46Y-74.96
X135.46Y-77.5
X135.46Y-80.04
X135.46Y-82.58
X135.46Y-85.12
X135.46Y-87.66
X135.46Y-90.2
X135.46Y-92.74
X135.46Y-95.28
X135.46Y-97.82
X135.46Y-100.36
X135.46Y-110.52
X135.46Y-113.06
X135.46Y-115.6
X135.46Y-118.14
X135.46Y-120.68
X135.46Y-123.22
X135.46Y-125.76
X135.46Y-128.3
X135.46Y-130.84
X135.46Y-133.38
X135.46Y-135.92
X135.46Y-138.46
X135.46Y-141.0
X135.46Y-143.54
X135.52Y-102.9
X135.52Y-105.44
X135.52Y-107.98
X135.64Y-188.04
X135.64Y-190.58
X135.64Y-193.12
X135.64Y-195.66
X135.64Y-198.2
X135.64Y-200.74
X135.64Y-203.28
X135.64Y-205.82
X135.64Y-208.36
X135.64Y-210.9
X135.64Y-213.44
X135.64Y-215.98
X135.64Y-218.52
X135.64Y-221.06
X135.64Y-223.6
X138.0Y-69.88
X138.0Y-72.42
X138.0Y-74.96
X138.0Y-77.5
X138.0Y-80.04
X138.0Y-82.58
X138.0Y-85.12
X138.0Y-87.66
X138.0Y-90.2
X138.0Y-92.74
X138.0Y-95.28
X138.0Y-97.82
X138.0Y-100.36
X138.0Y-110.52
X138.0Y-113.06
X138.0Y-115.6
X138.0Y-118.14
X138.0Y-120.68
X138.0Y-123.22
X138.0Y-125.76
X138.0Y-128.3
X138.0Y-130.84
X138.0Y-133.38
X138.0Y-135.92
X138.0Y-138.46
X138.0Y-141.0
X138.0Y-143.54
X138.06Y-102.9
X138.06Y-105.44
X138.06Y-107.98
X138.18Y-188.04
X138.18Y-190.58
X138.18Y-193.12
X138.18Y-195.66
X138.18Y-198.2
X138.18Y-200.74
X138.18Y-203.28
X138.18Y-205.82
X138.18Y-208.36
X138.18Y-210.9
X138.18Y-213.44
X138.18Y-215.98
X138.18Y-218.52
X138.18Y-221.06
X138.18Y-223.6
X140.54Y-69.88
X140.54Y-72.42
X140.54Y-74.96
X140.54Y-77.5
X140.54Y-80.04
X140.54Y-82.58
X140.54Y-85.12
X140.54Y-87.66
X140.54Y-90.2
X140.54Y-92.74
X140.54Y-95.28
X140.54Y-97.82
X140.54Y-100.36
X140.54Y-110.52
X140.54Y-113.06
X140.54Y-115.6
X140.54Y-118.14
X140.54Y-120.68
X140.54Y-123.22
X140.54Y-125.76
X140.54Y-128.3
X140.54Y-130.84
X140.54Y-133.38
X140.54Y-135.92
X140.54Y-138.46
X140.54Y-141.0
X140.54Y-143.54
X140.6Y-102.9
X140.6Y-105.44
X140.6Y-107.98
X145.62Y-69.88
X145.62Y-72.42
X145.62Y-74.96
X145.62Y-77.5
X145.62Y-80.04
X145.62Y-82.58
X145.62Y-85.12
X145.62Y-87.66
X145.62Y-90.2
X145.62Y-92.74
X145.62Y-95.28
X145.62Y-97.82
X145.62Y-100.36
X145.62Y-102.9
X145.62Y-105.44
X145.62Y-107.98
X145.62Y-110.52
X145.62Y-113.06
X145.62Y-115.6
X145.62Y-118.14
X145.62Y-120.68
X145.62Y-123.22
X145.62Y-125.76
X145.62Y-128.3
X145.62Y-130.84
X145.62Y-133.38
X145.62Y-135.92
X145.62Y-138.46
X145.62Y-141.0
X145.62Y-143.54
X148.16Y-69.88
X148.16Y-72.42
X148.16Y-74.96
X148.16Y-77.5
X148.16Y-80.04
X148.16Y-82.58
X148.16Y-85.12
X148.16Y-87.66
X148.16Y-90.2
X148.16Y-92.74
X148.16Y-95.28
X148.16Y-97.82
X148.16Y-100.36
X148.16Y-102.9
X148.16Y-105.44
X148.16Y-107.98
X148.16Y-110.52
X148.16Y-113.06
X148.16Y-115.6
X148.16Y-118.14
X148.16Y-120.68
X148.16Y-123.22
X148.16Y-125.76
X148.16Y-128.3
X148.16Y-130.84
X148.16Y-133.38
X148.16Y-135.92
X148.16Y-138.46
X148.16Y-141.0
X148.16Y-143.54
X150.7Y-69.88
X150.7Y-72.42
X150.7Y-74.96
X150.7Y-77.5
X150.7Y-80.04
X150.7Y-82.58
X150.7Y-85.12
X150.7Y-87.66
X150.7Y-90.2
X150.7Y-92.74
X150.7Y-95.28
X150.7Y-97.82
X150.7Y-100.36
X150.7Y-102.9
X150.7Y-105.44
X150.7Y-107.98
X150.7Y-110.52
X150.7Y-113.06
X150.7Y-115.6
X150.7Y-118.14
X150.7Y-120.68
X150.7Y-123.22
X150.7Y-125.76
X150.7Y-128.3
X150.7Y-130.84
X150.7Y-133.38
X150.7Y-135.92
X150.7Y-138.46
X150.7Y-141.0
X150.7Y-143.54
X153.24Y-69.88
X153.24Y-72.42
X153.24Y-74.96
X153.24Y-77.5
X153.24Y-80.04
X153.24Y-82.58
X153.24Y-85.12
X153.24Y-87.66
X153.24Y-90.2
X153.24Y-92.74
X153.24Y-95.28
X153.24Y-97.82
X153.24Y-100.36
X153.24Y-102.9
X153.24Y-105.44
X153.24Y-107.98
X153.24Y-110.52
X153.24Y-113.06
X153.24Y-115.6
X153.24Y-118.14
X153.24Y-120.68
X153.24Y-123.22
X153.24Y-125.76
X153.24Y-128.3
X153.24Y-130.84
X153.24Y-133.38
X153.24Y-135.92
X153.24Y-138.46
X153.24Y-141.0
X153.24Y-143.54
X155.78Y-69.88
X155.78Y-72.42
X155.78Y-74.96
X155.78Y-77.5
X155.78Y-80.04
X155.78Y-82.58
X155.78Y-85.12
X155.78Y-87.66
X155.78Y-90.2
X155.78Y-92.74
X155.78Y-95.28
X155.78Y-97.82
X155.78Y-100.36
X155.78Y-102.9
X155.78Y-105.44
X155.78Y-107.98
X155.78Y-110.52
X155.78Y-113.06
X155.78Y-115.6
X155.78Y-118.14
X155.78Y-120.68
X155.78Y-123.22
X155.78Y-125.76
X155.78Y-128.3
X155.78Y-130.84
X155.78Y-133.38
X155.78Y-135.92
X155.78Y-138.46
X155.78Y-141.0
X155.78Y-143.54
X156.54Y-188.04
X156.54Y-190.58
X156.54Y-193.12
X156.54Y-195.66
X156.54Y-198.2
X156.54Y-200.74
X156.54Y-203.28
X156.54Y-205.82
X156.54Y-208.36
X156.54Y-210.9
X156.54Y-213.44
X156.54Y-215.98
X156.54Y-218.52
X156.54Y-221.06
X156.54Y-223.6
X159.08Y-188.04
X159.08Y-190.58
X159.08Y-193.12
X159.08Y-195.66
X159.08Y-198.2
X159.08Y-200.74
X159.08Y-203.28
X159.08Y-205.82
X159.08Y-208.36
X159.08Y-210.9
X159.08Y-213.44
X159.08Y-215.98
X159.08Y-218.52
X159.08Y-221.06
X159.08Y-223.6
X160.86Y-69.88
X160.86Y-72.42
X160.86Y-74.96
X160.86Y-77.5
X160.86Y-80.04
X160.86Y-82.58
X160.86Y-85.12
X160.86Y-87.66
X160.86Y-90.2
X160.86Y-92.74
X160.86Y-95.28
X160.86Y-97.82
X160.86Y-100.36
X160.86Y-102.9
X160.86Y-105.44
X160.86Y-107.98
X160.86Y-110.52
X160.86Y-113.06
X160.86Y-115.6
X160.86Y-118.14
X160.86Y-120.68
X160.86Y-123.22
X160.86Y-125.76
X160.86Y-128.3
X160.86Y-130.84
X160.86Y-133.38
X160.86Y-135.92
X160.86Y-138.46
X160.86Y-141.0
X160.86Y-143.54
X163.4Y-69.88
X163.4Y-72.42
X163.4Y-74.96
X163.4Y-77.5
X163.4Y-80.04
X163.4Y-82.58
X163.4Y-85.12
X163.4Y-87.66
X163.4Y-90.2
X163.4Y-92.74
X163.4Y-95.28
X163.4Y-97.82
X163.4Y-100.36
X163.4Y-102.9
X163.4Y-105.44
X163.4Y-107.98
X163.4Y-110.52
X163.4Y-113.06
X163.4Y-115.6
X163.4Y-118.14
X163.4Y-120.68
X163.4Y-123.22
X163.4Y-125.76
X163.4Y-128.3
X163.4Y-130.84
X163.4Y-133.38
X163.4Y-135.92
X163.4Y-138.46
X163.4Y-141.0
X163.4Y-143.54
X164.16Y-188.04
X164.16Y-190.58
X164.16Y-193.12
X164.16Y-195.66
X164.16Y-198.2
X164.16Y-200.74
X164.16Y-203.28
X164.16Y-205.82
X164.16Y-208.36
X164.16Y-210.9
X164.16Y-213.44
X164.16Y-215.98
X164.16Y-218.52
X164.16Y-221.06
X164.16Y-223.6
X165.94Y-69.88
X165.94Y-72.42
X165.94Y-74.96
X165.94Y-77.5
X165.94Y-80.04
X165.94Y-82.58
X165.94Y-85.12
X165.94Y-87.66
X165.94Y-90.2
X165.94Y-92.74
X165.94Y-95.28
X165.94Y-97.82
X165.94Y-100.36
X165.94Y-102.9
X165.94Y-105.44
X165.94Y-107.98
X165.94Y-110.52
X165.94Y-113.06
X165.94Y-115.6
X165.94Y-118.14
X165.94Y-120.68
X165.94Y-123.22
X165.94Y-125.76
X165.94Y-128.3
X165.94Y-130.84
X165.94Y-133.38
X165.94Y-135.92
X165.94Y-138.46
X165.94Y-141.0
X165.94Y-143.54
X166.7Y-188.04
X166.7Y-190.58
X166.7Y-193.12
X166.7Y-195.66
X166.7Y-198.2
X166.7Y-200.74
X166.7Y-203.28
X166.7Y-205.82
X166.7Y-208.36
X166.7Y-210.9
X166.7Y-213.44
X166.7Y-215.98
X166.7Y-218.52
X166.7Y-221.06
X166.7Y-223.6
X168.48Y-69.88
X168.48Y-72.42
X168.48Y-74.96
X168.48Y-77.5
X168.48Y-80.04
X168.48Y-82.58
X168.48Y-85.12
X168.48Y-87.66
X168.48Y-90.2
X168.48Y-92.74
X168.48Y-95.28
X168.48Y-97.82
X168.48Y-100.36
X168.48Y-102.9
X168.48Y-105.44
X168.48Y-107.98
X168.48Y-110.52
X168.48Y-113.06
X168.48Y-115.6
X168.48Y-118.14
X168.48Y-120.68
X168.48Y-123.22
X168.48Y-125.76
X168.48Y-128.3
X168.48Y-130.84
X168.48Y-133.38
X168.48Y-135.92
X168.48Y-138.46
X168.48Y-141.0
X168.48Y-143.54
X169.24Y-188.04
X169.24Y-190.58
X169.24Y-193.12
X169.24Y-195.66
X169.24Y-198.2
X169.24Y-200.74
X169.24Y-203.28
X169.24Y-205.82
X169.24Y-208.36
X169.24Y-210.9
X169.24Y-213.44
X169.24Y-215.98
X169.24Y-218.52
X169.24Y-221.06
X169.24Y-223.6
X171.02Y-69.88
X171.02Y-72.42
X171.02Y-74.96
X171.02Y-77.5
X171.02Y-80.04
X171.02Y-82.58
X171.02Y-85.12
X171.02Y-87.66
X171.02Y-90.2
X171.02Y-92.74
X171.02Y-95.28
X171.02Y-97.82
X171.02Y-100.36
X171.02Y-102.9
X171.02Y-105.44
X171.02Y-107.98
X171.02Y-110.52
X171.02Y-113.06
X171.02Y-115.6
X171.02Y-118.14
X171.02Y-120.68
X171.02Y-123.22
X171.02Y-125.76
X171.02Y-128.3
X171.02Y-130.84
X171.02Y-133.38
X171.02Y-135.92
X171.02Y-138.46
X171.02Y-141.0
X171.02Y-143.54
X171.78Y-188.04
X171.78Y-190.58
X171.78Y-193.12
X171.78Y-195.66
X171.78Y-198.2
X171.78Y-200.74
X171.78Y-203.28
X171.78Y-205.82
X171.78Y-208.36
X171.78Y-210.9
X171.78Y-213.44
X171.78Y-215.98
X171.78Y-218.52
X171.78Y-221.06
X171.78Y-223.6
X174.32Y-188.04
X174.32Y-190.58
X174.32Y-193.12
X174.32Y-195.66
X174.32Y-198.2
X174.32Y-200.74
X174.32Y-203.28
X174.32Y-205.82
X174.32Y-208.36
X174.32Y-210.9
X174.32Y-213.44
X174.32Y-215.98
X174.32Y-218.52
X174.32Y-221.06
X174.32Y-223.6
X176.1Y-69.88
X176.1Y-72.42
X176.1Y-74.96
X176.1Y-77.5
X176.1Y-80.04
X176.1Y-82.58
X176.1Y-85.12
X176.1Y-87.66
X176.1Y-90.2
X176.1Y-92.74
X176.1Y-95.28
X176.1Y-97.82
X176.1Y-100.36
X176.1Y-110.52
X176.1Y-113.06
X176.1Y-115.6
X176.1Y-118.14
X176.1Y-120.68
X176.1Y-123.22
X176.1Y-125.76
X176.1Y-128.3
X176.1Y-130.84
X176.1Y-133.38
X176.1Y-135.92
X176.1Y-138.46
X176.1Y-141.0
X176.1Y-143.54
X176.16Y-102.9
X176.16Y-105.44
X176.16Y-107.98
X178.64Y-69.88
X178.64Y-72.42
X178.64Y-74.96
X178.64Y-77.5
X178.64Y-80.04
X178.64Y-82.58
X178.64Y-85.12
X178.64Y-87.66
X178.64Y-90.2
X178.64Y-92.74
X178.64Y-95.28
X178.64Y-97.82
X178.64Y-100.36
X178.64Y-110.52
X178.64Y-113.06
X178.64Y-115.6
X178.64Y-118.14
X178.64Y-120.68
X178.64Y-123.22
X178.64Y-125.76
X178.64Y-128.3
X178.64Y-130.84
X178.64Y-133.38
X178.64Y-135.92
X178.64Y-138.46
X178.64Y-141.0
X178.64Y-143.54
X178.7Y-102.9
X178.7Y-105.44
X178.7Y-107.98
X179.4Y-188.04
X179.4Y-190.58
X179.4Y-193.12
X179.4Y-195.66
X179.4Y-198.2
X179.4Y-200.74
X179.4Y-203.28
X179.4Y-205.82
X179.4Y-208.36
X179.4Y-210.9
X179.4Y-213.44
X179.4Y-215.98
X179.4Y-218.52
X179.4Y-221.06
X179.4Y-223.6
X181.94Y-188.04
X181.94Y-190.58
X181.94Y-193.12
X181.94Y-195.66
X181.94Y-198.2
X181.94Y-200.74
X181.94Y-203.28
X181.94Y-205.82
X181.94Y-208.36
X181.94Y-210.9
X181.94Y-213.44
X181.94Y-215.98
X181.94Y-218.52
X181.94Y-221.06
X181.94Y-223.6
X184.48Y-188.04
X184.48Y-190.58
X184.48Y-193.12
X184.48Y-195.66
X184.48Y-198.2
X184.48Y-200.74
X184.48Y-203.28
X184.48Y-205.82
X184.48Y-208.36
X184.48Y-210.9
X184.48Y-213.44
X184.48Y-215.98
X184.48Y-218.52
X184.48Y-221.06
X184.48Y-223.6
X187.02Y-188.04
X187.02Y-190.58
X187.02Y-193.12
X187.02Y-195.66
X187.02Y-198.2
X187.02Y-200.74
X187.02Y-203.28
X187.02Y-205.82
X187.02Y-208.36
X187.02Y-210.9
X187.02Y-213.44
X187.02Y-215.98
X187.02Y-218.52
X187.02Y-221.06
X187.02Y-223.6
X189.56Y-188.04
X189.56Y-190.58
X189.56Y-193.12
X189.56Y-195.66
X189.56Y-198.2
X189.56Y-200.74
X189.56Y-203.28
X189.56Y-205.82
X189.56Y-208.36
X189.56Y-210.9
X189.56Y-213.44
X189.56Y-215.98
X189.56Y-218.52
X189.56Y-221.06
X189.56Y-223.6
X194.64Y-188.04
X194.64Y-190.58
X194.64Y-193.12
X194.64Y-195.66
X194.64Y-198.2
X194.64Y-200.74
X194.64Y-203.28
X194.64Y-205.82
X194.64Y-208.36
X194.64Y-210.9
X194.64Y-213.44
X194.64Y-215.98
X194.64Y-218.52
X194.64Y-221.06
X194.64Y-223.6
X196.68Y-69.86
X196.68Y-72.4
X196.68Y-74.94
X196.68Y-77.48
X196.68Y-80.02
X196.68Y-82.56
X196.68Y-85.1
X196.68Y-87.64
X196.68Y-90.18
X196.68Y-92.72
X196.68Y-95.26
X196.68Y-97.8
X196.68Y-100.34
X196.68Y-110.5
X196.68Y-113.04
X196.68Y-115.58
X196.68Y-118.12
X196.68Y-120.66
X196.68Y-123.2
X196.68Y-125.74
X196.68Y-128.28
X196.68Y-130.82
X196.68Y-133.36
X196.68Y-135.9
X196.68Y-138.44
X196.68Y-140.98
X196.68Y-143.52
X197.18Y-188.04
X197.18Y-190.58
X197.18Y-193.12
X197.18Y-195.66
X197.18Y-198.2
X197.18Y-200.74
X197.18Y-203.28
X197.18Y-205.82
X197.18Y-208.36
X197.18Y-210.9
X197.18Y-213.44
X197.18Y-215.98
X197.18Y-218.52
X197.18Y-221.06
X197.18Y-223.6
X199.22Y-69.86
X199.22Y-72.4
X199.22Y-74.94
X199.22Y-77.48
X199.22Y-80.02
X199.22Y-82.56
X199.22Y-85.1
X199.22Y-87.64
X199.22Y-90.18
X199.22Y-92.72
X199.22Y-95.26
X199.22Y-97.8
X199.22Y-100.34
X199.22Y-110.5
X199.22Y-113.04
X199.22Y-115.58
X199.22Y-118.12
X199.22Y-120.66
X199.22Y-123.2
X199.22Y-125.74
X199.22Y-128.28
X199.22Y-130.82
X199.22Y-133.36
X199.22Y-135.9
X199.22Y-138.44
X199.22Y-140.98
X199.22Y-143.52
X204.3Y-69.86
X204.3Y-72.4
X204.3Y-74.94
X204.3Y-77.48
X204.3Y-80.02
X204.3Y-82.56
X204.3Y-85.1
X204.3Y-87.64
X204.3Y-90.18
X204.3Y-92.72
X204.3Y-95.26
X204.3Y-97.8
X204.3Y-100.34
X204.3Y-102.88
X204.3Y-105.42
X204.3Y-107.96
X204.3Y-110.5
X204.3Y-113.04
X204.3Y-115.58
X204.3Y-118.12
X204.3Y-120.66
X204.3Y-123.2
X204.3Y-125.74
X204.3Y-128.28
X204.3Y-130.82
X204.3Y-133.36
X204.3Y-135.9
X204.3Y-138.44
X204.3Y-140.98
X204.3Y-143.52
X206.84Y-69.86
X206.84Y-72.4
X206.84Y-74.94
X206.84Y-77.48
X206.84Y-80.02
X206.84Y-82.56
X206.84Y-85.1
X206.84Y-87.64
X206.84Y-90.18
X206.84Y-92.72
X206.84Y-95.26
X206.84Y-97.8
X206.84Y-100.34
X206.84Y-102.88
X206.84Y-105.42
X206.84Y-107.96
X206.84Y-110.5
X206.84Y-113.04
X206.84Y-115.58
X206.84Y-118.12
X206.84Y-120.66
X206.84Y-123.2
X206.84Y-125.74
X206.84Y-128.28
X206.84Y-130.82
X206.84Y-133.36
X206.84Y-135.9
X206.84Y-138.44
X206.84Y-140.98
X206.84Y-143.52
X209.38Y-69.86
X209.38Y-72.4
X209.38Y-74.94
X209.38Y-77.48
X209.38Y-80.02
X209.38Y-82.56
X209.38Y-85.1
X209.38Y-87.64
X209.38Y-90.18
X209.38Y-92.72
X209.38Y-95.26
X209.38Y-97.8
X209.38Y-100.34
X209.38Y-102.88
X209.38Y-105.42
X209.38Y-107.96
X209.38Y-110.5
X209.38Y-113.04
X209.38Y-115.58
X209.38Y-118.12
X209.38Y-120.66
X209.38Y-123.2
X209.38Y-125.74
X209.38Y-128.28
X209.38Y-130.82
X209.38Y-133.36
X209.38Y-135.9
X209.38Y-138.44
X209.38Y-140.98
X209.38Y-143.52
X211.92Y-69.86
X211.92Y-72.4
X211.92Y-74.94
X211.92Y-77.48
X211.92Y-80.02
X211.92Y-82.56
X211.92Y-85.1
X211.92Y-87.64
X211.92Y-90.18
X211.92Y-92.72
X211.92Y-95.26
X211.92Y-97.8
X211.92Y-100.34
X211.92Y-102.88
X211.92Y-105.42
X211.92Y-107.96
X211.92Y-110.5
X211.92Y-113.04
X211.92Y-115.58
X211.92Y-118.12
X211.92Y-120.66
X211.92Y-123.2
X211.92Y-125.74
X211.92Y-128.28
X211.92Y-130.82
X211.92Y-133.36
X211.92Y-135.9
X211.92Y-138.44
X211.92Y-140.98
X211.92Y-143.52
X214.46Y-69.86
X214.46Y-72.4
X214.46Y-74.94
X214.46Y-77.48
X214.46Y-80.02
X214.46Y-82.56
X214.46Y-85.1
X214.46Y-87.64
X214.46Y-90.18
X214.46Y-92.72
X214.46Y-95.26
X214.46Y-97.8
X214.46Y-100.34
X214.46Y-102.88
X214.46Y-105.42
X214.46Y-107.96
X214.46Y-110.5
X214.46Y-113.04
X214.46Y-115.58
X214.46Y-118.12
X214.46Y-120.66
X214.46Y-123.2
X214.46Y-125.74
X214.46Y-128.28
X214.46Y-130.82
X214.46Y-133.36
X214.46Y-135.9
X214.46Y-138.44
X214.46Y-140.98
X214.46Y-143.52
X219.54Y-69.86
X219.54Y-72.4
X219.54Y-74.94
X219.54Y-77.48
X219.54Y-80.02
X219.54Y-82.56
X219.54Y-85.1
X219.54Y-87.64
X219.54Y-90.18
X219.54Y-92.72
X219.54Y-95.26
X219.54Y-97.8
X219.54Y-100.34
X219.54Y-102.88
X219.54Y-105.42
X219.54Y-107.96
X219.54Y-110.5
X219.54Y-113.04
X219.54Y-115.58
X219.54Y-118.12
X219.54Y-120.66
X219.54Y-123.2
X219.54Y-125.74
X219.54Y-128.28
X219.54Y-130.82
X219.54Y-133.36
X219.54Y-135.9
X219.54Y-138.44
X219.54Y-140.98
X219.54Y-143.52
X222.08Y-69.86
X222.08Y-72.4
X222.08Y-74.94
X222.08Y-77.48
X222.08Y-80.02
X222.08Y-82.56
X222.08Y-85.1
X222.08Y-87.64
X222.08Y-90.18
X222.08Y-92.72
X222.08Y-95.26
X222.08Y-97.8
X222.08Y-100.34
X222.08Y-102.88
X222.08Y-105.42
X222.08Y-107.96
X222.08Y-110.5
X222.08Y-113.04
X222.08Y-115.58
X222.08Y-118.12
X222.08Y-120.66
X222.08Y-123.2
X222.08Y-125.74
X222.08Y-128.28
X222.08Y-130.82
X222.08Y-133.36
X222.08Y-135.9
X222.08Y-138.44
X222.08Y-140.98
X222.08Y-143.52
X224.62Y-69.86
X224.62Y-72.4
X224.62Y-74.94
X224.62Y-77.48
X224.62Y-80.02
X224.62Y-82.56
X224.62Y-85.1
X224.62Y-87.64
X224.62Y-90.18
X224.62Y-92.72
X224.62Y-95.26
X224.62Y-97.8
X224.62Y-100.34
X224.62Y-102.88
X224.62Y-105.42
X224.62Y-107.96
X224.62Y-110.5
X224.62Y-113.04
X224.62Y-115.58
X224.62Y-118.12
X224.62Y-120.66
X224.62Y-123.2
X224.62Y-125.74
X224.62Y-128.28
X224.62Y-130.82
X224.62Y-133.36
X224.62Y-135.9
X224.62Y-138.44
X224.62Y-140.98
X224.62Y-143.52
X227.16Y-69.86
X227.16Y-72.4
X227.16Y-74.94
X227.16Y-77.48
X227.16Y-80.02
X227.16Y-82.56
X227.16Y-85.1
X227.16Y-87.64
X227.16Y-90.18
X227.16Y-92.72
X227.16Y-95.26
X227.16Y-97.8
X227.16Y-100.34
X227.16Y-102.88
X227.16Y-105.42
X227.16Y-107.96
X227.16Y-110.5
X227.16Y-113.04
X227.16Y-115.58
X227.16Y-118.12
X227.16Y-120.66
X227.16Y-123.2
X227.16Y-125.74
X227.16Y-128.28
X227.16Y-130.82
X227.16Y-133.36
X227.16Y-135.9
X227.16Y-138.44
X227.16Y-140.98
X227.16Y-143.52
X229.7Y-69.86
X229.7Y-72.4
X229.7Y-74.94
X229.7Y-77.48
X229.7Y-80.02
X229.7Y-82.56
X229.7Y-85.1
X229.7Y-87.64
X229.7Y-90.18
X229.7Y-92.72
X229.7Y-95.26
X229.7Y-97.8
X229.7Y-100.34
X229.7Y-102.88
X229.7Y-105.42
X229.7Y-107.96
X229.7Y-110.5
X229.7Y-113.04
X229.7Y-115.58
X229.7Y-118.12
X229.7Y-120.66
X229.7Y-123.2
X229.7Y-125.74
X229.7Y-128.28
X229.7Y-130.82
X229.7Y-133.36
X229.7Y-135.9
X229.7Y-138.44
X229.7Y-140.98
X229.7Y-143.52
X234.78Y-69.86
X234.78Y-72.4
X234.78Y-74.94
X234.78Y-77.48
X234.78Y-80.02
X234.78Y-82.56
X234.78Y-85.1
X234.78Y-87.64
X234.78Y-90.18
X234.78Y-92.72
X234.78Y-95.26
X234.78Y-97.8
X234.78Y-100.34
X234.78Y-110.5
X234.78Y-113.04
X234.78Y-115.58
X234.78Y-118.12
X234.78Y-120.66
X234.78Y-123.2
X234.78Y-125.74
X234.78Y-128.28
X234.78Y-130.82
X234.78Y-133.36
X234.78Y-135.9
X234.78Y-138.44
X234.78Y-140.98
X234.78Y-143.52
X237.32Y-69.86
X237.32Y-72.4
X237.32Y-74.94
X237.32Y-77.48
X237.32Y-80.02
X237.32Y-82.56
X237.32Y-85.1
X237.32Y-87.64
X237.32Y-90.18
X237.32Y-92.72
X237.32Y-95.26
X237.32Y-97.8
X237.32Y-100.34
X237.32Y-110.5
X237.32Y-113.04
X237.32Y-115.58
X237.32Y-118.12
X237.32Y-120.66
X237.32Y-123.2
X237.32Y-125.74
X237.32Y-128.28
X237.32Y-130.82
X237.32Y-133.36
X237.32Y-135.9
X237.32Y-138.44
X237.32Y-140.98
X237.32Y-143.52
T2
X35.0Y-51.0
X35.0Y-229.88
X83.0Y-51.0
X83.0Y-229.88
X94.0Y-51.0
X94.0Y-150.0
X94.0Y-169.0
X94.0Y-230.0
X141.86Y-169.0
X142.0Y-230.0
X153.0Y-169.0
X153.0Y-230.0
X182.0Y-51.0
X182.0Y-150.0
X193.0Y-51.0
X193.0Y-150.0
X200.86Y-169.0
X201.0Y-230.0
X241.0Y-51.0
X241.0Y-150.0
M30
