G04 #@! TF.GenerationSoftware,KiCad,Pcbnew,8.0.2*
G04 #@! TF.CreationDate,2024-08-26T09:40:55-06:00*
G04 #@! TF.ProjectId,Perfboard_0.25,50657266-626f-4617-9264-5f302e32352e,rev?*
G04 #@! TF.SameCoordinates,Original*
G04 #@! TF.FileFunction,Copper,L1,Top*
G04 #@! TF.FilePolarity,Positive*
%FSLAX46Y46*%
G04 Gerber Fmt 4.6, Leading zero omitted, Abs format (unit mm)*
G04 Created by KiCad (PCBNEW 8.0.2) date 2024-08-26 09:40:55*
%MOMM*%
%LPD*%
G01*
G04 APERTURE LIST*
G04 Aperture macros list*
%AMFreePoly0*
4,1,19,0.500000,-0.750000,0.000000,-0.750000,0.000000,-0.744911,-0.071157,-0.744911,-0.207708,-0.704816,-0.327430,-0.627875,-0.420627,-0.520320,-0.479746,-0.390866,-0.500000,-0.250000,-0.500000,0.250000,-0.479746,0.390866,-0.420627,0.520320,-0.327430,0.627875,-0.207708,0.704816,-0.071157,0.744911,0.000000,0.744911,0.000000,0.750000,0.500000,0.750000,0.500000,-0.750000,0.500000,-0.750000,
$1*%
%AMFreePoly1*
4,1,19,0.000000,0.744911,0.071157,0.744911,0.207708,0.704816,0.327430,0.627875,0.420627,0.520320,0.479746,0.390866,0.500000,0.250000,0.500000,-0.250000,0.479746,-0.390866,0.420627,-0.520320,0.327430,-0.627875,0.207708,-0.704816,0.071157,-0.744911,0.000000,-0.744911,0.000000,-0.750000,-0.500000,-0.750000,-0.500000,0.750000,0.000000,0.750000,0.000000,0.744911,0.000000,0.744911,
$1*%
G04 Aperture macros list end*
G04 #@! TA.AperFunction,ComponentPad*
%ADD10C,1.600000*%
G04 #@! TD*
G04 #@! TA.AperFunction,ComponentPad*
%ADD11C,2.600000*%
G04 #@! TD*
G04 #@! TA.AperFunction,ConnectorPad*
%ADD12C,3.800000*%
G04 #@! TD*
G04 #@! TA.AperFunction,SMDPad,CuDef*
%ADD13FreePoly0,0.000000*%
G04 #@! TD*
G04 #@! TA.AperFunction,SMDPad,CuDef*
%ADD14FreePoly1,0.000000*%
G04 #@! TD*
G04 #@! TA.AperFunction,Conductor*
%ADD15C,1.000000*%
G04 #@! TD*
G04 #@! TA.AperFunction,Conductor*
%ADD16C,1.500000*%
G04 #@! TD*
G04 APERTURE END LIST*
D10*
X142240000Y-83820000D03*
X139700000Y-78740000D03*
X160020000Y-66040000D03*
X144780000Y-78740000D03*
X129540000Y-86360000D03*
X162560000Y-91440000D03*
X144780000Y-86360000D03*
X142240000Y-73660000D03*
X147320000Y-101600000D03*
X170180000Y-91440000D03*
X160020000Y-76200000D03*
X167640000Y-101600000D03*
X137160000Y-78740000D03*
X154940000Y-68580000D03*
X170180000Y-73660000D03*
X144780000Y-68580000D03*
X144780000Y-73660000D03*
X162560000Y-71120000D03*
X137160000Y-76200000D03*
X162560000Y-86360000D03*
X139700000Y-99060000D03*
X147320000Y-73660000D03*
X157480000Y-88900000D03*
X144780000Y-76200000D03*
X139700000Y-96520000D03*
X162560000Y-83820000D03*
X152400000Y-83820000D03*
X142240000Y-91440000D03*
X170180000Y-76200000D03*
X152400000Y-81280000D03*
X142240000Y-96520000D03*
X160020000Y-99060000D03*
X152400000Y-91440000D03*
X132080000Y-66040000D03*
X147320000Y-96520000D03*
X154940000Y-73660000D03*
D11*
X173860000Y-47000000D03*
D12*
X173860000Y-47000000D03*
D10*
X132080000Y-78740000D03*
X132080000Y-81280000D03*
X142240000Y-101600000D03*
X154940000Y-81280000D03*
X167640000Y-99060000D03*
X142240000Y-81280000D03*
X139700000Y-93980000D03*
X167640000Y-93980000D03*
X157480000Y-78740000D03*
X152400000Y-99060000D03*
X154940000Y-93980000D03*
X132080000Y-91440000D03*
X162560000Y-88900000D03*
X157480000Y-81280000D03*
X139700000Y-81280000D03*
X129540000Y-81280000D03*
X167640000Y-91440000D03*
X167640000Y-76200000D03*
X132080000Y-83820000D03*
X167640000Y-86360000D03*
X139700000Y-76200000D03*
X129540000Y-76200000D03*
X144780000Y-93980000D03*
X147320000Y-93980000D03*
X147320000Y-66040000D03*
D11*
X126000000Y-47000000D03*
D12*
X126000000Y-47000000D03*
D10*
X129540000Y-88900000D03*
X157480000Y-93980000D03*
X147320000Y-76200000D03*
D13*
X135860000Y-60960000D03*
D14*
X137160000Y-60960000D03*
D10*
X152400000Y-76200000D03*
X154940000Y-96520000D03*
X154940000Y-86360000D03*
X147320000Y-86360000D03*
X144780000Y-66040000D03*
X129540000Y-96520000D03*
X139700000Y-101600000D03*
X167640000Y-66040000D03*
X144780000Y-81280000D03*
X167640000Y-96520000D03*
X137160000Y-73660000D03*
X129540000Y-93980000D03*
X132080000Y-99060000D03*
X144780000Y-91440000D03*
X132080000Y-68580000D03*
X154940000Y-101600000D03*
X144780000Y-83820000D03*
X170180000Y-101600000D03*
X170180000Y-83820000D03*
X157480000Y-96520000D03*
X132080000Y-93980000D03*
X129540000Y-91440000D03*
D11*
X174000000Y-108000000D03*
D12*
X174000000Y-108000000D03*
D10*
X154940000Y-88900000D03*
X170180000Y-93980000D03*
X137160000Y-99060000D03*
X170180000Y-96520000D03*
X162560000Y-93980000D03*
X167640000Y-78740000D03*
X129540000Y-73660000D03*
X162560000Y-96520000D03*
X157480000Y-91440000D03*
X139700000Y-66040000D03*
X157480000Y-101600000D03*
X162560000Y-73660000D03*
X170180000Y-86360000D03*
X167640000Y-68580000D03*
X147320000Y-91440000D03*
X142240000Y-78740000D03*
X162560000Y-99060000D03*
X144780000Y-99060000D03*
X162560000Y-81280000D03*
X167640000Y-71120000D03*
X137160000Y-71120000D03*
X152400000Y-88900000D03*
X170180000Y-99060000D03*
X147320000Y-71120000D03*
X152400000Y-68580000D03*
X152400000Y-78740000D03*
X142240000Y-68580000D03*
X139700000Y-88900000D03*
X157480000Y-83820000D03*
X137160000Y-93980000D03*
X157480000Y-73660000D03*
X137160000Y-96520000D03*
X132080000Y-76200000D03*
X137160000Y-81280000D03*
X142240000Y-93980000D03*
X160020000Y-96520000D03*
X160020000Y-68580000D03*
X154940000Y-78740000D03*
X147320000Y-99060000D03*
X157480000Y-86360000D03*
X132080000Y-71120000D03*
X160020000Y-73660000D03*
X154940000Y-66040000D03*
X162560000Y-76200000D03*
X162560000Y-68580000D03*
X154940000Y-91440000D03*
X170180000Y-68580000D03*
X142240000Y-86360000D03*
X160020000Y-88900000D03*
X142240000Y-66040000D03*
X160020000Y-101600000D03*
X157480000Y-76200000D03*
X167640000Y-83820000D03*
X152400000Y-96520000D03*
X152400000Y-93980000D03*
X139700000Y-68580000D03*
X154940000Y-99060000D03*
X139700000Y-73660000D03*
X132080000Y-88900000D03*
X147320000Y-83820000D03*
X144780000Y-71120000D03*
X152400000Y-71120000D03*
X129540000Y-101600000D03*
X154940000Y-71120000D03*
X160020000Y-91440000D03*
X170180000Y-66040000D03*
X129540000Y-99060000D03*
X152400000Y-73660000D03*
X139700000Y-91440000D03*
X137160000Y-101600000D03*
X137160000Y-91440000D03*
X139700000Y-86360000D03*
X137160000Y-83820000D03*
X157480000Y-71120000D03*
X144780000Y-101600000D03*
X162560000Y-101600000D03*
X137160000Y-68580000D03*
X157480000Y-66040000D03*
X167640000Y-88900000D03*
X132080000Y-73660000D03*
X147320000Y-78740000D03*
X129540000Y-68580000D03*
X167640000Y-81280000D03*
X160020000Y-83820000D03*
X147320000Y-81280000D03*
X152400000Y-86360000D03*
D11*
X126000000Y-108000000D03*
D12*
X126000000Y-108000000D03*
D10*
X160020000Y-93980000D03*
X157480000Y-99060000D03*
X132080000Y-101600000D03*
X170180000Y-78740000D03*
X160020000Y-86360000D03*
D13*
X135860000Y-57150000D03*
D14*
X137160000Y-57150000D03*
D10*
X154940000Y-83820000D03*
X142240000Y-76200000D03*
X147320000Y-68580000D03*
X132080000Y-86360000D03*
X139700000Y-83820000D03*
X129540000Y-83820000D03*
X162560000Y-66040000D03*
X167640000Y-73660000D03*
X129540000Y-71120000D03*
X152400000Y-101600000D03*
X157480000Y-68580000D03*
X137160000Y-86360000D03*
X170180000Y-88900000D03*
X160020000Y-78740000D03*
X170180000Y-81280000D03*
X129540000Y-78740000D03*
X152400000Y-66040000D03*
X147320000Y-88900000D03*
X162560000Y-78740000D03*
X129540000Y-66040000D03*
X160020000Y-71120000D03*
X154940000Y-76200000D03*
X142240000Y-88900000D03*
X132080000Y-96520000D03*
X137160000Y-66040000D03*
X142240000Y-99060000D03*
X144780000Y-88900000D03*
X160020000Y-81280000D03*
X139700000Y-71120000D03*
X137160000Y-88900000D03*
X144780000Y-96520000D03*
X170180000Y-71120000D03*
X142240000Y-71120000D03*
D15*
X137160000Y-60960000D02*
X165100000Y-60960000D01*
D16*
X152400000Y-81280000D02*
X162560000Y-81280000D01*
D15*
X129540000Y-66040000D02*
X129540000Y-60960000D01*
D16*
X137160000Y-96520000D02*
X147320000Y-96520000D01*
X162560000Y-93980000D02*
X152400000Y-93980000D01*
X152400000Y-91440000D02*
X162560000Y-91440000D01*
X129540000Y-66040000D02*
X129540000Y-101600000D01*
D15*
X170180000Y-62230000D02*
X170180000Y-66040000D01*
X132080000Y-66040000D02*
X132080000Y-62230000D01*
X137160000Y-57150000D02*
X165100000Y-57150000D01*
D16*
X147320000Y-88900000D02*
X137160000Y-88900000D01*
X152400000Y-66040000D02*
X162560000Y-66040000D01*
X137160000Y-91440000D02*
X147320000Y-91440000D01*
X137160000Y-81280000D02*
X147320000Y-81280000D01*
X152400000Y-78740000D02*
X162560000Y-78740000D01*
X152400000Y-76200000D02*
X162560000Y-76200000D01*
X137160000Y-101600000D02*
X147320000Y-101600000D01*
X152400000Y-73660000D02*
X162560000Y-73660000D01*
D15*
X129540000Y-60960000D02*
X133350000Y-57150000D01*
D16*
X137160000Y-76200000D02*
X147320000Y-76200000D01*
D15*
X133350000Y-57150000D02*
X135860000Y-57150000D01*
X132080000Y-62230000D02*
X133350000Y-60960000D01*
X165100000Y-57150000D02*
X170180000Y-62230000D01*
D16*
X147320000Y-78740000D02*
X137160000Y-78740000D01*
X170180000Y-66040000D02*
X170180000Y-101600000D01*
X152400000Y-101600000D02*
X162560000Y-101600000D01*
D15*
X133350000Y-60960000D02*
X135860000Y-60960000D01*
D16*
X137160000Y-71120000D02*
X147320000Y-71120000D01*
X167640000Y-66040000D02*
X167640000Y-101600000D01*
X162560000Y-99060000D02*
X152400000Y-99060000D01*
D15*
X167640000Y-63500000D02*
X167640000Y-66040000D01*
D16*
X147320000Y-73660000D02*
X137160000Y-73660000D01*
X152400000Y-96520000D02*
X162560000Y-96520000D01*
X137160000Y-93980000D02*
X147320000Y-93980000D01*
X147320000Y-68580000D02*
X137160000Y-68580000D01*
X152400000Y-68580000D02*
X162560000Y-68580000D01*
X132080000Y-66040000D02*
X132080000Y-101600000D01*
X152400000Y-83820000D02*
X162560000Y-83820000D01*
X152400000Y-71120000D02*
X162560000Y-71120000D01*
X147320000Y-83820000D02*
X137160000Y-83820000D01*
D15*
X165100000Y-60960000D02*
X167640000Y-63500000D01*
D16*
X152400000Y-86360000D02*
X162560000Y-86360000D01*
X137160000Y-66040000D02*
X147320000Y-66040000D01*
X137160000Y-86360000D02*
X147320000Y-86360000D01*
X137160000Y-99060000D02*
X147320000Y-99060000D01*
X162560000Y-88900000D02*
X152400000Y-88900000D01*
M02*
