M48
; DRILL file {KiCad 8.0.2} date 2024-08-26T09:48:09-0600
; FORMAT={-:-/ absolute / metric / decimal}
; #@! TF.CreationDate,2024-08-26T09:48:09-06:00
; #@! TF.GenerationSoftware,Kicad,Pcbnew,8.0.2
; #@! TF.FileFunction,Plated,1,2,PTH
FMAT,2
METRIC
; #@! TA.AperFunction,Plated,PTH,ComponentDrill
T1C0.950
; #@! TA.AperFunction,Plated,PTH,ComponentDrill
T2C2.200
%
G90
G05
T1
X107.42Y-52.88
X107.42Y-55.42
X107.42Y-57.96
X107.42Y-60.5
X107.42Y-63.04
X107.42Y-65.58
X107.42Y-68.12
X107.42Y-70.66
X107.42Y-73.2
X107.42Y-75.74
X107.42Y-78.28
X107.42Y-80.82
X107.42Y-83.36
X107.42Y-85.9
X107.42Y-88.44
X107.42Y-90.98
X107.42Y-93.52
X107.42Y-96.06
X107.42Y-98.6
X107.42Y-101.14
X107.42Y-103.68
X107.42Y-106.22
X107.42Y-108.76
X107.42Y-111.3
X107.42Y-113.84
X107.42Y-116.38
X107.42Y-118.92
X107.42Y-121.46
X107.42Y-124.0
X107.42Y-126.54
X109.96Y-52.88
X109.96Y-55.42
X109.96Y-57.96
X109.96Y-60.5
X109.96Y-63.04
X109.96Y-65.58
X109.96Y-68.12
X109.96Y-70.66
X109.96Y-73.2
X109.96Y-75.74
X109.96Y-78.28
X109.96Y-80.82
X109.96Y-83.36
X109.96Y-85.9
X109.96Y-88.44
X109.96Y-90.98
X109.96Y-93.52
X109.96Y-96.06
X109.96Y-98.6
X109.96Y-101.14
X109.96Y-103.68
X109.96Y-106.22
X109.96Y-108.76
X109.96Y-111.3
X109.96Y-113.84
X109.96Y-116.38
X109.96Y-118.92
X109.96Y-121.46
X109.96Y-124.0
X109.96Y-126.54
X115.04Y-52.88
X115.04Y-55.42
X115.04Y-57.96
X115.04Y-60.5
X115.04Y-63.04
X115.04Y-65.58
X115.04Y-68.12
X115.04Y-70.66
X115.04Y-73.2
X115.04Y-75.74
X115.04Y-78.28
X115.04Y-80.82
X115.04Y-83.36
X115.04Y-85.9
X115.04Y-88.44
X115.04Y-90.98
X115.04Y-93.52
X115.04Y-96.06
X115.04Y-98.6
X115.04Y-101.14
X115.04Y-103.68
X115.04Y-106.22
X115.04Y-108.76
X115.04Y-111.3
X115.04Y-113.84
X115.04Y-116.38
X115.04Y-118.92
X115.04Y-121.46
X115.04Y-124.0
X115.04Y-126.54
X117.58Y-52.88
X117.58Y-55.42
X117.58Y-57.96
X117.58Y-60.5
X117.58Y-63.04
X117.58Y-65.58
X117.58Y-68.12
X117.58Y-70.66
X117.58Y-73.2
X117.58Y-75.74
X117.58Y-78.28
X117.58Y-80.82
X117.58Y-83.36
X117.58Y-85.9
X117.58Y-88.44
X117.58Y-90.98
X117.58Y-93.52
X117.58Y-96.06
X117.58Y-98.6
X117.58Y-101.14
X117.58Y-103.68
X117.58Y-106.22
X117.58Y-108.76
X117.58Y-111.3
X117.58Y-113.84
X117.58Y-116.38
X117.58Y-118.92
X117.58Y-121.46
X117.58Y-124.0
X117.58Y-126.54
X120.12Y-52.88
X120.12Y-55.42
X120.12Y-57.96
X120.12Y-60.5
X120.12Y-63.04
X120.12Y-65.58
X120.12Y-68.12
X120.12Y-70.66
X120.12Y-73.2
X120.12Y-75.74
X120.12Y-78.28
X120.12Y-80.82
X120.12Y-83.36
X120.12Y-85.9
X120.12Y-88.44
X120.12Y-90.98
X120.12Y-93.52
X120.12Y-96.06
X120.12Y-98.6
X120.12Y-101.14
X120.12Y-103.68
X120.12Y-106.22
X120.12Y-108.76
X120.12Y-111.3
X120.12Y-113.84
X120.12Y-116.38
X120.12Y-118.92
X120.12Y-121.46
X120.12Y-124.0
X120.12Y-126.54
X122.66Y-52.88
X122.66Y-55.42
X122.66Y-57.96
X122.66Y-60.5
X122.66Y-63.04
X122.66Y-65.58
X122.66Y-68.12
X122.66Y-70.66
X122.66Y-73.2
X122.66Y-75.74
X122.66Y-78.28
X122.66Y-80.82
X122.66Y-83.36
X122.66Y-85.9
X122.66Y-88.44
X122.66Y-90.98
X122.66Y-93.52
X122.66Y-96.06
X122.66Y-98.6
X122.66Y-101.14
X122.66Y-103.68
X122.66Y-106.22
X122.66Y-108.76
X122.66Y-111.3
X122.66Y-113.84
X122.66Y-116.38
X122.66Y-118.92
X122.66Y-121.46
X122.66Y-124.0
X122.66Y-126.54
X125.2Y-52.88
X125.2Y-55.42
X125.2Y-57.96
X125.2Y-60.5
X125.2Y-63.04
X125.2Y-65.58
X125.2Y-68.12
X125.2Y-70.66
X125.2Y-73.2
X125.2Y-75.74
X125.2Y-78.28
X125.2Y-80.82
X125.2Y-83.36
X125.2Y-85.9
X125.2Y-88.44
X125.2Y-90.98
X125.2Y-93.52
X125.2Y-96.06
X125.2Y-98.6
X125.2Y-101.14
X125.2Y-103.68
X125.2Y-106.22
X125.2Y-108.76
X125.2Y-111.3
X125.2Y-113.84
X125.2Y-116.38
X125.2Y-118.92
X125.2Y-121.46
X125.2Y-124.0
X125.2Y-126.54
X130.28Y-52.88
X130.28Y-55.42
X130.28Y-57.96
X130.28Y-60.5
X130.28Y-63.04
X130.28Y-65.58
X130.28Y-68.12
X130.28Y-70.66
X130.28Y-73.2
X130.28Y-75.74
X130.28Y-78.28
X130.28Y-80.82
X130.28Y-83.36
X130.28Y-85.9
X130.28Y-88.44
X130.28Y-90.98
X130.28Y-93.52
X130.28Y-96.06
X130.28Y-98.6
X130.28Y-101.14
X130.28Y-103.68
X130.28Y-106.22
X130.28Y-108.76
X130.28Y-111.3
X130.28Y-113.84
X130.28Y-116.38
X130.28Y-118.92
X130.28Y-121.46
X130.28Y-124.0
X130.28Y-126.54
X132.82Y-52.88
X132.82Y-55.42
X132.82Y-57.96
X132.82Y-60.5
X132.82Y-63.04
X132.82Y-65.58
X132.82Y-68.12
X132.82Y-70.66
X132.82Y-73.2
X132.82Y-75.74
X132.82Y-78.28
X132.82Y-80.82
X132.82Y-83.36
X132.82Y-85.9
X132.82Y-88.44
X132.82Y-90.98
X132.82Y-93.52
X132.82Y-96.06
X132.82Y-98.6
X132.82Y-101.14
X132.82Y-103.68
X132.82Y-106.22
X132.82Y-108.76
X132.82Y-111.3
X132.82Y-113.84
X132.82Y-116.38
X132.82Y-118.92
X132.82Y-121.46
X132.82Y-124.0
X132.82Y-126.54
X135.36Y-52.88
X135.36Y-55.42
X135.36Y-57.96
X135.36Y-60.5
X135.36Y-63.04
X135.36Y-65.58
X135.36Y-68.12
X135.36Y-70.66
X135.36Y-73.2
X135.36Y-75.74
X135.36Y-78.28
X135.36Y-80.82
X135.36Y-83.36
X135.36Y-85.9
X135.36Y-88.44
X135.36Y-90.98
X135.36Y-93.52
X135.36Y-96.06
X135.36Y-98.6
X135.36Y-101.14
X135.36Y-103.68
X135.36Y-106.22
X135.36Y-108.76
X135.36Y-111.3
X135.36Y-113.84
X135.36Y-116.38
X135.36Y-118.92
X135.36Y-121.46
X135.36Y-124.0
X135.36Y-126.54
X137.9Y-52.88
X137.9Y-55.42
X137.9Y-57.96
X137.9Y-60.5
X137.9Y-63.04
X137.9Y-65.58
X137.9Y-68.12
X137.9Y-70.66
X137.9Y-73.2
X137.9Y-75.74
X137.9Y-78.28
X137.9Y-80.82
X137.9Y-83.36
X137.9Y-85.9
X137.9Y-88.44
X137.9Y-90.98
X137.9Y-93.52
X137.9Y-96.06
X137.9Y-98.6
X137.9Y-101.14
X137.9Y-103.68
X137.9Y-106.22
X137.9Y-108.76
X137.9Y-111.3
X137.9Y-113.84
X137.9Y-116.38
X137.9Y-118.92
X137.9Y-121.46
X137.9Y-124.0
X137.9Y-126.54
X140.44Y-52.88
X140.44Y-55.42
X140.44Y-57.96
X140.44Y-60.5
X140.44Y-63.04
X140.44Y-65.58
X140.44Y-68.12
X140.44Y-70.66
X140.44Y-73.2
X140.44Y-75.74
X140.44Y-78.28
X140.44Y-80.82
X140.44Y-83.36
X140.44Y-85.9
X140.44Y-88.44
X140.44Y-90.98
X140.44Y-93.52
X140.44Y-96.06
X140.44Y-98.6
X140.44Y-101.14
X140.44Y-103.68
X140.44Y-106.22
X140.44Y-108.76
X140.44Y-111.3
X140.44Y-113.84
X140.44Y-116.38
X140.44Y-118.92
X140.44Y-121.46
X140.44Y-124.0
X140.44Y-126.54
X145.46Y-52.88
X145.46Y-55.42
X145.46Y-57.96
X145.46Y-60.5
X145.46Y-63.04
X145.46Y-65.58
X145.46Y-68.12
X145.46Y-70.66
X145.46Y-73.2
X145.46Y-75.74
X145.46Y-78.28
X145.46Y-80.82
X145.46Y-83.36
X145.46Y-93.52
X145.46Y-96.06
X145.46Y-98.6
X145.46Y-101.14
X145.46Y-103.68
X145.46Y-106.22
X145.46Y-108.76
X145.46Y-111.3
X145.46Y-113.84
X145.46Y-116.38
X145.46Y-118.92
X145.46Y-121.46
X145.46Y-124.0
X145.46Y-126.54
X145.52Y-85.9
X145.52Y-88.44
X145.52Y-90.98
X148.0Y-52.88
X148.0Y-55.42
X148.0Y-57.96
X148.0Y-60.5
X148.0Y-63.04
X148.0Y-65.58
X148.0Y-68.12
X148.0Y-70.66
X148.0Y-73.2
X148.0Y-75.74
X148.0Y-78.28
X148.0Y-80.82
X148.0Y-83.36
X148.0Y-93.52
X148.0Y-96.06
X148.0Y-98.6
X148.0Y-101.14
X148.0Y-103.68
X148.0Y-106.22
X148.0Y-108.76
X148.0Y-111.3
X148.0Y-113.84
X148.0Y-116.38
X148.0Y-118.92
X148.0Y-121.46
X148.0Y-124.0
X148.0Y-126.54
X148.06Y-85.9
X148.06Y-88.44
X148.06Y-90.98
X150.54Y-52.88
X150.54Y-55.42
X150.54Y-57.96
X150.54Y-60.5
X150.54Y-63.04
X150.54Y-65.58
X150.54Y-68.12
X150.54Y-70.66
X150.54Y-73.2
X150.54Y-75.74
X150.54Y-78.28
X150.54Y-80.82
X150.54Y-83.36
X150.54Y-93.52
X150.54Y-96.06
X150.54Y-98.6
X150.54Y-101.14
X150.54Y-103.68
X150.54Y-106.22
X150.54Y-108.76
X150.54Y-111.3
X150.54Y-113.84
X150.54Y-116.38
X150.54Y-118.92
X150.54Y-121.46
X150.54Y-124.0
X150.54Y-126.54
X150.6Y-85.9
X150.6Y-88.44
X150.6Y-90.98
X155.62Y-52.88
X155.62Y-55.42
X155.62Y-57.96
X155.62Y-60.5
X155.62Y-63.04
X155.62Y-65.58
X155.62Y-68.12
X155.62Y-70.66
X155.62Y-73.2
X155.62Y-75.74
X155.62Y-78.28
X155.62Y-80.82
X155.62Y-83.36
X155.62Y-85.9
X155.62Y-88.44
X155.62Y-90.98
X155.62Y-93.52
X155.62Y-96.06
X155.62Y-98.6
X155.62Y-101.14
X155.62Y-103.68
X155.62Y-106.22
X155.62Y-108.76
X155.62Y-111.3
X155.62Y-113.84
X155.62Y-116.38
X155.62Y-118.92
X155.62Y-121.46
X155.62Y-124.0
X155.62Y-126.54
X158.16Y-52.88
X158.16Y-55.42
X158.16Y-57.96
X158.16Y-60.5
X158.16Y-63.04
X158.16Y-65.58
X158.16Y-68.12
X158.16Y-70.66
X158.16Y-73.2
X158.16Y-75.74
X158.16Y-78.28
X158.16Y-80.82
X158.16Y-83.36
X158.16Y-85.9
X158.16Y-88.44
X158.16Y-90.98
X158.16Y-93.52
X158.16Y-96.06
X158.16Y-98.6
X158.16Y-101.14
X158.16Y-103.68
X158.16Y-106.22
X158.16Y-108.76
X158.16Y-111.3
X158.16Y-113.84
X158.16Y-116.38
X158.16Y-118.92
X158.16Y-121.46
X158.16Y-124.0
X158.16Y-126.54
X160.7Y-52.88
X160.7Y-55.42
X160.7Y-57.96
X160.7Y-60.5
X160.7Y-63.04
X160.7Y-65.58
X160.7Y-68.12
X160.7Y-70.66
X160.7Y-73.2
X160.7Y-75.74
X160.7Y-78.28
X160.7Y-80.82
X160.7Y-83.36
X160.7Y-85.9
X160.7Y-88.44
X160.7Y-90.98
X160.7Y-93.52
X160.7Y-96.06
X160.7Y-98.6
X160.7Y-101.14
X160.7Y-103.68
X160.7Y-106.22
X160.7Y-108.76
X160.7Y-111.3
X160.7Y-113.84
X160.7Y-116.38
X160.7Y-118.92
X160.7Y-121.46
X160.7Y-124.0
X160.7Y-126.54
X163.24Y-52.88
X163.24Y-55.42
X163.24Y-57.96
X163.24Y-60.5
X163.24Y-63.04
X163.24Y-65.58
X163.24Y-68.12
X163.24Y-70.66
X163.24Y-73.2
X163.24Y-75.74
X163.24Y-78.28
X163.24Y-80.82
X163.24Y-83.36
X163.24Y-85.9
X163.24Y-88.44
X163.24Y-90.98
X163.24Y-93.52
X163.24Y-96.06
X163.24Y-98.6
X163.24Y-101.14
X163.24Y-103.68
X163.24Y-106.22
X163.24Y-108.76
X163.24Y-111.3
X163.24Y-113.84
X163.24Y-116.38
X163.24Y-118.92
X163.24Y-121.46
X163.24Y-124.0
X163.24Y-126.54
X165.78Y-52.88
X165.78Y-55.42
X165.78Y-57.96
X165.78Y-60.5
X165.78Y-63.04
X165.78Y-65.58
X165.78Y-68.12
X165.78Y-70.66
X165.78Y-73.2
X165.78Y-75.74
X165.78Y-78.28
X165.78Y-80.82
X165.78Y-83.36
X165.78Y-85.9
X165.78Y-88.44
X165.78Y-90.98
X165.78Y-93.52
X165.78Y-96.06
X165.78Y-98.6
X165.78Y-101.14
X165.78Y-103.68
X165.78Y-106.22
X165.78Y-108.76
X165.78Y-111.3
X165.78Y-113.84
X165.78Y-116.38
X165.78Y-118.92
X165.78Y-121.46
X165.78Y-124.0
X165.78Y-126.54
X170.86Y-52.88
X170.86Y-55.42
X170.86Y-57.96
X170.86Y-60.5
X170.86Y-63.04
X170.86Y-65.58
X170.86Y-68.12
X170.86Y-70.66
X170.86Y-73.2
X170.86Y-75.74
X170.86Y-78.28
X170.86Y-80.82
X170.86Y-83.36
X170.86Y-85.9
X170.86Y-88.44
X170.86Y-90.98
X170.86Y-93.52
X170.86Y-96.06
X170.86Y-98.6
X170.86Y-101.14
X170.86Y-103.68
X170.86Y-106.22
X170.86Y-108.76
X170.86Y-111.3
X170.86Y-113.84
X170.86Y-116.38
X170.86Y-118.92
X170.86Y-121.46
X170.86Y-124.0
X170.86Y-126.54
X173.4Y-52.88
X173.4Y-55.42
X173.4Y-57.96
X173.4Y-60.5
X173.4Y-63.04
X173.4Y-65.58
X173.4Y-68.12
X173.4Y-70.66
X173.4Y-73.2
X173.4Y-75.74
X173.4Y-78.28
X173.4Y-80.82
X173.4Y-83.36
X173.4Y-85.9
X173.4Y-88.44
X173.4Y-90.98
X173.4Y-93.52
X173.4Y-96.06
X173.4Y-98.6
X173.4Y-101.14
X173.4Y-103.68
X173.4Y-106.22
X173.4Y-108.76
X173.4Y-111.3
X173.4Y-113.84
X173.4Y-116.38
X173.4Y-118.92
X173.4Y-121.46
X173.4Y-124.0
X173.4Y-126.54
X175.94Y-52.88
X175.94Y-55.42
X175.94Y-57.96
X175.94Y-60.5
X175.94Y-63.04
X175.94Y-65.58
X175.94Y-68.12
X175.94Y-70.66
X175.94Y-73.2
X175.94Y-75.74
X175.94Y-78.28
X175.94Y-80.82
X175.94Y-83.36
X175.94Y-85.9
X175.94Y-88.44
X175.94Y-90.98
X175.94Y-93.52
X175.94Y-96.06
X175.94Y-98.6
X175.94Y-101.14
X175.94Y-103.68
X175.94Y-106.22
X175.94Y-108.76
X175.94Y-111.3
X175.94Y-113.84
X175.94Y-116.38
X175.94Y-118.92
X175.94Y-121.46
X175.94Y-124.0
X175.94Y-126.54
X178.48Y-52.88
X178.48Y-55.42
X178.48Y-57.96
X178.48Y-60.5
X178.48Y-63.04
X178.48Y-65.58
X178.48Y-68.12
X178.48Y-70.66
X178.48Y-73.2
X178.48Y-75.74
X178.48Y-78.28
X178.48Y-80.82
X178.48Y-83.36
X178.48Y-85.9
X178.48Y-88.44
X178.48Y-90.98
X178.48Y-93.52
X178.48Y-96.06
X178.48Y-98.6
X178.48Y-101.14
X178.48Y-103.68
X178.48Y-106.22
X178.48Y-108.76
X178.48Y-111.3
X178.48Y-113.84
X178.48Y-116.38
X178.48Y-118.92
X178.48Y-121.46
X178.48Y-124.0
X178.48Y-126.54
X181.02Y-52.88
X181.02Y-55.42
X181.02Y-57.96
X181.02Y-60.5
X181.02Y-63.04
X181.02Y-65.58
X181.02Y-68.12
X181.02Y-70.66
X181.02Y-73.2
X181.02Y-75.74
X181.02Y-78.28
X181.02Y-80.82
X181.02Y-83.36
X181.02Y-85.9
X181.02Y-88.44
X181.02Y-90.98
X181.02Y-93.52
X181.02Y-96.06
X181.02Y-98.6
X181.02Y-101.14
X181.02Y-103.68
X181.02Y-106.22
X181.02Y-108.76
X181.02Y-111.3
X181.02Y-113.84
X181.02Y-116.38
X181.02Y-118.92
X181.02Y-121.46
X181.02Y-124.0
X181.02Y-126.54
X186.1Y-52.88
X186.1Y-55.42
X186.1Y-57.96
X186.1Y-60.5
X186.1Y-63.04
X186.1Y-65.58
X186.1Y-68.12
X186.1Y-70.66
X186.1Y-73.2
X186.1Y-75.74
X186.1Y-78.28
X186.1Y-80.82
X186.1Y-83.36
X186.1Y-93.52
X186.1Y-96.06
X186.1Y-98.6
X186.1Y-101.14
X186.1Y-103.68
X186.1Y-106.22
X186.1Y-108.76
X186.1Y-111.3
X186.1Y-113.84
X186.1Y-116.38
X186.1Y-118.92
X186.1Y-121.46
X186.1Y-124.0
X186.1Y-126.54
X186.16Y-85.9
X186.16Y-88.44
X186.16Y-90.98
X188.64Y-52.88
X188.64Y-55.42
X188.64Y-57.96
X188.64Y-60.5
X188.64Y-63.04
X188.64Y-65.58
X188.64Y-68.12
X188.64Y-70.66
X188.64Y-73.2
X188.64Y-75.74
X188.64Y-78.28
X188.64Y-80.82
X188.64Y-83.36
X188.64Y-93.52
X188.64Y-96.06
X188.64Y-98.6
X188.64Y-101.14
X188.64Y-103.68
X188.64Y-106.22
X188.64Y-108.76
X188.64Y-111.3
X188.64Y-113.84
X188.64Y-116.38
X188.64Y-118.92
X188.64Y-121.46
X188.64Y-124.0
X188.64Y-126.54
X188.7Y-85.9
X188.7Y-88.44
X188.7Y-90.98
T2
X104.0Y-34.0
X104.0Y-133.0
X192.0Y-34.0
X192.0Y-133.0
M30
