G04 #@! TF.GenerationSoftware,KiCad,Pcbnew,8.0.2*
G04 #@! TF.CreationDate,2024-08-26T09:48:12-06:00*
G04 #@! TF.ProjectId,Perfboard_1_Horizontal,50657266-626f-4617-9264-5f315f486f72,rev?*
G04 #@! TF.SameCoordinates,Original*
G04 #@! TF.FileFunction,Soldermask,Bot*
G04 #@! TF.FilePolarity,Negative*
%FSLAX46Y46*%
G04 Gerber Fmt 4.6, Leading zero omitted, Abs format (unit mm)*
G04 Created by KiCad (PCBNEW 8.0.2) date 2024-08-26 09:48:12*
%MOMM*%
%LPD*%
G01*
G04 APERTURE LIST*
%ADD10C,1.803200*%
%ADD11C,2.600000*%
%ADD12C,3.800000*%
G04 APERTURE END LIST*
D10*
X160700000Y-124000000D03*
X135360000Y-126540000D03*
X137900000Y-78280000D03*
X165780000Y-78280000D03*
X188640000Y-80820000D03*
X158160000Y-52880000D03*
X132820000Y-106220000D03*
X148000000Y-83360000D03*
X120120000Y-57960000D03*
X145460000Y-55420000D03*
X140440000Y-85900000D03*
X109960000Y-101140000D03*
X125200000Y-78280000D03*
X115040000Y-70660000D03*
X181020000Y-118920000D03*
X163240000Y-68120000D03*
X181020000Y-65580000D03*
X137900000Y-118920000D03*
X163240000Y-90980000D03*
X186100000Y-55420000D03*
X122660000Y-121460000D03*
X120120000Y-75740000D03*
X122660000Y-60500000D03*
X117580000Y-124000000D03*
X148000000Y-55420000D03*
X132820000Y-108760000D03*
X155620000Y-75740000D03*
X163240000Y-113840000D03*
X107420000Y-80820000D03*
X145520000Y-90980000D03*
X170860000Y-63040000D03*
X155620000Y-55420000D03*
X122660000Y-70660000D03*
X122660000Y-118920000D03*
X186100000Y-78280000D03*
X188640000Y-113840000D03*
X181020000Y-106220000D03*
X178480000Y-126540000D03*
X173400000Y-126540000D03*
X117580000Y-73200000D03*
X120120000Y-111300000D03*
X135360000Y-106220000D03*
X132820000Y-57960000D03*
X155620000Y-108760000D03*
X150540000Y-80820000D03*
X132820000Y-68120000D03*
X137900000Y-88440000D03*
X137900000Y-106220000D03*
X120120000Y-101140000D03*
X148060000Y-90980000D03*
X107420000Y-108760000D03*
X115040000Y-52880000D03*
X109960000Y-70660000D03*
X150600000Y-85900000D03*
X188640000Y-116380000D03*
X173400000Y-101140000D03*
X160700000Y-57960000D03*
X188640000Y-124000000D03*
X178480000Y-101140000D03*
X117580000Y-75740000D03*
X150540000Y-124000000D03*
X150540000Y-116380000D03*
X158160000Y-75740000D03*
X186100000Y-70660000D03*
X188640000Y-63040000D03*
X132820000Y-103680000D03*
X158160000Y-101140000D03*
X137900000Y-113840000D03*
X117580000Y-85900000D03*
X165780000Y-83360000D03*
X148000000Y-121460000D03*
X120120000Y-60500000D03*
X122660000Y-52880000D03*
X122660000Y-75740000D03*
X120120000Y-90980000D03*
X155620000Y-93520000D03*
X150540000Y-93520000D03*
X130280000Y-108760000D03*
X125200000Y-103680000D03*
X115040000Y-88440000D03*
X109960000Y-80820000D03*
X122660000Y-85900000D03*
X165780000Y-124000000D03*
X125200000Y-121460000D03*
X125200000Y-68120000D03*
X120120000Y-113840000D03*
X188640000Y-96060000D03*
X150540000Y-113840000D03*
X178480000Y-75740000D03*
X163240000Y-121460000D03*
X145460000Y-70660000D03*
X140440000Y-52880000D03*
X178480000Y-93520000D03*
X117580000Y-63040000D03*
X122660000Y-96060000D03*
X170860000Y-55420000D03*
X186100000Y-118920000D03*
X107420000Y-126540000D03*
X148000000Y-52880000D03*
X137900000Y-75740000D03*
X148000000Y-103680000D03*
X165780000Y-93520000D03*
X120120000Y-116380000D03*
X137900000Y-90980000D03*
X165780000Y-57960000D03*
X173400000Y-68120000D03*
X120120000Y-88440000D03*
X109960000Y-63040000D03*
X150540000Y-111300000D03*
X178480000Y-121460000D03*
X178480000Y-106220000D03*
X109960000Y-73200000D03*
X181020000Y-90980000D03*
X158160000Y-80820000D03*
X125200000Y-98600000D03*
X160700000Y-118920000D03*
X135360000Y-80820000D03*
X178480000Y-63040000D03*
X145460000Y-63040000D03*
X109960000Y-60500000D03*
X130280000Y-73200000D03*
X175940000Y-70660000D03*
X132820000Y-73200000D03*
X158160000Y-85900000D03*
X163240000Y-70660000D03*
X135360000Y-118920000D03*
X135360000Y-70660000D03*
X186100000Y-96060000D03*
X109960000Y-124000000D03*
X135360000Y-96060000D03*
X188640000Y-57960000D03*
X135360000Y-98600000D03*
X186100000Y-75740000D03*
X140440000Y-70660000D03*
X122660000Y-108760000D03*
X173400000Y-75740000D03*
X188640000Y-83360000D03*
X163240000Y-83360000D03*
X175940000Y-85900000D03*
X115040000Y-111300000D03*
X132820000Y-88440000D03*
X117580000Y-55420000D03*
X140440000Y-98600000D03*
X158160000Y-93520000D03*
X170860000Y-65580000D03*
X150540000Y-121460000D03*
X130280000Y-106220000D03*
X130280000Y-70660000D03*
X122660000Y-57960000D03*
X135360000Y-65580000D03*
X148000000Y-78280000D03*
X137900000Y-101140000D03*
X120120000Y-63040000D03*
X145460000Y-106220000D03*
X160700000Y-55420000D03*
X181020000Y-73200000D03*
X145460000Y-126540000D03*
X148000000Y-118920000D03*
X160700000Y-103680000D03*
X117580000Y-93520000D03*
X135360000Y-93520000D03*
X117580000Y-88440000D03*
X163240000Y-55420000D03*
X173400000Y-113840000D03*
X140440000Y-106220000D03*
X107420000Y-101140000D03*
X140440000Y-57960000D03*
X160700000Y-63040000D03*
X158160000Y-124000000D03*
X150540000Y-73200000D03*
X158160000Y-55420000D03*
X181020000Y-116380000D03*
X122660000Y-116380000D03*
X160700000Y-85900000D03*
X120120000Y-85900000D03*
X115040000Y-126540000D03*
X125200000Y-70660000D03*
X163240000Y-78280000D03*
X178480000Y-113840000D03*
X155620000Y-52880000D03*
X132820000Y-63040000D03*
X160700000Y-106220000D03*
X173400000Y-108760000D03*
X170860000Y-106220000D03*
X155620000Y-73200000D03*
X140440000Y-96060000D03*
X145460000Y-101140000D03*
X170860000Y-108760000D03*
X120120000Y-121460000D03*
X165780000Y-88440000D03*
X188640000Y-65580000D03*
X188640000Y-73200000D03*
X163240000Y-80820000D03*
X170860000Y-80820000D03*
X148000000Y-80820000D03*
X115040000Y-90980000D03*
X148000000Y-57960000D03*
X115040000Y-103680000D03*
X150600000Y-90980000D03*
X170860000Y-57960000D03*
X130280000Y-55420000D03*
X175940000Y-121460000D03*
X165780000Y-121460000D03*
X173400000Y-98600000D03*
X125200000Y-90980000D03*
X165780000Y-126540000D03*
X173400000Y-124000000D03*
X115040000Y-60500000D03*
X186100000Y-68120000D03*
X158160000Y-73200000D03*
X109960000Y-108760000D03*
X150540000Y-78280000D03*
X115040000Y-85900000D03*
X160700000Y-78280000D03*
X163240000Y-124000000D03*
X175940000Y-68120000D03*
X125200000Y-124000000D03*
X109960000Y-118920000D03*
X117580000Y-80820000D03*
X181020000Y-103680000D03*
X150540000Y-118920000D03*
X122660000Y-80820000D03*
X148000000Y-111300000D03*
X130280000Y-116380000D03*
X165780000Y-80820000D03*
X148000000Y-63040000D03*
X137900000Y-111300000D03*
X170860000Y-113840000D03*
X170860000Y-96060000D03*
X178480000Y-57960000D03*
X158160000Y-116380000D03*
X178480000Y-83360000D03*
X107420000Y-57960000D03*
X107420000Y-96060000D03*
X135360000Y-90980000D03*
X160700000Y-116380000D03*
X120120000Y-65580000D03*
X132820000Y-55420000D03*
X130280000Y-96060000D03*
X148000000Y-126540000D03*
X145460000Y-52880000D03*
X158160000Y-108760000D03*
X122660000Y-68120000D03*
X160700000Y-52880000D03*
X130280000Y-75740000D03*
X178480000Y-68120000D03*
X140440000Y-68120000D03*
X173400000Y-57960000D03*
X173400000Y-96060000D03*
X170860000Y-124000000D03*
X120120000Y-98600000D03*
X137900000Y-93520000D03*
X186160000Y-88440000D03*
X125200000Y-126540000D03*
X140440000Y-55420000D03*
X181020000Y-111300000D03*
X181020000Y-113840000D03*
X130280000Y-93520000D03*
X115040000Y-78280000D03*
X137900000Y-65580000D03*
X117580000Y-116380000D03*
X181020000Y-78280000D03*
X150540000Y-101140000D03*
X137900000Y-80820000D03*
X188700000Y-88440000D03*
X145460000Y-57960000D03*
X140440000Y-83360000D03*
X173400000Y-93520000D03*
X188640000Y-103680000D03*
X115040000Y-101140000D03*
X170860000Y-85900000D03*
X170860000Y-118920000D03*
X109960000Y-83360000D03*
X148000000Y-113840000D03*
X115040000Y-68120000D03*
X165780000Y-96060000D03*
X181020000Y-75740000D03*
X120120000Y-80820000D03*
X155620000Y-124000000D03*
X188640000Y-126540000D03*
X173400000Y-80820000D03*
X130280000Y-88440000D03*
X132820000Y-98600000D03*
X158160000Y-118920000D03*
X173400000Y-116380000D03*
X122660000Y-106220000D03*
X160700000Y-65580000D03*
X178480000Y-60500000D03*
X163240000Y-108760000D03*
X137900000Y-103680000D03*
X115040000Y-113840000D03*
X109960000Y-96060000D03*
X170860000Y-93520000D03*
X132820000Y-126540000D03*
X165780000Y-116380000D03*
X170860000Y-103680000D03*
X148000000Y-65580000D03*
X155620000Y-101140000D03*
X163240000Y-103680000D03*
X170860000Y-68120000D03*
X120120000Y-55420000D03*
X160700000Y-83360000D03*
X132820000Y-65580000D03*
X158160000Y-83360000D03*
X137900000Y-55420000D03*
X150540000Y-75740000D03*
X130280000Y-113840000D03*
X130280000Y-103680000D03*
X181020000Y-101140000D03*
X109960000Y-90980000D03*
X155620000Y-68120000D03*
X178480000Y-65580000D03*
X148000000Y-106220000D03*
X188640000Y-93520000D03*
X107420000Y-60500000D03*
X155620000Y-118920000D03*
X188640000Y-108760000D03*
X148000000Y-101140000D03*
X140440000Y-78280000D03*
X137900000Y-52880000D03*
X115040000Y-121460000D03*
X120120000Y-78280000D03*
X170860000Y-78280000D03*
X130280000Y-98600000D03*
X186100000Y-124000000D03*
X132820000Y-93520000D03*
X186100000Y-57960000D03*
X165780000Y-55420000D03*
D11*
X104000000Y-133000000D03*
D12*
X104000000Y-133000000D03*
D10*
X148000000Y-98600000D03*
X117580000Y-83360000D03*
X170860000Y-60500000D03*
X135360000Y-52880000D03*
X163240000Y-93520000D03*
X140440000Y-75740000D03*
X155620000Y-121460000D03*
X107420000Y-106220000D03*
X109960000Y-57960000D03*
X186100000Y-106220000D03*
X140440000Y-103680000D03*
X135360000Y-55420000D03*
X122660000Y-65580000D03*
X137900000Y-70660000D03*
X145460000Y-60500000D03*
X160700000Y-90980000D03*
X109960000Y-75740000D03*
X173400000Y-88440000D03*
X120120000Y-73200000D03*
X109960000Y-113840000D03*
X186100000Y-65580000D03*
X170860000Y-98600000D03*
X130280000Y-101140000D03*
X137900000Y-85900000D03*
X175940000Y-124000000D03*
X165780000Y-60500000D03*
X107420000Y-73200000D03*
X125200000Y-116380000D03*
X173400000Y-60500000D03*
X137900000Y-108760000D03*
X165780000Y-118920000D03*
X120120000Y-83360000D03*
X181020000Y-85900000D03*
X132820000Y-75740000D03*
X186160000Y-90980000D03*
X115040000Y-65580000D03*
X175940000Y-73200000D03*
X160700000Y-121460000D03*
X137900000Y-83360000D03*
X145460000Y-93520000D03*
X186100000Y-103680000D03*
X107420000Y-113840000D03*
X107420000Y-98600000D03*
X132820000Y-52880000D03*
X145460000Y-116380000D03*
X137900000Y-96060000D03*
X132820000Y-113840000D03*
X120120000Y-70660000D03*
X107420000Y-121460000D03*
X117580000Y-101140000D03*
X125200000Y-93520000D03*
X120120000Y-106220000D03*
X117580000Y-111300000D03*
X135360000Y-108760000D03*
X115040000Y-80820000D03*
X137900000Y-73200000D03*
X155620000Y-57960000D03*
X158160000Y-103680000D03*
X117580000Y-57960000D03*
X173400000Y-73200000D03*
X135360000Y-111300000D03*
X122660000Y-126540000D03*
X135360000Y-68120000D03*
X188640000Y-78280000D03*
X178480000Y-80820000D03*
X135360000Y-78280000D03*
X107420000Y-90980000D03*
X145460000Y-65580000D03*
X140440000Y-108760000D03*
X125200000Y-113840000D03*
X109960000Y-55420000D03*
X188640000Y-68120000D03*
X122660000Y-88440000D03*
X163240000Y-88440000D03*
X165780000Y-70660000D03*
X150540000Y-126540000D03*
X158160000Y-70660000D03*
X120120000Y-93520000D03*
X122660000Y-101140000D03*
X173400000Y-78280000D03*
X163240000Y-57960000D03*
X158160000Y-96060000D03*
X188640000Y-98600000D03*
X150540000Y-68120000D03*
X117580000Y-106220000D03*
X115040000Y-98600000D03*
X107420000Y-111300000D03*
X186100000Y-52880000D03*
X135360000Y-121460000D03*
X178480000Y-90980000D03*
X130280000Y-126540000D03*
X160700000Y-111300000D03*
X158160000Y-65580000D03*
X181020000Y-57960000D03*
X135360000Y-88440000D03*
X170860000Y-116380000D03*
X163240000Y-65580000D03*
X140440000Y-60500000D03*
X181020000Y-80820000D03*
X140440000Y-126540000D03*
X117580000Y-126540000D03*
X158160000Y-106220000D03*
X137900000Y-124000000D03*
X158160000Y-111300000D03*
X160700000Y-108760000D03*
X125200000Y-65580000D03*
X165780000Y-73200000D03*
X130280000Y-60500000D03*
X117580000Y-68120000D03*
X178480000Y-88440000D03*
X132820000Y-85900000D03*
X115040000Y-116380000D03*
X137900000Y-60500000D03*
X188640000Y-70660000D03*
X117580000Y-121460000D03*
X125200000Y-73200000D03*
X125200000Y-106220000D03*
X109960000Y-111300000D03*
X173400000Y-52880000D03*
X135360000Y-63040000D03*
X160700000Y-60500000D03*
X165780000Y-75740000D03*
X117580000Y-108760000D03*
X175940000Y-65580000D03*
X122660000Y-111300000D03*
X165780000Y-101140000D03*
X155620000Y-78280000D03*
X145460000Y-111300000D03*
X145460000Y-75740000D03*
X140440000Y-121460000D03*
X117580000Y-78280000D03*
X175940000Y-57960000D03*
X148000000Y-116380000D03*
X165780000Y-108760000D03*
X135360000Y-83360000D03*
X137900000Y-98600000D03*
X132820000Y-111300000D03*
X175940000Y-90980000D03*
X117580000Y-70660000D03*
X175940000Y-111300000D03*
X132820000Y-124000000D03*
X158160000Y-78280000D03*
X186100000Y-98600000D03*
X175940000Y-118920000D03*
D11*
X192000000Y-34000000D03*
D12*
X192000000Y-34000000D03*
D10*
X120120000Y-118920000D03*
X186100000Y-73200000D03*
X160700000Y-126540000D03*
X160700000Y-68120000D03*
X122660000Y-78280000D03*
X140440000Y-124000000D03*
X158160000Y-126540000D03*
X178480000Y-70660000D03*
X130280000Y-83360000D03*
X158160000Y-113840000D03*
X145520000Y-88440000D03*
X109960000Y-93520000D03*
X122660000Y-63040000D03*
X158160000Y-63040000D03*
X135360000Y-60500000D03*
X140440000Y-65580000D03*
X130280000Y-121460000D03*
X173400000Y-70660000D03*
X163240000Y-118920000D03*
X135360000Y-124000000D03*
X181020000Y-60500000D03*
X186160000Y-85900000D03*
X145460000Y-108760000D03*
X130280000Y-52880000D03*
X155620000Y-83360000D03*
X125200000Y-83360000D03*
X145460000Y-121460000D03*
X148000000Y-70660000D03*
X173400000Y-83360000D03*
X122660000Y-83360000D03*
X158160000Y-57960000D03*
X173400000Y-85900000D03*
X109960000Y-68120000D03*
X155620000Y-96060000D03*
X109960000Y-106220000D03*
X181020000Y-121460000D03*
X150540000Y-70660000D03*
X178480000Y-124000000D03*
X137900000Y-121460000D03*
X132820000Y-80820000D03*
X175940000Y-108760000D03*
X165780000Y-65580000D03*
X178480000Y-85900000D03*
X109960000Y-116380000D03*
X181020000Y-96060000D03*
X145460000Y-68120000D03*
X125200000Y-52880000D03*
X132820000Y-118920000D03*
X140440000Y-116380000D03*
X115040000Y-106220000D03*
X150540000Y-60500000D03*
X125200000Y-111300000D03*
X135360000Y-73200000D03*
X165780000Y-106220000D03*
X155620000Y-88440000D03*
X150540000Y-98600000D03*
X148060000Y-88440000D03*
X165780000Y-113840000D03*
X173400000Y-111300000D03*
X178480000Y-118920000D03*
X145460000Y-73200000D03*
X107420000Y-75740000D03*
X140440000Y-90980000D03*
X140440000Y-88440000D03*
X137900000Y-126540000D03*
X175940000Y-93520000D03*
X155620000Y-126540000D03*
X165780000Y-111300000D03*
X130280000Y-90980000D03*
X160700000Y-70660000D03*
X175940000Y-98600000D03*
X186100000Y-93520000D03*
X148000000Y-68120000D03*
X122660000Y-98600000D03*
X148060000Y-85900000D03*
X163240000Y-63040000D03*
X155620000Y-85900000D03*
X175940000Y-60500000D03*
X120120000Y-126540000D03*
X163240000Y-85900000D03*
X115040000Y-93520000D03*
X170860000Y-75740000D03*
X173400000Y-118920000D03*
X132820000Y-60500000D03*
X120120000Y-96060000D03*
X186100000Y-80820000D03*
X165780000Y-85900000D03*
X145460000Y-98600000D03*
X107420000Y-103680000D03*
X165780000Y-52880000D03*
X117580000Y-113840000D03*
X178480000Y-55420000D03*
X115040000Y-124000000D03*
X130280000Y-80820000D03*
X148000000Y-93520000D03*
X150600000Y-88440000D03*
X109960000Y-52880000D03*
X163240000Y-60500000D03*
X145460000Y-118920000D03*
X175940000Y-88440000D03*
X155620000Y-70660000D03*
X188640000Y-101140000D03*
X173400000Y-63040000D03*
X148000000Y-75740000D03*
X173400000Y-121460000D03*
X170860000Y-52880000D03*
X125200000Y-55420000D03*
X107420000Y-63040000D03*
X132820000Y-83360000D03*
X135360000Y-113840000D03*
X107420000Y-93520000D03*
X155620000Y-98600000D03*
X175940000Y-78280000D03*
X160700000Y-98600000D03*
X135360000Y-103680000D03*
X150540000Y-83360000D03*
X155620000Y-106220000D03*
X109960000Y-85900000D03*
X130280000Y-124000000D03*
X109960000Y-88440000D03*
X175940000Y-83360000D03*
X122660000Y-103680000D03*
X132820000Y-96060000D03*
X165780000Y-103680000D03*
X188700000Y-90980000D03*
X175940000Y-52880000D03*
X107420000Y-52880000D03*
X122660000Y-55420000D03*
X175940000Y-63040000D03*
X181020000Y-55420000D03*
X155620000Y-103680000D03*
X170860000Y-70660000D03*
X181020000Y-63040000D03*
X181020000Y-93520000D03*
X158160000Y-98600000D03*
X178480000Y-103680000D03*
X117580000Y-90980000D03*
X188640000Y-118920000D03*
X181020000Y-52880000D03*
X163240000Y-126540000D03*
X150540000Y-106220000D03*
X188640000Y-111300000D03*
D11*
X104000000Y-34000000D03*
D12*
X104000000Y-34000000D03*
D10*
X148000000Y-96060000D03*
X175940000Y-103680000D03*
X132820000Y-121460000D03*
X173400000Y-55420000D03*
X107420000Y-118920000D03*
X178480000Y-73200000D03*
X160700000Y-93520000D03*
X188640000Y-75740000D03*
X107420000Y-68120000D03*
X117580000Y-52880000D03*
X170860000Y-101140000D03*
X178480000Y-98600000D03*
X186100000Y-101140000D03*
X175940000Y-55420000D03*
X188700000Y-85900000D03*
X109960000Y-103680000D03*
X170860000Y-90980000D03*
X122660000Y-73200000D03*
X107420000Y-124000000D03*
X181020000Y-108760000D03*
X155620000Y-116380000D03*
X155620000Y-80820000D03*
X170860000Y-126540000D03*
X135360000Y-85900000D03*
X170860000Y-88440000D03*
X117580000Y-65580000D03*
X175940000Y-101140000D03*
X173400000Y-90980000D03*
X125200000Y-85900000D03*
X115040000Y-75740000D03*
X150540000Y-63040000D03*
X130280000Y-78280000D03*
X175940000Y-75740000D03*
X155620000Y-65580000D03*
X145520000Y-85900000D03*
X160700000Y-75740000D03*
X140440000Y-93520000D03*
X181020000Y-83360000D03*
X155620000Y-63040000D03*
X107420000Y-83360000D03*
X178480000Y-78280000D03*
X120120000Y-124000000D03*
X165780000Y-63040000D03*
X115040000Y-57960000D03*
X160700000Y-88440000D03*
X178480000Y-111300000D03*
D11*
X192000000Y-133000000D03*
D12*
X192000000Y-133000000D03*
D10*
X155620000Y-90980000D03*
X130280000Y-111300000D03*
X132820000Y-78280000D03*
X115040000Y-83360000D03*
X175940000Y-126540000D03*
X137900000Y-63040000D03*
X175940000Y-113840000D03*
X158160000Y-90980000D03*
X109960000Y-121460000D03*
X107420000Y-55420000D03*
X158160000Y-88440000D03*
X163240000Y-98600000D03*
X160700000Y-73200000D03*
X145460000Y-96060000D03*
X181020000Y-70660000D03*
X140440000Y-101140000D03*
X155620000Y-113840000D03*
X188640000Y-60500000D03*
X120120000Y-52880000D03*
X181020000Y-124000000D03*
X107420000Y-65580000D03*
X140440000Y-118920000D03*
X175940000Y-96060000D03*
X188640000Y-55420000D03*
X117580000Y-60500000D03*
X140440000Y-73200000D03*
X186100000Y-116380000D03*
X163240000Y-106220000D03*
X125200000Y-57960000D03*
X186100000Y-83360000D03*
X155620000Y-60500000D03*
X115040000Y-55420000D03*
X160700000Y-80820000D03*
X107420000Y-85900000D03*
X117580000Y-98600000D03*
X170860000Y-111300000D03*
X165780000Y-90980000D03*
X145460000Y-103680000D03*
X186100000Y-108760000D03*
X178480000Y-108760000D03*
X148000000Y-73200000D03*
X122660000Y-124000000D03*
X117580000Y-96060000D03*
X120120000Y-103680000D03*
X188640000Y-52880000D03*
X145460000Y-124000000D03*
X109960000Y-126540000D03*
X130280000Y-63040000D03*
X125200000Y-118920000D03*
X115040000Y-63040000D03*
X125200000Y-60500000D03*
X186100000Y-60500000D03*
X148000000Y-124000000D03*
X117580000Y-118920000D03*
X175940000Y-106220000D03*
X186100000Y-126540000D03*
X186100000Y-121460000D03*
X148000000Y-108760000D03*
X125200000Y-80820000D03*
X175940000Y-80820000D03*
X158160000Y-121460000D03*
X181020000Y-68120000D03*
X107420000Y-116380000D03*
X186100000Y-111300000D03*
X115040000Y-108760000D03*
X163240000Y-111300000D03*
X125200000Y-75740000D03*
X158160000Y-60500000D03*
X150540000Y-57960000D03*
X140440000Y-80820000D03*
X145460000Y-83360000D03*
X135360000Y-75740000D03*
X163240000Y-75740000D03*
X130280000Y-57960000D03*
X140440000Y-113840000D03*
X109960000Y-98600000D03*
X117580000Y-103680000D03*
X132820000Y-101140000D03*
X181020000Y-126540000D03*
X163240000Y-96060000D03*
X170860000Y-121460000D03*
X170860000Y-73200000D03*
X130280000Y-65580000D03*
X158160000Y-68120000D03*
X125200000Y-108760000D03*
X122660000Y-93520000D03*
X150540000Y-52880000D03*
X150540000Y-108760000D03*
X115040000Y-118920000D03*
X125200000Y-63040000D03*
X186100000Y-113840000D03*
X165780000Y-68120000D03*
X150540000Y-96060000D03*
X150540000Y-103680000D03*
X125200000Y-88440000D03*
X140440000Y-63040000D03*
X160700000Y-96060000D03*
X107420000Y-70660000D03*
X173400000Y-106220000D03*
X175940000Y-116380000D03*
X150540000Y-65580000D03*
X178480000Y-96060000D03*
X140440000Y-111300000D03*
X135360000Y-57960000D03*
X160700000Y-101140000D03*
X120120000Y-68120000D03*
X115040000Y-73200000D03*
X135360000Y-116380000D03*
X163240000Y-73200000D03*
X188640000Y-106220000D03*
X122660000Y-90980000D03*
X132820000Y-90980000D03*
X137900000Y-116380000D03*
X109960000Y-65580000D03*
X137900000Y-57960000D03*
X145460000Y-113840000D03*
X130280000Y-118920000D03*
X155620000Y-111300000D03*
X132820000Y-116380000D03*
X107420000Y-88440000D03*
X107420000Y-78280000D03*
X135360000Y-101140000D03*
X170860000Y-83360000D03*
X122660000Y-113840000D03*
X163240000Y-101140000D03*
X145460000Y-80820000D03*
X148000000Y-60500000D03*
X165780000Y-98600000D03*
X186100000Y-63040000D03*
X178480000Y-116380000D03*
X125200000Y-101140000D03*
X173400000Y-65580000D03*
X163240000Y-116380000D03*
X115040000Y-96060000D03*
X125200000Y-96060000D03*
X130280000Y-68120000D03*
X181020000Y-88440000D03*
X188640000Y-121460000D03*
X120120000Y-108760000D03*
X137900000Y-68120000D03*
X132820000Y-70660000D03*
X173400000Y-103680000D03*
X181020000Y-98600000D03*
X178480000Y-52880000D03*
X163240000Y-52880000D03*
X145460000Y-78280000D03*
X109960000Y-78280000D03*
X130280000Y-85900000D03*
X150540000Y-55420000D03*
X160700000Y-113840000D03*
M02*
