%TF.GenerationSoftware,KiCad,Pcbnew,8.0.2*%
%TF.CreationDate,2024-08-26T09:43:16-06:00*%
%TF.ProjectId,Perfboard_0.25,50657266-626f-4617-9264-5f302e32352e,rev?*%
%TF.SameCoordinates,Original*%
%TF.FileFunction,Drillmap*%
%TF.FilePolarity,Positive*%
%FSLAX45Y45*%
G04 Gerber Fmt 4.5, Leading zero omitted, Abs format (unit mm)*
G04 Created by KiCad (PCBNEW 8.0.2) date 2024-08-26 09:43:16*
%MOMM*%
%LPD*%
G01*
G04 APERTURE LIST*
%ADD10C,0.050000*%
%ADD11C,0.200000*%
%ADD12C,0.100000*%
%ADD13C,0.220000*%
G04 APERTURE END LIST*
D10*
X12200000Y-4300000D02*
X17800000Y-4300000D01*
X17800000Y-4300000D02*
X17800000Y-11200000D01*
X12200000Y-11200000D02*
X12200000Y-4300000D01*
X17800000Y-11200000D02*
X12200000Y-11200000D01*
D11*
D12*
X12652500Y-5794500D02*
X12747500Y-5889500D01*
X12747500Y-5794500D02*
X12652500Y-5889500D01*
X12652500Y-6048500D02*
X12747500Y-6143500D01*
X12747500Y-6048500D02*
X12652500Y-6143500D01*
X12652500Y-6302500D02*
X12747500Y-6397500D01*
X12747500Y-6302500D02*
X12652500Y-6397500D01*
X12652500Y-6556500D02*
X12747500Y-6651500D01*
X12747500Y-6556500D02*
X12652500Y-6651500D01*
X12652500Y-6810500D02*
X12747500Y-6905500D01*
X12747500Y-6810500D02*
X12652500Y-6905500D01*
X12652500Y-7064500D02*
X12747500Y-7159500D01*
X12747500Y-7064500D02*
X12652500Y-7159500D01*
X12652500Y-7318500D02*
X12747500Y-7413500D01*
X12747500Y-7318500D02*
X12652500Y-7413500D01*
X12652500Y-7572500D02*
X12747500Y-7667500D01*
X12747500Y-7572500D02*
X12652500Y-7667500D01*
X12652500Y-7826500D02*
X12747500Y-7921500D01*
X12747500Y-7826500D02*
X12652500Y-7921500D01*
X12652500Y-8080500D02*
X12747500Y-8175500D01*
X12747500Y-8080500D02*
X12652500Y-8175500D01*
X12652500Y-8334500D02*
X12747500Y-8429500D01*
X12747500Y-8334500D02*
X12652500Y-8429500D01*
X12652500Y-8588500D02*
X12747500Y-8683500D01*
X12747500Y-8588500D02*
X12652500Y-8683500D01*
X12652500Y-8842500D02*
X12747500Y-8937500D01*
X12747500Y-8842500D02*
X12652500Y-8937500D01*
X12652500Y-9096500D02*
X12747500Y-9191500D01*
X12747500Y-9096500D02*
X12652500Y-9191500D01*
X12652500Y-9350500D02*
X12747500Y-9445500D01*
X12747500Y-9350500D02*
X12652500Y-9445500D01*
X12652500Y-9604500D02*
X12747500Y-9699500D01*
X12747500Y-9604500D02*
X12652500Y-9699500D01*
X12652500Y-9858500D02*
X12747500Y-9953500D01*
X12747500Y-9858500D02*
X12652500Y-9953500D01*
X12652500Y-10112500D02*
X12747500Y-10207500D01*
X12747500Y-10112500D02*
X12652500Y-10207500D01*
X12652500Y-10366500D02*
X12747500Y-10461500D01*
X12747500Y-10366500D02*
X12652500Y-10461500D01*
X12906500Y-5794500D02*
X13001500Y-5889500D01*
X13001500Y-5794500D02*
X12906500Y-5889500D01*
X12906500Y-6048500D02*
X13001500Y-6143500D01*
X13001500Y-6048500D02*
X12906500Y-6143500D01*
X12906500Y-6302500D02*
X13001500Y-6397500D01*
X13001500Y-6302500D02*
X12906500Y-6397500D01*
X12906500Y-6556500D02*
X13001500Y-6651500D01*
X13001500Y-6556500D02*
X12906500Y-6651500D01*
X12906500Y-6810500D02*
X13001500Y-6905500D01*
X13001500Y-6810500D02*
X12906500Y-6905500D01*
X12906500Y-7064500D02*
X13001500Y-7159500D01*
X13001500Y-7064500D02*
X12906500Y-7159500D01*
X12906500Y-7318500D02*
X13001500Y-7413500D01*
X13001500Y-7318500D02*
X12906500Y-7413500D01*
X12906500Y-7572500D02*
X13001500Y-7667500D01*
X13001500Y-7572500D02*
X12906500Y-7667500D01*
X12906500Y-7826500D02*
X13001500Y-7921500D01*
X13001500Y-7826500D02*
X12906500Y-7921500D01*
X12906500Y-8080500D02*
X13001500Y-8175500D01*
X13001500Y-8080500D02*
X12906500Y-8175500D01*
X12906500Y-8334500D02*
X13001500Y-8429500D01*
X13001500Y-8334500D02*
X12906500Y-8429500D01*
X12906500Y-8588500D02*
X13001500Y-8683500D01*
X13001500Y-8588500D02*
X12906500Y-8683500D01*
X12906500Y-8842500D02*
X13001500Y-8937500D01*
X13001500Y-8842500D02*
X12906500Y-8937500D01*
X12906500Y-9096500D02*
X13001500Y-9191500D01*
X13001500Y-9096500D02*
X12906500Y-9191500D01*
X12906500Y-9350500D02*
X13001500Y-9445500D01*
X13001500Y-9350500D02*
X12906500Y-9445500D01*
X12906500Y-9604500D02*
X13001500Y-9699500D01*
X13001500Y-9604500D02*
X12906500Y-9699500D01*
X12906500Y-9858500D02*
X13001500Y-9953500D01*
X13001500Y-9858500D02*
X12906500Y-9953500D01*
X12906500Y-10112500D02*
X13001500Y-10207500D01*
X13001500Y-10112500D02*
X12906500Y-10207500D01*
X12906500Y-10366500D02*
X13001500Y-10461500D01*
X13001500Y-10366500D02*
X12906500Y-10461500D01*
X13160500Y-5794500D02*
X13255500Y-5889500D01*
X13255500Y-5794500D02*
X13160500Y-5889500D01*
X13160500Y-6048500D02*
X13255500Y-6143500D01*
X13255500Y-6048500D02*
X13160500Y-6143500D01*
X13160500Y-6302500D02*
X13255500Y-6397500D01*
X13255500Y-6302500D02*
X13160500Y-6397500D01*
X13160500Y-6556500D02*
X13255500Y-6651500D01*
X13255500Y-6556500D02*
X13160500Y-6651500D01*
X13160500Y-6810500D02*
X13255500Y-6905500D01*
X13255500Y-6810500D02*
X13160500Y-6905500D01*
X13160500Y-7064500D02*
X13255500Y-7159500D01*
X13255500Y-7064500D02*
X13160500Y-7159500D01*
X13160500Y-7318500D02*
X13255500Y-7413500D01*
X13255500Y-7318500D02*
X13160500Y-7413500D01*
X13160500Y-7572500D02*
X13255500Y-7667500D01*
X13255500Y-7572500D02*
X13160500Y-7667500D01*
X13160500Y-7826500D02*
X13255500Y-7921500D01*
X13255500Y-7826500D02*
X13160500Y-7921500D01*
X13160500Y-8080500D02*
X13255500Y-8175500D01*
X13255500Y-8080500D02*
X13160500Y-8175500D01*
X13160500Y-8334500D02*
X13255500Y-8429500D01*
X13255500Y-8334500D02*
X13160500Y-8429500D01*
X13160500Y-8588500D02*
X13255500Y-8683500D01*
X13255500Y-8588500D02*
X13160500Y-8683500D01*
X13160500Y-8842500D02*
X13255500Y-8937500D01*
X13255500Y-8842500D02*
X13160500Y-8937500D01*
X13160500Y-9096500D02*
X13255500Y-9191500D01*
X13255500Y-9096500D02*
X13160500Y-9191500D01*
X13160500Y-9350500D02*
X13255500Y-9445500D01*
X13255500Y-9350500D02*
X13160500Y-9445500D01*
X13160500Y-9604500D02*
X13255500Y-9699500D01*
X13255500Y-9604500D02*
X13160500Y-9699500D01*
X13160500Y-9858500D02*
X13255500Y-9953500D01*
X13255500Y-9858500D02*
X13160500Y-9953500D01*
X13160500Y-10112500D02*
X13255500Y-10207500D01*
X13255500Y-10112500D02*
X13160500Y-10207500D01*
X13160500Y-10366500D02*
X13255500Y-10461500D01*
X13255500Y-10366500D02*
X13160500Y-10461500D01*
X13414500Y-5794500D02*
X13509500Y-5889500D01*
X13509500Y-5794500D02*
X13414500Y-5889500D01*
X13414500Y-6048500D02*
X13509500Y-6143500D01*
X13509500Y-6048500D02*
X13414500Y-6143500D01*
X13414500Y-6302500D02*
X13509500Y-6397500D01*
X13509500Y-6302500D02*
X13414500Y-6397500D01*
X13414500Y-6556500D02*
X13509500Y-6651500D01*
X13509500Y-6556500D02*
X13414500Y-6651500D01*
X13414500Y-6810500D02*
X13509500Y-6905500D01*
X13509500Y-6810500D02*
X13414500Y-6905500D01*
X13414500Y-7064500D02*
X13509500Y-7159500D01*
X13509500Y-7064500D02*
X13414500Y-7159500D01*
X13414500Y-7318500D02*
X13509500Y-7413500D01*
X13509500Y-7318500D02*
X13414500Y-7413500D01*
X13414500Y-7572500D02*
X13509500Y-7667500D01*
X13509500Y-7572500D02*
X13414500Y-7667500D01*
X13414500Y-7826500D02*
X13509500Y-7921500D01*
X13509500Y-7826500D02*
X13414500Y-7921500D01*
X13414500Y-8080500D02*
X13509500Y-8175500D01*
X13509500Y-8080500D02*
X13414500Y-8175500D01*
X13414500Y-8334500D02*
X13509500Y-8429500D01*
X13509500Y-8334500D02*
X13414500Y-8429500D01*
X13414500Y-8588500D02*
X13509500Y-8683500D01*
X13509500Y-8588500D02*
X13414500Y-8683500D01*
X13414500Y-8842500D02*
X13509500Y-8937500D01*
X13509500Y-8842500D02*
X13414500Y-8937500D01*
X13414500Y-9096500D02*
X13509500Y-9191500D01*
X13509500Y-9096500D02*
X13414500Y-9191500D01*
X13414500Y-9350500D02*
X13509500Y-9445500D01*
X13509500Y-9350500D02*
X13414500Y-9445500D01*
X13414500Y-9604500D02*
X13509500Y-9699500D01*
X13509500Y-9604500D02*
X13414500Y-9699500D01*
X13414500Y-9858500D02*
X13509500Y-9953500D01*
X13509500Y-9858500D02*
X13414500Y-9953500D01*
X13414500Y-10112500D02*
X13509500Y-10207500D01*
X13509500Y-10112500D02*
X13414500Y-10207500D01*
X13414500Y-10366500D02*
X13509500Y-10461500D01*
X13509500Y-10366500D02*
X13414500Y-10461500D01*
X13668500Y-5794500D02*
X13763500Y-5889500D01*
X13763500Y-5794500D02*
X13668500Y-5889500D01*
X13668500Y-6048500D02*
X13763500Y-6143500D01*
X13763500Y-6048500D02*
X13668500Y-6143500D01*
X13668500Y-6302500D02*
X13763500Y-6397500D01*
X13763500Y-6302500D02*
X13668500Y-6397500D01*
X13668500Y-6556500D02*
X13763500Y-6651500D01*
X13763500Y-6556500D02*
X13668500Y-6651500D01*
X13668500Y-6810500D02*
X13763500Y-6905500D01*
X13763500Y-6810500D02*
X13668500Y-6905500D01*
X13668500Y-7064500D02*
X13763500Y-7159500D01*
X13763500Y-7064500D02*
X13668500Y-7159500D01*
X13668500Y-7318500D02*
X13763500Y-7413500D01*
X13763500Y-7318500D02*
X13668500Y-7413500D01*
X13668500Y-7572500D02*
X13763500Y-7667500D01*
X13763500Y-7572500D02*
X13668500Y-7667500D01*
X13668500Y-7826500D02*
X13763500Y-7921500D01*
X13763500Y-7826500D02*
X13668500Y-7921500D01*
X13668500Y-8080500D02*
X13763500Y-8175500D01*
X13763500Y-8080500D02*
X13668500Y-8175500D01*
X13668500Y-8334500D02*
X13763500Y-8429500D01*
X13763500Y-8334500D02*
X13668500Y-8429500D01*
X13668500Y-8588500D02*
X13763500Y-8683500D01*
X13763500Y-8588500D02*
X13668500Y-8683500D01*
X13668500Y-8842500D02*
X13763500Y-8937500D01*
X13763500Y-8842500D02*
X13668500Y-8937500D01*
X13668500Y-9096500D02*
X13763500Y-9191500D01*
X13763500Y-9096500D02*
X13668500Y-9191500D01*
X13668500Y-9350500D02*
X13763500Y-9445500D01*
X13763500Y-9350500D02*
X13668500Y-9445500D01*
X13668500Y-9604500D02*
X13763500Y-9699500D01*
X13763500Y-9604500D02*
X13668500Y-9699500D01*
X13668500Y-9858500D02*
X13763500Y-9953500D01*
X13763500Y-9858500D02*
X13668500Y-9953500D01*
X13668500Y-10112500D02*
X13763500Y-10207500D01*
X13763500Y-10112500D02*
X13668500Y-10207500D01*
X13668500Y-10366500D02*
X13763500Y-10461500D01*
X13763500Y-10366500D02*
X13668500Y-10461500D01*
X13922500Y-5794500D02*
X14017500Y-5889500D01*
X14017500Y-5794500D02*
X13922500Y-5889500D01*
X13922500Y-6048500D02*
X14017500Y-6143500D01*
X14017500Y-6048500D02*
X13922500Y-6143500D01*
X13922500Y-6302500D02*
X14017500Y-6397500D01*
X14017500Y-6302500D02*
X13922500Y-6397500D01*
X13922500Y-6556500D02*
X14017500Y-6651500D01*
X14017500Y-6556500D02*
X13922500Y-6651500D01*
X13922500Y-6810500D02*
X14017500Y-6905500D01*
X14017500Y-6810500D02*
X13922500Y-6905500D01*
X13922500Y-7064500D02*
X14017500Y-7159500D01*
X14017500Y-7064500D02*
X13922500Y-7159500D01*
X13922500Y-7318500D02*
X14017500Y-7413500D01*
X14017500Y-7318500D02*
X13922500Y-7413500D01*
X13922500Y-7572500D02*
X14017500Y-7667500D01*
X14017500Y-7572500D02*
X13922500Y-7667500D01*
X13922500Y-7826500D02*
X14017500Y-7921500D01*
X14017500Y-7826500D02*
X13922500Y-7921500D01*
X13922500Y-8080500D02*
X14017500Y-8175500D01*
X14017500Y-8080500D02*
X13922500Y-8175500D01*
X13922500Y-8334500D02*
X14017500Y-8429500D01*
X14017500Y-8334500D02*
X13922500Y-8429500D01*
X13922500Y-8588500D02*
X14017500Y-8683500D01*
X14017500Y-8588500D02*
X13922500Y-8683500D01*
X13922500Y-8842500D02*
X14017500Y-8937500D01*
X14017500Y-8842500D02*
X13922500Y-8937500D01*
X13922500Y-9096500D02*
X14017500Y-9191500D01*
X14017500Y-9096500D02*
X13922500Y-9191500D01*
X13922500Y-9350500D02*
X14017500Y-9445500D01*
X14017500Y-9350500D02*
X13922500Y-9445500D01*
X13922500Y-9604500D02*
X14017500Y-9699500D01*
X14017500Y-9604500D02*
X13922500Y-9699500D01*
X13922500Y-9858500D02*
X14017500Y-9953500D01*
X14017500Y-9858500D02*
X13922500Y-9953500D01*
X13922500Y-10112500D02*
X14017500Y-10207500D01*
X14017500Y-10112500D02*
X13922500Y-10207500D01*
X13922500Y-10366500D02*
X14017500Y-10461500D01*
X14017500Y-10366500D02*
X13922500Y-10461500D01*
X14176500Y-5794500D02*
X14271500Y-5889500D01*
X14271500Y-5794500D02*
X14176500Y-5889500D01*
X14176500Y-6048500D02*
X14271500Y-6143500D01*
X14271500Y-6048500D02*
X14176500Y-6143500D01*
X14176500Y-6302500D02*
X14271500Y-6397500D01*
X14271500Y-6302500D02*
X14176500Y-6397500D01*
X14176500Y-6556500D02*
X14271500Y-6651500D01*
X14271500Y-6556500D02*
X14176500Y-6651500D01*
X14176500Y-6810500D02*
X14271500Y-6905500D01*
X14271500Y-6810500D02*
X14176500Y-6905500D01*
X14176500Y-7064500D02*
X14271500Y-7159500D01*
X14271500Y-7064500D02*
X14176500Y-7159500D01*
X14176500Y-7318500D02*
X14271500Y-7413500D01*
X14271500Y-7318500D02*
X14176500Y-7413500D01*
X14176500Y-7572500D02*
X14271500Y-7667500D01*
X14271500Y-7572500D02*
X14176500Y-7667500D01*
X14176500Y-7826500D02*
X14271500Y-7921500D01*
X14271500Y-7826500D02*
X14176500Y-7921500D01*
X14176500Y-8080500D02*
X14271500Y-8175500D01*
X14271500Y-8080500D02*
X14176500Y-8175500D01*
X14176500Y-8334500D02*
X14271500Y-8429500D01*
X14271500Y-8334500D02*
X14176500Y-8429500D01*
X14176500Y-8588500D02*
X14271500Y-8683500D01*
X14271500Y-8588500D02*
X14176500Y-8683500D01*
X14176500Y-8842500D02*
X14271500Y-8937500D01*
X14271500Y-8842500D02*
X14176500Y-8937500D01*
X14176500Y-9096500D02*
X14271500Y-9191500D01*
X14271500Y-9096500D02*
X14176500Y-9191500D01*
X14176500Y-9350500D02*
X14271500Y-9445500D01*
X14271500Y-9350500D02*
X14176500Y-9445500D01*
X14176500Y-9604500D02*
X14271500Y-9699500D01*
X14271500Y-9604500D02*
X14176500Y-9699500D01*
X14176500Y-9858500D02*
X14271500Y-9953500D01*
X14271500Y-9858500D02*
X14176500Y-9953500D01*
X14176500Y-10112500D02*
X14271500Y-10207500D01*
X14271500Y-10112500D02*
X14176500Y-10207500D01*
X14176500Y-10366500D02*
X14271500Y-10461500D01*
X14271500Y-10366500D02*
X14176500Y-10461500D01*
X14430500Y-5794500D02*
X14525500Y-5889500D01*
X14525500Y-5794500D02*
X14430500Y-5889500D01*
X14430500Y-6048500D02*
X14525500Y-6143500D01*
X14525500Y-6048500D02*
X14430500Y-6143500D01*
X14430500Y-6302500D02*
X14525500Y-6397500D01*
X14525500Y-6302500D02*
X14430500Y-6397500D01*
X14430500Y-6556500D02*
X14525500Y-6651500D01*
X14525500Y-6556500D02*
X14430500Y-6651500D01*
X14430500Y-6810500D02*
X14525500Y-6905500D01*
X14525500Y-6810500D02*
X14430500Y-6905500D01*
X14430500Y-7064500D02*
X14525500Y-7159500D01*
X14525500Y-7064500D02*
X14430500Y-7159500D01*
X14430500Y-7318500D02*
X14525500Y-7413500D01*
X14525500Y-7318500D02*
X14430500Y-7413500D01*
X14430500Y-7572500D02*
X14525500Y-7667500D01*
X14525500Y-7572500D02*
X14430500Y-7667500D01*
X14430500Y-7826500D02*
X14525500Y-7921500D01*
X14525500Y-7826500D02*
X14430500Y-7921500D01*
X14430500Y-8080500D02*
X14525500Y-8175500D01*
X14525500Y-8080500D02*
X14430500Y-8175500D01*
X14430500Y-8334500D02*
X14525500Y-8429500D01*
X14525500Y-8334500D02*
X14430500Y-8429500D01*
X14430500Y-8588500D02*
X14525500Y-8683500D01*
X14525500Y-8588500D02*
X14430500Y-8683500D01*
X14430500Y-8842500D02*
X14525500Y-8937500D01*
X14525500Y-8842500D02*
X14430500Y-8937500D01*
X14430500Y-9096500D02*
X14525500Y-9191500D01*
X14525500Y-9096500D02*
X14430500Y-9191500D01*
X14430500Y-9350500D02*
X14525500Y-9445500D01*
X14525500Y-9350500D02*
X14430500Y-9445500D01*
X14430500Y-9604500D02*
X14525500Y-9699500D01*
X14525500Y-9604500D02*
X14430500Y-9699500D01*
X14430500Y-9858500D02*
X14525500Y-9953500D01*
X14525500Y-9858500D02*
X14430500Y-9953500D01*
X14430500Y-10112500D02*
X14525500Y-10207500D01*
X14525500Y-10112500D02*
X14430500Y-10207500D01*
X14430500Y-10366500D02*
X14525500Y-10461500D01*
X14525500Y-10366500D02*
X14430500Y-10461500D01*
X14684500Y-5794500D02*
X14779500Y-5889500D01*
X14779500Y-5794500D02*
X14684500Y-5889500D01*
X14684500Y-6048500D02*
X14779500Y-6143500D01*
X14779500Y-6048500D02*
X14684500Y-6143500D01*
X14684500Y-6302500D02*
X14779500Y-6397500D01*
X14779500Y-6302500D02*
X14684500Y-6397500D01*
X14684500Y-6556500D02*
X14779500Y-6651500D01*
X14779500Y-6556500D02*
X14684500Y-6651500D01*
X14684500Y-6810500D02*
X14779500Y-6905500D01*
X14779500Y-6810500D02*
X14684500Y-6905500D01*
X14684500Y-7064500D02*
X14779500Y-7159500D01*
X14779500Y-7064500D02*
X14684500Y-7159500D01*
X14684500Y-7318500D02*
X14779500Y-7413500D01*
X14779500Y-7318500D02*
X14684500Y-7413500D01*
X14684500Y-7572500D02*
X14779500Y-7667500D01*
X14779500Y-7572500D02*
X14684500Y-7667500D01*
X14684500Y-7826500D02*
X14779500Y-7921500D01*
X14779500Y-7826500D02*
X14684500Y-7921500D01*
X14684500Y-8080500D02*
X14779500Y-8175500D01*
X14779500Y-8080500D02*
X14684500Y-8175500D01*
X14684500Y-8334500D02*
X14779500Y-8429500D01*
X14779500Y-8334500D02*
X14684500Y-8429500D01*
X14684500Y-8588500D02*
X14779500Y-8683500D01*
X14779500Y-8588500D02*
X14684500Y-8683500D01*
X14684500Y-8842500D02*
X14779500Y-8937500D01*
X14779500Y-8842500D02*
X14684500Y-8937500D01*
X14684500Y-9096500D02*
X14779500Y-9191500D01*
X14779500Y-9096500D02*
X14684500Y-9191500D01*
X14684500Y-9350500D02*
X14779500Y-9445500D01*
X14779500Y-9350500D02*
X14684500Y-9445500D01*
X14684500Y-9604500D02*
X14779500Y-9699500D01*
X14779500Y-9604500D02*
X14684500Y-9699500D01*
X14684500Y-9858500D02*
X14779500Y-9953500D01*
X14779500Y-9858500D02*
X14684500Y-9953500D01*
X14684500Y-10112500D02*
X14779500Y-10207500D01*
X14779500Y-10112500D02*
X14684500Y-10207500D01*
X14684500Y-10366500D02*
X14779500Y-10461500D01*
X14779500Y-10366500D02*
X14684500Y-10461500D01*
X14938500Y-5794500D02*
X15033500Y-5889500D01*
X15033500Y-5794500D02*
X14938500Y-5889500D01*
X14938500Y-6048500D02*
X15033500Y-6143500D01*
X15033500Y-6048500D02*
X14938500Y-6143500D01*
X14938500Y-6302500D02*
X15033500Y-6397500D01*
X15033500Y-6302500D02*
X14938500Y-6397500D01*
X14938500Y-6556500D02*
X15033500Y-6651500D01*
X15033500Y-6556500D02*
X14938500Y-6651500D01*
X14938500Y-6810500D02*
X15033500Y-6905500D01*
X15033500Y-6810500D02*
X14938500Y-6905500D01*
X14938500Y-7064500D02*
X15033500Y-7159500D01*
X15033500Y-7064500D02*
X14938500Y-7159500D01*
X14938500Y-7318500D02*
X15033500Y-7413500D01*
X15033500Y-7318500D02*
X14938500Y-7413500D01*
X14938500Y-7572500D02*
X15033500Y-7667500D01*
X15033500Y-7572500D02*
X14938500Y-7667500D01*
X14938500Y-7826500D02*
X15033500Y-7921500D01*
X15033500Y-7826500D02*
X14938500Y-7921500D01*
X14938500Y-8080500D02*
X15033500Y-8175500D01*
X15033500Y-8080500D02*
X14938500Y-8175500D01*
X14938500Y-8334500D02*
X15033500Y-8429500D01*
X15033500Y-8334500D02*
X14938500Y-8429500D01*
X14938500Y-8588500D02*
X15033500Y-8683500D01*
X15033500Y-8588500D02*
X14938500Y-8683500D01*
X14938500Y-8842500D02*
X15033500Y-8937500D01*
X15033500Y-8842500D02*
X14938500Y-8937500D01*
X14938500Y-9096500D02*
X15033500Y-9191500D01*
X15033500Y-9096500D02*
X14938500Y-9191500D01*
X14938500Y-9350500D02*
X15033500Y-9445500D01*
X15033500Y-9350500D02*
X14938500Y-9445500D01*
X14938500Y-9604500D02*
X15033500Y-9699500D01*
X15033500Y-9604500D02*
X14938500Y-9699500D01*
X14938500Y-9858500D02*
X15033500Y-9953500D01*
X15033500Y-9858500D02*
X14938500Y-9953500D01*
X14938500Y-10112500D02*
X15033500Y-10207500D01*
X15033500Y-10112500D02*
X14938500Y-10207500D01*
X14938500Y-10366500D02*
X15033500Y-10461500D01*
X15033500Y-10366500D02*
X14938500Y-10461500D01*
X15192500Y-5794500D02*
X15287500Y-5889500D01*
X15287500Y-5794500D02*
X15192500Y-5889500D01*
X15192500Y-6048500D02*
X15287500Y-6143500D01*
X15287500Y-6048500D02*
X15192500Y-6143500D01*
X15192500Y-6302500D02*
X15287500Y-6397500D01*
X15287500Y-6302500D02*
X15192500Y-6397500D01*
X15192500Y-6556500D02*
X15287500Y-6651500D01*
X15287500Y-6556500D02*
X15192500Y-6651500D01*
X15192500Y-6810500D02*
X15287500Y-6905500D01*
X15287500Y-6810500D02*
X15192500Y-6905500D01*
X15192500Y-7064500D02*
X15287500Y-7159500D01*
X15287500Y-7064500D02*
X15192500Y-7159500D01*
X15192500Y-7318500D02*
X15287500Y-7413500D01*
X15287500Y-7318500D02*
X15192500Y-7413500D01*
X15192500Y-7572500D02*
X15287500Y-7667500D01*
X15287500Y-7572500D02*
X15192500Y-7667500D01*
X15192500Y-7826500D02*
X15287500Y-7921500D01*
X15287500Y-7826500D02*
X15192500Y-7921500D01*
X15192500Y-8080500D02*
X15287500Y-8175500D01*
X15287500Y-8080500D02*
X15192500Y-8175500D01*
X15192500Y-8334500D02*
X15287500Y-8429500D01*
X15287500Y-8334500D02*
X15192500Y-8429500D01*
X15192500Y-8588500D02*
X15287500Y-8683500D01*
X15287500Y-8588500D02*
X15192500Y-8683500D01*
X15192500Y-8842500D02*
X15287500Y-8937500D01*
X15287500Y-8842500D02*
X15192500Y-8937500D01*
X15192500Y-9096500D02*
X15287500Y-9191500D01*
X15287500Y-9096500D02*
X15192500Y-9191500D01*
X15192500Y-9350500D02*
X15287500Y-9445500D01*
X15287500Y-9350500D02*
X15192500Y-9445500D01*
X15192500Y-9604500D02*
X15287500Y-9699500D01*
X15287500Y-9604500D02*
X15192500Y-9699500D01*
X15192500Y-9858500D02*
X15287500Y-9953500D01*
X15287500Y-9858500D02*
X15192500Y-9953500D01*
X15192500Y-10112500D02*
X15287500Y-10207500D01*
X15287500Y-10112500D02*
X15192500Y-10207500D01*
X15192500Y-10366500D02*
X15287500Y-10461500D01*
X15287500Y-10366500D02*
X15192500Y-10461500D01*
X15446500Y-5794500D02*
X15541500Y-5889500D01*
X15541500Y-5794500D02*
X15446500Y-5889500D01*
X15446500Y-6048500D02*
X15541500Y-6143500D01*
X15541500Y-6048500D02*
X15446500Y-6143500D01*
X15446500Y-6302500D02*
X15541500Y-6397500D01*
X15541500Y-6302500D02*
X15446500Y-6397500D01*
X15446500Y-6556500D02*
X15541500Y-6651500D01*
X15541500Y-6556500D02*
X15446500Y-6651500D01*
X15446500Y-6810500D02*
X15541500Y-6905500D01*
X15541500Y-6810500D02*
X15446500Y-6905500D01*
X15446500Y-7064500D02*
X15541500Y-7159500D01*
X15541500Y-7064500D02*
X15446500Y-7159500D01*
X15446500Y-7318500D02*
X15541500Y-7413500D01*
X15541500Y-7318500D02*
X15446500Y-7413500D01*
X15446500Y-7572500D02*
X15541500Y-7667500D01*
X15541500Y-7572500D02*
X15446500Y-7667500D01*
X15446500Y-7826500D02*
X15541500Y-7921500D01*
X15541500Y-7826500D02*
X15446500Y-7921500D01*
X15446500Y-8080500D02*
X15541500Y-8175500D01*
X15541500Y-8080500D02*
X15446500Y-8175500D01*
X15446500Y-8334500D02*
X15541500Y-8429500D01*
X15541500Y-8334500D02*
X15446500Y-8429500D01*
X15446500Y-8588500D02*
X15541500Y-8683500D01*
X15541500Y-8588500D02*
X15446500Y-8683500D01*
X15446500Y-8842500D02*
X15541500Y-8937500D01*
X15541500Y-8842500D02*
X15446500Y-8937500D01*
X15446500Y-9096500D02*
X15541500Y-9191500D01*
X15541500Y-9096500D02*
X15446500Y-9191500D01*
X15446500Y-9350500D02*
X15541500Y-9445500D01*
X15541500Y-9350500D02*
X15446500Y-9445500D01*
X15446500Y-9604500D02*
X15541500Y-9699500D01*
X15541500Y-9604500D02*
X15446500Y-9699500D01*
X15446500Y-9858500D02*
X15541500Y-9953500D01*
X15541500Y-9858500D02*
X15446500Y-9953500D01*
X15446500Y-10112500D02*
X15541500Y-10207500D01*
X15541500Y-10112500D02*
X15446500Y-10207500D01*
X15446500Y-10366500D02*
X15541500Y-10461500D01*
X15541500Y-10366500D02*
X15446500Y-10461500D01*
X15700500Y-5794500D02*
X15795500Y-5889500D01*
X15795500Y-5794500D02*
X15700500Y-5889500D01*
X15700500Y-6048500D02*
X15795500Y-6143500D01*
X15795500Y-6048500D02*
X15700500Y-6143500D01*
X15700500Y-6302500D02*
X15795500Y-6397500D01*
X15795500Y-6302500D02*
X15700500Y-6397500D01*
X15700500Y-6556500D02*
X15795500Y-6651500D01*
X15795500Y-6556500D02*
X15700500Y-6651500D01*
X15700500Y-6810500D02*
X15795500Y-6905500D01*
X15795500Y-6810500D02*
X15700500Y-6905500D01*
X15700500Y-7064500D02*
X15795500Y-7159500D01*
X15795500Y-7064500D02*
X15700500Y-7159500D01*
X15700500Y-7318500D02*
X15795500Y-7413500D01*
X15795500Y-7318500D02*
X15700500Y-7413500D01*
X15700500Y-7572500D02*
X15795500Y-7667500D01*
X15795500Y-7572500D02*
X15700500Y-7667500D01*
X15700500Y-7826500D02*
X15795500Y-7921500D01*
X15795500Y-7826500D02*
X15700500Y-7921500D01*
X15700500Y-8080500D02*
X15795500Y-8175500D01*
X15795500Y-8080500D02*
X15700500Y-8175500D01*
X15700500Y-8334500D02*
X15795500Y-8429500D01*
X15795500Y-8334500D02*
X15700500Y-8429500D01*
X15700500Y-8588500D02*
X15795500Y-8683500D01*
X15795500Y-8588500D02*
X15700500Y-8683500D01*
X15700500Y-8842500D02*
X15795500Y-8937500D01*
X15795500Y-8842500D02*
X15700500Y-8937500D01*
X15700500Y-9096500D02*
X15795500Y-9191500D01*
X15795500Y-9096500D02*
X15700500Y-9191500D01*
X15700500Y-9350500D02*
X15795500Y-9445500D01*
X15795500Y-9350500D02*
X15700500Y-9445500D01*
X15700500Y-9604500D02*
X15795500Y-9699500D01*
X15795500Y-9604500D02*
X15700500Y-9699500D01*
X15700500Y-9858500D02*
X15795500Y-9953500D01*
X15795500Y-9858500D02*
X15700500Y-9953500D01*
X15700500Y-10112500D02*
X15795500Y-10207500D01*
X15795500Y-10112500D02*
X15700500Y-10207500D01*
X15700500Y-10366500D02*
X15795500Y-10461500D01*
X15795500Y-10366500D02*
X15700500Y-10461500D01*
X15954500Y-5794500D02*
X16049500Y-5889500D01*
X16049500Y-5794500D02*
X15954500Y-5889500D01*
X15954500Y-6048500D02*
X16049500Y-6143500D01*
X16049500Y-6048500D02*
X15954500Y-6143500D01*
X15954500Y-6302500D02*
X16049500Y-6397500D01*
X16049500Y-6302500D02*
X15954500Y-6397500D01*
X15954500Y-6556500D02*
X16049500Y-6651500D01*
X16049500Y-6556500D02*
X15954500Y-6651500D01*
X15954500Y-6810500D02*
X16049500Y-6905500D01*
X16049500Y-6810500D02*
X15954500Y-6905500D01*
X15954500Y-7064500D02*
X16049500Y-7159500D01*
X16049500Y-7064500D02*
X15954500Y-7159500D01*
X15954500Y-7318500D02*
X16049500Y-7413500D01*
X16049500Y-7318500D02*
X15954500Y-7413500D01*
X15954500Y-7572500D02*
X16049500Y-7667500D01*
X16049500Y-7572500D02*
X15954500Y-7667500D01*
X15954500Y-7826500D02*
X16049500Y-7921500D01*
X16049500Y-7826500D02*
X15954500Y-7921500D01*
X15954500Y-8080500D02*
X16049500Y-8175500D01*
X16049500Y-8080500D02*
X15954500Y-8175500D01*
X15954500Y-8334500D02*
X16049500Y-8429500D01*
X16049500Y-8334500D02*
X15954500Y-8429500D01*
X15954500Y-8588500D02*
X16049500Y-8683500D01*
X16049500Y-8588500D02*
X15954500Y-8683500D01*
X15954500Y-8842500D02*
X16049500Y-8937500D01*
X16049500Y-8842500D02*
X15954500Y-8937500D01*
X15954500Y-9096500D02*
X16049500Y-9191500D01*
X16049500Y-9096500D02*
X15954500Y-9191500D01*
X15954500Y-9350500D02*
X16049500Y-9445500D01*
X16049500Y-9350500D02*
X15954500Y-9445500D01*
X15954500Y-9604500D02*
X16049500Y-9699500D01*
X16049500Y-9604500D02*
X15954500Y-9699500D01*
X15954500Y-9858500D02*
X16049500Y-9953500D01*
X16049500Y-9858500D02*
X15954500Y-9953500D01*
X15954500Y-10112500D02*
X16049500Y-10207500D01*
X16049500Y-10112500D02*
X15954500Y-10207500D01*
X15954500Y-10366500D02*
X16049500Y-10461500D01*
X16049500Y-10366500D02*
X15954500Y-10461500D01*
X16208500Y-5794500D02*
X16303500Y-5889500D01*
X16303500Y-5794500D02*
X16208500Y-5889500D01*
X16208500Y-6048500D02*
X16303500Y-6143500D01*
X16303500Y-6048500D02*
X16208500Y-6143500D01*
X16208500Y-6302500D02*
X16303500Y-6397500D01*
X16303500Y-6302500D02*
X16208500Y-6397500D01*
X16208500Y-6556500D02*
X16303500Y-6651500D01*
X16303500Y-6556500D02*
X16208500Y-6651500D01*
X16208500Y-6810500D02*
X16303500Y-6905500D01*
X16303500Y-6810500D02*
X16208500Y-6905500D01*
X16208500Y-7064500D02*
X16303500Y-7159500D01*
X16303500Y-7064500D02*
X16208500Y-7159500D01*
X16208500Y-7318500D02*
X16303500Y-7413500D01*
X16303500Y-7318500D02*
X16208500Y-7413500D01*
X16208500Y-7572500D02*
X16303500Y-7667500D01*
X16303500Y-7572500D02*
X16208500Y-7667500D01*
X16208500Y-7826500D02*
X16303500Y-7921500D01*
X16303500Y-7826500D02*
X16208500Y-7921500D01*
X16208500Y-8080500D02*
X16303500Y-8175500D01*
X16303500Y-8080500D02*
X16208500Y-8175500D01*
X16208500Y-8334500D02*
X16303500Y-8429500D01*
X16303500Y-8334500D02*
X16208500Y-8429500D01*
X16208500Y-8588500D02*
X16303500Y-8683500D01*
X16303500Y-8588500D02*
X16208500Y-8683500D01*
X16208500Y-8842500D02*
X16303500Y-8937500D01*
X16303500Y-8842500D02*
X16208500Y-8937500D01*
X16208500Y-9096500D02*
X16303500Y-9191500D01*
X16303500Y-9096500D02*
X16208500Y-9191500D01*
X16208500Y-9350500D02*
X16303500Y-9445500D01*
X16303500Y-9350500D02*
X16208500Y-9445500D01*
X16208500Y-9604500D02*
X16303500Y-9699500D01*
X16303500Y-9604500D02*
X16208500Y-9699500D01*
X16208500Y-9858500D02*
X16303500Y-9953500D01*
X16303500Y-9858500D02*
X16208500Y-9953500D01*
X16208500Y-10112500D02*
X16303500Y-10207500D01*
X16303500Y-10112500D02*
X16208500Y-10207500D01*
X16208500Y-10366500D02*
X16303500Y-10461500D01*
X16303500Y-10366500D02*
X16208500Y-10461500D01*
X16462500Y-5794500D02*
X16557500Y-5889500D01*
X16557500Y-5794500D02*
X16462500Y-5889500D01*
X16462500Y-6048500D02*
X16557500Y-6143500D01*
X16557500Y-6048500D02*
X16462500Y-6143500D01*
X16462500Y-6302500D02*
X16557500Y-6397500D01*
X16557500Y-6302500D02*
X16462500Y-6397500D01*
X16462500Y-6556500D02*
X16557500Y-6651500D01*
X16557500Y-6556500D02*
X16462500Y-6651500D01*
X16462500Y-6810500D02*
X16557500Y-6905500D01*
X16557500Y-6810500D02*
X16462500Y-6905500D01*
X16462500Y-7064500D02*
X16557500Y-7159500D01*
X16557500Y-7064500D02*
X16462500Y-7159500D01*
X16462500Y-7318500D02*
X16557500Y-7413500D01*
X16557500Y-7318500D02*
X16462500Y-7413500D01*
X16462500Y-7572500D02*
X16557500Y-7667500D01*
X16557500Y-7572500D02*
X16462500Y-7667500D01*
X16462500Y-7826500D02*
X16557500Y-7921500D01*
X16557500Y-7826500D02*
X16462500Y-7921500D01*
X16462500Y-8080500D02*
X16557500Y-8175500D01*
X16557500Y-8080500D02*
X16462500Y-8175500D01*
X16462500Y-8334500D02*
X16557500Y-8429500D01*
X16557500Y-8334500D02*
X16462500Y-8429500D01*
X16462500Y-8588500D02*
X16557500Y-8683500D01*
X16557500Y-8588500D02*
X16462500Y-8683500D01*
X16462500Y-8842500D02*
X16557500Y-8937500D01*
X16557500Y-8842500D02*
X16462500Y-8937500D01*
X16462500Y-9096500D02*
X16557500Y-9191500D01*
X16557500Y-9096500D02*
X16462500Y-9191500D01*
X16462500Y-9350500D02*
X16557500Y-9445500D01*
X16557500Y-9350500D02*
X16462500Y-9445500D01*
X16462500Y-9604500D02*
X16557500Y-9699500D01*
X16557500Y-9604500D02*
X16462500Y-9699500D01*
X16462500Y-9858500D02*
X16557500Y-9953500D01*
X16557500Y-9858500D02*
X16462500Y-9953500D01*
X16462500Y-10112500D02*
X16557500Y-10207500D01*
X16557500Y-10112500D02*
X16462500Y-10207500D01*
X16462500Y-10366500D02*
X16557500Y-10461500D01*
X16557500Y-10366500D02*
X16462500Y-10461500D01*
X16716500Y-5794500D02*
X16811500Y-5889500D01*
X16811500Y-5794500D02*
X16716500Y-5889500D01*
X16716500Y-6048500D02*
X16811500Y-6143500D01*
X16811500Y-6048500D02*
X16716500Y-6143500D01*
X16716500Y-6302500D02*
X16811500Y-6397500D01*
X16811500Y-6302500D02*
X16716500Y-6397500D01*
X16716500Y-6556500D02*
X16811500Y-6651500D01*
X16811500Y-6556500D02*
X16716500Y-6651500D01*
X16716500Y-6810500D02*
X16811500Y-6905500D01*
X16811500Y-6810500D02*
X16716500Y-6905500D01*
X16716500Y-7064500D02*
X16811500Y-7159500D01*
X16811500Y-7064500D02*
X16716500Y-7159500D01*
X16716500Y-7318500D02*
X16811500Y-7413500D01*
X16811500Y-7318500D02*
X16716500Y-7413500D01*
X16716500Y-7572500D02*
X16811500Y-7667500D01*
X16811500Y-7572500D02*
X16716500Y-7667500D01*
X16716500Y-7826500D02*
X16811500Y-7921500D01*
X16811500Y-7826500D02*
X16716500Y-7921500D01*
X16716500Y-8080500D02*
X16811500Y-8175500D01*
X16811500Y-8080500D02*
X16716500Y-8175500D01*
X16716500Y-8334500D02*
X16811500Y-8429500D01*
X16811500Y-8334500D02*
X16716500Y-8429500D01*
X16716500Y-8588500D02*
X16811500Y-8683500D01*
X16811500Y-8588500D02*
X16716500Y-8683500D01*
X16716500Y-8842500D02*
X16811500Y-8937500D01*
X16811500Y-8842500D02*
X16716500Y-8937500D01*
X16716500Y-9096500D02*
X16811500Y-9191500D01*
X16811500Y-9096500D02*
X16716500Y-9191500D01*
X16716500Y-9350500D02*
X16811500Y-9445500D01*
X16811500Y-9350500D02*
X16716500Y-9445500D01*
X16716500Y-9604500D02*
X16811500Y-9699500D01*
X16811500Y-9604500D02*
X16716500Y-9699500D01*
X16716500Y-9858500D02*
X16811500Y-9953500D01*
X16811500Y-9858500D02*
X16716500Y-9953500D01*
X16716500Y-10112500D02*
X16811500Y-10207500D01*
X16811500Y-10112500D02*
X16716500Y-10207500D01*
X16716500Y-10366500D02*
X16811500Y-10461500D01*
X16811500Y-10366500D02*
X16716500Y-10461500D01*
X16970500Y-5794500D02*
X17065500Y-5889500D01*
X17065500Y-5794500D02*
X16970500Y-5889500D01*
X16970500Y-6048500D02*
X17065500Y-6143500D01*
X17065500Y-6048500D02*
X16970500Y-6143500D01*
X16970500Y-6302500D02*
X17065500Y-6397500D01*
X17065500Y-6302500D02*
X16970500Y-6397500D01*
X16970500Y-6556500D02*
X17065500Y-6651500D01*
X17065500Y-6556500D02*
X16970500Y-6651500D01*
X16970500Y-6810500D02*
X17065500Y-6905500D01*
X17065500Y-6810500D02*
X16970500Y-6905500D01*
X16970500Y-7064500D02*
X17065500Y-7159500D01*
X17065500Y-7064500D02*
X16970500Y-7159500D01*
X16970500Y-7318500D02*
X17065500Y-7413500D01*
X17065500Y-7318500D02*
X16970500Y-7413500D01*
X16970500Y-7572500D02*
X17065500Y-7667500D01*
X17065500Y-7572500D02*
X16970500Y-7667500D01*
X16970500Y-7826500D02*
X17065500Y-7921500D01*
X17065500Y-7826500D02*
X16970500Y-7921500D01*
X16970500Y-8080500D02*
X17065500Y-8175500D01*
X17065500Y-8080500D02*
X16970500Y-8175500D01*
X16970500Y-8334500D02*
X17065500Y-8429500D01*
X17065500Y-8334500D02*
X16970500Y-8429500D01*
X16970500Y-8588500D02*
X17065500Y-8683500D01*
X17065500Y-8588500D02*
X16970500Y-8683500D01*
X16970500Y-8842500D02*
X17065500Y-8937500D01*
X17065500Y-8842500D02*
X16970500Y-8937500D01*
X16970500Y-9096500D02*
X17065500Y-9191500D01*
X17065500Y-9096500D02*
X16970500Y-9191500D01*
X16970500Y-9350500D02*
X17065500Y-9445500D01*
X17065500Y-9350500D02*
X16970500Y-9445500D01*
X16970500Y-9604500D02*
X17065500Y-9699500D01*
X17065500Y-9604500D02*
X16970500Y-9699500D01*
X16970500Y-9858500D02*
X17065500Y-9953500D01*
X17065500Y-9858500D02*
X16970500Y-9953500D01*
X16970500Y-10112500D02*
X17065500Y-10207500D01*
X17065500Y-10112500D02*
X16970500Y-10207500D01*
X16970500Y-10366500D02*
X17065500Y-10461500D01*
X17065500Y-10366500D02*
X16970500Y-10461500D01*
X17224500Y-5794500D02*
X17319500Y-5889500D01*
X17319500Y-5794500D02*
X17224500Y-5889500D01*
X17224500Y-6048500D02*
X17319500Y-6143500D01*
X17319500Y-6048500D02*
X17224500Y-6143500D01*
X17224500Y-6302500D02*
X17319500Y-6397500D01*
X17319500Y-6302500D02*
X17224500Y-6397500D01*
X17224500Y-6556500D02*
X17319500Y-6651500D01*
X17319500Y-6556500D02*
X17224500Y-6651500D01*
X17224500Y-6810500D02*
X17319500Y-6905500D01*
X17319500Y-6810500D02*
X17224500Y-6905500D01*
X17224500Y-7064500D02*
X17319500Y-7159500D01*
X17319500Y-7064500D02*
X17224500Y-7159500D01*
X17224500Y-7318500D02*
X17319500Y-7413500D01*
X17319500Y-7318500D02*
X17224500Y-7413500D01*
X17224500Y-7572500D02*
X17319500Y-7667500D01*
X17319500Y-7572500D02*
X17224500Y-7667500D01*
X17224500Y-7826500D02*
X17319500Y-7921500D01*
X17319500Y-7826500D02*
X17224500Y-7921500D01*
X17224500Y-8080500D02*
X17319500Y-8175500D01*
X17319500Y-8080500D02*
X17224500Y-8175500D01*
X17224500Y-8334500D02*
X17319500Y-8429500D01*
X17319500Y-8334500D02*
X17224500Y-8429500D01*
X17224500Y-8588500D02*
X17319500Y-8683500D01*
X17319500Y-8588500D02*
X17224500Y-8683500D01*
X17224500Y-8842500D02*
X17319500Y-8937500D01*
X17319500Y-8842500D02*
X17224500Y-8937500D01*
X17224500Y-9096500D02*
X17319500Y-9191500D01*
X17319500Y-9096500D02*
X17224500Y-9191500D01*
X17224500Y-9350500D02*
X17319500Y-9445500D01*
X17319500Y-9350500D02*
X17224500Y-9445500D01*
X17224500Y-9604500D02*
X17319500Y-9699500D01*
X17319500Y-9604500D02*
X17224500Y-9699500D01*
X17224500Y-9858500D02*
X17319500Y-9953500D01*
X17319500Y-9858500D02*
X17224500Y-9953500D01*
X17224500Y-10112500D02*
X17319500Y-10207500D01*
X17319500Y-10112500D02*
X17224500Y-10207500D01*
X17224500Y-10366500D02*
X17319500Y-10461500D01*
X17319500Y-10366500D02*
X17224500Y-10461500D01*
D13*
X12710000Y-4700000D02*
G75*
G02*
X12490000Y-4700000I-110000J0D01*
G01*
X12490000Y-4700000D02*
G75*
G02*
X12710000Y-4700000I110000J0D01*
G01*
X12710000Y-10800000D02*
G75*
G02*
X12490000Y-10800000I-110000J0D01*
G01*
X12490000Y-10800000D02*
G75*
G02*
X12710000Y-10800000I110000J0D01*
G01*
X17496000Y-4700000D02*
G75*
G02*
X17276000Y-4700000I-110000J0D01*
G01*
X17276000Y-4700000D02*
G75*
G02*
X17496000Y-4700000I110000J0D01*
G01*
X17510000Y-10800000D02*
G75*
G02*
X17290000Y-10800000I-110000J0D01*
G01*
X17290000Y-10800000D02*
G75*
G02*
X17510000Y-10800000I110000J0D01*
G01*
D11*
X12458277Y-11513984D02*
X12458277Y-11313984D01*
X12458277Y-11313984D02*
X12505896Y-11313984D01*
X12505896Y-11313984D02*
X12534467Y-11323508D01*
X12534467Y-11323508D02*
X12553515Y-11342555D01*
X12553515Y-11342555D02*
X12563039Y-11361603D01*
X12563039Y-11361603D02*
X12572562Y-11399698D01*
X12572562Y-11399698D02*
X12572562Y-11428269D01*
X12572562Y-11428269D02*
X12563039Y-11466365D01*
X12563039Y-11466365D02*
X12553515Y-11485412D01*
X12553515Y-11485412D02*
X12534467Y-11504460D01*
X12534467Y-11504460D02*
X12505896Y-11513984D01*
X12505896Y-11513984D02*
X12458277Y-11513984D01*
X12658277Y-11513984D02*
X12658277Y-11380650D01*
X12658277Y-11418746D02*
X12667801Y-11399698D01*
X12667801Y-11399698D02*
X12677324Y-11390174D01*
X12677324Y-11390174D02*
X12696372Y-11380650D01*
X12696372Y-11380650D02*
X12715420Y-11380650D01*
X12782086Y-11513984D02*
X12782086Y-11380650D01*
X12782086Y-11313984D02*
X12772562Y-11323508D01*
X12772562Y-11323508D02*
X12782086Y-11333031D01*
X12782086Y-11333031D02*
X12791610Y-11323508D01*
X12791610Y-11323508D02*
X12782086Y-11313984D01*
X12782086Y-11313984D02*
X12782086Y-11333031D01*
X12905896Y-11513984D02*
X12886848Y-11504460D01*
X12886848Y-11504460D02*
X12877324Y-11485412D01*
X12877324Y-11485412D02*
X12877324Y-11313984D01*
X13010658Y-11513984D02*
X12991610Y-11504460D01*
X12991610Y-11504460D02*
X12982086Y-11485412D01*
X12982086Y-11485412D02*
X12982086Y-11313984D01*
X13239229Y-11513984D02*
X13239229Y-11313984D01*
X13239229Y-11313984D02*
X13305896Y-11456841D01*
X13305896Y-11456841D02*
X13372562Y-11313984D01*
X13372562Y-11313984D02*
X13372562Y-11513984D01*
X13553515Y-11513984D02*
X13553515Y-11409222D01*
X13553515Y-11409222D02*
X13543991Y-11390174D01*
X13543991Y-11390174D02*
X13524943Y-11380650D01*
X13524943Y-11380650D02*
X13486848Y-11380650D01*
X13486848Y-11380650D02*
X13467801Y-11390174D01*
X13553515Y-11504460D02*
X13534467Y-11513984D01*
X13534467Y-11513984D02*
X13486848Y-11513984D01*
X13486848Y-11513984D02*
X13467801Y-11504460D01*
X13467801Y-11504460D02*
X13458277Y-11485412D01*
X13458277Y-11485412D02*
X13458277Y-11466365D01*
X13458277Y-11466365D02*
X13467801Y-11447317D01*
X13467801Y-11447317D02*
X13486848Y-11437793D01*
X13486848Y-11437793D02*
X13534467Y-11437793D01*
X13534467Y-11437793D02*
X13553515Y-11428269D01*
X13648753Y-11380650D02*
X13648753Y-11580650D01*
X13648753Y-11390174D02*
X13667801Y-11380650D01*
X13667801Y-11380650D02*
X13705896Y-11380650D01*
X13705896Y-11380650D02*
X13724943Y-11390174D01*
X13724943Y-11390174D02*
X13734467Y-11399698D01*
X13734467Y-11399698D02*
X13743991Y-11418746D01*
X13743991Y-11418746D02*
X13743991Y-11475888D01*
X13743991Y-11475888D02*
X13734467Y-11494936D01*
X13734467Y-11494936D02*
X13724943Y-11504460D01*
X13724943Y-11504460D02*
X13705896Y-11513984D01*
X13705896Y-11513984D02*
X13667801Y-11513984D01*
X13667801Y-11513984D02*
X13648753Y-11504460D01*
X13829705Y-11494936D02*
X13839229Y-11504460D01*
X13839229Y-11504460D02*
X13829705Y-11513984D01*
X13829705Y-11513984D02*
X13820182Y-11504460D01*
X13820182Y-11504460D02*
X13829705Y-11494936D01*
X13829705Y-11494936D02*
X13829705Y-11513984D01*
X13829705Y-11390174D02*
X13839229Y-11399698D01*
X13839229Y-11399698D02*
X13829705Y-11409222D01*
X13829705Y-11409222D02*
X13820182Y-11399698D01*
X13820182Y-11399698D02*
X13829705Y-11390174D01*
X13829705Y-11390174D02*
X13829705Y-11409222D01*
D12*
X12102500Y-11795000D02*
X12197500Y-11890000D01*
X12197500Y-11795000D02*
X12102500Y-11890000D01*
D11*
X12496372Y-11733984D02*
X12515420Y-11733984D01*
X12515420Y-11733984D02*
X12534467Y-11743508D01*
X12534467Y-11743508D02*
X12543991Y-11753031D01*
X12543991Y-11753031D02*
X12553515Y-11772079D01*
X12553515Y-11772079D02*
X12563039Y-11810174D01*
X12563039Y-11810174D02*
X12563039Y-11857793D01*
X12563039Y-11857793D02*
X12553515Y-11895888D01*
X12553515Y-11895888D02*
X12543991Y-11914936D01*
X12543991Y-11914936D02*
X12534467Y-11924460D01*
X12534467Y-11924460D02*
X12515420Y-11933984D01*
X12515420Y-11933984D02*
X12496372Y-11933984D01*
X12496372Y-11933984D02*
X12477324Y-11924460D01*
X12477324Y-11924460D02*
X12467801Y-11914936D01*
X12467801Y-11914936D02*
X12458277Y-11895888D01*
X12458277Y-11895888D02*
X12448753Y-11857793D01*
X12448753Y-11857793D02*
X12448753Y-11810174D01*
X12448753Y-11810174D02*
X12458277Y-11772079D01*
X12458277Y-11772079D02*
X12467801Y-11753031D01*
X12467801Y-11753031D02*
X12477324Y-11743508D01*
X12477324Y-11743508D02*
X12496372Y-11733984D01*
X12648753Y-11914936D02*
X12658277Y-11924460D01*
X12658277Y-11924460D02*
X12648753Y-11933984D01*
X12648753Y-11933984D02*
X12639229Y-11924460D01*
X12639229Y-11924460D02*
X12648753Y-11914936D01*
X12648753Y-11914936D02*
X12648753Y-11933984D01*
X12753515Y-11933984D02*
X12791610Y-11933984D01*
X12791610Y-11933984D02*
X12810658Y-11924460D01*
X12810658Y-11924460D02*
X12820182Y-11914936D01*
X12820182Y-11914936D02*
X12839229Y-11886365D01*
X12839229Y-11886365D02*
X12848753Y-11848269D01*
X12848753Y-11848269D02*
X12848753Y-11772079D01*
X12848753Y-11772079D02*
X12839229Y-11753031D01*
X12839229Y-11753031D02*
X12829705Y-11743508D01*
X12829705Y-11743508D02*
X12810658Y-11733984D01*
X12810658Y-11733984D02*
X12772562Y-11733984D01*
X12772562Y-11733984D02*
X12753515Y-11743508D01*
X12753515Y-11743508D02*
X12743991Y-11753031D01*
X12743991Y-11753031D02*
X12734467Y-11772079D01*
X12734467Y-11772079D02*
X12734467Y-11819698D01*
X12734467Y-11819698D02*
X12743991Y-11838746D01*
X12743991Y-11838746D02*
X12753515Y-11848269D01*
X12753515Y-11848269D02*
X12772562Y-11857793D01*
X12772562Y-11857793D02*
X12810658Y-11857793D01*
X12810658Y-11857793D02*
X12829705Y-11848269D01*
X12829705Y-11848269D02*
X12839229Y-11838746D01*
X12839229Y-11838746D02*
X12848753Y-11819698D01*
X13029705Y-11733984D02*
X12934467Y-11733984D01*
X12934467Y-11733984D02*
X12924943Y-11829222D01*
X12924943Y-11829222D02*
X12934467Y-11819698D01*
X12934467Y-11819698D02*
X12953515Y-11810174D01*
X12953515Y-11810174D02*
X13001134Y-11810174D01*
X13001134Y-11810174D02*
X13020182Y-11819698D01*
X13020182Y-11819698D02*
X13029705Y-11829222D01*
X13029705Y-11829222D02*
X13039229Y-11848269D01*
X13039229Y-11848269D02*
X13039229Y-11895888D01*
X13039229Y-11895888D02*
X13029705Y-11914936D01*
X13029705Y-11914936D02*
X13020182Y-11924460D01*
X13020182Y-11924460D02*
X13001134Y-11933984D01*
X13001134Y-11933984D02*
X12953515Y-11933984D01*
X12953515Y-11933984D02*
X12934467Y-11924460D01*
X12934467Y-11924460D02*
X12924943Y-11914936D01*
X13163039Y-11733984D02*
X13182086Y-11733984D01*
X13182086Y-11733984D02*
X13201134Y-11743508D01*
X13201134Y-11743508D02*
X13210658Y-11753031D01*
X13210658Y-11753031D02*
X13220182Y-11772079D01*
X13220182Y-11772079D02*
X13229705Y-11810174D01*
X13229705Y-11810174D02*
X13229705Y-11857793D01*
X13229705Y-11857793D02*
X13220182Y-11895888D01*
X13220182Y-11895888D02*
X13210658Y-11914936D01*
X13210658Y-11914936D02*
X13201134Y-11924460D01*
X13201134Y-11924460D02*
X13182086Y-11933984D01*
X13182086Y-11933984D02*
X13163039Y-11933984D01*
X13163039Y-11933984D02*
X13143991Y-11924460D01*
X13143991Y-11924460D02*
X13134467Y-11914936D01*
X13134467Y-11914936D02*
X13124943Y-11895888D01*
X13124943Y-11895888D02*
X13115420Y-11857793D01*
X13115420Y-11857793D02*
X13115420Y-11810174D01*
X13115420Y-11810174D02*
X13124943Y-11772079D01*
X13124943Y-11772079D02*
X13134467Y-11753031D01*
X13134467Y-11753031D02*
X13143991Y-11743508D01*
X13143991Y-11743508D02*
X13163039Y-11733984D01*
X13315420Y-11933984D02*
X13315420Y-11800650D01*
X13315420Y-11819698D02*
X13324943Y-11810174D01*
X13324943Y-11810174D02*
X13343991Y-11800650D01*
X13343991Y-11800650D02*
X13372563Y-11800650D01*
X13372563Y-11800650D02*
X13391610Y-11810174D01*
X13391610Y-11810174D02*
X13401134Y-11829222D01*
X13401134Y-11829222D02*
X13401134Y-11933984D01*
X13401134Y-11829222D02*
X13410658Y-11810174D01*
X13410658Y-11810174D02*
X13429705Y-11800650D01*
X13429705Y-11800650D02*
X13458277Y-11800650D01*
X13458277Y-11800650D02*
X13477324Y-11810174D01*
X13477324Y-11810174D02*
X13486848Y-11829222D01*
X13486848Y-11829222D02*
X13486848Y-11933984D01*
X13582086Y-11933984D02*
X13582086Y-11800650D01*
X13582086Y-11819698D02*
X13591610Y-11810174D01*
X13591610Y-11810174D02*
X13610658Y-11800650D01*
X13610658Y-11800650D02*
X13639229Y-11800650D01*
X13639229Y-11800650D02*
X13658277Y-11810174D01*
X13658277Y-11810174D02*
X13667801Y-11829222D01*
X13667801Y-11829222D02*
X13667801Y-11933984D01*
X13667801Y-11829222D02*
X13677324Y-11810174D01*
X13677324Y-11810174D02*
X13696372Y-11800650D01*
X13696372Y-11800650D02*
X13724943Y-11800650D01*
X13724943Y-11800650D02*
X13743991Y-11810174D01*
X13743991Y-11810174D02*
X13753515Y-11829222D01*
X13753515Y-11829222D02*
X13753515Y-11933984D01*
X14143991Y-11724460D02*
X13972563Y-11981603D01*
X14401134Y-11733984D02*
X14420182Y-11733984D01*
X14420182Y-11733984D02*
X14439229Y-11743508D01*
X14439229Y-11743508D02*
X14448753Y-11753031D01*
X14448753Y-11753031D02*
X14458277Y-11772079D01*
X14458277Y-11772079D02*
X14467801Y-11810174D01*
X14467801Y-11810174D02*
X14467801Y-11857793D01*
X14467801Y-11857793D02*
X14458277Y-11895888D01*
X14458277Y-11895888D02*
X14448753Y-11914936D01*
X14448753Y-11914936D02*
X14439229Y-11924460D01*
X14439229Y-11924460D02*
X14420182Y-11933984D01*
X14420182Y-11933984D02*
X14401134Y-11933984D01*
X14401134Y-11933984D02*
X14382086Y-11924460D01*
X14382086Y-11924460D02*
X14372563Y-11914936D01*
X14372563Y-11914936D02*
X14363039Y-11895888D01*
X14363039Y-11895888D02*
X14353515Y-11857793D01*
X14353515Y-11857793D02*
X14353515Y-11810174D01*
X14353515Y-11810174D02*
X14363039Y-11772079D01*
X14363039Y-11772079D02*
X14372563Y-11753031D01*
X14372563Y-11753031D02*
X14382086Y-11743508D01*
X14382086Y-11743508D02*
X14401134Y-11733984D01*
X14553515Y-11914936D02*
X14563039Y-11924460D01*
X14563039Y-11924460D02*
X14553515Y-11933984D01*
X14553515Y-11933984D02*
X14543991Y-11924460D01*
X14543991Y-11924460D02*
X14553515Y-11914936D01*
X14553515Y-11914936D02*
X14553515Y-11933984D01*
X14686848Y-11733984D02*
X14705896Y-11733984D01*
X14705896Y-11733984D02*
X14724944Y-11743508D01*
X14724944Y-11743508D02*
X14734467Y-11753031D01*
X14734467Y-11753031D02*
X14743991Y-11772079D01*
X14743991Y-11772079D02*
X14753515Y-11810174D01*
X14753515Y-11810174D02*
X14753515Y-11857793D01*
X14753515Y-11857793D02*
X14743991Y-11895888D01*
X14743991Y-11895888D02*
X14734467Y-11914936D01*
X14734467Y-11914936D02*
X14724944Y-11924460D01*
X14724944Y-11924460D02*
X14705896Y-11933984D01*
X14705896Y-11933984D02*
X14686848Y-11933984D01*
X14686848Y-11933984D02*
X14667801Y-11924460D01*
X14667801Y-11924460D02*
X14658277Y-11914936D01*
X14658277Y-11914936D02*
X14648753Y-11895888D01*
X14648753Y-11895888D02*
X14639229Y-11857793D01*
X14639229Y-11857793D02*
X14639229Y-11810174D01*
X14639229Y-11810174D02*
X14648753Y-11772079D01*
X14648753Y-11772079D02*
X14658277Y-11753031D01*
X14658277Y-11753031D02*
X14667801Y-11743508D01*
X14667801Y-11743508D02*
X14686848Y-11733984D01*
X14820182Y-11733984D02*
X14943991Y-11733984D01*
X14943991Y-11733984D02*
X14877325Y-11810174D01*
X14877325Y-11810174D02*
X14905896Y-11810174D01*
X14905896Y-11810174D02*
X14924944Y-11819698D01*
X14924944Y-11819698D02*
X14934467Y-11829222D01*
X14934467Y-11829222D02*
X14943991Y-11848269D01*
X14943991Y-11848269D02*
X14943991Y-11895888D01*
X14943991Y-11895888D02*
X14934467Y-11914936D01*
X14934467Y-11914936D02*
X14924944Y-11924460D01*
X14924944Y-11924460D02*
X14905896Y-11933984D01*
X14905896Y-11933984D02*
X14848753Y-11933984D01*
X14848753Y-11933984D02*
X14829706Y-11924460D01*
X14829706Y-11924460D02*
X14820182Y-11914936D01*
X15010658Y-11733984D02*
X15143991Y-11733984D01*
X15143991Y-11733984D02*
X15058277Y-11933984D01*
X15305896Y-11800650D02*
X15305896Y-11933984D01*
X15258277Y-11724460D02*
X15210658Y-11867317D01*
X15210658Y-11867317D02*
X15334467Y-11867317D01*
X15401134Y-11733984D02*
X15401134Y-11772079D01*
X15477325Y-11733984D02*
X15477325Y-11772079D01*
X15772563Y-12010174D02*
X15763039Y-12000650D01*
X15763039Y-12000650D02*
X15743991Y-11972079D01*
X15743991Y-11972079D02*
X15734468Y-11953031D01*
X15734468Y-11953031D02*
X15724944Y-11924460D01*
X15724944Y-11924460D02*
X15715420Y-11876841D01*
X15715420Y-11876841D02*
X15715420Y-11838746D01*
X15715420Y-11838746D02*
X15724944Y-11791127D01*
X15724944Y-11791127D02*
X15734468Y-11762555D01*
X15734468Y-11762555D02*
X15743991Y-11743508D01*
X15743991Y-11743508D02*
X15763039Y-11714936D01*
X15763039Y-11714936D02*
X15772563Y-11705412D01*
X15829706Y-11733984D02*
X15953515Y-11733984D01*
X15953515Y-11733984D02*
X15886848Y-11810174D01*
X15886848Y-11810174D02*
X15915420Y-11810174D01*
X15915420Y-11810174D02*
X15934468Y-11819698D01*
X15934468Y-11819698D02*
X15943991Y-11829222D01*
X15943991Y-11829222D02*
X15953515Y-11848269D01*
X15953515Y-11848269D02*
X15953515Y-11895888D01*
X15953515Y-11895888D02*
X15943991Y-11914936D01*
X15943991Y-11914936D02*
X15934468Y-11924460D01*
X15934468Y-11924460D02*
X15915420Y-11933984D01*
X15915420Y-11933984D02*
X15858277Y-11933984D01*
X15858277Y-11933984D02*
X15839229Y-11924460D01*
X15839229Y-11924460D02*
X15829706Y-11914936D01*
X16124944Y-11733984D02*
X16086848Y-11733984D01*
X16086848Y-11733984D02*
X16067801Y-11743508D01*
X16067801Y-11743508D02*
X16058277Y-11753031D01*
X16058277Y-11753031D02*
X16039229Y-11781603D01*
X16039229Y-11781603D02*
X16029706Y-11819698D01*
X16029706Y-11819698D02*
X16029706Y-11895888D01*
X16029706Y-11895888D02*
X16039229Y-11914936D01*
X16039229Y-11914936D02*
X16048753Y-11924460D01*
X16048753Y-11924460D02*
X16067801Y-11933984D01*
X16067801Y-11933984D02*
X16105896Y-11933984D01*
X16105896Y-11933984D02*
X16124944Y-11924460D01*
X16124944Y-11924460D02*
X16134468Y-11914936D01*
X16134468Y-11914936D02*
X16143991Y-11895888D01*
X16143991Y-11895888D02*
X16143991Y-11848269D01*
X16143991Y-11848269D02*
X16134468Y-11829222D01*
X16134468Y-11829222D02*
X16124944Y-11819698D01*
X16124944Y-11819698D02*
X16105896Y-11810174D01*
X16105896Y-11810174D02*
X16067801Y-11810174D01*
X16067801Y-11810174D02*
X16048753Y-11819698D01*
X16048753Y-11819698D02*
X16039229Y-11829222D01*
X16039229Y-11829222D02*
X16029706Y-11848269D01*
X16334468Y-11933984D02*
X16220182Y-11933984D01*
X16277325Y-11933984D02*
X16277325Y-11733984D01*
X16277325Y-11733984D02*
X16258277Y-11762555D01*
X16258277Y-11762555D02*
X16239229Y-11781603D01*
X16239229Y-11781603D02*
X16220182Y-11791127D01*
X16572563Y-11933984D02*
X16572563Y-11733984D01*
X16658277Y-11933984D02*
X16658277Y-11829222D01*
X16658277Y-11829222D02*
X16648753Y-11810174D01*
X16648753Y-11810174D02*
X16629706Y-11800650D01*
X16629706Y-11800650D02*
X16601134Y-11800650D01*
X16601134Y-11800650D02*
X16582087Y-11810174D01*
X16582087Y-11810174D02*
X16572563Y-11819698D01*
X16782087Y-11933984D02*
X16763039Y-11924460D01*
X16763039Y-11924460D02*
X16753515Y-11914936D01*
X16753515Y-11914936D02*
X16743991Y-11895888D01*
X16743991Y-11895888D02*
X16743991Y-11838746D01*
X16743991Y-11838746D02*
X16753515Y-11819698D01*
X16753515Y-11819698D02*
X16763039Y-11810174D01*
X16763039Y-11810174D02*
X16782087Y-11800650D01*
X16782087Y-11800650D02*
X16810658Y-11800650D01*
X16810658Y-11800650D02*
X16829706Y-11810174D01*
X16829706Y-11810174D02*
X16839230Y-11819698D01*
X16839230Y-11819698D02*
X16848753Y-11838746D01*
X16848753Y-11838746D02*
X16848753Y-11895888D01*
X16848753Y-11895888D02*
X16839230Y-11914936D01*
X16839230Y-11914936D02*
X16829706Y-11924460D01*
X16829706Y-11924460D02*
X16810658Y-11933984D01*
X16810658Y-11933984D02*
X16782087Y-11933984D01*
X16963039Y-11933984D02*
X16943992Y-11924460D01*
X16943992Y-11924460D02*
X16934468Y-11905412D01*
X16934468Y-11905412D02*
X16934468Y-11733984D01*
X17115420Y-11924460D02*
X17096373Y-11933984D01*
X17096373Y-11933984D02*
X17058277Y-11933984D01*
X17058277Y-11933984D02*
X17039230Y-11924460D01*
X17039230Y-11924460D02*
X17029706Y-11905412D01*
X17029706Y-11905412D02*
X17029706Y-11829222D01*
X17029706Y-11829222D02*
X17039230Y-11810174D01*
X17039230Y-11810174D02*
X17058277Y-11800650D01*
X17058277Y-11800650D02*
X17096373Y-11800650D01*
X17096373Y-11800650D02*
X17115420Y-11810174D01*
X17115420Y-11810174D02*
X17124944Y-11829222D01*
X17124944Y-11829222D02*
X17124944Y-11848269D01*
X17124944Y-11848269D02*
X17029706Y-11867317D01*
X17201134Y-11924460D02*
X17220182Y-11933984D01*
X17220182Y-11933984D02*
X17258277Y-11933984D01*
X17258277Y-11933984D02*
X17277325Y-11924460D01*
X17277325Y-11924460D02*
X17286849Y-11905412D01*
X17286849Y-11905412D02*
X17286849Y-11895888D01*
X17286849Y-11895888D02*
X17277325Y-11876841D01*
X17277325Y-11876841D02*
X17258277Y-11867317D01*
X17258277Y-11867317D02*
X17229706Y-11867317D01*
X17229706Y-11867317D02*
X17210658Y-11857793D01*
X17210658Y-11857793D02*
X17201134Y-11838746D01*
X17201134Y-11838746D02*
X17201134Y-11829222D01*
X17201134Y-11829222D02*
X17210658Y-11810174D01*
X17210658Y-11810174D02*
X17229706Y-11800650D01*
X17229706Y-11800650D02*
X17258277Y-11800650D01*
X17258277Y-11800650D02*
X17277325Y-11810174D01*
X17353515Y-12010174D02*
X17363039Y-12000650D01*
X17363039Y-12000650D02*
X17382087Y-11972079D01*
X17382087Y-11972079D02*
X17391611Y-11953031D01*
X17391611Y-11953031D02*
X17401134Y-11924460D01*
X17401134Y-11924460D02*
X17410658Y-11876841D01*
X17410658Y-11876841D02*
X17410658Y-11838746D01*
X17410658Y-11838746D02*
X17401134Y-11791127D01*
X17401134Y-11791127D02*
X17391611Y-11762555D01*
X17391611Y-11762555D02*
X17382087Y-11743508D01*
X17382087Y-11743508D02*
X17363039Y-11714936D01*
X17363039Y-11714936D02*
X17353515Y-11705412D01*
X12197500Y-12106500D02*
G75*
G02*
X11997500Y-12106500I-100000J0D01*
G01*
X11997500Y-12106500D02*
G75*
G02*
X12197500Y-12106500I100000J0D01*
G01*
X12448753Y-12017031D02*
X12458277Y-12007508D01*
X12458277Y-12007508D02*
X12477324Y-11997984D01*
X12477324Y-11997984D02*
X12524943Y-11997984D01*
X12524943Y-11997984D02*
X12543991Y-12007508D01*
X12543991Y-12007508D02*
X12553515Y-12017031D01*
X12553515Y-12017031D02*
X12563039Y-12036079D01*
X12563039Y-12036079D02*
X12563039Y-12055127D01*
X12563039Y-12055127D02*
X12553515Y-12083698D01*
X12553515Y-12083698D02*
X12439229Y-12197984D01*
X12439229Y-12197984D02*
X12563039Y-12197984D01*
X12648753Y-12178936D02*
X12658277Y-12188460D01*
X12658277Y-12188460D02*
X12648753Y-12197984D01*
X12648753Y-12197984D02*
X12639229Y-12188460D01*
X12639229Y-12188460D02*
X12648753Y-12178936D01*
X12648753Y-12178936D02*
X12648753Y-12197984D01*
X12734467Y-12017031D02*
X12743991Y-12007508D01*
X12743991Y-12007508D02*
X12763039Y-11997984D01*
X12763039Y-11997984D02*
X12810658Y-11997984D01*
X12810658Y-11997984D02*
X12829705Y-12007508D01*
X12829705Y-12007508D02*
X12839229Y-12017031D01*
X12839229Y-12017031D02*
X12848753Y-12036079D01*
X12848753Y-12036079D02*
X12848753Y-12055127D01*
X12848753Y-12055127D02*
X12839229Y-12083698D01*
X12839229Y-12083698D02*
X12724943Y-12197984D01*
X12724943Y-12197984D02*
X12848753Y-12197984D01*
X12972562Y-11997984D02*
X12991610Y-11997984D01*
X12991610Y-11997984D02*
X13010658Y-12007508D01*
X13010658Y-12007508D02*
X13020182Y-12017031D01*
X13020182Y-12017031D02*
X13029705Y-12036079D01*
X13029705Y-12036079D02*
X13039229Y-12074174D01*
X13039229Y-12074174D02*
X13039229Y-12121793D01*
X13039229Y-12121793D02*
X13029705Y-12159888D01*
X13029705Y-12159888D02*
X13020182Y-12178936D01*
X13020182Y-12178936D02*
X13010658Y-12188460D01*
X13010658Y-12188460D02*
X12991610Y-12197984D01*
X12991610Y-12197984D02*
X12972562Y-12197984D01*
X12972562Y-12197984D02*
X12953515Y-12188460D01*
X12953515Y-12188460D02*
X12943991Y-12178936D01*
X12943991Y-12178936D02*
X12934467Y-12159888D01*
X12934467Y-12159888D02*
X12924943Y-12121793D01*
X12924943Y-12121793D02*
X12924943Y-12074174D01*
X12924943Y-12074174D02*
X12934467Y-12036079D01*
X12934467Y-12036079D02*
X12943991Y-12017031D01*
X12943991Y-12017031D02*
X12953515Y-12007508D01*
X12953515Y-12007508D02*
X12972562Y-11997984D01*
X13163039Y-11997984D02*
X13182086Y-11997984D01*
X13182086Y-11997984D02*
X13201134Y-12007508D01*
X13201134Y-12007508D02*
X13210658Y-12017031D01*
X13210658Y-12017031D02*
X13220182Y-12036079D01*
X13220182Y-12036079D02*
X13229705Y-12074174D01*
X13229705Y-12074174D02*
X13229705Y-12121793D01*
X13229705Y-12121793D02*
X13220182Y-12159888D01*
X13220182Y-12159888D02*
X13210658Y-12178936D01*
X13210658Y-12178936D02*
X13201134Y-12188460D01*
X13201134Y-12188460D02*
X13182086Y-12197984D01*
X13182086Y-12197984D02*
X13163039Y-12197984D01*
X13163039Y-12197984D02*
X13143991Y-12188460D01*
X13143991Y-12188460D02*
X13134467Y-12178936D01*
X13134467Y-12178936D02*
X13124943Y-12159888D01*
X13124943Y-12159888D02*
X13115420Y-12121793D01*
X13115420Y-12121793D02*
X13115420Y-12074174D01*
X13115420Y-12074174D02*
X13124943Y-12036079D01*
X13124943Y-12036079D02*
X13134467Y-12017031D01*
X13134467Y-12017031D02*
X13143991Y-12007508D01*
X13143991Y-12007508D02*
X13163039Y-11997984D01*
X13315420Y-12197984D02*
X13315420Y-12064650D01*
X13315420Y-12083698D02*
X13324943Y-12074174D01*
X13324943Y-12074174D02*
X13343991Y-12064650D01*
X13343991Y-12064650D02*
X13372563Y-12064650D01*
X13372563Y-12064650D02*
X13391610Y-12074174D01*
X13391610Y-12074174D02*
X13401134Y-12093222D01*
X13401134Y-12093222D02*
X13401134Y-12197984D01*
X13401134Y-12093222D02*
X13410658Y-12074174D01*
X13410658Y-12074174D02*
X13429705Y-12064650D01*
X13429705Y-12064650D02*
X13458277Y-12064650D01*
X13458277Y-12064650D02*
X13477324Y-12074174D01*
X13477324Y-12074174D02*
X13486848Y-12093222D01*
X13486848Y-12093222D02*
X13486848Y-12197984D01*
X13582086Y-12197984D02*
X13582086Y-12064650D01*
X13582086Y-12083698D02*
X13591610Y-12074174D01*
X13591610Y-12074174D02*
X13610658Y-12064650D01*
X13610658Y-12064650D02*
X13639229Y-12064650D01*
X13639229Y-12064650D02*
X13658277Y-12074174D01*
X13658277Y-12074174D02*
X13667801Y-12093222D01*
X13667801Y-12093222D02*
X13667801Y-12197984D01*
X13667801Y-12093222D02*
X13677324Y-12074174D01*
X13677324Y-12074174D02*
X13696372Y-12064650D01*
X13696372Y-12064650D02*
X13724943Y-12064650D01*
X13724943Y-12064650D02*
X13743991Y-12074174D01*
X13743991Y-12074174D02*
X13753515Y-12093222D01*
X13753515Y-12093222D02*
X13753515Y-12197984D01*
X14143991Y-11988460D02*
X13972563Y-12245603D01*
X14401134Y-11997984D02*
X14420182Y-11997984D01*
X14420182Y-11997984D02*
X14439229Y-12007508D01*
X14439229Y-12007508D02*
X14448753Y-12017031D01*
X14448753Y-12017031D02*
X14458277Y-12036079D01*
X14458277Y-12036079D02*
X14467801Y-12074174D01*
X14467801Y-12074174D02*
X14467801Y-12121793D01*
X14467801Y-12121793D02*
X14458277Y-12159888D01*
X14458277Y-12159888D02*
X14448753Y-12178936D01*
X14448753Y-12178936D02*
X14439229Y-12188460D01*
X14439229Y-12188460D02*
X14420182Y-12197984D01*
X14420182Y-12197984D02*
X14401134Y-12197984D01*
X14401134Y-12197984D02*
X14382086Y-12188460D01*
X14382086Y-12188460D02*
X14372563Y-12178936D01*
X14372563Y-12178936D02*
X14363039Y-12159888D01*
X14363039Y-12159888D02*
X14353515Y-12121793D01*
X14353515Y-12121793D02*
X14353515Y-12074174D01*
X14353515Y-12074174D02*
X14363039Y-12036079D01*
X14363039Y-12036079D02*
X14372563Y-12017031D01*
X14372563Y-12017031D02*
X14382086Y-12007508D01*
X14382086Y-12007508D02*
X14401134Y-11997984D01*
X14553515Y-12178936D02*
X14563039Y-12188460D01*
X14563039Y-12188460D02*
X14553515Y-12197984D01*
X14553515Y-12197984D02*
X14543991Y-12188460D01*
X14543991Y-12188460D02*
X14553515Y-12178936D01*
X14553515Y-12178936D02*
X14553515Y-12197984D01*
X14686848Y-11997984D02*
X14705896Y-11997984D01*
X14705896Y-11997984D02*
X14724944Y-12007508D01*
X14724944Y-12007508D02*
X14734467Y-12017031D01*
X14734467Y-12017031D02*
X14743991Y-12036079D01*
X14743991Y-12036079D02*
X14753515Y-12074174D01*
X14753515Y-12074174D02*
X14753515Y-12121793D01*
X14753515Y-12121793D02*
X14743991Y-12159888D01*
X14743991Y-12159888D02*
X14734467Y-12178936D01*
X14734467Y-12178936D02*
X14724944Y-12188460D01*
X14724944Y-12188460D02*
X14705896Y-12197984D01*
X14705896Y-12197984D02*
X14686848Y-12197984D01*
X14686848Y-12197984D02*
X14667801Y-12188460D01*
X14667801Y-12188460D02*
X14658277Y-12178936D01*
X14658277Y-12178936D02*
X14648753Y-12159888D01*
X14648753Y-12159888D02*
X14639229Y-12121793D01*
X14639229Y-12121793D02*
X14639229Y-12074174D01*
X14639229Y-12074174D02*
X14648753Y-12036079D01*
X14648753Y-12036079D02*
X14658277Y-12017031D01*
X14658277Y-12017031D02*
X14667801Y-12007508D01*
X14667801Y-12007508D02*
X14686848Y-11997984D01*
X14867801Y-12083698D02*
X14848753Y-12074174D01*
X14848753Y-12074174D02*
X14839229Y-12064650D01*
X14839229Y-12064650D02*
X14829706Y-12045603D01*
X14829706Y-12045603D02*
X14829706Y-12036079D01*
X14829706Y-12036079D02*
X14839229Y-12017031D01*
X14839229Y-12017031D02*
X14848753Y-12007508D01*
X14848753Y-12007508D02*
X14867801Y-11997984D01*
X14867801Y-11997984D02*
X14905896Y-11997984D01*
X14905896Y-11997984D02*
X14924944Y-12007508D01*
X14924944Y-12007508D02*
X14934467Y-12017031D01*
X14934467Y-12017031D02*
X14943991Y-12036079D01*
X14943991Y-12036079D02*
X14943991Y-12045603D01*
X14943991Y-12045603D02*
X14934467Y-12064650D01*
X14934467Y-12064650D02*
X14924944Y-12074174D01*
X14924944Y-12074174D02*
X14905896Y-12083698D01*
X14905896Y-12083698D02*
X14867801Y-12083698D01*
X14867801Y-12083698D02*
X14848753Y-12093222D01*
X14848753Y-12093222D02*
X14839229Y-12102746D01*
X14839229Y-12102746D02*
X14829706Y-12121793D01*
X14829706Y-12121793D02*
X14829706Y-12159888D01*
X14829706Y-12159888D02*
X14839229Y-12178936D01*
X14839229Y-12178936D02*
X14848753Y-12188460D01*
X14848753Y-12188460D02*
X14867801Y-12197984D01*
X14867801Y-12197984D02*
X14905896Y-12197984D01*
X14905896Y-12197984D02*
X14924944Y-12188460D01*
X14924944Y-12188460D02*
X14934467Y-12178936D01*
X14934467Y-12178936D02*
X14943991Y-12159888D01*
X14943991Y-12159888D02*
X14943991Y-12121793D01*
X14943991Y-12121793D02*
X14934467Y-12102746D01*
X14934467Y-12102746D02*
X14924944Y-12093222D01*
X14924944Y-12093222D02*
X14905896Y-12083698D01*
X15115420Y-11997984D02*
X15077325Y-11997984D01*
X15077325Y-11997984D02*
X15058277Y-12007508D01*
X15058277Y-12007508D02*
X15048753Y-12017031D01*
X15048753Y-12017031D02*
X15029706Y-12045603D01*
X15029706Y-12045603D02*
X15020182Y-12083698D01*
X15020182Y-12083698D02*
X15020182Y-12159888D01*
X15020182Y-12159888D02*
X15029706Y-12178936D01*
X15029706Y-12178936D02*
X15039229Y-12188460D01*
X15039229Y-12188460D02*
X15058277Y-12197984D01*
X15058277Y-12197984D02*
X15096372Y-12197984D01*
X15096372Y-12197984D02*
X15115420Y-12188460D01*
X15115420Y-12188460D02*
X15124944Y-12178936D01*
X15124944Y-12178936D02*
X15134467Y-12159888D01*
X15134467Y-12159888D02*
X15134467Y-12112269D01*
X15134467Y-12112269D02*
X15124944Y-12093222D01*
X15124944Y-12093222D02*
X15115420Y-12083698D01*
X15115420Y-12083698D02*
X15096372Y-12074174D01*
X15096372Y-12074174D02*
X15058277Y-12074174D01*
X15058277Y-12074174D02*
X15039229Y-12083698D01*
X15039229Y-12083698D02*
X15029706Y-12093222D01*
X15029706Y-12093222D02*
X15020182Y-12112269D01*
X15305896Y-11997984D02*
X15267801Y-11997984D01*
X15267801Y-11997984D02*
X15248753Y-12007508D01*
X15248753Y-12007508D02*
X15239229Y-12017031D01*
X15239229Y-12017031D02*
X15220182Y-12045603D01*
X15220182Y-12045603D02*
X15210658Y-12083698D01*
X15210658Y-12083698D02*
X15210658Y-12159888D01*
X15210658Y-12159888D02*
X15220182Y-12178936D01*
X15220182Y-12178936D02*
X15229706Y-12188460D01*
X15229706Y-12188460D02*
X15248753Y-12197984D01*
X15248753Y-12197984D02*
X15286848Y-12197984D01*
X15286848Y-12197984D02*
X15305896Y-12188460D01*
X15305896Y-12188460D02*
X15315420Y-12178936D01*
X15315420Y-12178936D02*
X15324944Y-12159888D01*
X15324944Y-12159888D02*
X15324944Y-12112269D01*
X15324944Y-12112269D02*
X15315420Y-12093222D01*
X15315420Y-12093222D02*
X15305896Y-12083698D01*
X15305896Y-12083698D02*
X15286848Y-12074174D01*
X15286848Y-12074174D02*
X15248753Y-12074174D01*
X15248753Y-12074174D02*
X15229706Y-12083698D01*
X15229706Y-12083698D02*
X15220182Y-12093222D01*
X15220182Y-12093222D02*
X15210658Y-12112269D01*
X15401134Y-11997984D02*
X15401134Y-12036079D01*
X15477325Y-11997984D02*
X15477325Y-12036079D01*
X15772563Y-12274174D02*
X15763039Y-12264650D01*
X15763039Y-12264650D02*
X15743991Y-12236079D01*
X15743991Y-12236079D02*
X15734468Y-12217031D01*
X15734468Y-12217031D02*
X15724944Y-12188460D01*
X15724944Y-12188460D02*
X15715420Y-12140841D01*
X15715420Y-12140841D02*
X15715420Y-12102746D01*
X15715420Y-12102746D02*
X15724944Y-12055127D01*
X15724944Y-12055127D02*
X15734468Y-12026555D01*
X15734468Y-12026555D02*
X15743991Y-12007508D01*
X15743991Y-12007508D02*
X15763039Y-11978936D01*
X15763039Y-11978936D02*
X15772563Y-11969412D01*
X15934468Y-12064650D02*
X15934468Y-12197984D01*
X15886848Y-11988460D02*
X15839229Y-12131317D01*
X15839229Y-12131317D02*
X15963039Y-12131317D01*
X16191610Y-12197984D02*
X16191610Y-11997984D01*
X16277325Y-12197984D02*
X16277325Y-12093222D01*
X16277325Y-12093222D02*
X16267801Y-12074174D01*
X16267801Y-12074174D02*
X16248753Y-12064650D01*
X16248753Y-12064650D02*
X16220182Y-12064650D01*
X16220182Y-12064650D02*
X16201134Y-12074174D01*
X16201134Y-12074174D02*
X16191610Y-12083698D01*
X16401134Y-12197984D02*
X16382087Y-12188460D01*
X16382087Y-12188460D02*
X16372563Y-12178936D01*
X16372563Y-12178936D02*
X16363039Y-12159888D01*
X16363039Y-12159888D02*
X16363039Y-12102746D01*
X16363039Y-12102746D02*
X16372563Y-12083698D01*
X16372563Y-12083698D02*
X16382087Y-12074174D01*
X16382087Y-12074174D02*
X16401134Y-12064650D01*
X16401134Y-12064650D02*
X16429706Y-12064650D01*
X16429706Y-12064650D02*
X16448753Y-12074174D01*
X16448753Y-12074174D02*
X16458277Y-12083698D01*
X16458277Y-12083698D02*
X16467801Y-12102746D01*
X16467801Y-12102746D02*
X16467801Y-12159888D01*
X16467801Y-12159888D02*
X16458277Y-12178936D01*
X16458277Y-12178936D02*
X16448753Y-12188460D01*
X16448753Y-12188460D02*
X16429706Y-12197984D01*
X16429706Y-12197984D02*
X16401134Y-12197984D01*
X16582087Y-12197984D02*
X16563039Y-12188460D01*
X16563039Y-12188460D02*
X16553515Y-12169412D01*
X16553515Y-12169412D02*
X16553515Y-11997984D01*
X16734468Y-12188460D02*
X16715420Y-12197984D01*
X16715420Y-12197984D02*
X16677325Y-12197984D01*
X16677325Y-12197984D02*
X16658277Y-12188460D01*
X16658277Y-12188460D02*
X16648753Y-12169412D01*
X16648753Y-12169412D02*
X16648753Y-12093222D01*
X16648753Y-12093222D02*
X16658277Y-12074174D01*
X16658277Y-12074174D02*
X16677325Y-12064650D01*
X16677325Y-12064650D02*
X16715420Y-12064650D01*
X16715420Y-12064650D02*
X16734468Y-12074174D01*
X16734468Y-12074174D02*
X16743991Y-12093222D01*
X16743991Y-12093222D02*
X16743991Y-12112269D01*
X16743991Y-12112269D02*
X16648753Y-12131317D01*
X16820182Y-12188460D02*
X16839230Y-12197984D01*
X16839230Y-12197984D02*
X16877325Y-12197984D01*
X16877325Y-12197984D02*
X16896373Y-12188460D01*
X16896373Y-12188460D02*
X16905896Y-12169412D01*
X16905896Y-12169412D02*
X16905896Y-12159888D01*
X16905896Y-12159888D02*
X16896373Y-12140841D01*
X16896373Y-12140841D02*
X16877325Y-12131317D01*
X16877325Y-12131317D02*
X16848753Y-12131317D01*
X16848753Y-12131317D02*
X16829706Y-12121793D01*
X16829706Y-12121793D02*
X16820182Y-12102746D01*
X16820182Y-12102746D02*
X16820182Y-12093222D01*
X16820182Y-12093222D02*
X16829706Y-12074174D01*
X16829706Y-12074174D02*
X16848753Y-12064650D01*
X16848753Y-12064650D02*
X16877325Y-12064650D01*
X16877325Y-12064650D02*
X16896373Y-12074174D01*
X16972563Y-12274174D02*
X16982087Y-12264650D01*
X16982087Y-12264650D02*
X17001134Y-12236079D01*
X17001134Y-12236079D02*
X17010658Y-12217031D01*
X17010658Y-12217031D02*
X17020182Y-12188460D01*
X17020182Y-12188460D02*
X17029706Y-12140841D01*
X17029706Y-12140841D02*
X17029706Y-12102746D01*
X17029706Y-12102746D02*
X17020182Y-12055127D01*
X17020182Y-12055127D02*
X17010658Y-12026555D01*
X17010658Y-12026555D02*
X17001134Y-12007508D01*
X17001134Y-12007508D02*
X16982087Y-11978936D01*
X16982087Y-11978936D02*
X16972563Y-11969412D01*
M02*
