M48
; DRILL file {KiCad 8.0.2} date 2024-08-26T09:50:40-0600
; FORMAT={-:-/ absolute / metric / decimal}
; #@! TF.CreationDate,2024-08-26T09:50:40-06:00
; #@! TF.GenerationSoftware,Kicad,Pcbnew,8.0.2
; #@! TF.FileFunction,Plated,1,2,PTH
FMAT,2
METRIC
; #@! TA.AperFunction,Plated,PTH,ComponentDrill
T1C0.950
; #@! TA.AperFunction,Plated,PTH,ComponentDrill
T2C2.200
%
G90
G05
T1
X91.68Y-52.86
X91.68Y-55.4
X91.68Y-57.94
X91.68Y-60.48
X91.68Y-63.02
X91.68Y-65.56
X91.68Y-68.1
X91.68Y-70.64
X91.68Y-73.18
X91.68Y-75.72
X91.68Y-78.26
X91.68Y-80.8
X91.68Y-83.34
X91.68Y-93.5
X91.68Y-96.04
X91.68Y-98.58
X91.68Y-101.12
X91.68Y-103.66
X91.68Y-106.2
X91.68Y-108.74
X91.68Y-111.28
X91.68Y-113.82
X91.68Y-116.36
X91.68Y-118.9
X91.68Y-121.44
X91.68Y-123.98
X91.68Y-126.52
X91.68Y-136.68
X91.68Y-139.22
X91.68Y-141.76
X91.68Y-144.3
X91.68Y-146.84
X91.68Y-149.38
X91.68Y-151.92
X91.68Y-154.46
X91.68Y-157.0
X91.68Y-159.54
X91.68Y-162.08
X91.68Y-164.62
X91.68Y-167.16
X91.68Y-169.7
X91.68Y-179.86
X91.68Y-182.4
X91.68Y-184.94
X91.68Y-187.48
X91.68Y-190.02
X91.68Y-192.56
X91.68Y-195.1
X91.68Y-197.64
X91.68Y-200.18
X91.68Y-202.72
X91.74Y-85.88
X91.74Y-88.42
X91.74Y-90.96
X91.74Y-172.24
X91.74Y-174.78
X91.74Y-177.32
X94.22Y-52.86
X94.22Y-55.4
X94.22Y-57.94
X94.22Y-60.48
X94.22Y-63.02
X94.22Y-65.56
X94.22Y-68.1
X94.22Y-70.64
X94.22Y-73.18
X94.22Y-75.72
X94.22Y-78.26
X94.22Y-80.8
X94.22Y-83.34
X94.22Y-93.5
X94.22Y-96.04
X94.22Y-98.58
X94.22Y-101.12
X94.22Y-103.66
X94.22Y-106.2
X94.22Y-108.74
X94.22Y-111.28
X94.22Y-113.82
X94.22Y-116.36
X94.22Y-118.9
X94.22Y-121.44
X94.22Y-123.98
X94.22Y-126.52
X94.22Y-136.68
X94.22Y-139.22
X94.22Y-141.76
X94.22Y-144.3
X94.22Y-146.84
X94.22Y-149.38
X94.22Y-151.92
X94.22Y-154.46
X94.22Y-157.0
X94.22Y-159.54
X94.22Y-162.08
X94.22Y-164.62
X94.22Y-167.16
X94.22Y-169.7
X94.22Y-179.86
X94.22Y-182.4
X94.22Y-184.94
X94.22Y-187.48
X94.22Y-190.02
X94.22Y-192.56
X94.22Y-195.1
X94.22Y-197.64
X94.22Y-200.18
X94.22Y-202.72
X94.28Y-85.88
X94.28Y-88.42
X94.28Y-90.96
X94.28Y-172.24
X94.28Y-174.78
X94.28Y-177.32
X99.3Y-52.86
X99.3Y-55.4
X99.3Y-57.94
X99.3Y-60.48
X99.3Y-63.02
X99.3Y-65.56
X99.3Y-68.1
X99.3Y-70.64
X99.3Y-73.18
X99.3Y-75.72
X99.3Y-78.26
X99.3Y-80.8
X99.3Y-83.34
X99.3Y-85.88
X99.3Y-88.42
X99.3Y-90.96
X99.3Y-93.5
X99.3Y-96.04
X99.3Y-98.58
X99.3Y-101.12
X99.3Y-103.66
X99.3Y-106.2
X99.3Y-108.74
X99.3Y-111.28
X99.3Y-113.82
X99.3Y-116.36
X99.3Y-118.9
X99.3Y-121.44
X99.3Y-123.98
X99.3Y-126.52
X99.36Y-129.06
X99.36Y-131.6
X99.36Y-134.14
X99.36Y-136.68
X99.36Y-139.22
X99.36Y-141.76
X99.36Y-144.3
X99.36Y-146.84
X99.36Y-149.38
X99.36Y-151.92
X99.36Y-154.46
X99.36Y-157.0
X99.36Y-159.54
X99.36Y-162.08
X99.36Y-164.62
X99.36Y-167.16
X99.36Y-169.7
X99.36Y-172.24
X99.36Y-174.78
X99.36Y-177.32
X99.36Y-179.86
X99.36Y-182.4
X99.36Y-184.94
X99.36Y-187.48
X99.36Y-190.02
X99.36Y-192.56
X99.36Y-195.1
X99.36Y-197.64
X99.36Y-200.18
X99.36Y-202.72
X101.84Y-52.86
X101.84Y-55.4
X101.84Y-57.94
X101.84Y-60.48
X101.84Y-63.02
X101.84Y-65.56
X101.84Y-68.1
X101.84Y-70.64
X101.84Y-73.18
X101.84Y-75.72
X101.84Y-78.26
X101.84Y-80.8
X101.84Y-83.34
X101.84Y-85.88
X101.84Y-88.42
X101.84Y-90.96
X101.84Y-93.5
X101.84Y-96.04
X101.84Y-98.58
X101.84Y-101.12
X101.84Y-103.66
X101.84Y-106.2
X101.84Y-108.74
X101.84Y-111.28
X101.84Y-113.82
X101.84Y-116.36
X101.84Y-118.9
X101.84Y-121.44
X101.84Y-123.98
X101.84Y-126.52
X101.9Y-129.06
X101.9Y-131.6
X101.9Y-134.14
X101.9Y-136.68
X101.9Y-139.22
X101.9Y-141.76
X101.9Y-144.3
X101.9Y-146.84
X101.9Y-149.38
X101.9Y-151.92
X101.9Y-154.46
X101.9Y-157.0
X101.9Y-159.54
X101.9Y-162.08
X101.9Y-164.62
X101.9Y-167.16
X101.9Y-169.7
X101.9Y-172.24
X101.9Y-174.78
X101.9Y-177.32
X101.9Y-179.86
X101.9Y-182.4
X101.9Y-184.94
X101.9Y-187.48
X101.9Y-190.02
X101.9Y-192.56
X101.9Y-195.1
X101.9Y-197.64
X101.9Y-200.18
X101.9Y-202.72
X104.38Y-52.86
X104.38Y-55.4
X104.38Y-57.94
X104.38Y-60.48
X104.38Y-63.02
X104.38Y-65.56
X104.38Y-68.1
X104.38Y-70.64
X104.38Y-73.18
X104.38Y-75.72
X104.38Y-78.26
X104.38Y-80.8
X104.38Y-83.34
X104.38Y-85.88
X104.38Y-88.42
X104.38Y-90.96
X104.38Y-93.5
X104.38Y-96.04
X104.38Y-98.58
X104.38Y-101.12
X104.38Y-103.66
X104.38Y-106.2
X104.38Y-108.74
X104.38Y-111.28
X104.38Y-113.82
X104.38Y-116.36
X104.38Y-118.9
X104.38Y-121.44
X104.38Y-123.98
X104.38Y-126.52
X104.44Y-129.06
X104.44Y-131.6
X104.44Y-134.14
X104.44Y-136.68
X104.44Y-139.22
X104.44Y-141.76
X104.44Y-144.3
X104.44Y-146.84
X104.44Y-149.38
X104.44Y-151.92
X104.44Y-154.46
X104.44Y-157.0
X104.44Y-159.54
X104.44Y-162.08
X104.44Y-164.62
X104.44Y-167.16
X104.44Y-169.7
X104.44Y-172.24
X104.44Y-174.78
X104.44Y-177.32
X104.44Y-179.86
X104.44Y-182.4
X104.44Y-184.94
X104.44Y-187.48
X104.44Y-190.02
X104.44Y-192.56
X104.44Y-195.1
X104.44Y-197.64
X104.44Y-200.18
X104.44Y-202.72
X106.92Y-52.86
X106.92Y-55.4
X106.92Y-57.94
X106.92Y-60.48
X106.92Y-63.02
X106.92Y-65.56
X106.92Y-68.1
X106.92Y-70.64
X106.92Y-73.18
X106.92Y-75.72
X106.92Y-78.26
X106.92Y-80.8
X106.92Y-83.34
X106.92Y-85.88
X106.92Y-88.42
X106.92Y-90.96
X106.92Y-93.5
X106.92Y-96.04
X106.92Y-98.58
X106.92Y-101.12
X106.92Y-103.66
X106.92Y-106.2
X106.92Y-108.74
X106.92Y-111.28
X106.92Y-113.82
X106.92Y-116.36
X106.92Y-118.9
X106.92Y-121.44
X106.92Y-123.98
X106.92Y-126.52
X106.98Y-129.06
X106.98Y-131.6
X106.98Y-134.14
X106.98Y-136.68
X106.98Y-139.22
X106.98Y-141.76
X106.98Y-144.3
X106.98Y-146.84
X106.98Y-149.38
X106.98Y-151.92
X106.98Y-154.46
X106.98Y-157.0
X106.98Y-159.54
X106.98Y-162.08
X106.98Y-164.62
X106.98Y-167.16
X106.98Y-169.7
X106.98Y-172.24
X106.98Y-174.78
X106.98Y-177.32
X106.98Y-179.86
X106.98Y-182.4
X106.98Y-184.94
X106.98Y-187.48
X106.98Y-190.02
X106.98Y-192.56
X106.98Y-195.1
X106.98Y-197.64
X106.98Y-200.18
X106.98Y-202.72
X109.46Y-52.86
X109.46Y-55.4
X109.46Y-57.94
X109.46Y-60.48
X109.46Y-63.02
X109.46Y-65.56
X109.46Y-68.1
X109.46Y-70.64
X109.46Y-73.18
X109.46Y-75.72
X109.46Y-78.26
X109.46Y-80.8
X109.46Y-83.34
X109.46Y-85.88
X109.46Y-88.42
X109.46Y-90.96
X109.46Y-93.5
X109.46Y-96.04
X109.46Y-98.58
X109.46Y-101.12
X109.46Y-103.66
X109.46Y-106.2
X109.46Y-108.74
X109.46Y-111.28
X109.46Y-113.82
X109.46Y-116.36
X109.46Y-118.9
X109.46Y-121.44
X109.46Y-123.98
X109.46Y-126.52
X109.52Y-129.06
X109.52Y-131.6
X109.52Y-134.14
X109.52Y-136.68
X109.52Y-139.22
X109.52Y-141.76
X109.52Y-144.3
X109.52Y-146.84
X109.52Y-149.38
X109.52Y-151.92
X109.52Y-154.46
X109.52Y-157.0
X109.52Y-159.54
X109.52Y-162.08
X109.52Y-164.62
X109.52Y-167.16
X109.52Y-169.7
X109.52Y-172.24
X109.52Y-174.78
X109.52Y-177.32
X109.52Y-179.86
X109.52Y-182.4
X109.52Y-184.94
X109.52Y-187.48
X109.52Y-190.02
X109.52Y-192.56
X109.52Y-195.1
X109.52Y-197.64
X109.52Y-200.18
X109.52Y-202.72
X114.54Y-52.86
X114.54Y-55.4
X114.54Y-57.94
X114.54Y-60.48
X114.54Y-63.02
X114.54Y-65.56
X114.54Y-68.1
X114.54Y-70.64
X114.54Y-73.18
X114.54Y-75.72
X114.54Y-78.26
X114.54Y-80.8
X114.54Y-83.34
X114.54Y-85.88
X114.54Y-88.42
X114.54Y-90.96
X114.54Y-93.5
X114.54Y-96.04
X114.54Y-98.58
X114.54Y-101.12
X114.54Y-103.66
X114.54Y-106.2
X114.54Y-108.74
X114.54Y-111.28
X114.54Y-113.82
X114.54Y-116.36
X114.54Y-118.9
X114.54Y-121.44
X114.54Y-123.98
X114.54Y-126.52
X114.6Y-129.06
X114.6Y-131.6
X114.6Y-134.14
X114.6Y-136.68
X114.6Y-139.22
X114.6Y-141.76
X114.6Y-144.3
X114.6Y-146.84
X114.6Y-149.38
X114.6Y-151.92
X114.6Y-154.46
X114.6Y-157.0
X114.6Y-159.54
X114.6Y-162.08
X114.6Y-164.62
X114.6Y-167.16
X114.6Y-169.7
X114.6Y-172.24
X114.6Y-174.78
X114.6Y-177.32
X114.6Y-179.86
X114.6Y-182.4
X114.6Y-184.94
X114.6Y-187.48
X114.6Y-190.02
X114.6Y-192.56
X114.6Y-195.1
X114.6Y-197.64
X114.6Y-200.18
X114.6Y-202.72
X117.08Y-52.86
X117.08Y-55.4
X117.08Y-57.94
X117.08Y-60.48
X117.08Y-63.02
X117.08Y-65.56
X117.08Y-68.1
X117.08Y-70.64
X117.08Y-73.18
X117.08Y-75.72
X117.08Y-78.26
X117.08Y-80.8
X117.08Y-83.34
X117.08Y-85.88
X117.08Y-88.42
X117.08Y-90.96
X117.08Y-93.5
X117.08Y-96.04
X117.08Y-98.58
X117.08Y-101.12
X117.08Y-103.66
X117.08Y-106.2
X117.08Y-108.74
X117.08Y-111.28
X117.08Y-113.82
X117.08Y-116.36
X117.08Y-118.9
X117.08Y-121.44
X117.08Y-123.98
X117.08Y-126.52
X117.14Y-129.06
X117.14Y-131.6
X117.14Y-134.14
X117.14Y-136.68
X117.14Y-139.22
X117.14Y-141.76
X117.14Y-144.3
X117.14Y-146.84
X117.14Y-149.38
X117.14Y-151.92
X117.14Y-154.46
X117.14Y-157.0
X117.14Y-159.54
X117.14Y-162.08
X117.14Y-164.62
X117.14Y-167.16
X117.14Y-169.7
X117.14Y-172.24
X117.14Y-174.78
X117.14Y-177.32
X117.14Y-179.86
X117.14Y-182.4
X117.14Y-184.94
X117.14Y-187.48
X117.14Y-190.02
X117.14Y-192.56
X117.14Y-195.1
X117.14Y-197.64
X117.14Y-200.18
X117.14Y-202.72
X119.62Y-52.86
X119.62Y-55.4
X119.62Y-57.94
X119.62Y-60.48
X119.62Y-63.02
X119.62Y-65.56
X119.62Y-68.1
X119.62Y-70.64
X119.62Y-73.18
X119.62Y-75.72
X119.62Y-78.26
X119.62Y-80.8
X119.62Y-83.34
X119.62Y-85.88
X119.62Y-88.42
X119.62Y-90.96
X119.62Y-93.5
X119.62Y-96.04
X119.62Y-98.58
X119.62Y-101.12
X119.62Y-103.66
X119.62Y-106.2
X119.62Y-108.74
X119.62Y-111.28
X119.62Y-113.82
X119.62Y-116.36
X119.62Y-118.9
X119.62Y-121.44
X119.62Y-123.98
X119.62Y-126.52
X119.68Y-129.06
X119.68Y-131.6
X119.68Y-134.14
X119.68Y-136.68
X119.68Y-139.22
X119.68Y-141.76
X119.68Y-144.3
X119.68Y-146.84
X119.68Y-149.38
X119.68Y-151.92
X119.68Y-154.46
X119.68Y-157.0
X119.68Y-159.54
X119.68Y-162.08
X119.68Y-164.62
X119.68Y-167.16
X119.68Y-169.7
X119.68Y-172.24
X119.68Y-174.78
X119.68Y-177.32
X119.68Y-179.86
X119.68Y-182.4
X119.68Y-184.94
X119.68Y-187.48
X119.68Y-190.02
X119.68Y-192.56
X119.68Y-195.1
X119.68Y-197.64
X119.68Y-200.18
X119.68Y-202.72
X122.16Y-52.86
X122.16Y-55.4
X122.16Y-57.94
X122.16Y-60.48
X122.16Y-63.02
X122.16Y-65.56
X122.16Y-68.1
X122.16Y-70.64
X122.16Y-73.18
X122.16Y-75.72
X122.16Y-78.26
X122.16Y-80.8
X122.16Y-83.34
X122.16Y-85.88
X122.16Y-88.42
X122.16Y-90.96
X122.16Y-93.5
X122.16Y-96.04
X122.16Y-98.58
X122.16Y-101.12
X122.16Y-103.66
X122.16Y-106.2
X122.16Y-108.74
X122.16Y-111.28
X122.16Y-113.82
X122.16Y-116.36
X122.16Y-118.9
X122.16Y-121.44
X122.16Y-123.98
X122.16Y-126.52
X122.22Y-129.06
X122.22Y-131.6
X122.22Y-134.14
X122.22Y-136.68
X122.22Y-139.22
X122.22Y-141.76
X122.22Y-144.3
X122.22Y-146.84
X122.22Y-149.38
X122.22Y-151.92
X122.22Y-154.46
X122.22Y-157.0
X122.22Y-159.54
X122.22Y-162.08
X122.22Y-164.62
X122.22Y-167.16
X122.22Y-169.7
X122.22Y-172.24
X122.22Y-174.78
X122.22Y-177.32
X122.22Y-179.86
X122.22Y-182.4
X122.22Y-184.94
X122.22Y-187.48
X122.22Y-190.02
X122.22Y-192.56
X122.22Y-195.1
X122.22Y-197.64
X122.22Y-200.18
X122.22Y-202.72
X124.7Y-52.86
X124.7Y-55.4
X124.7Y-57.94
X124.7Y-60.48
X124.7Y-63.02
X124.7Y-65.56
X124.7Y-68.1
X124.7Y-70.64
X124.7Y-73.18
X124.7Y-75.72
X124.7Y-78.26
X124.7Y-80.8
X124.7Y-83.34
X124.7Y-85.88
X124.7Y-88.42
X124.7Y-90.96
X124.7Y-93.5
X124.7Y-96.04
X124.7Y-98.58
X124.7Y-101.12
X124.7Y-103.66
X124.7Y-106.2
X124.7Y-108.74
X124.7Y-111.28
X124.7Y-113.82
X124.7Y-116.36
X124.7Y-118.9
X124.7Y-121.44
X124.7Y-123.98
X124.7Y-126.52
X124.76Y-129.06
X124.76Y-131.6
X124.76Y-134.14
X124.76Y-136.68
X124.76Y-139.22
X124.76Y-141.76
X124.76Y-144.3
X124.76Y-146.84
X124.76Y-149.38
X124.76Y-151.92
X124.76Y-154.46
X124.76Y-157.0
X124.76Y-159.54
X124.76Y-162.08
X124.76Y-164.62
X124.76Y-167.16
X124.76Y-169.7
X124.76Y-172.24
X124.76Y-174.78
X124.76Y-177.32
X124.76Y-179.86
X124.76Y-182.4
X124.76Y-184.94
X124.76Y-187.48
X124.76Y-190.02
X124.76Y-192.56
X124.76Y-195.1
X124.76Y-197.64
X124.76Y-200.18
X124.76Y-202.72
X129.78Y-52.86
X129.78Y-55.4
X129.78Y-57.94
X129.78Y-60.48
X129.78Y-63.02
X129.78Y-65.56
X129.78Y-68.1
X129.78Y-70.64
X129.78Y-73.18
X129.78Y-75.72
X129.78Y-78.26
X129.78Y-80.8
X129.78Y-83.34
X129.78Y-93.5
X129.78Y-96.04
X129.78Y-98.58
X129.78Y-101.12
X129.78Y-103.66
X129.78Y-106.2
X129.78Y-108.74
X129.78Y-111.28
X129.78Y-113.82
X129.78Y-116.36
X129.78Y-118.9
X129.78Y-121.44
X129.78Y-123.98
X129.78Y-126.52
X129.78Y-136.68
X129.78Y-139.22
X129.78Y-141.76
X129.78Y-144.3
X129.78Y-146.84
X129.78Y-149.38
X129.78Y-151.92
X129.78Y-154.46
X129.78Y-157.0
X129.78Y-159.54
X129.78Y-162.08
X129.78Y-164.62
X129.78Y-167.16
X129.78Y-169.7
X129.78Y-179.86
X129.78Y-182.4
X129.78Y-184.94
X129.78Y-187.48
X129.78Y-190.02
X129.78Y-192.56
X129.78Y-195.1
X129.78Y-197.64
X129.78Y-200.18
X129.78Y-202.72
X129.84Y-85.88
X129.84Y-88.42
X129.84Y-90.96
X129.84Y-172.24
X129.84Y-174.78
X129.84Y-177.32
X132.32Y-52.86
X132.32Y-55.4
X132.32Y-57.94
X132.32Y-60.48
X132.32Y-63.02
X132.32Y-65.56
X132.32Y-68.1
X132.32Y-70.64
X132.32Y-73.18
X132.32Y-75.72
X132.32Y-78.26
X132.32Y-80.8
X132.32Y-83.34
X132.32Y-93.5
X132.32Y-96.04
X132.32Y-98.58
X132.32Y-101.12
X132.32Y-103.66
X132.32Y-106.2
X132.32Y-108.74
X132.32Y-111.28
X132.32Y-113.82
X132.32Y-116.36
X132.32Y-118.9
X132.32Y-121.44
X132.32Y-123.98
X132.32Y-126.52
X132.32Y-136.68
X132.32Y-139.22
X132.32Y-141.76
X132.32Y-144.3
X132.32Y-146.84
X132.32Y-149.38
X132.32Y-151.92
X132.32Y-154.46
X132.32Y-157.0
X132.32Y-159.54
X132.32Y-162.08
X132.32Y-164.62
X132.32Y-167.16
X132.32Y-169.7
X132.32Y-179.86
X132.32Y-182.4
X132.32Y-184.94
X132.32Y-187.48
X132.32Y-190.02
X132.32Y-192.56
X132.32Y-195.1
X132.32Y-197.64
X132.32Y-200.18
X132.32Y-202.72
X132.38Y-85.88
X132.38Y-88.42
X132.38Y-90.96
X132.38Y-172.24
X132.38Y-174.78
X132.38Y-177.32
T2
X88.0Y-34.0
X88.0Y-212.88
X136.0Y-34.0
X136.0Y-212.88
M30
