%TF.GenerationSoftware,KiCad,Pcbnew,8.0.2*%
%TF.CreationDate,2024-08-26T09:50:41-06:00*%
%TF.ProjectId,Perfboard_1_Vertical,50657266-626f-4617-9264-5f315f566572,rev?*%
%TF.SameCoordinates,Original*%
%TF.FileFunction,Drillmap*%
%TF.FilePolarity,Positive*%
%FSLAX45Y45*%
G04 Gerber Fmt 4.5, Leading zero omitted, Abs format (unit mm)*
G04 Created by KiCad (PCBNEW 8.0.2) date 2024-08-26 09:50:41*
%MOMM*%
%LPD*%
G01*
G04 APERTURE LIST*
%ADD10C,0.025400*%
%ADD11C,0.050000*%
%ADD12C,0.200000*%
%ADD13C,0.100000*%
%ADD14C,0.220000*%
G04 APERTURE END LIST*
D10*
X14000000Y-3000000D02*
X8400000Y-3000000D01*
X8400000Y-21700000D02*
X8400000Y-3000000D01*
X14000000Y-3000000D02*
X14000000Y-21700000D01*
D11*
X14000000Y-21700000D02*
X8400000Y-21700000D01*
D12*
D13*
X9120500Y-5238500D02*
X9215500Y-5333500D01*
X9215500Y-5238500D02*
X9120500Y-5333500D01*
X9120500Y-5492500D02*
X9215500Y-5587500D01*
X9215500Y-5492500D02*
X9120500Y-5587500D01*
X9120500Y-5746500D02*
X9215500Y-5841500D01*
X9215500Y-5746500D02*
X9120500Y-5841500D01*
X9120500Y-6000500D02*
X9215500Y-6095500D01*
X9215500Y-6000500D02*
X9120500Y-6095500D01*
X9120500Y-6254500D02*
X9215500Y-6349500D01*
X9215500Y-6254500D02*
X9120500Y-6349500D01*
X9120500Y-6508500D02*
X9215500Y-6603500D01*
X9215500Y-6508500D02*
X9120500Y-6603500D01*
X9120500Y-6762500D02*
X9215500Y-6857500D01*
X9215500Y-6762500D02*
X9120500Y-6857500D01*
X9120500Y-7016500D02*
X9215500Y-7111500D01*
X9215500Y-7016500D02*
X9120500Y-7111500D01*
X9120500Y-7270500D02*
X9215500Y-7365500D01*
X9215500Y-7270500D02*
X9120500Y-7365500D01*
X9120500Y-7524500D02*
X9215500Y-7619500D01*
X9215500Y-7524500D02*
X9120500Y-7619500D01*
X9120500Y-7778500D02*
X9215500Y-7873500D01*
X9215500Y-7778500D02*
X9120500Y-7873500D01*
X9120500Y-8032500D02*
X9215500Y-8127500D01*
X9215500Y-8032500D02*
X9120500Y-8127500D01*
X9120500Y-8286500D02*
X9215500Y-8381500D01*
X9215500Y-8286500D02*
X9120500Y-8381500D01*
X9120500Y-9302500D02*
X9215500Y-9397500D01*
X9215500Y-9302500D02*
X9120500Y-9397500D01*
X9120500Y-9556500D02*
X9215500Y-9651500D01*
X9215500Y-9556500D02*
X9120500Y-9651500D01*
X9120500Y-9810500D02*
X9215500Y-9905500D01*
X9215500Y-9810500D02*
X9120500Y-9905500D01*
X9120500Y-10064500D02*
X9215500Y-10159500D01*
X9215500Y-10064500D02*
X9120500Y-10159500D01*
X9120500Y-10318500D02*
X9215500Y-10413500D01*
X9215500Y-10318500D02*
X9120500Y-10413500D01*
X9120500Y-10572500D02*
X9215500Y-10667500D01*
X9215500Y-10572500D02*
X9120500Y-10667500D01*
X9120500Y-10826500D02*
X9215500Y-10921500D01*
X9215500Y-10826500D02*
X9120500Y-10921500D01*
X9120500Y-11080500D02*
X9215500Y-11175500D01*
X9215500Y-11080500D02*
X9120500Y-11175500D01*
X9120500Y-11334500D02*
X9215500Y-11429500D01*
X9215500Y-11334500D02*
X9120500Y-11429500D01*
X9120500Y-11588500D02*
X9215500Y-11683500D01*
X9215500Y-11588500D02*
X9120500Y-11683500D01*
X9120500Y-11842500D02*
X9215500Y-11937500D01*
X9215500Y-11842500D02*
X9120500Y-11937500D01*
X9120500Y-12096500D02*
X9215500Y-12191500D01*
X9215500Y-12096500D02*
X9120500Y-12191500D01*
X9120500Y-12350500D02*
X9215500Y-12445500D01*
X9215500Y-12350500D02*
X9120500Y-12445500D01*
X9120500Y-12604500D02*
X9215500Y-12699500D01*
X9215500Y-12604500D02*
X9120500Y-12699500D01*
X9120500Y-13620500D02*
X9215500Y-13715500D01*
X9215500Y-13620500D02*
X9120500Y-13715500D01*
X9120500Y-13874500D02*
X9215500Y-13969500D01*
X9215500Y-13874500D02*
X9120500Y-13969500D01*
X9120500Y-14128500D02*
X9215500Y-14223500D01*
X9215500Y-14128500D02*
X9120500Y-14223500D01*
X9120500Y-14382500D02*
X9215500Y-14477500D01*
X9215500Y-14382500D02*
X9120500Y-14477500D01*
X9120500Y-14636500D02*
X9215500Y-14731500D01*
X9215500Y-14636500D02*
X9120500Y-14731500D01*
X9120500Y-14890500D02*
X9215500Y-14985500D01*
X9215500Y-14890500D02*
X9120500Y-14985500D01*
X9120500Y-15144500D02*
X9215500Y-15239500D01*
X9215500Y-15144500D02*
X9120500Y-15239500D01*
X9120500Y-15398500D02*
X9215500Y-15493500D01*
X9215500Y-15398500D02*
X9120500Y-15493500D01*
X9120500Y-15652500D02*
X9215500Y-15747500D01*
X9215500Y-15652500D02*
X9120500Y-15747500D01*
X9120500Y-15906500D02*
X9215500Y-16001500D01*
X9215500Y-15906500D02*
X9120500Y-16001500D01*
X9120500Y-16160500D02*
X9215500Y-16255500D01*
X9215500Y-16160500D02*
X9120500Y-16255500D01*
X9120500Y-16414500D02*
X9215500Y-16509500D01*
X9215500Y-16414500D02*
X9120500Y-16509500D01*
X9120500Y-16668500D02*
X9215500Y-16763500D01*
X9215500Y-16668500D02*
X9120500Y-16763500D01*
X9120500Y-16922500D02*
X9215500Y-17017500D01*
X9215500Y-16922500D02*
X9120500Y-17017500D01*
X9120500Y-17938500D02*
X9215500Y-18033500D01*
X9215500Y-17938500D02*
X9120500Y-18033500D01*
X9120500Y-18192500D02*
X9215500Y-18287500D01*
X9215500Y-18192500D02*
X9120500Y-18287500D01*
X9120500Y-18446500D02*
X9215500Y-18541500D01*
X9215500Y-18446500D02*
X9120500Y-18541500D01*
X9120500Y-18700500D02*
X9215500Y-18795500D01*
X9215500Y-18700500D02*
X9120500Y-18795500D01*
X9120500Y-18954500D02*
X9215500Y-19049500D01*
X9215500Y-18954500D02*
X9120500Y-19049500D01*
X9120500Y-19208500D02*
X9215500Y-19303500D01*
X9215500Y-19208500D02*
X9120500Y-19303500D01*
X9120500Y-19462500D02*
X9215500Y-19557500D01*
X9215500Y-19462500D02*
X9120500Y-19557500D01*
X9120500Y-19716500D02*
X9215500Y-19811500D01*
X9215500Y-19716500D02*
X9120500Y-19811500D01*
X9120500Y-19970500D02*
X9215500Y-20065500D01*
X9215500Y-19970500D02*
X9120500Y-20065500D01*
X9120500Y-20224500D02*
X9215500Y-20319500D01*
X9215500Y-20224500D02*
X9120500Y-20319500D01*
X9126500Y-8540500D02*
X9221500Y-8635500D01*
X9221500Y-8540500D02*
X9126500Y-8635500D01*
X9126500Y-8794500D02*
X9221500Y-8889500D01*
X9221500Y-8794500D02*
X9126500Y-8889500D01*
X9126500Y-9048500D02*
X9221500Y-9143500D01*
X9221500Y-9048500D02*
X9126500Y-9143500D01*
X9126500Y-17176500D02*
X9221500Y-17271500D01*
X9221500Y-17176500D02*
X9126500Y-17271500D01*
X9126500Y-17430500D02*
X9221500Y-17525500D01*
X9221500Y-17430500D02*
X9126500Y-17525500D01*
X9126500Y-17684500D02*
X9221500Y-17779500D01*
X9221500Y-17684500D02*
X9126500Y-17779500D01*
X9374500Y-5238500D02*
X9469500Y-5333500D01*
X9469500Y-5238500D02*
X9374500Y-5333500D01*
X9374500Y-5492500D02*
X9469500Y-5587500D01*
X9469500Y-5492500D02*
X9374500Y-5587500D01*
X9374500Y-5746500D02*
X9469500Y-5841500D01*
X9469500Y-5746500D02*
X9374500Y-5841500D01*
X9374500Y-6000500D02*
X9469500Y-6095500D01*
X9469500Y-6000500D02*
X9374500Y-6095500D01*
X9374500Y-6254500D02*
X9469500Y-6349500D01*
X9469500Y-6254500D02*
X9374500Y-6349500D01*
X9374500Y-6508500D02*
X9469500Y-6603500D01*
X9469500Y-6508500D02*
X9374500Y-6603500D01*
X9374500Y-6762500D02*
X9469500Y-6857500D01*
X9469500Y-6762500D02*
X9374500Y-6857500D01*
X9374500Y-7016500D02*
X9469500Y-7111500D01*
X9469500Y-7016500D02*
X9374500Y-7111500D01*
X9374500Y-7270500D02*
X9469500Y-7365500D01*
X9469500Y-7270500D02*
X9374500Y-7365500D01*
X9374500Y-7524500D02*
X9469500Y-7619500D01*
X9469500Y-7524500D02*
X9374500Y-7619500D01*
X9374500Y-7778500D02*
X9469500Y-7873500D01*
X9469500Y-7778500D02*
X9374500Y-7873500D01*
X9374500Y-8032500D02*
X9469500Y-8127500D01*
X9469500Y-8032500D02*
X9374500Y-8127500D01*
X9374500Y-8286500D02*
X9469500Y-8381500D01*
X9469500Y-8286500D02*
X9374500Y-8381500D01*
X9374500Y-9302500D02*
X9469500Y-9397500D01*
X9469500Y-9302500D02*
X9374500Y-9397500D01*
X9374500Y-9556500D02*
X9469500Y-9651500D01*
X9469500Y-9556500D02*
X9374500Y-9651500D01*
X9374500Y-9810500D02*
X9469500Y-9905500D01*
X9469500Y-9810500D02*
X9374500Y-9905500D01*
X9374500Y-10064500D02*
X9469500Y-10159500D01*
X9469500Y-10064500D02*
X9374500Y-10159500D01*
X9374500Y-10318500D02*
X9469500Y-10413500D01*
X9469500Y-10318500D02*
X9374500Y-10413500D01*
X9374500Y-10572500D02*
X9469500Y-10667500D01*
X9469500Y-10572500D02*
X9374500Y-10667500D01*
X9374500Y-10826500D02*
X9469500Y-10921500D01*
X9469500Y-10826500D02*
X9374500Y-10921500D01*
X9374500Y-11080500D02*
X9469500Y-11175500D01*
X9469500Y-11080500D02*
X9374500Y-11175500D01*
X9374500Y-11334500D02*
X9469500Y-11429500D01*
X9469500Y-11334500D02*
X9374500Y-11429500D01*
X9374500Y-11588500D02*
X9469500Y-11683500D01*
X9469500Y-11588500D02*
X9374500Y-11683500D01*
X9374500Y-11842500D02*
X9469500Y-11937500D01*
X9469500Y-11842500D02*
X9374500Y-11937500D01*
X9374500Y-12096500D02*
X9469500Y-12191500D01*
X9469500Y-12096500D02*
X9374500Y-12191500D01*
X9374500Y-12350500D02*
X9469500Y-12445500D01*
X9469500Y-12350500D02*
X9374500Y-12445500D01*
X9374500Y-12604500D02*
X9469500Y-12699500D01*
X9469500Y-12604500D02*
X9374500Y-12699500D01*
X9374500Y-13620500D02*
X9469500Y-13715500D01*
X9469500Y-13620500D02*
X9374500Y-13715500D01*
X9374500Y-13874500D02*
X9469500Y-13969500D01*
X9469500Y-13874500D02*
X9374500Y-13969500D01*
X9374500Y-14128500D02*
X9469500Y-14223500D01*
X9469500Y-14128500D02*
X9374500Y-14223500D01*
X9374500Y-14382500D02*
X9469500Y-14477500D01*
X9469500Y-14382500D02*
X9374500Y-14477500D01*
X9374500Y-14636500D02*
X9469500Y-14731500D01*
X9469500Y-14636500D02*
X9374500Y-14731500D01*
X9374500Y-14890500D02*
X9469500Y-14985500D01*
X9469500Y-14890500D02*
X9374500Y-14985500D01*
X9374500Y-15144500D02*
X9469500Y-15239500D01*
X9469500Y-15144500D02*
X9374500Y-15239500D01*
X9374500Y-15398500D02*
X9469500Y-15493500D01*
X9469500Y-15398500D02*
X9374500Y-15493500D01*
X9374500Y-15652500D02*
X9469500Y-15747500D01*
X9469500Y-15652500D02*
X9374500Y-15747500D01*
X9374500Y-15906500D02*
X9469500Y-16001500D01*
X9469500Y-15906500D02*
X9374500Y-16001500D01*
X9374500Y-16160500D02*
X9469500Y-16255500D01*
X9469500Y-16160500D02*
X9374500Y-16255500D01*
X9374500Y-16414500D02*
X9469500Y-16509500D01*
X9469500Y-16414500D02*
X9374500Y-16509500D01*
X9374500Y-16668500D02*
X9469500Y-16763500D01*
X9469500Y-16668500D02*
X9374500Y-16763500D01*
X9374500Y-16922500D02*
X9469500Y-17017500D01*
X9469500Y-16922500D02*
X9374500Y-17017500D01*
X9374500Y-17938500D02*
X9469500Y-18033500D01*
X9469500Y-17938500D02*
X9374500Y-18033500D01*
X9374500Y-18192500D02*
X9469500Y-18287500D01*
X9469500Y-18192500D02*
X9374500Y-18287500D01*
X9374500Y-18446500D02*
X9469500Y-18541500D01*
X9469500Y-18446500D02*
X9374500Y-18541500D01*
X9374500Y-18700500D02*
X9469500Y-18795500D01*
X9469500Y-18700500D02*
X9374500Y-18795500D01*
X9374500Y-18954500D02*
X9469500Y-19049500D01*
X9469500Y-18954500D02*
X9374500Y-19049500D01*
X9374500Y-19208500D02*
X9469500Y-19303500D01*
X9469500Y-19208500D02*
X9374500Y-19303500D01*
X9374500Y-19462500D02*
X9469500Y-19557500D01*
X9469500Y-19462500D02*
X9374500Y-19557500D01*
X9374500Y-19716500D02*
X9469500Y-19811500D01*
X9469500Y-19716500D02*
X9374500Y-19811500D01*
X9374500Y-19970500D02*
X9469500Y-20065500D01*
X9469500Y-19970500D02*
X9374500Y-20065500D01*
X9374500Y-20224500D02*
X9469500Y-20319500D01*
X9469500Y-20224500D02*
X9374500Y-20319500D01*
X9380500Y-8540500D02*
X9475500Y-8635500D01*
X9475500Y-8540500D02*
X9380500Y-8635500D01*
X9380500Y-8794500D02*
X9475500Y-8889500D01*
X9475500Y-8794500D02*
X9380500Y-8889500D01*
X9380500Y-9048500D02*
X9475500Y-9143500D01*
X9475500Y-9048500D02*
X9380500Y-9143500D01*
X9380500Y-17176500D02*
X9475500Y-17271500D01*
X9475500Y-17176500D02*
X9380500Y-17271500D01*
X9380500Y-17430500D02*
X9475500Y-17525500D01*
X9475500Y-17430500D02*
X9380500Y-17525500D01*
X9380500Y-17684500D02*
X9475500Y-17779500D01*
X9475500Y-17684500D02*
X9380500Y-17779500D01*
X9882500Y-5238500D02*
X9977500Y-5333500D01*
X9977500Y-5238500D02*
X9882500Y-5333500D01*
X9882500Y-5492500D02*
X9977500Y-5587500D01*
X9977500Y-5492500D02*
X9882500Y-5587500D01*
X9882500Y-5746500D02*
X9977500Y-5841500D01*
X9977500Y-5746500D02*
X9882500Y-5841500D01*
X9882500Y-6000500D02*
X9977500Y-6095500D01*
X9977500Y-6000500D02*
X9882500Y-6095500D01*
X9882500Y-6254500D02*
X9977500Y-6349500D01*
X9977500Y-6254500D02*
X9882500Y-6349500D01*
X9882500Y-6508500D02*
X9977500Y-6603500D01*
X9977500Y-6508500D02*
X9882500Y-6603500D01*
X9882500Y-6762500D02*
X9977500Y-6857500D01*
X9977500Y-6762500D02*
X9882500Y-6857500D01*
X9882500Y-7016500D02*
X9977500Y-7111500D01*
X9977500Y-7016500D02*
X9882500Y-7111500D01*
X9882500Y-7270500D02*
X9977500Y-7365500D01*
X9977500Y-7270500D02*
X9882500Y-7365500D01*
X9882500Y-7524500D02*
X9977500Y-7619500D01*
X9977500Y-7524500D02*
X9882500Y-7619500D01*
X9882500Y-7778500D02*
X9977500Y-7873500D01*
X9977500Y-7778500D02*
X9882500Y-7873500D01*
X9882500Y-8032500D02*
X9977500Y-8127500D01*
X9977500Y-8032500D02*
X9882500Y-8127500D01*
X9882500Y-8286500D02*
X9977500Y-8381500D01*
X9977500Y-8286500D02*
X9882500Y-8381500D01*
X9882500Y-8540500D02*
X9977500Y-8635500D01*
X9977500Y-8540500D02*
X9882500Y-8635500D01*
X9882500Y-8794500D02*
X9977500Y-8889500D01*
X9977500Y-8794500D02*
X9882500Y-8889500D01*
X9882500Y-9048500D02*
X9977500Y-9143500D01*
X9977500Y-9048500D02*
X9882500Y-9143500D01*
X9882500Y-9302500D02*
X9977500Y-9397500D01*
X9977500Y-9302500D02*
X9882500Y-9397500D01*
X9882500Y-9556500D02*
X9977500Y-9651500D01*
X9977500Y-9556500D02*
X9882500Y-9651500D01*
X9882500Y-9810500D02*
X9977500Y-9905500D01*
X9977500Y-9810500D02*
X9882500Y-9905500D01*
X9882500Y-10064500D02*
X9977500Y-10159500D01*
X9977500Y-10064500D02*
X9882500Y-10159500D01*
X9882500Y-10318500D02*
X9977500Y-10413500D01*
X9977500Y-10318500D02*
X9882500Y-10413500D01*
X9882500Y-10572500D02*
X9977500Y-10667500D01*
X9977500Y-10572500D02*
X9882500Y-10667500D01*
X9882500Y-10826500D02*
X9977500Y-10921500D01*
X9977500Y-10826500D02*
X9882500Y-10921500D01*
X9882500Y-11080500D02*
X9977500Y-11175500D01*
X9977500Y-11080500D02*
X9882500Y-11175500D01*
X9882500Y-11334500D02*
X9977500Y-11429500D01*
X9977500Y-11334500D02*
X9882500Y-11429500D01*
X9882500Y-11588500D02*
X9977500Y-11683500D01*
X9977500Y-11588500D02*
X9882500Y-11683500D01*
X9882500Y-11842500D02*
X9977500Y-11937500D01*
X9977500Y-11842500D02*
X9882500Y-11937500D01*
X9882500Y-12096500D02*
X9977500Y-12191500D01*
X9977500Y-12096500D02*
X9882500Y-12191500D01*
X9882500Y-12350500D02*
X9977500Y-12445500D01*
X9977500Y-12350500D02*
X9882500Y-12445500D01*
X9882500Y-12604500D02*
X9977500Y-12699500D01*
X9977500Y-12604500D02*
X9882500Y-12699500D01*
X9888500Y-12858500D02*
X9983500Y-12953500D01*
X9983500Y-12858500D02*
X9888500Y-12953500D01*
X9888500Y-13112500D02*
X9983500Y-13207500D01*
X9983500Y-13112500D02*
X9888500Y-13207500D01*
X9888500Y-13366500D02*
X9983500Y-13461500D01*
X9983500Y-13366500D02*
X9888500Y-13461500D01*
X9888500Y-13620500D02*
X9983500Y-13715500D01*
X9983500Y-13620500D02*
X9888500Y-13715500D01*
X9888500Y-13874500D02*
X9983500Y-13969500D01*
X9983500Y-13874500D02*
X9888500Y-13969500D01*
X9888500Y-14128500D02*
X9983500Y-14223500D01*
X9983500Y-14128500D02*
X9888500Y-14223500D01*
X9888500Y-14382500D02*
X9983500Y-14477500D01*
X9983500Y-14382500D02*
X9888500Y-14477500D01*
X9888500Y-14636500D02*
X9983500Y-14731500D01*
X9983500Y-14636500D02*
X9888500Y-14731500D01*
X9888500Y-14890500D02*
X9983500Y-14985500D01*
X9983500Y-14890500D02*
X9888500Y-14985500D01*
X9888500Y-15144500D02*
X9983500Y-15239500D01*
X9983500Y-15144500D02*
X9888500Y-15239500D01*
X9888500Y-15398500D02*
X9983500Y-15493500D01*
X9983500Y-15398500D02*
X9888500Y-15493500D01*
X9888500Y-15652500D02*
X9983500Y-15747500D01*
X9983500Y-15652500D02*
X9888500Y-15747500D01*
X9888500Y-15906500D02*
X9983500Y-16001500D01*
X9983500Y-15906500D02*
X9888500Y-16001500D01*
X9888500Y-16160500D02*
X9983500Y-16255500D01*
X9983500Y-16160500D02*
X9888500Y-16255500D01*
X9888500Y-16414500D02*
X9983500Y-16509500D01*
X9983500Y-16414500D02*
X9888500Y-16509500D01*
X9888500Y-16668500D02*
X9983500Y-16763500D01*
X9983500Y-16668500D02*
X9888500Y-16763500D01*
X9888500Y-16922500D02*
X9983500Y-17017500D01*
X9983500Y-16922500D02*
X9888500Y-17017500D01*
X9888500Y-17176500D02*
X9983500Y-17271500D01*
X9983500Y-17176500D02*
X9888500Y-17271500D01*
X9888500Y-17430500D02*
X9983500Y-17525500D01*
X9983500Y-17430500D02*
X9888500Y-17525500D01*
X9888500Y-17684500D02*
X9983500Y-17779500D01*
X9983500Y-17684500D02*
X9888500Y-17779500D01*
X9888500Y-17938500D02*
X9983500Y-18033500D01*
X9983500Y-17938500D02*
X9888500Y-18033500D01*
X9888500Y-18192500D02*
X9983500Y-18287500D01*
X9983500Y-18192500D02*
X9888500Y-18287500D01*
X9888500Y-18446500D02*
X9983500Y-18541500D01*
X9983500Y-18446500D02*
X9888500Y-18541500D01*
X9888500Y-18700500D02*
X9983500Y-18795500D01*
X9983500Y-18700500D02*
X9888500Y-18795500D01*
X9888500Y-18954500D02*
X9983500Y-19049500D01*
X9983500Y-18954500D02*
X9888500Y-19049500D01*
X9888500Y-19208500D02*
X9983500Y-19303500D01*
X9983500Y-19208500D02*
X9888500Y-19303500D01*
X9888500Y-19462500D02*
X9983500Y-19557500D01*
X9983500Y-19462500D02*
X9888500Y-19557500D01*
X9888500Y-19716500D02*
X9983500Y-19811500D01*
X9983500Y-19716500D02*
X9888500Y-19811500D01*
X9888500Y-19970500D02*
X9983500Y-20065500D01*
X9983500Y-19970500D02*
X9888500Y-20065500D01*
X9888500Y-20224500D02*
X9983500Y-20319500D01*
X9983500Y-20224500D02*
X9888500Y-20319500D01*
X10136500Y-5238500D02*
X10231500Y-5333500D01*
X10231500Y-5238500D02*
X10136500Y-5333500D01*
X10136500Y-5492500D02*
X10231500Y-5587500D01*
X10231500Y-5492500D02*
X10136500Y-5587500D01*
X10136500Y-5746500D02*
X10231500Y-5841500D01*
X10231500Y-5746500D02*
X10136500Y-5841500D01*
X10136500Y-6000500D02*
X10231500Y-6095500D01*
X10231500Y-6000500D02*
X10136500Y-6095500D01*
X10136500Y-6254500D02*
X10231500Y-6349500D01*
X10231500Y-6254500D02*
X10136500Y-6349500D01*
X10136500Y-6508500D02*
X10231500Y-6603500D01*
X10231500Y-6508500D02*
X10136500Y-6603500D01*
X10136500Y-6762500D02*
X10231500Y-6857500D01*
X10231500Y-6762500D02*
X10136500Y-6857500D01*
X10136500Y-7016500D02*
X10231500Y-7111500D01*
X10231500Y-7016500D02*
X10136500Y-7111500D01*
X10136500Y-7270500D02*
X10231500Y-7365500D01*
X10231500Y-7270500D02*
X10136500Y-7365500D01*
X10136500Y-7524500D02*
X10231500Y-7619500D01*
X10231500Y-7524500D02*
X10136500Y-7619500D01*
X10136500Y-7778500D02*
X10231500Y-7873500D01*
X10231500Y-7778500D02*
X10136500Y-7873500D01*
X10136500Y-8032500D02*
X10231500Y-8127500D01*
X10231500Y-8032500D02*
X10136500Y-8127500D01*
X10136500Y-8286500D02*
X10231500Y-8381500D01*
X10231500Y-8286500D02*
X10136500Y-8381500D01*
X10136500Y-8540500D02*
X10231500Y-8635500D01*
X10231500Y-8540500D02*
X10136500Y-8635500D01*
X10136500Y-8794500D02*
X10231500Y-8889500D01*
X10231500Y-8794500D02*
X10136500Y-8889500D01*
X10136500Y-9048500D02*
X10231500Y-9143500D01*
X10231500Y-9048500D02*
X10136500Y-9143500D01*
X10136500Y-9302500D02*
X10231500Y-9397500D01*
X10231500Y-9302500D02*
X10136500Y-9397500D01*
X10136500Y-9556500D02*
X10231500Y-9651500D01*
X10231500Y-9556500D02*
X10136500Y-9651500D01*
X10136500Y-9810500D02*
X10231500Y-9905500D01*
X10231500Y-9810500D02*
X10136500Y-9905500D01*
X10136500Y-10064500D02*
X10231500Y-10159500D01*
X10231500Y-10064500D02*
X10136500Y-10159500D01*
X10136500Y-10318500D02*
X10231500Y-10413500D01*
X10231500Y-10318500D02*
X10136500Y-10413500D01*
X10136500Y-10572500D02*
X10231500Y-10667500D01*
X10231500Y-10572500D02*
X10136500Y-10667500D01*
X10136500Y-10826500D02*
X10231500Y-10921500D01*
X10231500Y-10826500D02*
X10136500Y-10921500D01*
X10136500Y-11080500D02*
X10231500Y-11175500D01*
X10231500Y-11080500D02*
X10136500Y-11175500D01*
X10136500Y-11334500D02*
X10231500Y-11429500D01*
X10231500Y-11334500D02*
X10136500Y-11429500D01*
X10136500Y-11588500D02*
X10231500Y-11683500D01*
X10231500Y-11588500D02*
X10136500Y-11683500D01*
X10136500Y-11842500D02*
X10231500Y-11937500D01*
X10231500Y-11842500D02*
X10136500Y-11937500D01*
X10136500Y-12096500D02*
X10231500Y-12191500D01*
X10231500Y-12096500D02*
X10136500Y-12191500D01*
X10136500Y-12350500D02*
X10231500Y-12445500D01*
X10231500Y-12350500D02*
X10136500Y-12445500D01*
X10136500Y-12604500D02*
X10231500Y-12699500D01*
X10231500Y-12604500D02*
X10136500Y-12699500D01*
X10142500Y-12858500D02*
X10237500Y-12953500D01*
X10237500Y-12858500D02*
X10142500Y-12953500D01*
X10142500Y-13112500D02*
X10237500Y-13207500D01*
X10237500Y-13112500D02*
X10142500Y-13207500D01*
X10142500Y-13366500D02*
X10237500Y-13461500D01*
X10237500Y-13366500D02*
X10142500Y-13461500D01*
X10142500Y-13620500D02*
X10237500Y-13715500D01*
X10237500Y-13620500D02*
X10142500Y-13715500D01*
X10142500Y-13874500D02*
X10237500Y-13969500D01*
X10237500Y-13874500D02*
X10142500Y-13969500D01*
X10142500Y-14128500D02*
X10237500Y-14223500D01*
X10237500Y-14128500D02*
X10142500Y-14223500D01*
X10142500Y-14382500D02*
X10237500Y-14477500D01*
X10237500Y-14382500D02*
X10142500Y-14477500D01*
X10142500Y-14636500D02*
X10237500Y-14731500D01*
X10237500Y-14636500D02*
X10142500Y-14731500D01*
X10142500Y-14890500D02*
X10237500Y-14985500D01*
X10237500Y-14890500D02*
X10142500Y-14985500D01*
X10142500Y-15144500D02*
X10237500Y-15239500D01*
X10237500Y-15144500D02*
X10142500Y-15239500D01*
X10142500Y-15398500D02*
X10237500Y-15493500D01*
X10237500Y-15398500D02*
X10142500Y-15493500D01*
X10142500Y-15652500D02*
X10237500Y-15747500D01*
X10237500Y-15652500D02*
X10142500Y-15747500D01*
X10142500Y-15906500D02*
X10237500Y-16001500D01*
X10237500Y-15906500D02*
X10142500Y-16001500D01*
X10142500Y-16160500D02*
X10237500Y-16255500D01*
X10237500Y-16160500D02*
X10142500Y-16255500D01*
X10142500Y-16414500D02*
X10237500Y-16509500D01*
X10237500Y-16414500D02*
X10142500Y-16509500D01*
X10142500Y-16668500D02*
X10237500Y-16763500D01*
X10237500Y-16668500D02*
X10142500Y-16763500D01*
X10142500Y-16922500D02*
X10237500Y-17017500D01*
X10237500Y-16922500D02*
X10142500Y-17017500D01*
X10142500Y-17176500D02*
X10237500Y-17271500D01*
X10237500Y-17176500D02*
X10142500Y-17271500D01*
X10142500Y-17430500D02*
X10237500Y-17525500D01*
X10237500Y-17430500D02*
X10142500Y-17525500D01*
X10142500Y-17684500D02*
X10237500Y-17779500D01*
X10237500Y-17684500D02*
X10142500Y-17779500D01*
X10142500Y-17938500D02*
X10237500Y-18033500D01*
X10237500Y-17938500D02*
X10142500Y-18033500D01*
X10142500Y-18192500D02*
X10237500Y-18287500D01*
X10237500Y-18192500D02*
X10142500Y-18287500D01*
X10142500Y-18446500D02*
X10237500Y-18541500D01*
X10237500Y-18446500D02*
X10142500Y-18541500D01*
X10142500Y-18700500D02*
X10237500Y-18795500D01*
X10237500Y-18700500D02*
X10142500Y-18795500D01*
X10142500Y-18954500D02*
X10237500Y-19049500D01*
X10237500Y-18954500D02*
X10142500Y-19049500D01*
X10142500Y-19208500D02*
X10237500Y-19303500D01*
X10237500Y-19208500D02*
X10142500Y-19303500D01*
X10142500Y-19462500D02*
X10237500Y-19557500D01*
X10237500Y-19462500D02*
X10142500Y-19557500D01*
X10142500Y-19716500D02*
X10237500Y-19811500D01*
X10237500Y-19716500D02*
X10142500Y-19811500D01*
X10142500Y-19970500D02*
X10237500Y-20065500D01*
X10237500Y-19970500D02*
X10142500Y-20065500D01*
X10142500Y-20224500D02*
X10237500Y-20319500D01*
X10237500Y-20224500D02*
X10142500Y-20319500D01*
X10390500Y-5238500D02*
X10485500Y-5333500D01*
X10485500Y-5238500D02*
X10390500Y-5333500D01*
X10390500Y-5492500D02*
X10485500Y-5587500D01*
X10485500Y-5492500D02*
X10390500Y-5587500D01*
X10390500Y-5746500D02*
X10485500Y-5841500D01*
X10485500Y-5746500D02*
X10390500Y-5841500D01*
X10390500Y-6000500D02*
X10485500Y-6095500D01*
X10485500Y-6000500D02*
X10390500Y-6095500D01*
X10390500Y-6254500D02*
X10485500Y-6349500D01*
X10485500Y-6254500D02*
X10390500Y-6349500D01*
X10390500Y-6508500D02*
X10485500Y-6603500D01*
X10485500Y-6508500D02*
X10390500Y-6603500D01*
X10390500Y-6762500D02*
X10485500Y-6857500D01*
X10485500Y-6762500D02*
X10390500Y-6857500D01*
X10390500Y-7016500D02*
X10485500Y-7111500D01*
X10485500Y-7016500D02*
X10390500Y-7111500D01*
X10390500Y-7270500D02*
X10485500Y-7365500D01*
X10485500Y-7270500D02*
X10390500Y-7365500D01*
X10390500Y-7524500D02*
X10485500Y-7619500D01*
X10485500Y-7524500D02*
X10390500Y-7619500D01*
X10390500Y-7778500D02*
X10485500Y-7873500D01*
X10485500Y-7778500D02*
X10390500Y-7873500D01*
X10390500Y-8032500D02*
X10485500Y-8127500D01*
X10485500Y-8032500D02*
X10390500Y-8127500D01*
X10390500Y-8286500D02*
X10485500Y-8381500D01*
X10485500Y-8286500D02*
X10390500Y-8381500D01*
X10390500Y-8540500D02*
X10485500Y-8635500D01*
X10485500Y-8540500D02*
X10390500Y-8635500D01*
X10390500Y-8794500D02*
X10485500Y-8889500D01*
X10485500Y-8794500D02*
X10390500Y-8889500D01*
X10390500Y-9048500D02*
X10485500Y-9143500D01*
X10485500Y-9048500D02*
X10390500Y-9143500D01*
X10390500Y-9302500D02*
X10485500Y-9397500D01*
X10485500Y-9302500D02*
X10390500Y-9397500D01*
X10390500Y-9556500D02*
X10485500Y-9651500D01*
X10485500Y-9556500D02*
X10390500Y-9651500D01*
X10390500Y-9810500D02*
X10485500Y-9905500D01*
X10485500Y-9810500D02*
X10390500Y-9905500D01*
X10390500Y-10064500D02*
X10485500Y-10159500D01*
X10485500Y-10064500D02*
X10390500Y-10159500D01*
X10390500Y-10318500D02*
X10485500Y-10413500D01*
X10485500Y-10318500D02*
X10390500Y-10413500D01*
X10390500Y-10572500D02*
X10485500Y-10667500D01*
X10485500Y-10572500D02*
X10390500Y-10667500D01*
X10390500Y-10826500D02*
X10485500Y-10921500D01*
X10485500Y-10826500D02*
X10390500Y-10921500D01*
X10390500Y-11080500D02*
X10485500Y-11175500D01*
X10485500Y-11080500D02*
X10390500Y-11175500D01*
X10390500Y-11334500D02*
X10485500Y-11429500D01*
X10485500Y-11334500D02*
X10390500Y-11429500D01*
X10390500Y-11588500D02*
X10485500Y-11683500D01*
X10485500Y-11588500D02*
X10390500Y-11683500D01*
X10390500Y-11842500D02*
X10485500Y-11937500D01*
X10485500Y-11842500D02*
X10390500Y-11937500D01*
X10390500Y-12096500D02*
X10485500Y-12191500D01*
X10485500Y-12096500D02*
X10390500Y-12191500D01*
X10390500Y-12350500D02*
X10485500Y-12445500D01*
X10485500Y-12350500D02*
X10390500Y-12445500D01*
X10390500Y-12604500D02*
X10485500Y-12699500D01*
X10485500Y-12604500D02*
X10390500Y-12699500D01*
X10396500Y-12858500D02*
X10491500Y-12953500D01*
X10491500Y-12858500D02*
X10396500Y-12953500D01*
X10396500Y-13112500D02*
X10491500Y-13207500D01*
X10491500Y-13112500D02*
X10396500Y-13207500D01*
X10396500Y-13366500D02*
X10491500Y-13461500D01*
X10491500Y-13366500D02*
X10396500Y-13461500D01*
X10396500Y-13620500D02*
X10491500Y-13715500D01*
X10491500Y-13620500D02*
X10396500Y-13715500D01*
X10396500Y-13874500D02*
X10491500Y-13969500D01*
X10491500Y-13874500D02*
X10396500Y-13969500D01*
X10396500Y-14128500D02*
X10491500Y-14223500D01*
X10491500Y-14128500D02*
X10396500Y-14223500D01*
X10396500Y-14382500D02*
X10491500Y-14477500D01*
X10491500Y-14382500D02*
X10396500Y-14477500D01*
X10396500Y-14636500D02*
X10491500Y-14731500D01*
X10491500Y-14636500D02*
X10396500Y-14731500D01*
X10396500Y-14890500D02*
X10491500Y-14985500D01*
X10491500Y-14890500D02*
X10396500Y-14985500D01*
X10396500Y-15144500D02*
X10491500Y-15239500D01*
X10491500Y-15144500D02*
X10396500Y-15239500D01*
X10396500Y-15398500D02*
X10491500Y-15493500D01*
X10491500Y-15398500D02*
X10396500Y-15493500D01*
X10396500Y-15652500D02*
X10491500Y-15747500D01*
X10491500Y-15652500D02*
X10396500Y-15747500D01*
X10396500Y-15906500D02*
X10491500Y-16001500D01*
X10491500Y-15906500D02*
X10396500Y-16001500D01*
X10396500Y-16160500D02*
X10491500Y-16255500D01*
X10491500Y-16160500D02*
X10396500Y-16255500D01*
X10396500Y-16414500D02*
X10491500Y-16509500D01*
X10491500Y-16414500D02*
X10396500Y-16509500D01*
X10396500Y-16668500D02*
X10491500Y-16763500D01*
X10491500Y-16668500D02*
X10396500Y-16763500D01*
X10396500Y-16922500D02*
X10491500Y-17017500D01*
X10491500Y-16922500D02*
X10396500Y-17017500D01*
X10396500Y-17176500D02*
X10491500Y-17271500D01*
X10491500Y-17176500D02*
X10396500Y-17271500D01*
X10396500Y-17430500D02*
X10491500Y-17525500D01*
X10491500Y-17430500D02*
X10396500Y-17525500D01*
X10396500Y-17684500D02*
X10491500Y-17779500D01*
X10491500Y-17684500D02*
X10396500Y-17779500D01*
X10396500Y-17938500D02*
X10491500Y-18033500D01*
X10491500Y-17938500D02*
X10396500Y-18033500D01*
X10396500Y-18192500D02*
X10491500Y-18287500D01*
X10491500Y-18192500D02*
X10396500Y-18287500D01*
X10396500Y-18446500D02*
X10491500Y-18541500D01*
X10491500Y-18446500D02*
X10396500Y-18541500D01*
X10396500Y-18700500D02*
X10491500Y-18795500D01*
X10491500Y-18700500D02*
X10396500Y-18795500D01*
X10396500Y-18954500D02*
X10491500Y-19049500D01*
X10491500Y-18954500D02*
X10396500Y-19049500D01*
X10396500Y-19208500D02*
X10491500Y-19303500D01*
X10491500Y-19208500D02*
X10396500Y-19303500D01*
X10396500Y-19462500D02*
X10491500Y-19557500D01*
X10491500Y-19462500D02*
X10396500Y-19557500D01*
X10396500Y-19716500D02*
X10491500Y-19811500D01*
X10491500Y-19716500D02*
X10396500Y-19811500D01*
X10396500Y-19970500D02*
X10491500Y-20065500D01*
X10491500Y-19970500D02*
X10396500Y-20065500D01*
X10396500Y-20224500D02*
X10491500Y-20319500D01*
X10491500Y-20224500D02*
X10396500Y-20319500D01*
X10644500Y-5238500D02*
X10739500Y-5333500D01*
X10739500Y-5238500D02*
X10644500Y-5333500D01*
X10644500Y-5492500D02*
X10739500Y-5587500D01*
X10739500Y-5492500D02*
X10644500Y-5587500D01*
X10644500Y-5746500D02*
X10739500Y-5841500D01*
X10739500Y-5746500D02*
X10644500Y-5841500D01*
X10644500Y-6000500D02*
X10739500Y-6095500D01*
X10739500Y-6000500D02*
X10644500Y-6095500D01*
X10644500Y-6254500D02*
X10739500Y-6349500D01*
X10739500Y-6254500D02*
X10644500Y-6349500D01*
X10644500Y-6508500D02*
X10739500Y-6603500D01*
X10739500Y-6508500D02*
X10644500Y-6603500D01*
X10644500Y-6762500D02*
X10739500Y-6857500D01*
X10739500Y-6762500D02*
X10644500Y-6857500D01*
X10644500Y-7016500D02*
X10739500Y-7111500D01*
X10739500Y-7016500D02*
X10644500Y-7111500D01*
X10644500Y-7270500D02*
X10739500Y-7365500D01*
X10739500Y-7270500D02*
X10644500Y-7365500D01*
X10644500Y-7524500D02*
X10739500Y-7619500D01*
X10739500Y-7524500D02*
X10644500Y-7619500D01*
X10644500Y-7778500D02*
X10739500Y-7873500D01*
X10739500Y-7778500D02*
X10644500Y-7873500D01*
X10644500Y-8032500D02*
X10739500Y-8127500D01*
X10739500Y-8032500D02*
X10644500Y-8127500D01*
X10644500Y-8286500D02*
X10739500Y-8381500D01*
X10739500Y-8286500D02*
X10644500Y-8381500D01*
X10644500Y-8540500D02*
X10739500Y-8635500D01*
X10739500Y-8540500D02*
X10644500Y-8635500D01*
X10644500Y-8794500D02*
X10739500Y-8889500D01*
X10739500Y-8794500D02*
X10644500Y-8889500D01*
X10644500Y-9048500D02*
X10739500Y-9143500D01*
X10739500Y-9048500D02*
X10644500Y-9143500D01*
X10644500Y-9302500D02*
X10739500Y-9397500D01*
X10739500Y-9302500D02*
X10644500Y-9397500D01*
X10644500Y-9556500D02*
X10739500Y-9651500D01*
X10739500Y-9556500D02*
X10644500Y-9651500D01*
X10644500Y-9810500D02*
X10739500Y-9905500D01*
X10739500Y-9810500D02*
X10644500Y-9905500D01*
X10644500Y-10064500D02*
X10739500Y-10159500D01*
X10739500Y-10064500D02*
X10644500Y-10159500D01*
X10644500Y-10318500D02*
X10739500Y-10413500D01*
X10739500Y-10318500D02*
X10644500Y-10413500D01*
X10644500Y-10572500D02*
X10739500Y-10667500D01*
X10739500Y-10572500D02*
X10644500Y-10667500D01*
X10644500Y-10826500D02*
X10739500Y-10921500D01*
X10739500Y-10826500D02*
X10644500Y-10921500D01*
X10644500Y-11080500D02*
X10739500Y-11175500D01*
X10739500Y-11080500D02*
X10644500Y-11175500D01*
X10644500Y-11334500D02*
X10739500Y-11429500D01*
X10739500Y-11334500D02*
X10644500Y-11429500D01*
X10644500Y-11588500D02*
X10739500Y-11683500D01*
X10739500Y-11588500D02*
X10644500Y-11683500D01*
X10644500Y-11842500D02*
X10739500Y-11937500D01*
X10739500Y-11842500D02*
X10644500Y-11937500D01*
X10644500Y-12096500D02*
X10739500Y-12191500D01*
X10739500Y-12096500D02*
X10644500Y-12191500D01*
X10644500Y-12350500D02*
X10739500Y-12445500D01*
X10739500Y-12350500D02*
X10644500Y-12445500D01*
X10644500Y-12604500D02*
X10739500Y-12699500D01*
X10739500Y-12604500D02*
X10644500Y-12699500D01*
X10650500Y-12858500D02*
X10745500Y-12953500D01*
X10745500Y-12858500D02*
X10650500Y-12953500D01*
X10650500Y-13112500D02*
X10745500Y-13207500D01*
X10745500Y-13112500D02*
X10650500Y-13207500D01*
X10650500Y-13366500D02*
X10745500Y-13461500D01*
X10745500Y-13366500D02*
X10650500Y-13461500D01*
X10650500Y-13620500D02*
X10745500Y-13715500D01*
X10745500Y-13620500D02*
X10650500Y-13715500D01*
X10650500Y-13874500D02*
X10745500Y-13969500D01*
X10745500Y-13874500D02*
X10650500Y-13969500D01*
X10650500Y-14128500D02*
X10745500Y-14223500D01*
X10745500Y-14128500D02*
X10650500Y-14223500D01*
X10650500Y-14382500D02*
X10745500Y-14477500D01*
X10745500Y-14382500D02*
X10650500Y-14477500D01*
X10650500Y-14636500D02*
X10745500Y-14731500D01*
X10745500Y-14636500D02*
X10650500Y-14731500D01*
X10650500Y-14890500D02*
X10745500Y-14985500D01*
X10745500Y-14890500D02*
X10650500Y-14985500D01*
X10650500Y-15144500D02*
X10745500Y-15239500D01*
X10745500Y-15144500D02*
X10650500Y-15239500D01*
X10650500Y-15398500D02*
X10745500Y-15493500D01*
X10745500Y-15398500D02*
X10650500Y-15493500D01*
X10650500Y-15652500D02*
X10745500Y-15747500D01*
X10745500Y-15652500D02*
X10650500Y-15747500D01*
X10650500Y-15906500D02*
X10745500Y-16001500D01*
X10745500Y-15906500D02*
X10650500Y-16001500D01*
X10650500Y-16160500D02*
X10745500Y-16255500D01*
X10745500Y-16160500D02*
X10650500Y-16255500D01*
X10650500Y-16414500D02*
X10745500Y-16509500D01*
X10745500Y-16414500D02*
X10650500Y-16509500D01*
X10650500Y-16668500D02*
X10745500Y-16763500D01*
X10745500Y-16668500D02*
X10650500Y-16763500D01*
X10650500Y-16922500D02*
X10745500Y-17017500D01*
X10745500Y-16922500D02*
X10650500Y-17017500D01*
X10650500Y-17176500D02*
X10745500Y-17271500D01*
X10745500Y-17176500D02*
X10650500Y-17271500D01*
X10650500Y-17430500D02*
X10745500Y-17525500D01*
X10745500Y-17430500D02*
X10650500Y-17525500D01*
X10650500Y-17684500D02*
X10745500Y-17779500D01*
X10745500Y-17684500D02*
X10650500Y-17779500D01*
X10650500Y-17938500D02*
X10745500Y-18033500D01*
X10745500Y-17938500D02*
X10650500Y-18033500D01*
X10650500Y-18192500D02*
X10745500Y-18287500D01*
X10745500Y-18192500D02*
X10650500Y-18287500D01*
X10650500Y-18446500D02*
X10745500Y-18541500D01*
X10745500Y-18446500D02*
X10650500Y-18541500D01*
X10650500Y-18700500D02*
X10745500Y-18795500D01*
X10745500Y-18700500D02*
X10650500Y-18795500D01*
X10650500Y-18954500D02*
X10745500Y-19049500D01*
X10745500Y-18954500D02*
X10650500Y-19049500D01*
X10650500Y-19208500D02*
X10745500Y-19303500D01*
X10745500Y-19208500D02*
X10650500Y-19303500D01*
X10650500Y-19462500D02*
X10745500Y-19557500D01*
X10745500Y-19462500D02*
X10650500Y-19557500D01*
X10650500Y-19716500D02*
X10745500Y-19811500D01*
X10745500Y-19716500D02*
X10650500Y-19811500D01*
X10650500Y-19970500D02*
X10745500Y-20065500D01*
X10745500Y-19970500D02*
X10650500Y-20065500D01*
X10650500Y-20224500D02*
X10745500Y-20319500D01*
X10745500Y-20224500D02*
X10650500Y-20319500D01*
X10898500Y-5238500D02*
X10993500Y-5333500D01*
X10993500Y-5238500D02*
X10898500Y-5333500D01*
X10898500Y-5492500D02*
X10993500Y-5587500D01*
X10993500Y-5492500D02*
X10898500Y-5587500D01*
X10898500Y-5746500D02*
X10993500Y-5841500D01*
X10993500Y-5746500D02*
X10898500Y-5841500D01*
X10898500Y-6000500D02*
X10993500Y-6095500D01*
X10993500Y-6000500D02*
X10898500Y-6095500D01*
X10898500Y-6254500D02*
X10993500Y-6349500D01*
X10993500Y-6254500D02*
X10898500Y-6349500D01*
X10898500Y-6508500D02*
X10993500Y-6603500D01*
X10993500Y-6508500D02*
X10898500Y-6603500D01*
X10898500Y-6762500D02*
X10993500Y-6857500D01*
X10993500Y-6762500D02*
X10898500Y-6857500D01*
X10898500Y-7016500D02*
X10993500Y-7111500D01*
X10993500Y-7016500D02*
X10898500Y-7111500D01*
X10898500Y-7270500D02*
X10993500Y-7365500D01*
X10993500Y-7270500D02*
X10898500Y-7365500D01*
X10898500Y-7524500D02*
X10993500Y-7619500D01*
X10993500Y-7524500D02*
X10898500Y-7619500D01*
X10898500Y-7778500D02*
X10993500Y-7873500D01*
X10993500Y-7778500D02*
X10898500Y-7873500D01*
X10898500Y-8032500D02*
X10993500Y-8127500D01*
X10993500Y-8032500D02*
X10898500Y-8127500D01*
X10898500Y-8286500D02*
X10993500Y-8381500D01*
X10993500Y-8286500D02*
X10898500Y-8381500D01*
X10898500Y-8540500D02*
X10993500Y-8635500D01*
X10993500Y-8540500D02*
X10898500Y-8635500D01*
X10898500Y-8794500D02*
X10993500Y-8889500D01*
X10993500Y-8794500D02*
X10898500Y-8889500D01*
X10898500Y-9048500D02*
X10993500Y-9143500D01*
X10993500Y-9048500D02*
X10898500Y-9143500D01*
X10898500Y-9302500D02*
X10993500Y-9397500D01*
X10993500Y-9302500D02*
X10898500Y-9397500D01*
X10898500Y-9556500D02*
X10993500Y-9651500D01*
X10993500Y-9556500D02*
X10898500Y-9651500D01*
X10898500Y-9810500D02*
X10993500Y-9905500D01*
X10993500Y-9810500D02*
X10898500Y-9905500D01*
X10898500Y-10064500D02*
X10993500Y-10159500D01*
X10993500Y-10064500D02*
X10898500Y-10159500D01*
X10898500Y-10318500D02*
X10993500Y-10413500D01*
X10993500Y-10318500D02*
X10898500Y-10413500D01*
X10898500Y-10572500D02*
X10993500Y-10667500D01*
X10993500Y-10572500D02*
X10898500Y-10667500D01*
X10898500Y-10826500D02*
X10993500Y-10921500D01*
X10993500Y-10826500D02*
X10898500Y-10921500D01*
X10898500Y-11080500D02*
X10993500Y-11175500D01*
X10993500Y-11080500D02*
X10898500Y-11175500D01*
X10898500Y-11334500D02*
X10993500Y-11429500D01*
X10993500Y-11334500D02*
X10898500Y-11429500D01*
X10898500Y-11588500D02*
X10993500Y-11683500D01*
X10993500Y-11588500D02*
X10898500Y-11683500D01*
X10898500Y-11842500D02*
X10993500Y-11937500D01*
X10993500Y-11842500D02*
X10898500Y-11937500D01*
X10898500Y-12096500D02*
X10993500Y-12191500D01*
X10993500Y-12096500D02*
X10898500Y-12191500D01*
X10898500Y-12350500D02*
X10993500Y-12445500D01*
X10993500Y-12350500D02*
X10898500Y-12445500D01*
X10898500Y-12604500D02*
X10993500Y-12699500D01*
X10993500Y-12604500D02*
X10898500Y-12699500D01*
X10904500Y-12858500D02*
X10999500Y-12953500D01*
X10999500Y-12858500D02*
X10904500Y-12953500D01*
X10904500Y-13112500D02*
X10999500Y-13207500D01*
X10999500Y-13112500D02*
X10904500Y-13207500D01*
X10904500Y-13366500D02*
X10999500Y-13461500D01*
X10999500Y-13366500D02*
X10904500Y-13461500D01*
X10904500Y-13620500D02*
X10999500Y-13715500D01*
X10999500Y-13620500D02*
X10904500Y-13715500D01*
X10904500Y-13874500D02*
X10999500Y-13969500D01*
X10999500Y-13874500D02*
X10904500Y-13969500D01*
X10904500Y-14128500D02*
X10999500Y-14223500D01*
X10999500Y-14128500D02*
X10904500Y-14223500D01*
X10904500Y-14382500D02*
X10999500Y-14477500D01*
X10999500Y-14382500D02*
X10904500Y-14477500D01*
X10904500Y-14636500D02*
X10999500Y-14731500D01*
X10999500Y-14636500D02*
X10904500Y-14731500D01*
X10904500Y-14890500D02*
X10999500Y-14985500D01*
X10999500Y-14890500D02*
X10904500Y-14985500D01*
X10904500Y-15144500D02*
X10999500Y-15239500D01*
X10999500Y-15144500D02*
X10904500Y-15239500D01*
X10904500Y-15398500D02*
X10999500Y-15493500D01*
X10999500Y-15398500D02*
X10904500Y-15493500D01*
X10904500Y-15652500D02*
X10999500Y-15747500D01*
X10999500Y-15652500D02*
X10904500Y-15747500D01*
X10904500Y-15906500D02*
X10999500Y-16001500D01*
X10999500Y-15906500D02*
X10904500Y-16001500D01*
X10904500Y-16160500D02*
X10999500Y-16255500D01*
X10999500Y-16160500D02*
X10904500Y-16255500D01*
X10904500Y-16414500D02*
X10999500Y-16509500D01*
X10999500Y-16414500D02*
X10904500Y-16509500D01*
X10904500Y-16668500D02*
X10999500Y-16763500D01*
X10999500Y-16668500D02*
X10904500Y-16763500D01*
X10904500Y-16922500D02*
X10999500Y-17017500D01*
X10999500Y-16922500D02*
X10904500Y-17017500D01*
X10904500Y-17176500D02*
X10999500Y-17271500D01*
X10999500Y-17176500D02*
X10904500Y-17271500D01*
X10904500Y-17430500D02*
X10999500Y-17525500D01*
X10999500Y-17430500D02*
X10904500Y-17525500D01*
X10904500Y-17684500D02*
X10999500Y-17779500D01*
X10999500Y-17684500D02*
X10904500Y-17779500D01*
X10904500Y-17938500D02*
X10999500Y-18033500D01*
X10999500Y-17938500D02*
X10904500Y-18033500D01*
X10904500Y-18192500D02*
X10999500Y-18287500D01*
X10999500Y-18192500D02*
X10904500Y-18287500D01*
X10904500Y-18446500D02*
X10999500Y-18541500D01*
X10999500Y-18446500D02*
X10904500Y-18541500D01*
X10904500Y-18700500D02*
X10999500Y-18795500D01*
X10999500Y-18700500D02*
X10904500Y-18795500D01*
X10904500Y-18954500D02*
X10999500Y-19049500D01*
X10999500Y-18954500D02*
X10904500Y-19049500D01*
X10904500Y-19208500D02*
X10999500Y-19303500D01*
X10999500Y-19208500D02*
X10904500Y-19303500D01*
X10904500Y-19462500D02*
X10999500Y-19557500D01*
X10999500Y-19462500D02*
X10904500Y-19557500D01*
X10904500Y-19716500D02*
X10999500Y-19811500D01*
X10999500Y-19716500D02*
X10904500Y-19811500D01*
X10904500Y-19970500D02*
X10999500Y-20065500D01*
X10999500Y-19970500D02*
X10904500Y-20065500D01*
X10904500Y-20224500D02*
X10999500Y-20319500D01*
X10999500Y-20224500D02*
X10904500Y-20319500D01*
X11406500Y-5238500D02*
X11501500Y-5333500D01*
X11501500Y-5238500D02*
X11406500Y-5333500D01*
X11406500Y-5492500D02*
X11501500Y-5587500D01*
X11501500Y-5492500D02*
X11406500Y-5587500D01*
X11406500Y-5746500D02*
X11501500Y-5841500D01*
X11501500Y-5746500D02*
X11406500Y-5841500D01*
X11406500Y-6000500D02*
X11501500Y-6095500D01*
X11501500Y-6000500D02*
X11406500Y-6095500D01*
X11406500Y-6254500D02*
X11501500Y-6349500D01*
X11501500Y-6254500D02*
X11406500Y-6349500D01*
X11406500Y-6508500D02*
X11501500Y-6603500D01*
X11501500Y-6508500D02*
X11406500Y-6603500D01*
X11406500Y-6762500D02*
X11501500Y-6857500D01*
X11501500Y-6762500D02*
X11406500Y-6857500D01*
X11406500Y-7016500D02*
X11501500Y-7111500D01*
X11501500Y-7016500D02*
X11406500Y-7111500D01*
X11406500Y-7270500D02*
X11501500Y-7365500D01*
X11501500Y-7270500D02*
X11406500Y-7365500D01*
X11406500Y-7524500D02*
X11501500Y-7619500D01*
X11501500Y-7524500D02*
X11406500Y-7619500D01*
X11406500Y-7778500D02*
X11501500Y-7873500D01*
X11501500Y-7778500D02*
X11406500Y-7873500D01*
X11406500Y-8032500D02*
X11501500Y-8127500D01*
X11501500Y-8032500D02*
X11406500Y-8127500D01*
X11406500Y-8286500D02*
X11501500Y-8381500D01*
X11501500Y-8286500D02*
X11406500Y-8381500D01*
X11406500Y-8540500D02*
X11501500Y-8635500D01*
X11501500Y-8540500D02*
X11406500Y-8635500D01*
X11406500Y-8794500D02*
X11501500Y-8889500D01*
X11501500Y-8794500D02*
X11406500Y-8889500D01*
X11406500Y-9048500D02*
X11501500Y-9143500D01*
X11501500Y-9048500D02*
X11406500Y-9143500D01*
X11406500Y-9302500D02*
X11501500Y-9397500D01*
X11501500Y-9302500D02*
X11406500Y-9397500D01*
X11406500Y-9556500D02*
X11501500Y-9651500D01*
X11501500Y-9556500D02*
X11406500Y-9651500D01*
X11406500Y-9810500D02*
X11501500Y-9905500D01*
X11501500Y-9810500D02*
X11406500Y-9905500D01*
X11406500Y-10064500D02*
X11501500Y-10159500D01*
X11501500Y-10064500D02*
X11406500Y-10159500D01*
X11406500Y-10318500D02*
X11501500Y-10413500D01*
X11501500Y-10318500D02*
X11406500Y-10413500D01*
X11406500Y-10572500D02*
X11501500Y-10667500D01*
X11501500Y-10572500D02*
X11406500Y-10667500D01*
X11406500Y-10826500D02*
X11501500Y-10921500D01*
X11501500Y-10826500D02*
X11406500Y-10921500D01*
X11406500Y-11080500D02*
X11501500Y-11175500D01*
X11501500Y-11080500D02*
X11406500Y-11175500D01*
X11406500Y-11334500D02*
X11501500Y-11429500D01*
X11501500Y-11334500D02*
X11406500Y-11429500D01*
X11406500Y-11588500D02*
X11501500Y-11683500D01*
X11501500Y-11588500D02*
X11406500Y-11683500D01*
X11406500Y-11842500D02*
X11501500Y-11937500D01*
X11501500Y-11842500D02*
X11406500Y-11937500D01*
X11406500Y-12096500D02*
X11501500Y-12191500D01*
X11501500Y-12096500D02*
X11406500Y-12191500D01*
X11406500Y-12350500D02*
X11501500Y-12445500D01*
X11501500Y-12350500D02*
X11406500Y-12445500D01*
X11406500Y-12604500D02*
X11501500Y-12699500D01*
X11501500Y-12604500D02*
X11406500Y-12699500D01*
X11412500Y-12858500D02*
X11507500Y-12953500D01*
X11507500Y-12858500D02*
X11412500Y-12953500D01*
X11412500Y-13112500D02*
X11507500Y-13207500D01*
X11507500Y-13112500D02*
X11412500Y-13207500D01*
X11412500Y-13366500D02*
X11507500Y-13461500D01*
X11507500Y-13366500D02*
X11412500Y-13461500D01*
X11412500Y-13620500D02*
X11507500Y-13715500D01*
X11507500Y-13620500D02*
X11412500Y-13715500D01*
X11412500Y-13874500D02*
X11507500Y-13969500D01*
X11507500Y-13874500D02*
X11412500Y-13969500D01*
X11412500Y-14128500D02*
X11507500Y-14223500D01*
X11507500Y-14128500D02*
X11412500Y-14223500D01*
X11412500Y-14382500D02*
X11507500Y-14477500D01*
X11507500Y-14382500D02*
X11412500Y-14477500D01*
X11412500Y-14636500D02*
X11507500Y-14731500D01*
X11507500Y-14636500D02*
X11412500Y-14731500D01*
X11412500Y-14890500D02*
X11507500Y-14985500D01*
X11507500Y-14890500D02*
X11412500Y-14985500D01*
X11412500Y-15144500D02*
X11507500Y-15239500D01*
X11507500Y-15144500D02*
X11412500Y-15239500D01*
X11412500Y-15398500D02*
X11507500Y-15493500D01*
X11507500Y-15398500D02*
X11412500Y-15493500D01*
X11412500Y-15652500D02*
X11507500Y-15747500D01*
X11507500Y-15652500D02*
X11412500Y-15747500D01*
X11412500Y-15906500D02*
X11507500Y-16001500D01*
X11507500Y-15906500D02*
X11412500Y-16001500D01*
X11412500Y-16160500D02*
X11507500Y-16255500D01*
X11507500Y-16160500D02*
X11412500Y-16255500D01*
X11412500Y-16414500D02*
X11507500Y-16509500D01*
X11507500Y-16414500D02*
X11412500Y-16509500D01*
X11412500Y-16668500D02*
X11507500Y-16763500D01*
X11507500Y-16668500D02*
X11412500Y-16763500D01*
X11412500Y-16922500D02*
X11507500Y-17017500D01*
X11507500Y-16922500D02*
X11412500Y-17017500D01*
X11412500Y-17176500D02*
X11507500Y-17271500D01*
X11507500Y-17176500D02*
X11412500Y-17271500D01*
X11412500Y-17430500D02*
X11507500Y-17525500D01*
X11507500Y-17430500D02*
X11412500Y-17525500D01*
X11412500Y-17684500D02*
X11507500Y-17779500D01*
X11507500Y-17684500D02*
X11412500Y-17779500D01*
X11412500Y-17938500D02*
X11507500Y-18033500D01*
X11507500Y-17938500D02*
X11412500Y-18033500D01*
X11412500Y-18192500D02*
X11507500Y-18287500D01*
X11507500Y-18192500D02*
X11412500Y-18287500D01*
X11412500Y-18446500D02*
X11507500Y-18541500D01*
X11507500Y-18446500D02*
X11412500Y-18541500D01*
X11412500Y-18700500D02*
X11507500Y-18795500D01*
X11507500Y-18700500D02*
X11412500Y-18795500D01*
X11412500Y-18954500D02*
X11507500Y-19049500D01*
X11507500Y-18954500D02*
X11412500Y-19049500D01*
X11412500Y-19208500D02*
X11507500Y-19303500D01*
X11507500Y-19208500D02*
X11412500Y-19303500D01*
X11412500Y-19462500D02*
X11507500Y-19557500D01*
X11507500Y-19462500D02*
X11412500Y-19557500D01*
X11412500Y-19716500D02*
X11507500Y-19811500D01*
X11507500Y-19716500D02*
X11412500Y-19811500D01*
X11412500Y-19970500D02*
X11507500Y-20065500D01*
X11507500Y-19970500D02*
X11412500Y-20065500D01*
X11412500Y-20224500D02*
X11507500Y-20319500D01*
X11507500Y-20224500D02*
X11412500Y-20319500D01*
X11660500Y-5238500D02*
X11755500Y-5333500D01*
X11755500Y-5238500D02*
X11660500Y-5333500D01*
X11660500Y-5492500D02*
X11755500Y-5587500D01*
X11755500Y-5492500D02*
X11660500Y-5587500D01*
X11660500Y-5746500D02*
X11755500Y-5841500D01*
X11755500Y-5746500D02*
X11660500Y-5841500D01*
X11660500Y-6000500D02*
X11755500Y-6095500D01*
X11755500Y-6000500D02*
X11660500Y-6095500D01*
X11660500Y-6254500D02*
X11755500Y-6349500D01*
X11755500Y-6254500D02*
X11660500Y-6349500D01*
X11660500Y-6508500D02*
X11755500Y-6603500D01*
X11755500Y-6508500D02*
X11660500Y-6603500D01*
X11660500Y-6762500D02*
X11755500Y-6857500D01*
X11755500Y-6762500D02*
X11660500Y-6857500D01*
X11660500Y-7016500D02*
X11755500Y-7111500D01*
X11755500Y-7016500D02*
X11660500Y-7111500D01*
X11660500Y-7270500D02*
X11755500Y-7365500D01*
X11755500Y-7270500D02*
X11660500Y-7365500D01*
X11660500Y-7524500D02*
X11755500Y-7619500D01*
X11755500Y-7524500D02*
X11660500Y-7619500D01*
X11660500Y-7778500D02*
X11755500Y-7873500D01*
X11755500Y-7778500D02*
X11660500Y-7873500D01*
X11660500Y-8032500D02*
X11755500Y-8127500D01*
X11755500Y-8032500D02*
X11660500Y-8127500D01*
X11660500Y-8286500D02*
X11755500Y-8381500D01*
X11755500Y-8286500D02*
X11660500Y-8381500D01*
X11660500Y-8540500D02*
X11755500Y-8635500D01*
X11755500Y-8540500D02*
X11660500Y-8635500D01*
X11660500Y-8794500D02*
X11755500Y-8889500D01*
X11755500Y-8794500D02*
X11660500Y-8889500D01*
X11660500Y-9048500D02*
X11755500Y-9143500D01*
X11755500Y-9048500D02*
X11660500Y-9143500D01*
X11660500Y-9302500D02*
X11755500Y-9397500D01*
X11755500Y-9302500D02*
X11660500Y-9397500D01*
X11660500Y-9556500D02*
X11755500Y-9651500D01*
X11755500Y-9556500D02*
X11660500Y-9651500D01*
X11660500Y-9810500D02*
X11755500Y-9905500D01*
X11755500Y-9810500D02*
X11660500Y-9905500D01*
X11660500Y-10064500D02*
X11755500Y-10159500D01*
X11755500Y-10064500D02*
X11660500Y-10159500D01*
X11660500Y-10318500D02*
X11755500Y-10413500D01*
X11755500Y-10318500D02*
X11660500Y-10413500D01*
X11660500Y-10572500D02*
X11755500Y-10667500D01*
X11755500Y-10572500D02*
X11660500Y-10667500D01*
X11660500Y-10826500D02*
X11755500Y-10921500D01*
X11755500Y-10826500D02*
X11660500Y-10921500D01*
X11660500Y-11080500D02*
X11755500Y-11175500D01*
X11755500Y-11080500D02*
X11660500Y-11175500D01*
X11660500Y-11334500D02*
X11755500Y-11429500D01*
X11755500Y-11334500D02*
X11660500Y-11429500D01*
X11660500Y-11588500D02*
X11755500Y-11683500D01*
X11755500Y-11588500D02*
X11660500Y-11683500D01*
X11660500Y-11842500D02*
X11755500Y-11937500D01*
X11755500Y-11842500D02*
X11660500Y-11937500D01*
X11660500Y-12096500D02*
X11755500Y-12191500D01*
X11755500Y-12096500D02*
X11660500Y-12191500D01*
X11660500Y-12350500D02*
X11755500Y-12445500D01*
X11755500Y-12350500D02*
X11660500Y-12445500D01*
X11660500Y-12604500D02*
X11755500Y-12699500D01*
X11755500Y-12604500D02*
X11660500Y-12699500D01*
X11666500Y-12858500D02*
X11761500Y-12953500D01*
X11761500Y-12858500D02*
X11666500Y-12953500D01*
X11666500Y-13112500D02*
X11761500Y-13207500D01*
X11761500Y-13112500D02*
X11666500Y-13207500D01*
X11666500Y-13366500D02*
X11761500Y-13461500D01*
X11761500Y-13366500D02*
X11666500Y-13461500D01*
X11666500Y-13620500D02*
X11761500Y-13715500D01*
X11761500Y-13620500D02*
X11666500Y-13715500D01*
X11666500Y-13874500D02*
X11761500Y-13969500D01*
X11761500Y-13874500D02*
X11666500Y-13969500D01*
X11666500Y-14128500D02*
X11761500Y-14223500D01*
X11761500Y-14128500D02*
X11666500Y-14223500D01*
X11666500Y-14382500D02*
X11761500Y-14477500D01*
X11761500Y-14382500D02*
X11666500Y-14477500D01*
X11666500Y-14636500D02*
X11761500Y-14731500D01*
X11761500Y-14636500D02*
X11666500Y-14731500D01*
X11666500Y-14890500D02*
X11761500Y-14985500D01*
X11761500Y-14890500D02*
X11666500Y-14985500D01*
X11666500Y-15144500D02*
X11761500Y-15239500D01*
X11761500Y-15144500D02*
X11666500Y-15239500D01*
X11666500Y-15398500D02*
X11761500Y-15493500D01*
X11761500Y-15398500D02*
X11666500Y-15493500D01*
X11666500Y-15652500D02*
X11761500Y-15747500D01*
X11761500Y-15652500D02*
X11666500Y-15747500D01*
X11666500Y-15906500D02*
X11761500Y-16001500D01*
X11761500Y-15906500D02*
X11666500Y-16001500D01*
X11666500Y-16160500D02*
X11761500Y-16255500D01*
X11761500Y-16160500D02*
X11666500Y-16255500D01*
X11666500Y-16414500D02*
X11761500Y-16509500D01*
X11761500Y-16414500D02*
X11666500Y-16509500D01*
X11666500Y-16668500D02*
X11761500Y-16763500D01*
X11761500Y-16668500D02*
X11666500Y-16763500D01*
X11666500Y-16922500D02*
X11761500Y-17017500D01*
X11761500Y-16922500D02*
X11666500Y-17017500D01*
X11666500Y-17176500D02*
X11761500Y-17271500D01*
X11761500Y-17176500D02*
X11666500Y-17271500D01*
X11666500Y-17430500D02*
X11761500Y-17525500D01*
X11761500Y-17430500D02*
X11666500Y-17525500D01*
X11666500Y-17684500D02*
X11761500Y-17779500D01*
X11761500Y-17684500D02*
X11666500Y-17779500D01*
X11666500Y-17938500D02*
X11761500Y-18033500D01*
X11761500Y-17938500D02*
X11666500Y-18033500D01*
X11666500Y-18192500D02*
X11761500Y-18287500D01*
X11761500Y-18192500D02*
X11666500Y-18287500D01*
X11666500Y-18446500D02*
X11761500Y-18541500D01*
X11761500Y-18446500D02*
X11666500Y-18541500D01*
X11666500Y-18700500D02*
X11761500Y-18795500D01*
X11761500Y-18700500D02*
X11666500Y-18795500D01*
X11666500Y-18954500D02*
X11761500Y-19049500D01*
X11761500Y-18954500D02*
X11666500Y-19049500D01*
X11666500Y-19208500D02*
X11761500Y-19303500D01*
X11761500Y-19208500D02*
X11666500Y-19303500D01*
X11666500Y-19462500D02*
X11761500Y-19557500D01*
X11761500Y-19462500D02*
X11666500Y-19557500D01*
X11666500Y-19716500D02*
X11761500Y-19811500D01*
X11761500Y-19716500D02*
X11666500Y-19811500D01*
X11666500Y-19970500D02*
X11761500Y-20065500D01*
X11761500Y-19970500D02*
X11666500Y-20065500D01*
X11666500Y-20224500D02*
X11761500Y-20319500D01*
X11761500Y-20224500D02*
X11666500Y-20319500D01*
X11914500Y-5238500D02*
X12009500Y-5333500D01*
X12009500Y-5238500D02*
X11914500Y-5333500D01*
X11914500Y-5492500D02*
X12009500Y-5587500D01*
X12009500Y-5492500D02*
X11914500Y-5587500D01*
X11914500Y-5746500D02*
X12009500Y-5841500D01*
X12009500Y-5746500D02*
X11914500Y-5841500D01*
X11914500Y-6000500D02*
X12009500Y-6095500D01*
X12009500Y-6000500D02*
X11914500Y-6095500D01*
X11914500Y-6254500D02*
X12009500Y-6349500D01*
X12009500Y-6254500D02*
X11914500Y-6349500D01*
X11914500Y-6508500D02*
X12009500Y-6603500D01*
X12009500Y-6508500D02*
X11914500Y-6603500D01*
X11914500Y-6762500D02*
X12009500Y-6857500D01*
X12009500Y-6762500D02*
X11914500Y-6857500D01*
X11914500Y-7016500D02*
X12009500Y-7111500D01*
X12009500Y-7016500D02*
X11914500Y-7111500D01*
X11914500Y-7270500D02*
X12009500Y-7365500D01*
X12009500Y-7270500D02*
X11914500Y-7365500D01*
X11914500Y-7524500D02*
X12009500Y-7619500D01*
X12009500Y-7524500D02*
X11914500Y-7619500D01*
X11914500Y-7778500D02*
X12009500Y-7873500D01*
X12009500Y-7778500D02*
X11914500Y-7873500D01*
X11914500Y-8032500D02*
X12009500Y-8127500D01*
X12009500Y-8032500D02*
X11914500Y-8127500D01*
X11914500Y-8286500D02*
X12009500Y-8381500D01*
X12009500Y-8286500D02*
X11914500Y-8381500D01*
X11914500Y-8540500D02*
X12009500Y-8635500D01*
X12009500Y-8540500D02*
X11914500Y-8635500D01*
X11914500Y-8794500D02*
X12009500Y-8889500D01*
X12009500Y-8794500D02*
X11914500Y-8889500D01*
X11914500Y-9048500D02*
X12009500Y-9143500D01*
X12009500Y-9048500D02*
X11914500Y-9143500D01*
X11914500Y-9302500D02*
X12009500Y-9397500D01*
X12009500Y-9302500D02*
X11914500Y-9397500D01*
X11914500Y-9556500D02*
X12009500Y-9651500D01*
X12009500Y-9556500D02*
X11914500Y-9651500D01*
X11914500Y-9810500D02*
X12009500Y-9905500D01*
X12009500Y-9810500D02*
X11914500Y-9905500D01*
X11914500Y-10064500D02*
X12009500Y-10159500D01*
X12009500Y-10064500D02*
X11914500Y-10159500D01*
X11914500Y-10318500D02*
X12009500Y-10413500D01*
X12009500Y-10318500D02*
X11914500Y-10413500D01*
X11914500Y-10572500D02*
X12009500Y-10667500D01*
X12009500Y-10572500D02*
X11914500Y-10667500D01*
X11914500Y-10826500D02*
X12009500Y-10921500D01*
X12009500Y-10826500D02*
X11914500Y-10921500D01*
X11914500Y-11080500D02*
X12009500Y-11175500D01*
X12009500Y-11080500D02*
X11914500Y-11175500D01*
X11914500Y-11334500D02*
X12009500Y-11429500D01*
X12009500Y-11334500D02*
X11914500Y-11429500D01*
X11914500Y-11588500D02*
X12009500Y-11683500D01*
X12009500Y-11588500D02*
X11914500Y-11683500D01*
X11914500Y-11842500D02*
X12009500Y-11937500D01*
X12009500Y-11842500D02*
X11914500Y-11937500D01*
X11914500Y-12096500D02*
X12009500Y-12191500D01*
X12009500Y-12096500D02*
X11914500Y-12191500D01*
X11914500Y-12350500D02*
X12009500Y-12445500D01*
X12009500Y-12350500D02*
X11914500Y-12445500D01*
X11914500Y-12604500D02*
X12009500Y-12699500D01*
X12009500Y-12604500D02*
X11914500Y-12699500D01*
X11920500Y-12858500D02*
X12015500Y-12953500D01*
X12015500Y-12858500D02*
X11920500Y-12953500D01*
X11920500Y-13112500D02*
X12015500Y-13207500D01*
X12015500Y-13112500D02*
X11920500Y-13207500D01*
X11920500Y-13366500D02*
X12015500Y-13461500D01*
X12015500Y-13366500D02*
X11920500Y-13461500D01*
X11920500Y-13620500D02*
X12015500Y-13715500D01*
X12015500Y-13620500D02*
X11920500Y-13715500D01*
X11920500Y-13874500D02*
X12015500Y-13969500D01*
X12015500Y-13874500D02*
X11920500Y-13969500D01*
X11920500Y-14128500D02*
X12015500Y-14223500D01*
X12015500Y-14128500D02*
X11920500Y-14223500D01*
X11920500Y-14382500D02*
X12015500Y-14477500D01*
X12015500Y-14382500D02*
X11920500Y-14477500D01*
X11920500Y-14636500D02*
X12015500Y-14731500D01*
X12015500Y-14636500D02*
X11920500Y-14731500D01*
X11920500Y-14890500D02*
X12015500Y-14985500D01*
X12015500Y-14890500D02*
X11920500Y-14985500D01*
X11920500Y-15144500D02*
X12015500Y-15239500D01*
X12015500Y-15144500D02*
X11920500Y-15239500D01*
X11920500Y-15398500D02*
X12015500Y-15493500D01*
X12015500Y-15398500D02*
X11920500Y-15493500D01*
X11920500Y-15652500D02*
X12015500Y-15747500D01*
X12015500Y-15652500D02*
X11920500Y-15747500D01*
X11920500Y-15906500D02*
X12015500Y-16001500D01*
X12015500Y-15906500D02*
X11920500Y-16001500D01*
X11920500Y-16160500D02*
X12015500Y-16255500D01*
X12015500Y-16160500D02*
X11920500Y-16255500D01*
X11920500Y-16414500D02*
X12015500Y-16509500D01*
X12015500Y-16414500D02*
X11920500Y-16509500D01*
X11920500Y-16668500D02*
X12015500Y-16763500D01*
X12015500Y-16668500D02*
X11920500Y-16763500D01*
X11920500Y-16922500D02*
X12015500Y-17017500D01*
X12015500Y-16922500D02*
X11920500Y-17017500D01*
X11920500Y-17176500D02*
X12015500Y-17271500D01*
X12015500Y-17176500D02*
X11920500Y-17271500D01*
X11920500Y-17430500D02*
X12015500Y-17525500D01*
X12015500Y-17430500D02*
X11920500Y-17525500D01*
X11920500Y-17684500D02*
X12015500Y-17779500D01*
X12015500Y-17684500D02*
X11920500Y-17779500D01*
X11920500Y-17938500D02*
X12015500Y-18033500D01*
X12015500Y-17938500D02*
X11920500Y-18033500D01*
X11920500Y-18192500D02*
X12015500Y-18287500D01*
X12015500Y-18192500D02*
X11920500Y-18287500D01*
X11920500Y-18446500D02*
X12015500Y-18541500D01*
X12015500Y-18446500D02*
X11920500Y-18541500D01*
X11920500Y-18700500D02*
X12015500Y-18795500D01*
X12015500Y-18700500D02*
X11920500Y-18795500D01*
X11920500Y-18954500D02*
X12015500Y-19049500D01*
X12015500Y-18954500D02*
X11920500Y-19049500D01*
X11920500Y-19208500D02*
X12015500Y-19303500D01*
X12015500Y-19208500D02*
X11920500Y-19303500D01*
X11920500Y-19462500D02*
X12015500Y-19557500D01*
X12015500Y-19462500D02*
X11920500Y-19557500D01*
X11920500Y-19716500D02*
X12015500Y-19811500D01*
X12015500Y-19716500D02*
X11920500Y-19811500D01*
X11920500Y-19970500D02*
X12015500Y-20065500D01*
X12015500Y-19970500D02*
X11920500Y-20065500D01*
X11920500Y-20224500D02*
X12015500Y-20319500D01*
X12015500Y-20224500D02*
X11920500Y-20319500D01*
X12168500Y-5238500D02*
X12263500Y-5333500D01*
X12263500Y-5238500D02*
X12168500Y-5333500D01*
X12168500Y-5492500D02*
X12263500Y-5587500D01*
X12263500Y-5492500D02*
X12168500Y-5587500D01*
X12168500Y-5746500D02*
X12263500Y-5841500D01*
X12263500Y-5746500D02*
X12168500Y-5841500D01*
X12168500Y-6000500D02*
X12263500Y-6095500D01*
X12263500Y-6000500D02*
X12168500Y-6095500D01*
X12168500Y-6254500D02*
X12263500Y-6349500D01*
X12263500Y-6254500D02*
X12168500Y-6349500D01*
X12168500Y-6508500D02*
X12263500Y-6603500D01*
X12263500Y-6508500D02*
X12168500Y-6603500D01*
X12168500Y-6762500D02*
X12263500Y-6857500D01*
X12263500Y-6762500D02*
X12168500Y-6857500D01*
X12168500Y-7016500D02*
X12263500Y-7111500D01*
X12263500Y-7016500D02*
X12168500Y-7111500D01*
X12168500Y-7270500D02*
X12263500Y-7365500D01*
X12263500Y-7270500D02*
X12168500Y-7365500D01*
X12168500Y-7524500D02*
X12263500Y-7619500D01*
X12263500Y-7524500D02*
X12168500Y-7619500D01*
X12168500Y-7778500D02*
X12263500Y-7873500D01*
X12263500Y-7778500D02*
X12168500Y-7873500D01*
X12168500Y-8032500D02*
X12263500Y-8127500D01*
X12263500Y-8032500D02*
X12168500Y-8127500D01*
X12168500Y-8286500D02*
X12263500Y-8381500D01*
X12263500Y-8286500D02*
X12168500Y-8381500D01*
X12168500Y-8540500D02*
X12263500Y-8635500D01*
X12263500Y-8540500D02*
X12168500Y-8635500D01*
X12168500Y-8794500D02*
X12263500Y-8889500D01*
X12263500Y-8794500D02*
X12168500Y-8889500D01*
X12168500Y-9048500D02*
X12263500Y-9143500D01*
X12263500Y-9048500D02*
X12168500Y-9143500D01*
X12168500Y-9302500D02*
X12263500Y-9397500D01*
X12263500Y-9302500D02*
X12168500Y-9397500D01*
X12168500Y-9556500D02*
X12263500Y-9651500D01*
X12263500Y-9556500D02*
X12168500Y-9651500D01*
X12168500Y-9810500D02*
X12263500Y-9905500D01*
X12263500Y-9810500D02*
X12168500Y-9905500D01*
X12168500Y-10064500D02*
X12263500Y-10159500D01*
X12263500Y-10064500D02*
X12168500Y-10159500D01*
X12168500Y-10318500D02*
X12263500Y-10413500D01*
X12263500Y-10318500D02*
X12168500Y-10413500D01*
X12168500Y-10572500D02*
X12263500Y-10667500D01*
X12263500Y-10572500D02*
X12168500Y-10667500D01*
X12168500Y-10826500D02*
X12263500Y-10921500D01*
X12263500Y-10826500D02*
X12168500Y-10921500D01*
X12168500Y-11080500D02*
X12263500Y-11175500D01*
X12263500Y-11080500D02*
X12168500Y-11175500D01*
X12168500Y-11334500D02*
X12263500Y-11429500D01*
X12263500Y-11334500D02*
X12168500Y-11429500D01*
X12168500Y-11588500D02*
X12263500Y-11683500D01*
X12263500Y-11588500D02*
X12168500Y-11683500D01*
X12168500Y-11842500D02*
X12263500Y-11937500D01*
X12263500Y-11842500D02*
X12168500Y-11937500D01*
X12168500Y-12096500D02*
X12263500Y-12191500D01*
X12263500Y-12096500D02*
X12168500Y-12191500D01*
X12168500Y-12350500D02*
X12263500Y-12445500D01*
X12263500Y-12350500D02*
X12168500Y-12445500D01*
X12168500Y-12604500D02*
X12263500Y-12699500D01*
X12263500Y-12604500D02*
X12168500Y-12699500D01*
X12174500Y-12858500D02*
X12269500Y-12953500D01*
X12269500Y-12858500D02*
X12174500Y-12953500D01*
X12174500Y-13112500D02*
X12269500Y-13207500D01*
X12269500Y-13112500D02*
X12174500Y-13207500D01*
X12174500Y-13366500D02*
X12269500Y-13461500D01*
X12269500Y-13366500D02*
X12174500Y-13461500D01*
X12174500Y-13620500D02*
X12269500Y-13715500D01*
X12269500Y-13620500D02*
X12174500Y-13715500D01*
X12174500Y-13874500D02*
X12269500Y-13969500D01*
X12269500Y-13874500D02*
X12174500Y-13969500D01*
X12174500Y-14128500D02*
X12269500Y-14223500D01*
X12269500Y-14128500D02*
X12174500Y-14223500D01*
X12174500Y-14382500D02*
X12269500Y-14477500D01*
X12269500Y-14382500D02*
X12174500Y-14477500D01*
X12174500Y-14636500D02*
X12269500Y-14731500D01*
X12269500Y-14636500D02*
X12174500Y-14731500D01*
X12174500Y-14890500D02*
X12269500Y-14985500D01*
X12269500Y-14890500D02*
X12174500Y-14985500D01*
X12174500Y-15144500D02*
X12269500Y-15239500D01*
X12269500Y-15144500D02*
X12174500Y-15239500D01*
X12174500Y-15398500D02*
X12269500Y-15493500D01*
X12269500Y-15398500D02*
X12174500Y-15493500D01*
X12174500Y-15652500D02*
X12269500Y-15747500D01*
X12269500Y-15652500D02*
X12174500Y-15747500D01*
X12174500Y-15906500D02*
X12269500Y-16001500D01*
X12269500Y-15906500D02*
X12174500Y-16001500D01*
X12174500Y-16160500D02*
X12269500Y-16255500D01*
X12269500Y-16160500D02*
X12174500Y-16255500D01*
X12174500Y-16414500D02*
X12269500Y-16509500D01*
X12269500Y-16414500D02*
X12174500Y-16509500D01*
X12174500Y-16668500D02*
X12269500Y-16763500D01*
X12269500Y-16668500D02*
X12174500Y-16763500D01*
X12174500Y-16922500D02*
X12269500Y-17017500D01*
X12269500Y-16922500D02*
X12174500Y-17017500D01*
X12174500Y-17176500D02*
X12269500Y-17271500D01*
X12269500Y-17176500D02*
X12174500Y-17271500D01*
X12174500Y-17430500D02*
X12269500Y-17525500D01*
X12269500Y-17430500D02*
X12174500Y-17525500D01*
X12174500Y-17684500D02*
X12269500Y-17779500D01*
X12269500Y-17684500D02*
X12174500Y-17779500D01*
X12174500Y-17938500D02*
X12269500Y-18033500D01*
X12269500Y-17938500D02*
X12174500Y-18033500D01*
X12174500Y-18192500D02*
X12269500Y-18287500D01*
X12269500Y-18192500D02*
X12174500Y-18287500D01*
X12174500Y-18446500D02*
X12269500Y-18541500D01*
X12269500Y-18446500D02*
X12174500Y-18541500D01*
X12174500Y-18700500D02*
X12269500Y-18795500D01*
X12269500Y-18700500D02*
X12174500Y-18795500D01*
X12174500Y-18954500D02*
X12269500Y-19049500D01*
X12269500Y-18954500D02*
X12174500Y-19049500D01*
X12174500Y-19208500D02*
X12269500Y-19303500D01*
X12269500Y-19208500D02*
X12174500Y-19303500D01*
X12174500Y-19462500D02*
X12269500Y-19557500D01*
X12269500Y-19462500D02*
X12174500Y-19557500D01*
X12174500Y-19716500D02*
X12269500Y-19811500D01*
X12269500Y-19716500D02*
X12174500Y-19811500D01*
X12174500Y-19970500D02*
X12269500Y-20065500D01*
X12269500Y-19970500D02*
X12174500Y-20065500D01*
X12174500Y-20224500D02*
X12269500Y-20319500D01*
X12269500Y-20224500D02*
X12174500Y-20319500D01*
X12422500Y-5238500D02*
X12517500Y-5333500D01*
X12517500Y-5238500D02*
X12422500Y-5333500D01*
X12422500Y-5492500D02*
X12517500Y-5587500D01*
X12517500Y-5492500D02*
X12422500Y-5587500D01*
X12422500Y-5746500D02*
X12517500Y-5841500D01*
X12517500Y-5746500D02*
X12422500Y-5841500D01*
X12422500Y-6000500D02*
X12517500Y-6095500D01*
X12517500Y-6000500D02*
X12422500Y-6095500D01*
X12422500Y-6254500D02*
X12517500Y-6349500D01*
X12517500Y-6254500D02*
X12422500Y-6349500D01*
X12422500Y-6508500D02*
X12517500Y-6603500D01*
X12517500Y-6508500D02*
X12422500Y-6603500D01*
X12422500Y-6762500D02*
X12517500Y-6857500D01*
X12517500Y-6762500D02*
X12422500Y-6857500D01*
X12422500Y-7016500D02*
X12517500Y-7111500D01*
X12517500Y-7016500D02*
X12422500Y-7111500D01*
X12422500Y-7270500D02*
X12517500Y-7365500D01*
X12517500Y-7270500D02*
X12422500Y-7365500D01*
X12422500Y-7524500D02*
X12517500Y-7619500D01*
X12517500Y-7524500D02*
X12422500Y-7619500D01*
X12422500Y-7778500D02*
X12517500Y-7873500D01*
X12517500Y-7778500D02*
X12422500Y-7873500D01*
X12422500Y-8032500D02*
X12517500Y-8127500D01*
X12517500Y-8032500D02*
X12422500Y-8127500D01*
X12422500Y-8286500D02*
X12517500Y-8381500D01*
X12517500Y-8286500D02*
X12422500Y-8381500D01*
X12422500Y-8540500D02*
X12517500Y-8635500D01*
X12517500Y-8540500D02*
X12422500Y-8635500D01*
X12422500Y-8794500D02*
X12517500Y-8889500D01*
X12517500Y-8794500D02*
X12422500Y-8889500D01*
X12422500Y-9048500D02*
X12517500Y-9143500D01*
X12517500Y-9048500D02*
X12422500Y-9143500D01*
X12422500Y-9302500D02*
X12517500Y-9397500D01*
X12517500Y-9302500D02*
X12422500Y-9397500D01*
X12422500Y-9556500D02*
X12517500Y-9651500D01*
X12517500Y-9556500D02*
X12422500Y-9651500D01*
X12422500Y-9810500D02*
X12517500Y-9905500D01*
X12517500Y-9810500D02*
X12422500Y-9905500D01*
X12422500Y-10064500D02*
X12517500Y-10159500D01*
X12517500Y-10064500D02*
X12422500Y-10159500D01*
X12422500Y-10318500D02*
X12517500Y-10413500D01*
X12517500Y-10318500D02*
X12422500Y-10413500D01*
X12422500Y-10572500D02*
X12517500Y-10667500D01*
X12517500Y-10572500D02*
X12422500Y-10667500D01*
X12422500Y-10826500D02*
X12517500Y-10921500D01*
X12517500Y-10826500D02*
X12422500Y-10921500D01*
X12422500Y-11080500D02*
X12517500Y-11175500D01*
X12517500Y-11080500D02*
X12422500Y-11175500D01*
X12422500Y-11334500D02*
X12517500Y-11429500D01*
X12517500Y-11334500D02*
X12422500Y-11429500D01*
X12422500Y-11588500D02*
X12517500Y-11683500D01*
X12517500Y-11588500D02*
X12422500Y-11683500D01*
X12422500Y-11842500D02*
X12517500Y-11937500D01*
X12517500Y-11842500D02*
X12422500Y-11937500D01*
X12422500Y-12096500D02*
X12517500Y-12191500D01*
X12517500Y-12096500D02*
X12422500Y-12191500D01*
X12422500Y-12350500D02*
X12517500Y-12445500D01*
X12517500Y-12350500D02*
X12422500Y-12445500D01*
X12422500Y-12604500D02*
X12517500Y-12699500D01*
X12517500Y-12604500D02*
X12422500Y-12699500D01*
X12428500Y-12858500D02*
X12523500Y-12953500D01*
X12523500Y-12858500D02*
X12428500Y-12953500D01*
X12428500Y-13112500D02*
X12523500Y-13207500D01*
X12523500Y-13112500D02*
X12428500Y-13207500D01*
X12428500Y-13366500D02*
X12523500Y-13461500D01*
X12523500Y-13366500D02*
X12428500Y-13461500D01*
X12428500Y-13620500D02*
X12523500Y-13715500D01*
X12523500Y-13620500D02*
X12428500Y-13715500D01*
X12428500Y-13874500D02*
X12523500Y-13969500D01*
X12523500Y-13874500D02*
X12428500Y-13969500D01*
X12428500Y-14128500D02*
X12523500Y-14223500D01*
X12523500Y-14128500D02*
X12428500Y-14223500D01*
X12428500Y-14382500D02*
X12523500Y-14477500D01*
X12523500Y-14382500D02*
X12428500Y-14477500D01*
X12428500Y-14636500D02*
X12523500Y-14731500D01*
X12523500Y-14636500D02*
X12428500Y-14731500D01*
X12428500Y-14890500D02*
X12523500Y-14985500D01*
X12523500Y-14890500D02*
X12428500Y-14985500D01*
X12428500Y-15144500D02*
X12523500Y-15239500D01*
X12523500Y-15144500D02*
X12428500Y-15239500D01*
X12428500Y-15398500D02*
X12523500Y-15493500D01*
X12523500Y-15398500D02*
X12428500Y-15493500D01*
X12428500Y-15652500D02*
X12523500Y-15747500D01*
X12523500Y-15652500D02*
X12428500Y-15747500D01*
X12428500Y-15906500D02*
X12523500Y-16001500D01*
X12523500Y-15906500D02*
X12428500Y-16001500D01*
X12428500Y-16160500D02*
X12523500Y-16255500D01*
X12523500Y-16160500D02*
X12428500Y-16255500D01*
X12428500Y-16414500D02*
X12523500Y-16509500D01*
X12523500Y-16414500D02*
X12428500Y-16509500D01*
X12428500Y-16668500D02*
X12523500Y-16763500D01*
X12523500Y-16668500D02*
X12428500Y-16763500D01*
X12428500Y-16922500D02*
X12523500Y-17017500D01*
X12523500Y-16922500D02*
X12428500Y-17017500D01*
X12428500Y-17176500D02*
X12523500Y-17271500D01*
X12523500Y-17176500D02*
X12428500Y-17271500D01*
X12428500Y-17430500D02*
X12523500Y-17525500D01*
X12523500Y-17430500D02*
X12428500Y-17525500D01*
X12428500Y-17684500D02*
X12523500Y-17779500D01*
X12523500Y-17684500D02*
X12428500Y-17779500D01*
X12428500Y-17938500D02*
X12523500Y-18033500D01*
X12523500Y-17938500D02*
X12428500Y-18033500D01*
X12428500Y-18192500D02*
X12523500Y-18287500D01*
X12523500Y-18192500D02*
X12428500Y-18287500D01*
X12428500Y-18446500D02*
X12523500Y-18541500D01*
X12523500Y-18446500D02*
X12428500Y-18541500D01*
X12428500Y-18700500D02*
X12523500Y-18795500D01*
X12523500Y-18700500D02*
X12428500Y-18795500D01*
X12428500Y-18954500D02*
X12523500Y-19049500D01*
X12523500Y-18954500D02*
X12428500Y-19049500D01*
X12428500Y-19208500D02*
X12523500Y-19303500D01*
X12523500Y-19208500D02*
X12428500Y-19303500D01*
X12428500Y-19462500D02*
X12523500Y-19557500D01*
X12523500Y-19462500D02*
X12428500Y-19557500D01*
X12428500Y-19716500D02*
X12523500Y-19811500D01*
X12523500Y-19716500D02*
X12428500Y-19811500D01*
X12428500Y-19970500D02*
X12523500Y-20065500D01*
X12523500Y-19970500D02*
X12428500Y-20065500D01*
X12428500Y-20224500D02*
X12523500Y-20319500D01*
X12523500Y-20224500D02*
X12428500Y-20319500D01*
X12930500Y-5238500D02*
X13025500Y-5333500D01*
X13025500Y-5238500D02*
X12930500Y-5333500D01*
X12930500Y-5492500D02*
X13025500Y-5587500D01*
X13025500Y-5492500D02*
X12930500Y-5587500D01*
X12930500Y-5746500D02*
X13025500Y-5841500D01*
X13025500Y-5746500D02*
X12930500Y-5841500D01*
X12930500Y-6000500D02*
X13025500Y-6095500D01*
X13025500Y-6000500D02*
X12930500Y-6095500D01*
X12930500Y-6254500D02*
X13025500Y-6349500D01*
X13025500Y-6254500D02*
X12930500Y-6349500D01*
X12930500Y-6508500D02*
X13025500Y-6603500D01*
X13025500Y-6508500D02*
X12930500Y-6603500D01*
X12930500Y-6762500D02*
X13025500Y-6857500D01*
X13025500Y-6762500D02*
X12930500Y-6857500D01*
X12930500Y-7016500D02*
X13025500Y-7111500D01*
X13025500Y-7016500D02*
X12930500Y-7111500D01*
X12930500Y-7270500D02*
X13025500Y-7365500D01*
X13025500Y-7270500D02*
X12930500Y-7365500D01*
X12930500Y-7524500D02*
X13025500Y-7619500D01*
X13025500Y-7524500D02*
X12930500Y-7619500D01*
X12930500Y-7778500D02*
X13025500Y-7873500D01*
X13025500Y-7778500D02*
X12930500Y-7873500D01*
X12930500Y-8032500D02*
X13025500Y-8127500D01*
X13025500Y-8032500D02*
X12930500Y-8127500D01*
X12930500Y-8286500D02*
X13025500Y-8381500D01*
X13025500Y-8286500D02*
X12930500Y-8381500D01*
X12930500Y-9302500D02*
X13025500Y-9397500D01*
X13025500Y-9302500D02*
X12930500Y-9397500D01*
X12930500Y-9556500D02*
X13025500Y-9651500D01*
X13025500Y-9556500D02*
X12930500Y-9651500D01*
X12930500Y-9810500D02*
X13025500Y-9905500D01*
X13025500Y-9810500D02*
X12930500Y-9905500D01*
X12930500Y-10064500D02*
X13025500Y-10159500D01*
X13025500Y-10064500D02*
X12930500Y-10159500D01*
X12930500Y-10318500D02*
X13025500Y-10413500D01*
X13025500Y-10318500D02*
X12930500Y-10413500D01*
X12930500Y-10572500D02*
X13025500Y-10667500D01*
X13025500Y-10572500D02*
X12930500Y-10667500D01*
X12930500Y-10826500D02*
X13025500Y-10921500D01*
X13025500Y-10826500D02*
X12930500Y-10921500D01*
X12930500Y-11080500D02*
X13025500Y-11175500D01*
X13025500Y-11080500D02*
X12930500Y-11175500D01*
X12930500Y-11334500D02*
X13025500Y-11429500D01*
X13025500Y-11334500D02*
X12930500Y-11429500D01*
X12930500Y-11588500D02*
X13025500Y-11683500D01*
X13025500Y-11588500D02*
X12930500Y-11683500D01*
X12930500Y-11842500D02*
X13025500Y-11937500D01*
X13025500Y-11842500D02*
X12930500Y-11937500D01*
X12930500Y-12096500D02*
X13025500Y-12191500D01*
X13025500Y-12096500D02*
X12930500Y-12191500D01*
X12930500Y-12350500D02*
X13025500Y-12445500D01*
X13025500Y-12350500D02*
X12930500Y-12445500D01*
X12930500Y-12604500D02*
X13025500Y-12699500D01*
X13025500Y-12604500D02*
X12930500Y-12699500D01*
X12930500Y-13620500D02*
X13025500Y-13715500D01*
X13025500Y-13620500D02*
X12930500Y-13715500D01*
X12930500Y-13874500D02*
X13025500Y-13969500D01*
X13025500Y-13874500D02*
X12930500Y-13969500D01*
X12930500Y-14128500D02*
X13025500Y-14223500D01*
X13025500Y-14128500D02*
X12930500Y-14223500D01*
X12930500Y-14382500D02*
X13025500Y-14477500D01*
X13025500Y-14382500D02*
X12930500Y-14477500D01*
X12930500Y-14636500D02*
X13025500Y-14731500D01*
X13025500Y-14636500D02*
X12930500Y-14731500D01*
X12930500Y-14890500D02*
X13025500Y-14985500D01*
X13025500Y-14890500D02*
X12930500Y-14985500D01*
X12930500Y-15144500D02*
X13025500Y-15239500D01*
X13025500Y-15144500D02*
X12930500Y-15239500D01*
X12930500Y-15398500D02*
X13025500Y-15493500D01*
X13025500Y-15398500D02*
X12930500Y-15493500D01*
X12930500Y-15652500D02*
X13025500Y-15747500D01*
X13025500Y-15652500D02*
X12930500Y-15747500D01*
X12930500Y-15906500D02*
X13025500Y-16001500D01*
X13025500Y-15906500D02*
X12930500Y-16001500D01*
X12930500Y-16160500D02*
X13025500Y-16255500D01*
X13025500Y-16160500D02*
X12930500Y-16255500D01*
X12930500Y-16414500D02*
X13025500Y-16509500D01*
X13025500Y-16414500D02*
X12930500Y-16509500D01*
X12930500Y-16668500D02*
X13025500Y-16763500D01*
X13025500Y-16668500D02*
X12930500Y-16763500D01*
X12930500Y-16922500D02*
X13025500Y-17017500D01*
X13025500Y-16922500D02*
X12930500Y-17017500D01*
X12930500Y-17938500D02*
X13025500Y-18033500D01*
X13025500Y-17938500D02*
X12930500Y-18033500D01*
X12930500Y-18192500D02*
X13025500Y-18287500D01*
X13025500Y-18192500D02*
X12930500Y-18287500D01*
X12930500Y-18446500D02*
X13025500Y-18541500D01*
X13025500Y-18446500D02*
X12930500Y-18541500D01*
X12930500Y-18700500D02*
X13025500Y-18795500D01*
X13025500Y-18700500D02*
X12930500Y-18795500D01*
X12930500Y-18954500D02*
X13025500Y-19049500D01*
X13025500Y-18954500D02*
X12930500Y-19049500D01*
X12930500Y-19208500D02*
X13025500Y-19303500D01*
X13025500Y-19208500D02*
X12930500Y-19303500D01*
X12930500Y-19462500D02*
X13025500Y-19557500D01*
X13025500Y-19462500D02*
X12930500Y-19557500D01*
X12930500Y-19716500D02*
X13025500Y-19811500D01*
X13025500Y-19716500D02*
X12930500Y-19811500D01*
X12930500Y-19970500D02*
X13025500Y-20065500D01*
X13025500Y-19970500D02*
X12930500Y-20065500D01*
X12930500Y-20224500D02*
X13025500Y-20319500D01*
X13025500Y-20224500D02*
X12930500Y-20319500D01*
X12936500Y-8540500D02*
X13031500Y-8635500D01*
X13031500Y-8540500D02*
X12936500Y-8635500D01*
X12936500Y-8794500D02*
X13031500Y-8889500D01*
X13031500Y-8794500D02*
X12936500Y-8889500D01*
X12936500Y-9048500D02*
X13031500Y-9143500D01*
X13031500Y-9048500D02*
X12936500Y-9143500D01*
X12936500Y-17176500D02*
X13031500Y-17271500D01*
X13031500Y-17176500D02*
X12936500Y-17271500D01*
X12936500Y-17430500D02*
X13031500Y-17525500D01*
X13031500Y-17430500D02*
X12936500Y-17525500D01*
X12936500Y-17684500D02*
X13031500Y-17779500D01*
X13031500Y-17684500D02*
X12936500Y-17779500D01*
X13184500Y-5238500D02*
X13279500Y-5333500D01*
X13279500Y-5238500D02*
X13184500Y-5333500D01*
X13184500Y-5492500D02*
X13279500Y-5587500D01*
X13279500Y-5492500D02*
X13184500Y-5587500D01*
X13184500Y-5746500D02*
X13279500Y-5841500D01*
X13279500Y-5746500D02*
X13184500Y-5841500D01*
X13184500Y-6000500D02*
X13279500Y-6095500D01*
X13279500Y-6000500D02*
X13184500Y-6095500D01*
X13184500Y-6254500D02*
X13279500Y-6349500D01*
X13279500Y-6254500D02*
X13184500Y-6349500D01*
X13184500Y-6508500D02*
X13279500Y-6603500D01*
X13279500Y-6508500D02*
X13184500Y-6603500D01*
X13184500Y-6762500D02*
X13279500Y-6857500D01*
X13279500Y-6762500D02*
X13184500Y-6857500D01*
X13184500Y-7016500D02*
X13279500Y-7111500D01*
X13279500Y-7016500D02*
X13184500Y-7111500D01*
X13184500Y-7270500D02*
X13279500Y-7365500D01*
X13279500Y-7270500D02*
X13184500Y-7365500D01*
X13184500Y-7524500D02*
X13279500Y-7619500D01*
X13279500Y-7524500D02*
X13184500Y-7619500D01*
X13184500Y-7778500D02*
X13279500Y-7873500D01*
X13279500Y-7778500D02*
X13184500Y-7873500D01*
X13184500Y-8032500D02*
X13279500Y-8127500D01*
X13279500Y-8032500D02*
X13184500Y-8127500D01*
X13184500Y-8286500D02*
X13279500Y-8381500D01*
X13279500Y-8286500D02*
X13184500Y-8381500D01*
X13184500Y-9302500D02*
X13279500Y-9397500D01*
X13279500Y-9302500D02*
X13184500Y-9397500D01*
X13184500Y-9556500D02*
X13279500Y-9651500D01*
X13279500Y-9556500D02*
X13184500Y-9651500D01*
X13184500Y-9810500D02*
X13279500Y-9905500D01*
X13279500Y-9810500D02*
X13184500Y-9905500D01*
X13184500Y-10064500D02*
X13279500Y-10159500D01*
X13279500Y-10064500D02*
X13184500Y-10159500D01*
X13184500Y-10318500D02*
X13279500Y-10413500D01*
X13279500Y-10318500D02*
X13184500Y-10413500D01*
X13184500Y-10572500D02*
X13279500Y-10667500D01*
X13279500Y-10572500D02*
X13184500Y-10667500D01*
X13184500Y-10826500D02*
X13279500Y-10921500D01*
X13279500Y-10826500D02*
X13184500Y-10921500D01*
X13184500Y-11080500D02*
X13279500Y-11175500D01*
X13279500Y-11080500D02*
X13184500Y-11175500D01*
X13184500Y-11334500D02*
X13279500Y-11429500D01*
X13279500Y-11334500D02*
X13184500Y-11429500D01*
X13184500Y-11588500D02*
X13279500Y-11683500D01*
X13279500Y-11588500D02*
X13184500Y-11683500D01*
X13184500Y-11842500D02*
X13279500Y-11937500D01*
X13279500Y-11842500D02*
X13184500Y-11937500D01*
X13184500Y-12096500D02*
X13279500Y-12191500D01*
X13279500Y-12096500D02*
X13184500Y-12191500D01*
X13184500Y-12350500D02*
X13279500Y-12445500D01*
X13279500Y-12350500D02*
X13184500Y-12445500D01*
X13184500Y-12604500D02*
X13279500Y-12699500D01*
X13279500Y-12604500D02*
X13184500Y-12699500D01*
X13184500Y-13620500D02*
X13279500Y-13715500D01*
X13279500Y-13620500D02*
X13184500Y-13715500D01*
X13184500Y-13874500D02*
X13279500Y-13969500D01*
X13279500Y-13874500D02*
X13184500Y-13969500D01*
X13184500Y-14128500D02*
X13279500Y-14223500D01*
X13279500Y-14128500D02*
X13184500Y-14223500D01*
X13184500Y-14382500D02*
X13279500Y-14477500D01*
X13279500Y-14382500D02*
X13184500Y-14477500D01*
X13184500Y-14636500D02*
X13279500Y-14731500D01*
X13279500Y-14636500D02*
X13184500Y-14731500D01*
X13184500Y-14890500D02*
X13279500Y-14985500D01*
X13279500Y-14890500D02*
X13184500Y-14985500D01*
X13184500Y-15144500D02*
X13279500Y-15239500D01*
X13279500Y-15144500D02*
X13184500Y-15239500D01*
X13184500Y-15398500D02*
X13279500Y-15493500D01*
X13279500Y-15398500D02*
X13184500Y-15493500D01*
X13184500Y-15652500D02*
X13279500Y-15747500D01*
X13279500Y-15652500D02*
X13184500Y-15747500D01*
X13184500Y-15906500D02*
X13279500Y-16001500D01*
X13279500Y-15906500D02*
X13184500Y-16001500D01*
X13184500Y-16160500D02*
X13279500Y-16255500D01*
X13279500Y-16160500D02*
X13184500Y-16255500D01*
X13184500Y-16414500D02*
X13279500Y-16509500D01*
X13279500Y-16414500D02*
X13184500Y-16509500D01*
X13184500Y-16668500D02*
X13279500Y-16763500D01*
X13279500Y-16668500D02*
X13184500Y-16763500D01*
X13184500Y-16922500D02*
X13279500Y-17017500D01*
X13279500Y-16922500D02*
X13184500Y-17017500D01*
X13184500Y-17938500D02*
X13279500Y-18033500D01*
X13279500Y-17938500D02*
X13184500Y-18033500D01*
X13184500Y-18192500D02*
X13279500Y-18287500D01*
X13279500Y-18192500D02*
X13184500Y-18287500D01*
X13184500Y-18446500D02*
X13279500Y-18541500D01*
X13279500Y-18446500D02*
X13184500Y-18541500D01*
X13184500Y-18700500D02*
X13279500Y-18795500D01*
X13279500Y-18700500D02*
X13184500Y-18795500D01*
X13184500Y-18954500D02*
X13279500Y-19049500D01*
X13279500Y-18954500D02*
X13184500Y-19049500D01*
X13184500Y-19208500D02*
X13279500Y-19303500D01*
X13279500Y-19208500D02*
X13184500Y-19303500D01*
X13184500Y-19462500D02*
X13279500Y-19557500D01*
X13279500Y-19462500D02*
X13184500Y-19557500D01*
X13184500Y-19716500D02*
X13279500Y-19811500D01*
X13279500Y-19716500D02*
X13184500Y-19811500D01*
X13184500Y-19970500D02*
X13279500Y-20065500D01*
X13279500Y-19970500D02*
X13184500Y-20065500D01*
X13184500Y-20224500D02*
X13279500Y-20319500D01*
X13279500Y-20224500D02*
X13184500Y-20319500D01*
X13190500Y-8540500D02*
X13285500Y-8635500D01*
X13285500Y-8540500D02*
X13190500Y-8635500D01*
X13190500Y-8794500D02*
X13285500Y-8889500D01*
X13285500Y-8794500D02*
X13190500Y-8889500D01*
X13190500Y-9048500D02*
X13285500Y-9143500D01*
X13285500Y-9048500D02*
X13190500Y-9143500D01*
X13190500Y-17176500D02*
X13285500Y-17271500D01*
X13285500Y-17176500D02*
X13190500Y-17271500D01*
X13190500Y-17430500D02*
X13285500Y-17525500D01*
X13285500Y-17430500D02*
X13190500Y-17525500D01*
X13190500Y-17684500D02*
X13285500Y-17779500D01*
X13285500Y-17684500D02*
X13190500Y-17779500D01*
D14*
X8910000Y-3400000D02*
G75*
G02*
X8690000Y-3400000I-110000J0D01*
G01*
X8690000Y-3400000D02*
G75*
G02*
X8910000Y-3400000I110000J0D01*
G01*
X8910000Y-21288000D02*
G75*
G02*
X8690000Y-21288000I-110000J0D01*
G01*
X8690000Y-21288000D02*
G75*
G02*
X8910000Y-21288000I110000J0D01*
G01*
X13710000Y-3400000D02*
G75*
G02*
X13490000Y-3400000I-110000J0D01*
G01*
X13490000Y-3400000D02*
G75*
G02*
X13710000Y-3400000I110000J0D01*
G01*
X13710000Y-21288000D02*
G75*
G02*
X13490000Y-21288000I-110000J0D01*
G01*
X13490000Y-21288000D02*
G75*
G02*
X13710000Y-21288000I110000J0D01*
G01*
D12*
X8658277Y-22013984D02*
X8658277Y-21813984D01*
X8658277Y-21813984D02*
X8705896Y-21813984D01*
X8705896Y-21813984D02*
X8734467Y-21823508D01*
X8734467Y-21823508D02*
X8753515Y-21842555D01*
X8753515Y-21842555D02*
X8763039Y-21861603D01*
X8763039Y-21861603D02*
X8772563Y-21899698D01*
X8772563Y-21899698D02*
X8772563Y-21928270D01*
X8772563Y-21928270D02*
X8763039Y-21966365D01*
X8763039Y-21966365D02*
X8753515Y-21985412D01*
X8753515Y-21985412D02*
X8734467Y-22004460D01*
X8734467Y-22004460D02*
X8705896Y-22013984D01*
X8705896Y-22013984D02*
X8658277Y-22013984D01*
X8858277Y-22013984D02*
X8858277Y-21880650D01*
X8858277Y-21918746D02*
X8867801Y-21899698D01*
X8867801Y-21899698D02*
X8877324Y-21890174D01*
X8877324Y-21890174D02*
X8896372Y-21880650D01*
X8896372Y-21880650D02*
X8915420Y-21880650D01*
X8982086Y-22013984D02*
X8982086Y-21880650D01*
X8982086Y-21813984D02*
X8972563Y-21823508D01*
X8972563Y-21823508D02*
X8982086Y-21833031D01*
X8982086Y-21833031D02*
X8991610Y-21823508D01*
X8991610Y-21823508D02*
X8982086Y-21813984D01*
X8982086Y-21813984D02*
X8982086Y-21833031D01*
X9105896Y-22013984D02*
X9086848Y-22004460D01*
X9086848Y-22004460D02*
X9077324Y-21985412D01*
X9077324Y-21985412D02*
X9077324Y-21813984D01*
X9210658Y-22013984D02*
X9191610Y-22004460D01*
X9191610Y-22004460D02*
X9182086Y-21985412D01*
X9182086Y-21985412D02*
X9182086Y-21813984D01*
X9439229Y-22013984D02*
X9439229Y-21813984D01*
X9439229Y-21813984D02*
X9505896Y-21956841D01*
X9505896Y-21956841D02*
X9572563Y-21813984D01*
X9572563Y-21813984D02*
X9572563Y-22013984D01*
X9753515Y-22013984D02*
X9753515Y-21909222D01*
X9753515Y-21909222D02*
X9743991Y-21890174D01*
X9743991Y-21890174D02*
X9724944Y-21880650D01*
X9724944Y-21880650D02*
X9686848Y-21880650D01*
X9686848Y-21880650D02*
X9667801Y-21890174D01*
X9753515Y-22004460D02*
X9734467Y-22013984D01*
X9734467Y-22013984D02*
X9686848Y-22013984D01*
X9686848Y-22013984D02*
X9667801Y-22004460D01*
X9667801Y-22004460D02*
X9658277Y-21985412D01*
X9658277Y-21985412D02*
X9658277Y-21966365D01*
X9658277Y-21966365D02*
X9667801Y-21947317D01*
X9667801Y-21947317D02*
X9686848Y-21937793D01*
X9686848Y-21937793D02*
X9734467Y-21937793D01*
X9734467Y-21937793D02*
X9753515Y-21928270D01*
X9848753Y-21880650D02*
X9848753Y-22080650D01*
X9848753Y-21890174D02*
X9867801Y-21880650D01*
X9867801Y-21880650D02*
X9905896Y-21880650D01*
X9905896Y-21880650D02*
X9924944Y-21890174D01*
X9924944Y-21890174D02*
X9934467Y-21899698D01*
X9934467Y-21899698D02*
X9943991Y-21918746D01*
X9943991Y-21918746D02*
X9943991Y-21975889D01*
X9943991Y-21975889D02*
X9934467Y-21994936D01*
X9934467Y-21994936D02*
X9924944Y-22004460D01*
X9924944Y-22004460D02*
X9905896Y-22013984D01*
X9905896Y-22013984D02*
X9867801Y-22013984D01*
X9867801Y-22013984D02*
X9848753Y-22004460D01*
X10029705Y-21994936D02*
X10039229Y-22004460D01*
X10039229Y-22004460D02*
X10029705Y-22013984D01*
X10029705Y-22013984D02*
X10020182Y-22004460D01*
X10020182Y-22004460D02*
X10029705Y-21994936D01*
X10029705Y-21994936D02*
X10029705Y-22013984D01*
X10029705Y-21890174D02*
X10039229Y-21899698D01*
X10039229Y-21899698D02*
X10029705Y-21909222D01*
X10029705Y-21909222D02*
X10020182Y-21899698D01*
X10020182Y-21899698D02*
X10029705Y-21890174D01*
X10029705Y-21890174D02*
X10029705Y-21909222D01*
D13*
X8302500Y-22295000D02*
X8397500Y-22390000D01*
X8397500Y-22295000D02*
X8302500Y-22390000D01*
D12*
X8696372Y-22233984D02*
X8715420Y-22233984D01*
X8715420Y-22233984D02*
X8734467Y-22243508D01*
X8734467Y-22243508D02*
X8743991Y-22253031D01*
X8743991Y-22253031D02*
X8753515Y-22272079D01*
X8753515Y-22272079D02*
X8763039Y-22310174D01*
X8763039Y-22310174D02*
X8763039Y-22357793D01*
X8763039Y-22357793D02*
X8753515Y-22395888D01*
X8753515Y-22395888D02*
X8743991Y-22414936D01*
X8743991Y-22414936D02*
X8734467Y-22424460D01*
X8734467Y-22424460D02*
X8715420Y-22433984D01*
X8715420Y-22433984D02*
X8696372Y-22433984D01*
X8696372Y-22433984D02*
X8677324Y-22424460D01*
X8677324Y-22424460D02*
X8667801Y-22414936D01*
X8667801Y-22414936D02*
X8658277Y-22395888D01*
X8658277Y-22395888D02*
X8648753Y-22357793D01*
X8648753Y-22357793D02*
X8648753Y-22310174D01*
X8648753Y-22310174D02*
X8658277Y-22272079D01*
X8658277Y-22272079D02*
X8667801Y-22253031D01*
X8667801Y-22253031D02*
X8677324Y-22243508D01*
X8677324Y-22243508D02*
X8696372Y-22233984D01*
X8848753Y-22414936D02*
X8858277Y-22424460D01*
X8858277Y-22424460D02*
X8848753Y-22433984D01*
X8848753Y-22433984D02*
X8839229Y-22424460D01*
X8839229Y-22424460D02*
X8848753Y-22414936D01*
X8848753Y-22414936D02*
X8848753Y-22433984D01*
X8953515Y-22433984D02*
X8991610Y-22433984D01*
X8991610Y-22433984D02*
X9010658Y-22424460D01*
X9010658Y-22424460D02*
X9020182Y-22414936D01*
X9020182Y-22414936D02*
X9039229Y-22386365D01*
X9039229Y-22386365D02*
X9048753Y-22348270D01*
X9048753Y-22348270D02*
X9048753Y-22272079D01*
X9048753Y-22272079D02*
X9039229Y-22253031D01*
X9039229Y-22253031D02*
X9029705Y-22243508D01*
X9029705Y-22243508D02*
X9010658Y-22233984D01*
X9010658Y-22233984D02*
X8972563Y-22233984D01*
X8972563Y-22233984D02*
X8953515Y-22243508D01*
X8953515Y-22243508D02*
X8943991Y-22253031D01*
X8943991Y-22253031D02*
X8934467Y-22272079D01*
X8934467Y-22272079D02*
X8934467Y-22319698D01*
X8934467Y-22319698D02*
X8943991Y-22338746D01*
X8943991Y-22338746D02*
X8953515Y-22348270D01*
X8953515Y-22348270D02*
X8972563Y-22357793D01*
X8972563Y-22357793D02*
X9010658Y-22357793D01*
X9010658Y-22357793D02*
X9029705Y-22348270D01*
X9029705Y-22348270D02*
X9039229Y-22338746D01*
X9039229Y-22338746D02*
X9048753Y-22319698D01*
X9229705Y-22233984D02*
X9134467Y-22233984D01*
X9134467Y-22233984D02*
X9124944Y-22329222D01*
X9124944Y-22329222D02*
X9134467Y-22319698D01*
X9134467Y-22319698D02*
X9153515Y-22310174D01*
X9153515Y-22310174D02*
X9201134Y-22310174D01*
X9201134Y-22310174D02*
X9220182Y-22319698D01*
X9220182Y-22319698D02*
X9229705Y-22329222D01*
X9229705Y-22329222D02*
X9239229Y-22348270D01*
X9239229Y-22348270D02*
X9239229Y-22395888D01*
X9239229Y-22395888D02*
X9229705Y-22414936D01*
X9229705Y-22414936D02*
X9220182Y-22424460D01*
X9220182Y-22424460D02*
X9201134Y-22433984D01*
X9201134Y-22433984D02*
X9153515Y-22433984D01*
X9153515Y-22433984D02*
X9134467Y-22424460D01*
X9134467Y-22424460D02*
X9124944Y-22414936D01*
X9363039Y-22233984D02*
X9382086Y-22233984D01*
X9382086Y-22233984D02*
X9401134Y-22243508D01*
X9401134Y-22243508D02*
X9410658Y-22253031D01*
X9410658Y-22253031D02*
X9420182Y-22272079D01*
X9420182Y-22272079D02*
X9429705Y-22310174D01*
X9429705Y-22310174D02*
X9429705Y-22357793D01*
X9429705Y-22357793D02*
X9420182Y-22395888D01*
X9420182Y-22395888D02*
X9410658Y-22414936D01*
X9410658Y-22414936D02*
X9401134Y-22424460D01*
X9401134Y-22424460D02*
X9382086Y-22433984D01*
X9382086Y-22433984D02*
X9363039Y-22433984D01*
X9363039Y-22433984D02*
X9343991Y-22424460D01*
X9343991Y-22424460D02*
X9334467Y-22414936D01*
X9334467Y-22414936D02*
X9324944Y-22395888D01*
X9324944Y-22395888D02*
X9315420Y-22357793D01*
X9315420Y-22357793D02*
X9315420Y-22310174D01*
X9315420Y-22310174D02*
X9324944Y-22272079D01*
X9324944Y-22272079D02*
X9334467Y-22253031D01*
X9334467Y-22253031D02*
X9343991Y-22243508D01*
X9343991Y-22243508D02*
X9363039Y-22233984D01*
X9515420Y-22433984D02*
X9515420Y-22300650D01*
X9515420Y-22319698D02*
X9524944Y-22310174D01*
X9524944Y-22310174D02*
X9543991Y-22300650D01*
X9543991Y-22300650D02*
X9572563Y-22300650D01*
X9572563Y-22300650D02*
X9591610Y-22310174D01*
X9591610Y-22310174D02*
X9601134Y-22329222D01*
X9601134Y-22329222D02*
X9601134Y-22433984D01*
X9601134Y-22329222D02*
X9610658Y-22310174D01*
X9610658Y-22310174D02*
X9629705Y-22300650D01*
X9629705Y-22300650D02*
X9658277Y-22300650D01*
X9658277Y-22300650D02*
X9677325Y-22310174D01*
X9677325Y-22310174D02*
X9686848Y-22329222D01*
X9686848Y-22329222D02*
X9686848Y-22433984D01*
X9782086Y-22433984D02*
X9782086Y-22300650D01*
X9782086Y-22319698D02*
X9791610Y-22310174D01*
X9791610Y-22310174D02*
X9810658Y-22300650D01*
X9810658Y-22300650D02*
X9839229Y-22300650D01*
X9839229Y-22300650D02*
X9858277Y-22310174D01*
X9858277Y-22310174D02*
X9867801Y-22329222D01*
X9867801Y-22329222D02*
X9867801Y-22433984D01*
X9867801Y-22329222D02*
X9877325Y-22310174D01*
X9877325Y-22310174D02*
X9896372Y-22300650D01*
X9896372Y-22300650D02*
X9924944Y-22300650D01*
X9924944Y-22300650D02*
X9943991Y-22310174D01*
X9943991Y-22310174D02*
X9953515Y-22329222D01*
X9953515Y-22329222D02*
X9953515Y-22433984D01*
X10343991Y-22224460D02*
X10172563Y-22481603D01*
X10601134Y-22233984D02*
X10620182Y-22233984D01*
X10620182Y-22233984D02*
X10639229Y-22243508D01*
X10639229Y-22243508D02*
X10648753Y-22253031D01*
X10648753Y-22253031D02*
X10658277Y-22272079D01*
X10658277Y-22272079D02*
X10667801Y-22310174D01*
X10667801Y-22310174D02*
X10667801Y-22357793D01*
X10667801Y-22357793D02*
X10658277Y-22395888D01*
X10658277Y-22395888D02*
X10648753Y-22414936D01*
X10648753Y-22414936D02*
X10639229Y-22424460D01*
X10639229Y-22424460D02*
X10620182Y-22433984D01*
X10620182Y-22433984D02*
X10601134Y-22433984D01*
X10601134Y-22433984D02*
X10582087Y-22424460D01*
X10582087Y-22424460D02*
X10572563Y-22414936D01*
X10572563Y-22414936D02*
X10563039Y-22395888D01*
X10563039Y-22395888D02*
X10553515Y-22357793D01*
X10553515Y-22357793D02*
X10553515Y-22310174D01*
X10553515Y-22310174D02*
X10563039Y-22272079D01*
X10563039Y-22272079D02*
X10572563Y-22253031D01*
X10572563Y-22253031D02*
X10582087Y-22243508D01*
X10582087Y-22243508D02*
X10601134Y-22233984D01*
X10753515Y-22414936D02*
X10763039Y-22424460D01*
X10763039Y-22424460D02*
X10753515Y-22433984D01*
X10753515Y-22433984D02*
X10743991Y-22424460D01*
X10743991Y-22424460D02*
X10753515Y-22414936D01*
X10753515Y-22414936D02*
X10753515Y-22433984D01*
X10886848Y-22233984D02*
X10905896Y-22233984D01*
X10905896Y-22233984D02*
X10924944Y-22243508D01*
X10924944Y-22243508D02*
X10934468Y-22253031D01*
X10934468Y-22253031D02*
X10943991Y-22272079D01*
X10943991Y-22272079D02*
X10953515Y-22310174D01*
X10953515Y-22310174D02*
X10953515Y-22357793D01*
X10953515Y-22357793D02*
X10943991Y-22395888D01*
X10943991Y-22395888D02*
X10934468Y-22414936D01*
X10934468Y-22414936D02*
X10924944Y-22424460D01*
X10924944Y-22424460D02*
X10905896Y-22433984D01*
X10905896Y-22433984D02*
X10886848Y-22433984D01*
X10886848Y-22433984D02*
X10867801Y-22424460D01*
X10867801Y-22424460D02*
X10858277Y-22414936D01*
X10858277Y-22414936D02*
X10848753Y-22395888D01*
X10848753Y-22395888D02*
X10839229Y-22357793D01*
X10839229Y-22357793D02*
X10839229Y-22310174D01*
X10839229Y-22310174D02*
X10848753Y-22272079D01*
X10848753Y-22272079D02*
X10858277Y-22253031D01*
X10858277Y-22253031D02*
X10867801Y-22243508D01*
X10867801Y-22243508D02*
X10886848Y-22233984D01*
X11020182Y-22233984D02*
X11143991Y-22233984D01*
X11143991Y-22233984D02*
X11077325Y-22310174D01*
X11077325Y-22310174D02*
X11105896Y-22310174D01*
X11105896Y-22310174D02*
X11124944Y-22319698D01*
X11124944Y-22319698D02*
X11134468Y-22329222D01*
X11134468Y-22329222D02*
X11143991Y-22348270D01*
X11143991Y-22348270D02*
X11143991Y-22395888D01*
X11143991Y-22395888D02*
X11134468Y-22414936D01*
X11134468Y-22414936D02*
X11124944Y-22424460D01*
X11124944Y-22424460D02*
X11105896Y-22433984D01*
X11105896Y-22433984D02*
X11048753Y-22433984D01*
X11048753Y-22433984D02*
X11029706Y-22424460D01*
X11029706Y-22424460D02*
X11020182Y-22414936D01*
X11210658Y-22233984D02*
X11343991Y-22233984D01*
X11343991Y-22233984D02*
X11258277Y-22433984D01*
X11505896Y-22300650D02*
X11505896Y-22433984D01*
X11458277Y-22224460D02*
X11410658Y-22367317D01*
X11410658Y-22367317D02*
X11534467Y-22367317D01*
X11601134Y-22233984D02*
X11601134Y-22272079D01*
X11677325Y-22233984D02*
X11677325Y-22272079D01*
X11972563Y-22510174D02*
X11963039Y-22500650D01*
X11963039Y-22500650D02*
X11943991Y-22472079D01*
X11943991Y-22472079D02*
X11934468Y-22453031D01*
X11934468Y-22453031D02*
X11924944Y-22424460D01*
X11924944Y-22424460D02*
X11915420Y-22376841D01*
X11915420Y-22376841D02*
X11915420Y-22338746D01*
X11915420Y-22338746D02*
X11924944Y-22291127D01*
X11924944Y-22291127D02*
X11934468Y-22262555D01*
X11934468Y-22262555D02*
X11943991Y-22243508D01*
X11943991Y-22243508D02*
X11963039Y-22214936D01*
X11963039Y-22214936D02*
X11972563Y-22205412D01*
X12077325Y-22319698D02*
X12058277Y-22310174D01*
X12058277Y-22310174D02*
X12048753Y-22300650D01*
X12048753Y-22300650D02*
X12039229Y-22281603D01*
X12039229Y-22281603D02*
X12039229Y-22272079D01*
X12039229Y-22272079D02*
X12048753Y-22253031D01*
X12048753Y-22253031D02*
X12058277Y-22243508D01*
X12058277Y-22243508D02*
X12077325Y-22233984D01*
X12077325Y-22233984D02*
X12115420Y-22233984D01*
X12115420Y-22233984D02*
X12134468Y-22243508D01*
X12134468Y-22243508D02*
X12143991Y-22253031D01*
X12143991Y-22253031D02*
X12153515Y-22272079D01*
X12153515Y-22272079D02*
X12153515Y-22281603D01*
X12153515Y-22281603D02*
X12143991Y-22300650D01*
X12143991Y-22300650D02*
X12134468Y-22310174D01*
X12134468Y-22310174D02*
X12115420Y-22319698D01*
X12115420Y-22319698D02*
X12077325Y-22319698D01*
X12077325Y-22319698D02*
X12058277Y-22329222D01*
X12058277Y-22329222D02*
X12048753Y-22338746D01*
X12048753Y-22338746D02*
X12039229Y-22357793D01*
X12039229Y-22357793D02*
X12039229Y-22395888D01*
X12039229Y-22395888D02*
X12048753Y-22414936D01*
X12048753Y-22414936D02*
X12058277Y-22424460D01*
X12058277Y-22424460D02*
X12077325Y-22433984D01*
X12077325Y-22433984D02*
X12115420Y-22433984D01*
X12115420Y-22433984D02*
X12134468Y-22424460D01*
X12134468Y-22424460D02*
X12143991Y-22414936D01*
X12143991Y-22414936D02*
X12153515Y-22395888D01*
X12153515Y-22395888D02*
X12153515Y-22357793D01*
X12153515Y-22357793D02*
X12143991Y-22338746D01*
X12143991Y-22338746D02*
X12134468Y-22329222D01*
X12134468Y-22329222D02*
X12115420Y-22319698D01*
X12229706Y-22253031D02*
X12239229Y-22243508D01*
X12239229Y-22243508D02*
X12258277Y-22233984D01*
X12258277Y-22233984D02*
X12305896Y-22233984D01*
X12305896Y-22233984D02*
X12324944Y-22243508D01*
X12324944Y-22243508D02*
X12334468Y-22253031D01*
X12334468Y-22253031D02*
X12343991Y-22272079D01*
X12343991Y-22272079D02*
X12343991Y-22291127D01*
X12343991Y-22291127D02*
X12334468Y-22319698D01*
X12334468Y-22319698D02*
X12220182Y-22433984D01*
X12220182Y-22433984D02*
X12343991Y-22433984D01*
X12458277Y-22319698D02*
X12439229Y-22310174D01*
X12439229Y-22310174D02*
X12429706Y-22300650D01*
X12429706Y-22300650D02*
X12420182Y-22281603D01*
X12420182Y-22281603D02*
X12420182Y-22272079D01*
X12420182Y-22272079D02*
X12429706Y-22253031D01*
X12429706Y-22253031D02*
X12439229Y-22243508D01*
X12439229Y-22243508D02*
X12458277Y-22233984D01*
X12458277Y-22233984D02*
X12496372Y-22233984D01*
X12496372Y-22233984D02*
X12515420Y-22243508D01*
X12515420Y-22243508D02*
X12524944Y-22253031D01*
X12524944Y-22253031D02*
X12534468Y-22272079D01*
X12534468Y-22272079D02*
X12534468Y-22281603D01*
X12534468Y-22281603D02*
X12524944Y-22300650D01*
X12524944Y-22300650D02*
X12515420Y-22310174D01*
X12515420Y-22310174D02*
X12496372Y-22319698D01*
X12496372Y-22319698D02*
X12458277Y-22319698D01*
X12458277Y-22319698D02*
X12439229Y-22329222D01*
X12439229Y-22329222D02*
X12429706Y-22338746D01*
X12429706Y-22338746D02*
X12420182Y-22357793D01*
X12420182Y-22357793D02*
X12420182Y-22395888D01*
X12420182Y-22395888D02*
X12429706Y-22414936D01*
X12429706Y-22414936D02*
X12439229Y-22424460D01*
X12439229Y-22424460D02*
X12458277Y-22433984D01*
X12458277Y-22433984D02*
X12496372Y-22433984D01*
X12496372Y-22433984D02*
X12515420Y-22424460D01*
X12515420Y-22424460D02*
X12524944Y-22414936D01*
X12524944Y-22414936D02*
X12534468Y-22395888D01*
X12534468Y-22395888D02*
X12534468Y-22357793D01*
X12534468Y-22357793D02*
X12524944Y-22338746D01*
X12524944Y-22338746D02*
X12515420Y-22329222D01*
X12515420Y-22329222D02*
X12496372Y-22319698D01*
X12772563Y-22433984D02*
X12772563Y-22233984D01*
X12858277Y-22433984D02*
X12858277Y-22329222D01*
X12858277Y-22329222D02*
X12848753Y-22310174D01*
X12848753Y-22310174D02*
X12829706Y-22300650D01*
X12829706Y-22300650D02*
X12801134Y-22300650D01*
X12801134Y-22300650D02*
X12782087Y-22310174D01*
X12782087Y-22310174D02*
X12772563Y-22319698D01*
X12982087Y-22433984D02*
X12963039Y-22424460D01*
X12963039Y-22424460D02*
X12953515Y-22414936D01*
X12953515Y-22414936D02*
X12943991Y-22395888D01*
X12943991Y-22395888D02*
X12943991Y-22338746D01*
X12943991Y-22338746D02*
X12953515Y-22319698D01*
X12953515Y-22319698D02*
X12963039Y-22310174D01*
X12963039Y-22310174D02*
X12982087Y-22300650D01*
X12982087Y-22300650D02*
X13010658Y-22300650D01*
X13010658Y-22300650D02*
X13029706Y-22310174D01*
X13029706Y-22310174D02*
X13039230Y-22319698D01*
X13039230Y-22319698D02*
X13048753Y-22338746D01*
X13048753Y-22338746D02*
X13048753Y-22395888D01*
X13048753Y-22395888D02*
X13039230Y-22414936D01*
X13039230Y-22414936D02*
X13029706Y-22424460D01*
X13029706Y-22424460D02*
X13010658Y-22433984D01*
X13010658Y-22433984D02*
X12982087Y-22433984D01*
X13163039Y-22433984D02*
X13143991Y-22424460D01*
X13143991Y-22424460D02*
X13134468Y-22405412D01*
X13134468Y-22405412D02*
X13134468Y-22233984D01*
X13315420Y-22424460D02*
X13296372Y-22433984D01*
X13296372Y-22433984D02*
X13258277Y-22433984D01*
X13258277Y-22433984D02*
X13239230Y-22424460D01*
X13239230Y-22424460D02*
X13229706Y-22405412D01*
X13229706Y-22405412D02*
X13229706Y-22329222D01*
X13229706Y-22329222D02*
X13239230Y-22310174D01*
X13239230Y-22310174D02*
X13258277Y-22300650D01*
X13258277Y-22300650D02*
X13296372Y-22300650D01*
X13296372Y-22300650D02*
X13315420Y-22310174D01*
X13315420Y-22310174D02*
X13324944Y-22329222D01*
X13324944Y-22329222D02*
X13324944Y-22348270D01*
X13324944Y-22348270D02*
X13229706Y-22367317D01*
X13401134Y-22424460D02*
X13420182Y-22433984D01*
X13420182Y-22433984D02*
X13458277Y-22433984D01*
X13458277Y-22433984D02*
X13477325Y-22424460D01*
X13477325Y-22424460D02*
X13486849Y-22405412D01*
X13486849Y-22405412D02*
X13486849Y-22395888D01*
X13486849Y-22395888D02*
X13477325Y-22376841D01*
X13477325Y-22376841D02*
X13458277Y-22367317D01*
X13458277Y-22367317D02*
X13429706Y-22367317D01*
X13429706Y-22367317D02*
X13410658Y-22357793D01*
X13410658Y-22357793D02*
X13401134Y-22338746D01*
X13401134Y-22338746D02*
X13401134Y-22329222D01*
X13401134Y-22329222D02*
X13410658Y-22310174D01*
X13410658Y-22310174D02*
X13429706Y-22300650D01*
X13429706Y-22300650D02*
X13458277Y-22300650D01*
X13458277Y-22300650D02*
X13477325Y-22310174D01*
X13553515Y-22510174D02*
X13563039Y-22500650D01*
X13563039Y-22500650D02*
X13582087Y-22472079D01*
X13582087Y-22472079D02*
X13591611Y-22453031D01*
X13591611Y-22453031D02*
X13601134Y-22424460D01*
X13601134Y-22424460D02*
X13610658Y-22376841D01*
X13610658Y-22376841D02*
X13610658Y-22338746D01*
X13610658Y-22338746D02*
X13601134Y-22291127D01*
X13601134Y-22291127D02*
X13591611Y-22262555D01*
X13591611Y-22262555D02*
X13582087Y-22243508D01*
X13582087Y-22243508D02*
X13563039Y-22214936D01*
X13563039Y-22214936D02*
X13553515Y-22205412D01*
X8397500Y-22606500D02*
G75*
G02*
X8197500Y-22606500I-100000J0D01*
G01*
X8197500Y-22606500D02*
G75*
G02*
X8397500Y-22606500I100000J0D01*
G01*
X8648753Y-22517031D02*
X8658277Y-22507508D01*
X8658277Y-22507508D02*
X8677324Y-22497984D01*
X8677324Y-22497984D02*
X8724944Y-22497984D01*
X8724944Y-22497984D02*
X8743991Y-22507508D01*
X8743991Y-22507508D02*
X8753515Y-22517031D01*
X8753515Y-22517031D02*
X8763039Y-22536079D01*
X8763039Y-22536079D02*
X8763039Y-22555127D01*
X8763039Y-22555127D02*
X8753515Y-22583698D01*
X8753515Y-22583698D02*
X8639229Y-22697984D01*
X8639229Y-22697984D02*
X8763039Y-22697984D01*
X8848753Y-22678936D02*
X8858277Y-22688460D01*
X8858277Y-22688460D02*
X8848753Y-22697984D01*
X8848753Y-22697984D02*
X8839229Y-22688460D01*
X8839229Y-22688460D02*
X8848753Y-22678936D01*
X8848753Y-22678936D02*
X8848753Y-22697984D01*
X8934467Y-22517031D02*
X8943991Y-22507508D01*
X8943991Y-22507508D02*
X8963039Y-22497984D01*
X8963039Y-22497984D02*
X9010658Y-22497984D01*
X9010658Y-22497984D02*
X9029705Y-22507508D01*
X9029705Y-22507508D02*
X9039229Y-22517031D01*
X9039229Y-22517031D02*
X9048753Y-22536079D01*
X9048753Y-22536079D02*
X9048753Y-22555127D01*
X9048753Y-22555127D02*
X9039229Y-22583698D01*
X9039229Y-22583698D02*
X8924944Y-22697984D01*
X8924944Y-22697984D02*
X9048753Y-22697984D01*
X9172563Y-22497984D02*
X9191610Y-22497984D01*
X9191610Y-22497984D02*
X9210658Y-22507508D01*
X9210658Y-22507508D02*
X9220182Y-22517031D01*
X9220182Y-22517031D02*
X9229705Y-22536079D01*
X9229705Y-22536079D02*
X9239229Y-22574174D01*
X9239229Y-22574174D02*
X9239229Y-22621793D01*
X9239229Y-22621793D02*
X9229705Y-22659888D01*
X9229705Y-22659888D02*
X9220182Y-22678936D01*
X9220182Y-22678936D02*
X9210658Y-22688460D01*
X9210658Y-22688460D02*
X9191610Y-22697984D01*
X9191610Y-22697984D02*
X9172563Y-22697984D01*
X9172563Y-22697984D02*
X9153515Y-22688460D01*
X9153515Y-22688460D02*
X9143991Y-22678936D01*
X9143991Y-22678936D02*
X9134467Y-22659888D01*
X9134467Y-22659888D02*
X9124944Y-22621793D01*
X9124944Y-22621793D02*
X9124944Y-22574174D01*
X9124944Y-22574174D02*
X9134467Y-22536079D01*
X9134467Y-22536079D02*
X9143991Y-22517031D01*
X9143991Y-22517031D02*
X9153515Y-22507508D01*
X9153515Y-22507508D02*
X9172563Y-22497984D01*
X9363039Y-22497984D02*
X9382086Y-22497984D01*
X9382086Y-22497984D02*
X9401134Y-22507508D01*
X9401134Y-22507508D02*
X9410658Y-22517031D01*
X9410658Y-22517031D02*
X9420182Y-22536079D01*
X9420182Y-22536079D02*
X9429705Y-22574174D01*
X9429705Y-22574174D02*
X9429705Y-22621793D01*
X9429705Y-22621793D02*
X9420182Y-22659888D01*
X9420182Y-22659888D02*
X9410658Y-22678936D01*
X9410658Y-22678936D02*
X9401134Y-22688460D01*
X9401134Y-22688460D02*
X9382086Y-22697984D01*
X9382086Y-22697984D02*
X9363039Y-22697984D01*
X9363039Y-22697984D02*
X9343991Y-22688460D01*
X9343991Y-22688460D02*
X9334467Y-22678936D01*
X9334467Y-22678936D02*
X9324944Y-22659888D01*
X9324944Y-22659888D02*
X9315420Y-22621793D01*
X9315420Y-22621793D02*
X9315420Y-22574174D01*
X9315420Y-22574174D02*
X9324944Y-22536079D01*
X9324944Y-22536079D02*
X9334467Y-22517031D01*
X9334467Y-22517031D02*
X9343991Y-22507508D01*
X9343991Y-22507508D02*
X9363039Y-22497984D01*
X9515420Y-22697984D02*
X9515420Y-22564650D01*
X9515420Y-22583698D02*
X9524944Y-22574174D01*
X9524944Y-22574174D02*
X9543991Y-22564650D01*
X9543991Y-22564650D02*
X9572563Y-22564650D01*
X9572563Y-22564650D02*
X9591610Y-22574174D01*
X9591610Y-22574174D02*
X9601134Y-22593222D01*
X9601134Y-22593222D02*
X9601134Y-22697984D01*
X9601134Y-22593222D02*
X9610658Y-22574174D01*
X9610658Y-22574174D02*
X9629705Y-22564650D01*
X9629705Y-22564650D02*
X9658277Y-22564650D01*
X9658277Y-22564650D02*
X9677325Y-22574174D01*
X9677325Y-22574174D02*
X9686848Y-22593222D01*
X9686848Y-22593222D02*
X9686848Y-22697984D01*
X9782086Y-22697984D02*
X9782086Y-22564650D01*
X9782086Y-22583698D02*
X9791610Y-22574174D01*
X9791610Y-22574174D02*
X9810658Y-22564650D01*
X9810658Y-22564650D02*
X9839229Y-22564650D01*
X9839229Y-22564650D02*
X9858277Y-22574174D01*
X9858277Y-22574174D02*
X9867801Y-22593222D01*
X9867801Y-22593222D02*
X9867801Y-22697984D01*
X9867801Y-22593222D02*
X9877325Y-22574174D01*
X9877325Y-22574174D02*
X9896372Y-22564650D01*
X9896372Y-22564650D02*
X9924944Y-22564650D01*
X9924944Y-22564650D02*
X9943991Y-22574174D01*
X9943991Y-22574174D02*
X9953515Y-22593222D01*
X9953515Y-22593222D02*
X9953515Y-22697984D01*
X10343991Y-22488460D02*
X10172563Y-22745603D01*
X10601134Y-22497984D02*
X10620182Y-22497984D01*
X10620182Y-22497984D02*
X10639229Y-22507508D01*
X10639229Y-22507508D02*
X10648753Y-22517031D01*
X10648753Y-22517031D02*
X10658277Y-22536079D01*
X10658277Y-22536079D02*
X10667801Y-22574174D01*
X10667801Y-22574174D02*
X10667801Y-22621793D01*
X10667801Y-22621793D02*
X10658277Y-22659888D01*
X10658277Y-22659888D02*
X10648753Y-22678936D01*
X10648753Y-22678936D02*
X10639229Y-22688460D01*
X10639229Y-22688460D02*
X10620182Y-22697984D01*
X10620182Y-22697984D02*
X10601134Y-22697984D01*
X10601134Y-22697984D02*
X10582087Y-22688460D01*
X10582087Y-22688460D02*
X10572563Y-22678936D01*
X10572563Y-22678936D02*
X10563039Y-22659888D01*
X10563039Y-22659888D02*
X10553515Y-22621793D01*
X10553515Y-22621793D02*
X10553515Y-22574174D01*
X10553515Y-22574174D02*
X10563039Y-22536079D01*
X10563039Y-22536079D02*
X10572563Y-22517031D01*
X10572563Y-22517031D02*
X10582087Y-22507508D01*
X10582087Y-22507508D02*
X10601134Y-22497984D01*
X10753515Y-22678936D02*
X10763039Y-22688460D01*
X10763039Y-22688460D02*
X10753515Y-22697984D01*
X10753515Y-22697984D02*
X10743991Y-22688460D01*
X10743991Y-22688460D02*
X10753515Y-22678936D01*
X10753515Y-22678936D02*
X10753515Y-22697984D01*
X10886848Y-22497984D02*
X10905896Y-22497984D01*
X10905896Y-22497984D02*
X10924944Y-22507508D01*
X10924944Y-22507508D02*
X10934468Y-22517031D01*
X10934468Y-22517031D02*
X10943991Y-22536079D01*
X10943991Y-22536079D02*
X10953515Y-22574174D01*
X10953515Y-22574174D02*
X10953515Y-22621793D01*
X10953515Y-22621793D02*
X10943991Y-22659888D01*
X10943991Y-22659888D02*
X10934468Y-22678936D01*
X10934468Y-22678936D02*
X10924944Y-22688460D01*
X10924944Y-22688460D02*
X10905896Y-22697984D01*
X10905896Y-22697984D02*
X10886848Y-22697984D01*
X10886848Y-22697984D02*
X10867801Y-22688460D01*
X10867801Y-22688460D02*
X10858277Y-22678936D01*
X10858277Y-22678936D02*
X10848753Y-22659888D01*
X10848753Y-22659888D02*
X10839229Y-22621793D01*
X10839229Y-22621793D02*
X10839229Y-22574174D01*
X10839229Y-22574174D02*
X10848753Y-22536079D01*
X10848753Y-22536079D02*
X10858277Y-22517031D01*
X10858277Y-22517031D02*
X10867801Y-22507508D01*
X10867801Y-22507508D02*
X10886848Y-22497984D01*
X11067801Y-22583698D02*
X11048753Y-22574174D01*
X11048753Y-22574174D02*
X11039229Y-22564650D01*
X11039229Y-22564650D02*
X11029706Y-22545603D01*
X11029706Y-22545603D02*
X11029706Y-22536079D01*
X11029706Y-22536079D02*
X11039229Y-22517031D01*
X11039229Y-22517031D02*
X11048753Y-22507508D01*
X11048753Y-22507508D02*
X11067801Y-22497984D01*
X11067801Y-22497984D02*
X11105896Y-22497984D01*
X11105896Y-22497984D02*
X11124944Y-22507508D01*
X11124944Y-22507508D02*
X11134468Y-22517031D01*
X11134468Y-22517031D02*
X11143991Y-22536079D01*
X11143991Y-22536079D02*
X11143991Y-22545603D01*
X11143991Y-22545603D02*
X11134468Y-22564650D01*
X11134468Y-22564650D02*
X11124944Y-22574174D01*
X11124944Y-22574174D02*
X11105896Y-22583698D01*
X11105896Y-22583698D02*
X11067801Y-22583698D01*
X11067801Y-22583698D02*
X11048753Y-22593222D01*
X11048753Y-22593222D02*
X11039229Y-22602746D01*
X11039229Y-22602746D02*
X11029706Y-22621793D01*
X11029706Y-22621793D02*
X11029706Y-22659888D01*
X11029706Y-22659888D02*
X11039229Y-22678936D01*
X11039229Y-22678936D02*
X11048753Y-22688460D01*
X11048753Y-22688460D02*
X11067801Y-22697984D01*
X11067801Y-22697984D02*
X11105896Y-22697984D01*
X11105896Y-22697984D02*
X11124944Y-22688460D01*
X11124944Y-22688460D02*
X11134468Y-22678936D01*
X11134468Y-22678936D02*
X11143991Y-22659888D01*
X11143991Y-22659888D02*
X11143991Y-22621793D01*
X11143991Y-22621793D02*
X11134468Y-22602746D01*
X11134468Y-22602746D02*
X11124944Y-22593222D01*
X11124944Y-22593222D02*
X11105896Y-22583698D01*
X11315420Y-22497984D02*
X11277325Y-22497984D01*
X11277325Y-22497984D02*
X11258277Y-22507508D01*
X11258277Y-22507508D02*
X11248753Y-22517031D01*
X11248753Y-22517031D02*
X11229706Y-22545603D01*
X11229706Y-22545603D02*
X11220182Y-22583698D01*
X11220182Y-22583698D02*
X11220182Y-22659888D01*
X11220182Y-22659888D02*
X11229706Y-22678936D01*
X11229706Y-22678936D02*
X11239229Y-22688460D01*
X11239229Y-22688460D02*
X11258277Y-22697984D01*
X11258277Y-22697984D02*
X11296372Y-22697984D01*
X11296372Y-22697984D02*
X11315420Y-22688460D01*
X11315420Y-22688460D02*
X11324944Y-22678936D01*
X11324944Y-22678936D02*
X11334467Y-22659888D01*
X11334467Y-22659888D02*
X11334467Y-22612269D01*
X11334467Y-22612269D02*
X11324944Y-22593222D01*
X11324944Y-22593222D02*
X11315420Y-22583698D01*
X11315420Y-22583698D02*
X11296372Y-22574174D01*
X11296372Y-22574174D02*
X11258277Y-22574174D01*
X11258277Y-22574174D02*
X11239229Y-22583698D01*
X11239229Y-22583698D02*
X11229706Y-22593222D01*
X11229706Y-22593222D02*
X11220182Y-22612269D01*
X11505896Y-22497984D02*
X11467801Y-22497984D01*
X11467801Y-22497984D02*
X11448753Y-22507508D01*
X11448753Y-22507508D02*
X11439229Y-22517031D01*
X11439229Y-22517031D02*
X11420182Y-22545603D01*
X11420182Y-22545603D02*
X11410658Y-22583698D01*
X11410658Y-22583698D02*
X11410658Y-22659888D01*
X11410658Y-22659888D02*
X11420182Y-22678936D01*
X11420182Y-22678936D02*
X11429706Y-22688460D01*
X11429706Y-22688460D02*
X11448753Y-22697984D01*
X11448753Y-22697984D02*
X11486848Y-22697984D01*
X11486848Y-22697984D02*
X11505896Y-22688460D01*
X11505896Y-22688460D02*
X11515420Y-22678936D01*
X11515420Y-22678936D02*
X11524944Y-22659888D01*
X11524944Y-22659888D02*
X11524944Y-22612269D01*
X11524944Y-22612269D02*
X11515420Y-22593222D01*
X11515420Y-22593222D02*
X11505896Y-22583698D01*
X11505896Y-22583698D02*
X11486848Y-22574174D01*
X11486848Y-22574174D02*
X11448753Y-22574174D01*
X11448753Y-22574174D02*
X11429706Y-22583698D01*
X11429706Y-22583698D02*
X11420182Y-22593222D01*
X11420182Y-22593222D02*
X11410658Y-22612269D01*
X11601134Y-22497984D02*
X11601134Y-22536079D01*
X11677325Y-22497984D02*
X11677325Y-22536079D01*
X11972563Y-22774174D02*
X11963039Y-22764650D01*
X11963039Y-22764650D02*
X11943991Y-22736079D01*
X11943991Y-22736079D02*
X11934468Y-22717031D01*
X11934468Y-22717031D02*
X11924944Y-22688460D01*
X11924944Y-22688460D02*
X11915420Y-22640841D01*
X11915420Y-22640841D02*
X11915420Y-22602746D01*
X11915420Y-22602746D02*
X11924944Y-22555127D01*
X11924944Y-22555127D02*
X11934468Y-22526555D01*
X11934468Y-22526555D02*
X11943991Y-22507508D01*
X11943991Y-22507508D02*
X11963039Y-22478936D01*
X11963039Y-22478936D02*
X11972563Y-22469412D01*
X12134468Y-22564650D02*
X12134468Y-22697984D01*
X12086848Y-22488460D02*
X12039229Y-22631317D01*
X12039229Y-22631317D02*
X12163039Y-22631317D01*
X12391610Y-22697984D02*
X12391610Y-22497984D01*
X12477325Y-22697984D02*
X12477325Y-22593222D01*
X12477325Y-22593222D02*
X12467801Y-22574174D01*
X12467801Y-22574174D02*
X12448753Y-22564650D01*
X12448753Y-22564650D02*
X12420182Y-22564650D01*
X12420182Y-22564650D02*
X12401134Y-22574174D01*
X12401134Y-22574174D02*
X12391610Y-22583698D01*
X12601134Y-22697984D02*
X12582087Y-22688460D01*
X12582087Y-22688460D02*
X12572563Y-22678936D01*
X12572563Y-22678936D02*
X12563039Y-22659888D01*
X12563039Y-22659888D02*
X12563039Y-22602746D01*
X12563039Y-22602746D02*
X12572563Y-22583698D01*
X12572563Y-22583698D02*
X12582087Y-22574174D01*
X12582087Y-22574174D02*
X12601134Y-22564650D01*
X12601134Y-22564650D02*
X12629706Y-22564650D01*
X12629706Y-22564650D02*
X12648753Y-22574174D01*
X12648753Y-22574174D02*
X12658277Y-22583698D01*
X12658277Y-22583698D02*
X12667801Y-22602746D01*
X12667801Y-22602746D02*
X12667801Y-22659888D01*
X12667801Y-22659888D02*
X12658277Y-22678936D01*
X12658277Y-22678936D02*
X12648753Y-22688460D01*
X12648753Y-22688460D02*
X12629706Y-22697984D01*
X12629706Y-22697984D02*
X12601134Y-22697984D01*
X12782087Y-22697984D02*
X12763039Y-22688460D01*
X12763039Y-22688460D02*
X12753515Y-22669412D01*
X12753515Y-22669412D02*
X12753515Y-22497984D01*
X12934468Y-22688460D02*
X12915420Y-22697984D01*
X12915420Y-22697984D02*
X12877325Y-22697984D01*
X12877325Y-22697984D02*
X12858277Y-22688460D01*
X12858277Y-22688460D02*
X12848753Y-22669412D01*
X12848753Y-22669412D02*
X12848753Y-22593222D01*
X12848753Y-22593222D02*
X12858277Y-22574174D01*
X12858277Y-22574174D02*
X12877325Y-22564650D01*
X12877325Y-22564650D02*
X12915420Y-22564650D01*
X12915420Y-22564650D02*
X12934468Y-22574174D01*
X12934468Y-22574174D02*
X12943991Y-22593222D01*
X12943991Y-22593222D02*
X12943991Y-22612269D01*
X12943991Y-22612269D02*
X12848753Y-22631317D01*
X13020182Y-22688460D02*
X13039230Y-22697984D01*
X13039230Y-22697984D02*
X13077325Y-22697984D01*
X13077325Y-22697984D02*
X13096372Y-22688460D01*
X13096372Y-22688460D02*
X13105896Y-22669412D01*
X13105896Y-22669412D02*
X13105896Y-22659888D01*
X13105896Y-22659888D02*
X13096372Y-22640841D01*
X13096372Y-22640841D02*
X13077325Y-22631317D01*
X13077325Y-22631317D02*
X13048753Y-22631317D01*
X13048753Y-22631317D02*
X13029706Y-22621793D01*
X13029706Y-22621793D02*
X13020182Y-22602746D01*
X13020182Y-22602746D02*
X13020182Y-22593222D01*
X13020182Y-22593222D02*
X13029706Y-22574174D01*
X13029706Y-22574174D02*
X13048753Y-22564650D01*
X13048753Y-22564650D02*
X13077325Y-22564650D01*
X13077325Y-22564650D02*
X13096372Y-22574174D01*
X13172563Y-22774174D02*
X13182087Y-22764650D01*
X13182087Y-22764650D02*
X13201134Y-22736079D01*
X13201134Y-22736079D02*
X13210658Y-22717031D01*
X13210658Y-22717031D02*
X13220182Y-22688460D01*
X13220182Y-22688460D02*
X13229706Y-22640841D01*
X13229706Y-22640841D02*
X13229706Y-22602746D01*
X13229706Y-22602746D02*
X13220182Y-22555127D01*
X13220182Y-22555127D02*
X13210658Y-22526555D01*
X13210658Y-22526555D02*
X13201134Y-22507508D01*
X13201134Y-22507508D02*
X13182087Y-22478936D01*
X13182087Y-22478936D02*
X13172563Y-22469412D01*
M02*
