%TF.GenerationSoftware,KiCad,Pcbnew,8.0.2*%
%TF.CreationDate,2024-08-26T09:50:41-06:00*%
%TF.ProjectId,Perfboard_1_Vertical,50657266-626f-4617-9264-5f315f566572,rev?*%
%TF.SameCoordinates,Original*%
%TF.FileFunction,Drillmap*%
%TF.FilePolarity,Positive*%
%FSLAX45Y45*%
G04 Gerber Fmt 4.5, Leading zero omitted, Abs format (unit mm)*
G04 Created by KiCad (PCBNEW 8.0.2) date 2024-08-26 09:50:41*
%MOMM*%
%LPD*%
G01*
G04 APERTURE LIST*
%ADD10C,0.025400*%
%ADD11C,0.050000*%
%ADD12C,0.200000*%
G04 APERTURE END LIST*
D10*
X14000000Y-3000000D02*
X8400000Y-3000000D01*
X8400000Y-21700000D02*
X8400000Y-3000000D01*
X14000000Y-3000000D02*
X14000000Y-21700000D01*
D11*
X14000000Y-21700000D02*
X8400000Y-21700000D01*
D12*
X8658277Y-22013984D02*
X8658277Y-21813984D01*
X8658277Y-21813984D02*
X8705896Y-21813984D01*
X8705896Y-21813984D02*
X8734467Y-21823508D01*
X8734467Y-21823508D02*
X8753515Y-21842555D01*
X8753515Y-21842555D02*
X8763039Y-21861603D01*
X8763039Y-21861603D02*
X8772563Y-21899698D01*
X8772563Y-21899698D02*
X8772563Y-21928270D01*
X8772563Y-21928270D02*
X8763039Y-21966365D01*
X8763039Y-21966365D02*
X8753515Y-21985412D01*
X8753515Y-21985412D02*
X8734467Y-22004460D01*
X8734467Y-22004460D02*
X8705896Y-22013984D01*
X8705896Y-22013984D02*
X8658277Y-22013984D01*
X8858277Y-22013984D02*
X8858277Y-21880650D01*
X8858277Y-21918746D02*
X8867801Y-21899698D01*
X8867801Y-21899698D02*
X8877324Y-21890174D01*
X8877324Y-21890174D02*
X8896372Y-21880650D01*
X8896372Y-21880650D02*
X8915420Y-21880650D01*
X8982086Y-22013984D02*
X8982086Y-21880650D01*
X8982086Y-21813984D02*
X8972563Y-21823508D01*
X8972563Y-21823508D02*
X8982086Y-21833031D01*
X8982086Y-21833031D02*
X8991610Y-21823508D01*
X8991610Y-21823508D02*
X8982086Y-21813984D01*
X8982086Y-21813984D02*
X8982086Y-21833031D01*
X9105896Y-22013984D02*
X9086848Y-22004460D01*
X9086848Y-22004460D02*
X9077324Y-21985412D01*
X9077324Y-21985412D02*
X9077324Y-21813984D01*
X9210658Y-22013984D02*
X9191610Y-22004460D01*
X9191610Y-22004460D02*
X9182086Y-21985412D01*
X9182086Y-21985412D02*
X9182086Y-21813984D01*
X9439229Y-22013984D02*
X9439229Y-21813984D01*
X9439229Y-21813984D02*
X9505896Y-21956841D01*
X9505896Y-21956841D02*
X9572563Y-21813984D01*
X9572563Y-21813984D02*
X9572563Y-22013984D01*
X9753515Y-22013984D02*
X9753515Y-21909222D01*
X9753515Y-21909222D02*
X9743991Y-21890174D01*
X9743991Y-21890174D02*
X9724944Y-21880650D01*
X9724944Y-21880650D02*
X9686848Y-21880650D01*
X9686848Y-21880650D02*
X9667801Y-21890174D01*
X9753515Y-22004460D02*
X9734467Y-22013984D01*
X9734467Y-22013984D02*
X9686848Y-22013984D01*
X9686848Y-22013984D02*
X9667801Y-22004460D01*
X9667801Y-22004460D02*
X9658277Y-21985412D01*
X9658277Y-21985412D02*
X9658277Y-21966365D01*
X9658277Y-21966365D02*
X9667801Y-21947317D01*
X9667801Y-21947317D02*
X9686848Y-21937793D01*
X9686848Y-21937793D02*
X9734467Y-21937793D01*
X9734467Y-21937793D02*
X9753515Y-21928270D01*
X9848753Y-21880650D02*
X9848753Y-22080650D01*
X9848753Y-21890174D02*
X9867801Y-21880650D01*
X9867801Y-21880650D02*
X9905896Y-21880650D01*
X9905896Y-21880650D02*
X9924944Y-21890174D01*
X9924944Y-21890174D02*
X9934467Y-21899698D01*
X9934467Y-21899698D02*
X9943991Y-21918746D01*
X9943991Y-21918746D02*
X9943991Y-21975889D01*
X9943991Y-21975889D02*
X9934467Y-21994936D01*
X9934467Y-21994936D02*
X9924944Y-22004460D01*
X9924944Y-22004460D02*
X9905896Y-22013984D01*
X9905896Y-22013984D02*
X9867801Y-22013984D01*
X9867801Y-22013984D02*
X9848753Y-22004460D01*
X10029705Y-21994936D02*
X10039229Y-22004460D01*
X10039229Y-22004460D02*
X10029705Y-22013984D01*
X10029705Y-22013984D02*
X10020182Y-22004460D01*
X10020182Y-22004460D02*
X10029705Y-21994936D01*
X10029705Y-21994936D02*
X10029705Y-22013984D01*
X10029705Y-21890174D02*
X10039229Y-21899698D01*
X10039229Y-21899698D02*
X10029705Y-21909222D01*
X10029705Y-21909222D02*
X10020182Y-21899698D01*
X10020182Y-21899698D02*
X10029705Y-21890174D01*
X10029705Y-21890174D02*
X10029705Y-21909222D01*
M02*
