G04 #@! TF.GenerationSoftware,KiCad,Pcbnew,8.0.2*
G04 #@! TF.CreationDate,2024-08-26T09:39:57-06:00*
G04 #@! TF.ProjectId,Perfboard,50657266-626f-4617-9264-2e6b69636164,rev?*
G04 #@! TF.SameCoordinates,Original*
G04 #@! TF.FileFunction,Copper,L1,Top*
G04 #@! TF.FilePolarity,Positive*
%FSLAX46Y46*%
G04 Gerber Fmt 4.6, Leading zero omitted, Abs format (unit mm)*
G04 Created by KiCad (PCBNEW 8.0.2) date 2024-08-26 09:39:57*
%MOMM*%
%LPD*%
G01*
G04 APERTURE LIST*
G04 Aperture macros list*
%AMFreePoly0*
4,1,19,0.500000,-0.750000,0.000000,-0.750000,0.000000,-0.744911,-0.071157,-0.744911,-0.207708,-0.704816,-0.327430,-0.627875,-0.420627,-0.520320,-0.479746,-0.390866,-0.500000,-0.250000,-0.500000,0.250000,-0.479746,0.390866,-0.420627,0.520320,-0.327430,0.627875,-0.207708,0.704816,-0.071157,0.744911,0.000000,0.744911,0.000000,0.750000,0.500000,0.750000,0.500000,-0.750000,0.500000,-0.750000,
$1*%
%AMFreePoly1*
4,1,19,0.000000,0.744911,0.071157,0.744911,0.207708,0.704816,0.327430,0.627875,0.420627,0.520320,0.479746,0.390866,0.500000,0.250000,0.500000,-0.250000,0.479746,-0.390866,0.420627,-0.520320,0.327430,-0.627875,0.207708,-0.704816,0.071157,-0.744911,0.000000,-0.744911,0.000000,-0.750000,-0.500000,-0.750000,-0.500000,0.750000,0.000000,0.750000,0.000000,0.744911,0.000000,0.744911,
$1*%
G04 Aperture macros list end*
G04 #@! TA.AperFunction,ComponentPad*
%ADD10C,1.600000*%
G04 #@! TD*
G04 #@! TA.AperFunction,ComponentPad*
%ADD11C,2.600000*%
G04 #@! TD*
G04 #@! TA.AperFunction,ConnectorPad*
%ADD12C,3.800000*%
G04 #@! TD*
G04 #@! TA.AperFunction,SMDPad,CuDef*
%ADD13FreePoly0,0.000000*%
G04 #@! TD*
G04 #@! TA.AperFunction,SMDPad,CuDef*
%ADD14FreePoly1,0.000000*%
G04 #@! TD*
G04 #@! TA.AperFunction,SMDPad,CuDef*
%ADD15FreePoly0,90.000000*%
G04 #@! TD*
G04 #@! TA.AperFunction,SMDPad,CuDef*
%ADD16FreePoly1,90.000000*%
G04 #@! TD*
G04 #@! TA.AperFunction,Conductor*
%ADD17C,1.500000*%
G04 #@! TD*
G04 #@! TA.AperFunction,Conductor*
%ADD18C,1.000000*%
G04 #@! TD*
G04 APERTURE END LIST*
D10*
X125680000Y-88720000D03*
X143460000Y-126820000D03*
X153620000Y-65860000D03*
X125680000Y-119200000D03*
X135840000Y-78560000D03*
X128220000Y-76020000D03*
X140920000Y-65860000D03*
X151080000Y-121740000D03*
X135840000Y-134440000D03*
X125680000Y-78560000D03*
X163780000Y-91260000D03*
X135840000Y-76020000D03*
X166320000Y-86180000D03*
X133300000Y-139520000D03*
D11*
X122000000Y-47000000D03*
D12*
X122000000Y-47000000D03*
D10*
X151080000Y-119200000D03*
X138380000Y-111580000D03*
X140920000Y-139520000D03*
X153620000Y-96340000D03*
X143460000Y-96340000D03*
X148540000Y-76020000D03*
D11*
X170000000Y-146000000D03*
D12*
X170000000Y-146000000D03*
D10*
X151080000Y-86180000D03*
X163780000Y-111580000D03*
X158700000Y-119200000D03*
X133300000Y-114120000D03*
X143460000Y-86180000D03*
X133300000Y-98880000D03*
X125680000Y-136980000D03*
X151080000Y-136980000D03*
X151080000Y-88720000D03*
X151080000Y-101420000D03*
X138380000Y-121740000D03*
X153620000Y-70940000D03*
X163780000Y-119200000D03*
X135840000Y-88720000D03*
X128220000Y-78560000D03*
X135840000Y-114120000D03*
X143460000Y-124280000D03*
X153620000Y-111580000D03*
X151080000Y-73480000D03*
X148540000Y-98880000D03*
X163780000Y-65860000D03*
X163780000Y-78560000D03*
X133300000Y-96340000D03*
X135840000Y-101420000D03*
X158700000Y-124280000D03*
X163780000Y-86180000D03*
X125680000Y-76020000D03*
X125680000Y-106500000D03*
X151080000Y-76020000D03*
X143460000Y-129360000D03*
X148540000Y-139520000D03*
X133300000Y-101420000D03*
X148540000Y-111580000D03*
X140920000Y-126820000D03*
X128220000Y-139520000D03*
X135840000Y-139520000D03*
X153620000Y-78560000D03*
X158700000Y-139520000D03*
X140920000Y-70940000D03*
X158700000Y-103960000D03*
X138380000Y-116660000D03*
X151080000Y-126820000D03*
X133300000Y-86180000D03*
X143460000Y-78560000D03*
X158700000Y-116660000D03*
X153620000Y-83640000D03*
X138380000Y-81100000D03*
X156160000Y-139520000D03*
X163780000Y-136980000D03*
X143460000Y-68400000D03*
X128220000Y-73480000D03*
X140920000Y-91260000D03*
X125680000Y-134440000D03*
X133300000Y-68400000D03*
X156160000Y-96340000D03*
X158700000Y-91260000D03*
X151080000Y-124280000D03*
X133300000Y-119200000D03*
X163780000Y-124280000D03*
X166320000Y-78560000D03*
X125680000Y-121740000D03*
X140920000Y-86180000D03*
X128220000Y-116660000D03*
X158700000Y-65860000D03*
X156160000Y-116660000D03*
X148540000Y-81100000D03*
D13*
X133320000Y-57150000D03*
D14*
X134620000Y-57150000D03*
D10*
X151080000Y-98880000D03*
X138380000Y-98880000D03*
X158700000Y-73480000D03*
X138380000Y-129360000D03*
X156160000Y-78560000D03*
X138380000Y-136980000D03*
X156160000Y-124280000D03*
X151080000Y-96340000D03*
X138380000Y-70940000D03*
X138380000Y-91260000D03*
X156160000Y-129360000D03*
X128220000Y-111580000D03*
X148540000Y-73480000D03*
X156160000Y-114120000D03*
X143460000Y-98880000D03*
X133300000Y-116660000D03*
X156160000Y-68400000D03*
X151080000Y-68400000D03*
X153620000Y-88720000D03*
X140920000Y-136980000D03*
X128220000Y-70940000D03*
X156160000Y-88720000D03*
X166320000Y-76020000D03*
X153620000Y-139520000D03*
X140920000Y-88720000D03*
X143460000Y-116660000D03*
X156160000Y-81100000D03*
X143460000Y-106500000D03*
X143460000Y-101420000D03*
X158700000Y-81100000D03*
X143460000Y-81100000D03*
X163780000Y-68400000D03*
X140920000Y-106500000D03*
X158700000Y-129360000D03*
X143460000Y-65860000D03*
X143460000Y-91260000D03*
X128220000Y-121740000D03*
X166320000Y-83640000D03*
X133300000Y-106500000D03*
X148540000Y-106500000D03*
X133300000Y-91260000D03*
D15*
X123140000Y-102070000D03*
D16*
X123140000Y-100770000D03*
D10*
X151080000Y-131900000D03*
X163780000Y-126820000D03*
X138380000Y-139520000D03*
X153620000Y-81100000D03*
X166320000Y-124280000D03*
X166320000Y-131900000D03*
X158700000Y-109040000D03*
X166320000Y-126820000D03*
X148540000Y-88720000D03*
X163780000Y-83640000D03*
X135840000Y-111580000D03*
X140920000Y-103960000D03*
X163780000Y-131900000D03*
X158700000Y-78560000D03*
X125680000Y-139520000D03*
X151080000Y-70940000D03*
X148540000Y-109040000D03*
X140920000Y-96340000D03*
X153620000Y-136980000D03*
X148540000Y-91260000D03*
X125680000Y-81100000D03*
X125680000Y-68400000D03*
X153620000Y-124280000D03*
X158700000Y-131900000D03*
X125680000Y-114120000D03*
X125680000Y-73480000D03*
X135840000Y-126820000D03*
X163780000Y-73480000D03*
X156160000Y-93800000D03*
X143460000Y-131900000D03*
X153620000Y-86180000D03*
X128220000Y-81100000D03*
X125680000Y-116660000D03*
X133300000Y-65860000D03*
X133300000Y-129360000D03*
X135840000Y-81100000D03*
X138380000Y-88720000D03*
D15*
X168860000Y-102070000D03*
D16*
X168860000Y-100770000D03*
D10*
X153620000Y-106500000D03*
X166320000Y-96340000D03*
X135840000Y-65860000D03*
X138380000Y-114120000D03*
X133300000Y-109040000D03*
X151080000Y-103960000D03*
X125680000Y-129360000D03*
X140920000Y-111580000D03*
X166320000Y-134440000D03*
X128220000Y-65860000D03*
X135840000Y-73480000D03*
X153620000Y-114120000D03*
X133300000Y-73480000D03*
X133300000Y-124280000D03*
X143460000Y-93800000D03*
X135840000Y-70940000D03*
X148540000Y-136980000D03*
X156160000Y-98880000D03*
X151080000Y-91260000D03*
X151080000Y-129360000D03*
X125680000Y-124280000D03*
X156160000Y-70940000D03*
X166320000Y-73480000D03*
X158700000Y-121740000D03*
X143460000Y-136980000D03*
X143460000Y-139520000D03*
X128220000Y-106500000D03*
X133300000Y-131900000D03*
X138380000Y-83640000D03*
X156160000Y-121740000D03*
X128220000Y-86180000D03*
X163780000Y-70940000D03*
X156160000Y-86180000D03*
X133300000Y-70940000D03*
X133300000Y-83640000D03*
X153620000Y-129360000D03*
X166320000Y-93800000D03*
X135840000Y-83640000D03*
X153620000Y-98880000D03*
X138380000Y-65860000D03*
X125680000Y-70940000D03*
X140920000Y-134440000D03*
X158700000Y-83640000D03*
X156160000Y-126820000D03*
X133300000Y-88720000D03*
X158700000Y-136980000D03*
X153620000Y-119200000D03*
X151080000Y-78560000D03*
X148540000Y-78560000D03*
X166320000Y-109040000D03*
X156160000Y-91260000D03*
X158700000Y-98880000D03*
X125680000Y-96340000D03*
X135840000Y-68400000D03*
X125680000Y-111580000D03*
X163780000Y-134440000D03*
X153620000Y-134440000D03*
X151080000Y-106500000D03*
X140920000Y-121740000D03*
X153620000Y-109040000D03*
X148540000Y-124280000D03*
X138380000Y-119200000D03*
X140920000Y-76020000D03*
X140920000Y-101420000D03*
X148540000Y-65860000D03*
X163780000Y-109040000D03*
X158700000Y-111580000D03*
X140920000Y-98880000D03*
X151080000Y-134440000D03*
X135840000Y-119200000D03*
X156160000Y-101420000D03*
X158700000Y-68400000D03*
X143460000Y-83640000D03*
X133300000Y-136980000D03*
X128220000Y-109040000D03*
X158700000Y-70940000D03*
X138380000Y-93800000D03*
X133300000Y-121740000D03*
X148540000Y-96340000D03*
X135840000Y-116660000D03*
X135840000Y-93800000D03*
X125680000Y-109040000D03*
X166320000Y-139520000D03*
X148540000Y-126820000D03*
X143460000Y-111580000D03*
X153620000Y-126820000D03*
D13*
X133320000Y-60960000D03*
D14*
X134620000Y-60960000D03*
D10*
X140920000Y-131900000D03*
X138380000Y-73480000D03*
X166320000Y-70940000D03*
X125680000Y-93800000D03*
X153620000Y-131900000D03*
X128220000Y-131900000D03*
X148540000Y-103960000D03*
X135840000Y-131900000D03*
X128220000Y-136980000D03*
X156160000Y-83640000D03*
X135840000Y-96340000D03*
X158700000Y-101420000D03*
X158700000Y-76020000D03*
X125680000Y-126820000D03*
X151080000Y-114120000D03*
X148540000Y-93800000D03*
X148540000Y-116660000D03*
X133300000Y-126820000D03*
X156160000Y-119200000D03*
X163780000Y-81100000D03*
X166320000Y-81100000D03*
X156160000Y-106500000D03*
X140920000Y-78560000D03*
X158700000Y-114120000D03*
D13*
X133970000Y-148590000D03*
D14*
X135270000Y-148590000D03*
D10*
X153620000Y-93800000D03*
X143460000Y-121740000D03*
X140920000Y-83640000D03*
X133300000Y-111580000D03*
X143460000Y-109040000D03*
X138380000Y-101420000D03*
X163780000Y-96340000D03*
X128220000Y-119200000D03*
X133300000Y-76020000D03*
D11*
X122000000Y-146000000D03*
D12*
X122000000Y-146000000D03*
D10*
X135840000Y-136980000D03*
X153620000Y-68400000D03*
X138380000Y-106500000D03*
X128220000Y-93800000D03*
X128220000Y-91260000D03*
X166320000Y-111580000D03*
X148540000Y-119200000D03*
X135840000Y-109040000D03*
X125680000Y-91260000D03*
X156160000Y-111580000D03*
X138380000Y-109040000D03*
X143460000Y-134440000D03*
X140920000Y-93800000D03*
X148540000Y-121740000D03*
X125680000Y-65860000D03*
X151080000Y-116660000D03*
X140920000Y-116660000D03*
X140920000Y-81100000D03*
X125680000Y-131900000D03*
X140920000Y-129360000D03*
X156160000Y-103960000D03*
X163780000Y-139520000D03*
X166320000Y-114120000D03*
X148540000Y-114120000D03*
X156160000Y-134440000D03*
X151080000Y-65860000D03*
X151080000Y-93800000D03*
X135840000Y-103960000D03*
X135840000Y-98880000D03*
X163780000Y-88720000D03*
X156160000Y-131900000D03*
X138380000Y-96340000D03*
X140920000Y-114120000D03*
X151080000Y-109040000D03*
X133300000Y-134440000D03*
X138380000Y-103960000D03*
X166320000Y-91260000D03*
X163780000Y-114120000D03*
X166320000Y-129360000D03*
X148540000Y-70940000D03*
X166320000Y-136980000D03*
X135840000Y-121740000D03*
X156160000Y-65860000D03*
X128220000Y-114120000D03*
X138380000Y-126820000D03*
X128220000Y-134440000D03*
X135840000Y-91260000D03*
X153620000Y-76020000D03*
X128220000Y-126820000D03*
X153620000Y-121740000D03*
X163780000Y-93800000D03*
X133300000Y-78560000D03*
X148540000Y-83640000D03*
D15*
X163780000Y-102070000D03*
D16*
X163780000Y-100770000D03*
D10*
X135840000Y-106500000D03*
X128220000Y-124280000D03*
X153620000Y-91260000D03*
X163780000Y-129360000D03*
X143460000Y-73480000D03*
X156160000Y-73480000D03*
X151080000Y-139520000D03*
D11*
X170000000Y-47000000D03*
D12*
X170000000Y-47000000D03*
D10*
X125680000Y-83640000D03*
X166320000Y-88720000D03*
X140920000Y-73480000D03*
X140920000Y-119200000D03*
X158700000Y-88720000D03*
X143460000Y-103960000D03*
X158700000Y-86180000D03*
X135840000Y-124280000D03*
X163780000Y-76020000D03*
X128220000Y-83640000D03*
X138380000Y-76020000D03*
X166320000Y-106500000D03*
X133300000Y-103960000D03*
X163780000Y-121740000D03*
X163780000Y-106500000D03*
X158700000Y-134440000D03*
X148540000Y-68400000D03*
X138380000Y-134440000D03*
X143460000Y-88720000D03*
X166320000Y-116660000D03*
X153620000Y-73480000D03*
D15*
X128220000Y-102070000D03*
D16*
X128220000Y-100770000D03*
D10*
X143460000Y-76020000D03*
X133300000Y-93800000D03*
X140920000Y-109040000D03*
X148540000Y-86180000D03*
X156160000Y-76020000D03*
X135840000Y-129360000D03*
X158700000Y-93800000D03*
X158700000Y-96340000D03*
X156160000Y-109040000D03*
X156160000Y-136980000D03*
X140920000Y-124280000D03*
X153620000Y-101420000D03*
X166320000Y-119200000D03*
X148540000Y-134440000D03*
X153620000Y-103960000D03*
X151080000Y-111580000D03*
X151080000Y-81100000D03*
X148540000Y-129360000D03*
X140920000Y-68400000D03*
X133300000Y-81100000D03*
X148540000Y-101420000D03*
X166320000Y-65860000D03*
X125680000Y-86180000D03*
X158700000Y-126820000D03*
D13*
X133970000Y-144780000D03*
D14*
X135270000Y-144780000D03*
D10*
X143460000Y-119200000D03*
X153620000Y-116660000D03*
X138380000Y-86180000D03*
X148540000Y-131900000D03*
X138380000Y-124280000D03*
X128220000Y-88720000D03*
X163780000Y-116660000D03*
X128220000Y-96340000D03*
X143460000Y-114120000D03*
X135840000Y-86180000D03*
X138380000Y-78560000D03*
X166320000Y-121740000D03*
X128220000Y-68400000D03*
X151080000Y-83640000D03*
X128220000Y-129360000D03*
X158700000Y-106500000D03*
X138380000Y-68400000D03*
X143460000Y-70940000D03*
X138380000Y-131900000D03*
X166320000Y-68400000D03*
D17*
X133300000Y-116660000D02*
X143460000Y-116660000D01*
X133300000Y-65860000D02*
X143460000Y-65860000D01*
D18*
X128220000Y-96340000D02*
X128220000Y-100770000D01*
X130810000Y-144780000D02*
X133970000Y-144780000D01*
D17*
X133300000Y-96340000D02*
X143460000Y-96340000D01*
X143460000Y-126820000D02*
X133300000Y-126820000D01*
X148540000Y-119200000D02*
X158700000Y-119200000D01*
X148540000Y-73480000D02*
X158700000Y-73480000D01*
X148540000Y-101420000D02*
X158700000Y-101420000D01*
X158700000Y-131900000D02*
X148540000Y-131900000D01*
X166320000Y-96340000D02*
X166320000Y-65860000D01*
D18*
X161290000Y-148590000D02*
X166320000Y-143560000D01*
X163780000Y-106500000D02*
X163780000Y-102070000D01*
D17*
X133300000Y-119200000D02*
X143460000Y-119200000D01*
D18*
X128220000Y-63550000D02*
X130810000Y-60960000D01*
X128220000Y-102070000D02*
X128220000Y-106500000D01*
D17*
X133300000Y-86180000D02*
X143460000Y-86180000D01*
X133300000Y-124280000D02*
X143460000Y-124280000D01*
D18*
X125680000Y-139520000D02*
X125680000Y-143460000D01*
X125680000Y-62280000D02*
X130810000Y-57150000D01*
X166320000Y-143560000D02*
X166320000Y-139520000D01*
D17*
X133300000Y-70940000D02*
X143460000Y-70940000D01*
X143460000Y-136980000D02*
X133300000Y-136980000D01*
D18*
X125680000Y-106500000D02*
X125680000Y-104610000D01*
D17*
X148540000Y-83640000D02*
X158700000Y-83640000D01*
X128220000Y-96340000D02*
X128220000Y-65860000D01*
X158700000Y-93800000D02*
X148540000Y-93800000D01*
X148540000Y-86180000D02*
X158700000Y-86180000D01*
D18*
X134620000Y-57150000D02*
X161290000Y-57150000D01*
X163780000Y-100770000D02*
X163780000Y-96340000D01*
D17*
X125680000Y-65860000D02*
X125680000Y-93800000D01*
X128220000Y-139520000D02*
X128220000Y-106500000D01*
X148540000Y-78560000D02*
X158700000Y-78560000D01*
X148540000Y-91260000D02*
X158700000Y-91260000D01*
X148540000Y-111580000D02*
X158700000Y-111580000D01*
X148540000Y-121740000D02*
X158700000Y-121740000D01*
X148540000Y-109040000D02*
X158700000Y-109040000D01*
X133300000Y-101420000D02*
X143460000Y-101420000D01*
X133300000Y-139520000D02*
X143460000Y-139520000D01*
D18*
X128220000Y-139520000D02*
X128220000Y-142190000D01*
D17*
X148540000Y-70940000D02*
X158700000Y-70940000D01*
X133300000Y-76020000D02*
X143460000Y-76020000D01*
X133300000Y-134440000D02*
X143460000Y-134440000D01*
D18*
X130810000Y-148590000D02*
X133970000Y-148590000D01*
D17*
X133300000Y-98880000D02*
X143460000Y-98880000D01*
X158700000Y-98880000D02*
X148540000Y-98880000D01*
D18*
X123140000Y-100770000D02*
X123140000Y-98880000D01*
X128220000Y-65860000D02*
X128220000Y-63550000D01*
X166320000Y-104610000D02*
X168860000Y-102070000D01*
D17*
X133300000Y-106500000D02*
X143460000Y-106500000D01*
X166320000Y-139520000D02*
X166320000Y-106500000D01*
X133300000Y-109040000D02*
X143460000Y-109040000D01*
D18*
X166320000Y-106500000D02*
X166320000Y-104610000D01*
D17*
X148540000Y-114120000D02*
X158700000Y-114120000D01*
X148540000Y-81100000D02*
X158700000Y-81100000D01*
X125680000Y-96340000D02*
X125680000Y-93800000D01*
X143460000Y-68400000D02*
X133300000Y-68400000D01*
D18*
X161290000Y-57150000D02*
X166370000Y-62230000D01*
D17*
X133300000Y-93800000D02*
X143460000Y-93800000D01*
D18*
X168860000Y-100770000D02*
X168860000Y-98880000D01*
X135270000Y-148590000D02*
X161290000Y-148590000D01*
X125680000Y-104610000D02*
X123140000Y-102070000D01*
D17*
X133300000Y-81100000D02*
X143460000Y-81100000D01*
X133300000Y-114120000D02*
X143460000Y-114120000D01*
X158700000Y-124280000D02*
X148540000Y-124280000D01*
D18*
X130810000Y-60960000D02*
X133320000Y-60960000D01*
X163830000Y-63500000D02*
X161290000Y-60960000D01*
X166320000Y-63550000D02*
X166320000Y-65860000D01*
D17*
X133300000Y-103960000D02*
X143460000Y-103960000D01*
X133300000Y-111580000D02*
X143460000Y-111580000D01*
D18*
X163780000Y-143560000D02*
X163780000Y-139520000D01*
X161290000Y-60960000D02*
X134620000Y-60960000D01*
X125680000Y-143460000D02*
X130810000Y-148590000D01*
X123140000Y-98880000D02*
X125680000Y-96340000D01*
X125680000Y-65860000D02*
X125680000Y-62280000D01*
D17*
X148540000Y-134440000D02*
X158700000Y-134440000D01*
X143460000Y-83640000D02*
X133300000Y-83640000D01*
X125680000Y-139520000D02*
X125680000Y-106500000D01*
D18*
X163780000Y-63550000D02*
X163830000Y-63500000D01*
D17*
X148540000Y-106500000D02*
X158700000Y-106500000D01*
X148540000Y-116660000D02*
X158700000Y-116660000D01*
X143460000Y-78560000D02*
X133300000Y-78560000D01*
X148540000Y-68400000D02*
X158700000Y-68400000D01*
X143460000Y-131900000D02*
X133300000Y-131900000D01*
X158700000Y-103960000D02*
X148540000Y-103960000D01*
X158700000Y-88720000D02*
X148540000Y-88720000D01*
X143460000Y-88720000D02*
X133300000Y-88720000D01*
D18*
X130810000Y-57150000D02*
X133320000Y-57150000D01*
X166370000Y-63500000D02*
X166320000Y-63550000D01*
D17*
X158700000Y-136980000D02*
X148540000Y-136980000D01*
X148540000Y-129360000D02*
X158700000Y-129360000D01*
X148540000Y-76020000D02*
X158700000Y-76020000D01*
X133300000Y-91260000D02*
X143460000Y-91260000D01*
X143460000Y-73480000D02*
X133300000Y-73480000D01*
X163780000Y-96340000D02*
X163780000Y-65860000D01*
X148540000Y-126820000D02*
X158700000Y-126820000D01*
D18*
X162560000Y-144780000D02*
X163780000Y-143560000D01*
X166370000Y-62230000D02*
X166370000Y-63500000D01*
X135270000Y-144780000D02*
X162560000Y-144780000D01*
X168860000Y-98880000D02*
X166320000Y-96340000D01*
D17*
X148540000Y-139520000D02*
X158700000Y-139520000D01*
X133300000Y-121740000D02*
X143460000Y-121740000D01*
D18*
X163780000Y-65860000D02*
X163780000Y-63550000D01*
D17*
X148540000Y-96340000D02*
X158700000Y-96340000D01*
X133300000Y-129360000D02*
X143460000Y-129360000D01*
X148540000Y-65860000D02*
X158700000Y-65860000D01*
X163780000Y-139520000D02*
X163780000Y-106500000D01*
D18*
X128220000Y-142190000D02*
X130810000Y-144780000D01*
M02*
