%TF.GenerationSoftware,KiCad,Pcbnew,8.0.2*%
%TF.CreationDate,2024-08-26T09:45:24-06:00*%
%TF.ProjectId,Perfboard,50657266-626f-4617-9264-2e6b69636164,rev?*%
%TF.SameCoordinates,Original*%
%TF.FileFunction,Drillmap*%
%TF.FilePolarity,Positive*%
%FSLAX45Y45*%
G04 Gerber Fmt 4.5, Leading zero omitted, Abs format (unit mm)*
G04 Created by KiCad (PCBNEW 8.0.2) date 2024-08-26 09:45:24*
%MOMM*%
%LPD*%
G01*
G04 APERTURE LIST*
%ADD10C,0.025400*%
%ADD11C,0.200000*%
%ADD12C,0.100000*%
%ADD13C,0.220000*%
G04 APERTURE END LIST*
D10*
X17400000Y-4300000D02*
X11800000Y-4300000D01*
X17400000Y-4300000D02*
X17400000Y-15000000D01*
X17400000Y-15000000D02*
X11800000Y-15000000D01*
X11800000Y-15000000D02*
X11800000Y-4300000D01*
D11*
D12*
X12520500Y-6538500D02*
X12615500Y-6633500D01*
X12615500Y-6538500D02*
X12520500Y-6633500D01*
X12520500Y-6792500D02*
X12615500Y-6887500D01*
X12615500Y-6792500D02*
X12520500Y-6887500D01*
X12520500Y-7046500D02*
X12615500Y-7141500D01*
X12615500Y-7046500D02*
X12520500Y-7141500D01*
X12520500Y-7300500D02*
X12615500Y-7395500D01*
X12615500Y-7300500D02*
X12520500Y-7395500D01*
X12520500Y-7554500D02*
X12615500Y-7649500D01*
X12615500Y-7554500D02*
X12520500Y-7649500D01*
X12520500Y-7808500D02*
X12615500Y-7903500D01*
X12615500Y-7808500D02*
X12520500Y-7903500D01*
X12520500Y-8062500D02*
X12615500Y-8157500D01*
X12615500Y-8062500D02*
X12520500Y-8157500D01*
X12520500Y-8316500D02*
X12615500Y-8411500D01*
X12615500Y-8316500D02*
X12520500Y-8411500D01*
X12520500Y-8570500D02*
X12615500Y-8665500D01*
X12615500Y-8570500D02*
X12520500Y-8665500D01*
X12520500Y-8824500D02*
X12615500Y-8919500D01*
X12615500Y-8824500D02*
X12520500Y-8919500D01*
X12520500Y-9078500D02*
X12615500Y-9173500D01*
X12615500Y-9078500D02*
X12520500Y-9173500D01*
X12520500Y-9332500D02*
X12615500Y-9427500D01*
X12615500Y-9332500D02*
X12520500Y-9427500D01*
X12520500Y-9586500D02*
X12615500Y-9681500D01*
X12615500Y-9586500D02*
X12520500Y-9681500D01*
X12520500Y-10602500D02*
X12615500Y-10697500D01*
X12615500Y-10602500D02*
X12520500Y-10697500D01*
X12520500Y-10856500D02*
X12615500Y-10951500D01*
X12615500Y-10856500D02*
X12520500Y-10951500D01*
X12520500Y-11110500D02*
X12615500Y-11205500D01*
X12615500Y-11110500D02*
X12520500Y-11205500D01*
X12520500Y-11364500D02*
X12615500Y-11459500D01*
X12615500Y-11364500D02*
X12520500Y-11459500D01*
X12520500Y-11618500D02*
X12615500Y-11713500D01*
X12615500Y-11618500D02*
X12520500Y-11713500D01*
X12520500Y-11872500D02*
X12615500Y-11967500D01*
X12615500Y-11872500D02*
X12520500Y-11967500D01*
X12520500Y-12126500D02*
X12615500Y-12221500D01*
X12615500Y-12126500D02*
X12520500Y-12221500D01*
X12520500Y-12380500D02*
X12615500Y-12475500D01*
X12615500Y-12380500D02*
X12520500Y-12475500D01*
X12520500Y-12634500D02*
X12615500Y-12729500D01*
X12615500Y-12634500D02*
X12520500Y-12729500D01*
X12520500Y-12888500D02*
X12615500Y-12983500D01*
X12615500Y-12888500D02*
X12520500Y-12983500D01*
X12520500Y-13142500D02*
X12615500Y-13237500D01*
X12615500Y-13142500D02*
X12520500Y-13237500D01*
X12520500Y-13396500D02*
X12615500Y-13491500D01*
X12615500Y-13396500D02*
X12520500Y-13491500D01*
X12520500Y-13650500D02*
X12615500Y-13745500D01*
X12615500Y-13650500D02*
X12520500Y-13745500D01*
X12520500Y-13904500D02*
X12615500Y-13999500D01*
X12615500Y-13904500D02*
X12520500Y-13999500D01*
X12774500Y-6538500D02*
X12869500Y-6633500D01*
X12869500Y-6538500D02*
X12774500Y-6633500D01*
X12774500Y-6792500D02*
X12869500Y-6887500D01*
X12869500Y-6792500D02*
X12774500Y-6887500D01*
X12774500Y-7046500D02*
X12869500Y-7141500D01*
X12869500Y-7046500D02*
X12774500Y-7141500D01*
X12774500Y-7300500D02*
X12869500Y-7395500D01*
X12869500Y-7300500D02*
X12774500Y-7395500D01*
X12774500Y-7554500D02*
X12869500Y-7649500D01*
X12869500Y-7554500D02*
X12774500Y-7649500D01*
X12774500Y-7808500D02*
X12869500Y-7903500D01*
X12869500Y-7808500D02*
X12774500Y-7903500D01*
X12774500Y-8062500D02*
X12869500Y-8157500D01*
X12869500Y-8062500D02*
X12774500Y-8157500D01*
X12774500Y-8316500D02*
X12869500Y-8411500D01*
X12869500Y-8316500D02*
X12774500Y-8411500D01*
X12774500Y-8570500D02*
X12869500Y-8665500D01*
X12869500Y-8570500D02*
X12774500Y-8665500D01*
X12774500Y-8824500D02*
X12869500Y-8919500D01*
X12869500Y-8824500D02*
X12774500Y-8919500D01*
X12774500Y-9078500D02*
X12869500Y-9173500D01*
X12869500Y-9078500D02*
X12774500Y-9173500D01*
X12774500Y-9332500D02*
X12869500Y-9427500D01*
X12869500Y-9332500D02*
X12774500Y-9427500D01*
X12774500Y-9586500D02*
X12869500Y-9681500D01*
X12869500Y-9586500D02*
X12774500Y-9681500D01*
X12774500Y-10602500D02*
X12869500Y-10697500D01*
X12869500Y-10602500D02*
X12774500Y-10697500D01*
X12774500Y-10856500D02*
X12869500Y-10951500D01*
X12869500Y-10856500D02*
X12774500Y-10951500D01*
X12774500Y-11110500D02*
X12869500Y-11205500D01*
X12869500Y-11110500D02*
X12774500Y-11205500D01*
X12774500Y-11364500D02*
X12869500Y-11459500D01*
X12869500Y-11364500D02*
X12774500Y-11459500D01*
X12774500Y-11618500D02*
X12869500Y-11713500D01*
X12869500Y-11618500D02*
X12774500Y-11713500D01*
X12774500Y-11872500D02*
X12869500Y-11967500D01*
X12869500Y-11872500D02*
X12774500Y-11967500D01*
X12774500Y-12126500D02*
X12869500Y-12221500D01*
X12869500Y-12126500D02*
X12774500Y-12221500D01*
X12774500Y-12380500D02*
X12869500Y-12475500D01*
X12869500Y-12380500D02*
X12774500Y-12475500D01*
X12774500Y-12634500D02*
X12869500Y-12729500D01*
X12869500Y-12634500D02*
X12774500Y-12729500D01*
X12774500Y-12888500D02*
X12869500Y-12983500D01*
X12869500Y-12888500D02*
X12774500Y-12983500D01*
X12774500Y-13142500D02*
X12869500Y-13237500D01*
X12869500Y-13142500D02*
X12774500Y-13237500D01*
X12774500Y-13396500D02*
X12869500Y-13491500D01*
X12869500Y-13396500D02*
X12774500Y-13491500D01*
X12774500Y-13650500D02*
X12869500Y-13745500D01*
X12869500Y-13650500D02*
X12774500Y-13745500D01*
X12774500Y-13904500D02*
X12869500Y-13999500D01*
X12869500Y-13904500D02*
X12774500Y-13999500D01*
X13282500Y-6538500D02*
X13377500Y-6633500D01*
X13377500Y-6538500D02*
X13282500Y-6633500D01*
X13282500Y-6792500D02*
X13377500Y-6887500D01*
X13377500Y-6792500D02*
X13282500Y-6887500D01*
X13282500Y-7046500D02*
X13377500Y-7141500D01*
X13377500Y-7046500D02*
X13282500Y-7141500D01*
X13282500Y-7300500D02*
X13377500Y-7395500D01*
X13377500Y-7300500D02*
X13282500Y-7395500D01*
X13282500Y-7554500D02*
X13377500Y-7649500D01*
X13377500Y-7554500D02*
X13282500Y-7649500D01*
X13282500Y-7808500D02*
X13377500Y-7903500D01*
X13377500Y-7808500D02*
X13282500Y-7903500D01*
X13282500Y-8062500D02*
X13377500Y-8157500D01*
X13377500Y-8062500D02*
X13282500Y-8157500D01*
X13282500Y-8316500D02*
X13377500Y-8411500D01*
X13377500Y-8316500D02*
X13282500Y-8411500D01*
X13282500Y-8570500D02*
X13377500Y-8665500D01*
X13377500Y-8570500D02*
X13282500Y-8665500D01*
X13282500Y-8824500D02*
X13377500Y-8919500D01*
X13377500Y-8824500D02*
X13282500Y-8919500D01*
X13282500Y-9078500D02*
X13377500Y-9173500D01*
X13377500Y-9078500D02*
X13282500Y-9173500D01*
X13282500Y-9332500D02*
X13377500Y-9427500D01*
X13377500Y-9332500D02*
X13282500Y-9427500D01*
X13282500Y-9586500D02*
X13377500Y-9681500D01*
X13377500Y-9586500D02*
X13282500Y-9681500D01*
X13282500Y-9840500D02*
X13377500Y-9935500D01*
X13377500Y-9840500D02*
X13282500Y-9935500D01*
X13282500Y-10094500D02*
X13377500Y-10189500D01*
X13377500Y-10094500D02*
X13282500Y-10189500D01*
X13282500Y-10348500D02*
X13377500Y-10443500D01*
X13377500Y-10348500D02*
X13282500Y-10443500D01*
X13282500Y-10602500D02*
X13377500Y-10697500D01*
X13377500Y-10602500D02*
X13282500Y-10697500D01*
X13282500Y-10856500D02*
X13377500Y-10951500D01*
X13377500Y-10856500D02*
X13282500Y-10951500D01*
X13282500Y-11110500D02*
X13377500Y-11205500D01*
X13377500Y-11110500D02*
X13282500Y-11205500D01*
X13282500Y-11364500D02*
X13377500Y-11459500D01*
X13377500Y-11364500D02*
X13282500Y-11459500D01*
X13282500Y-11618500D02*
X13377500Y-11713500D01*
X13377500Y-11618500D02*
X13282500Y-11713500D01*
X13282500Y-11872500D02*
X13377500Y-11967500D01*
X13377500Y-11872500D02*
X13282500Y-11967500D01*
X13282500Y-12126500D02*
X13377500Y-12221500D01*
X13377500Y-12126500D02*
X13282500Y-12221500D01*
X13282500Y-12380500D02*
X13377500Y-12475500D01*
X13377500Y-12380500D02*
X13282500Y-12475500D01*
X13282500Y-12634500D02*
X13377500Y-12729500D01*
X13377500Y-12634500D02*
X13282500Y-12729500D01*
X13282500Y-12888500D02*
X13377500Y-12983500D01*
X13377500Y-12888500D02*
X13282500Y-12983500D01*
X13282500Y-13142500D02*
X13377500Y-13237500D01*
X13377500Y-13142500D02*
X13282500Y-13237500D01*
X13282500Y-13396500D02*
X13377500Y-13491500D01*
X13377500Y-13396500D02*
X13282500Y-13491500D01*
X13282500Y-13650500D02*
X13377500Y-13745500D01*
X13377500Y-13650500D02*
X13282500Y-13745500D01*
X13282500Y-13904500D02*
X13377500Y-13999500D01*
X13377500Y-13904500D02*
X13282500Y-13999500D01*
X13536500Y-6538500D02*
X13631500Y-6633500D01*
X13631500Y-6538500D02*
X13536500Y-6633500D01*
X13536500Y-6792500D02*
X13631500Y-6887500D01*
X13631500Y-6792500D02*
X13536500Y-6887500D01*
X13536500Y-7046500D02*
X13631500Y-7141500D01*
X13631500Y-7046500D02*
X13536500Y-7141500D01*
X13536500Y-7300500D02*
X13631500Y-7395500D01*
X13631500Y-7300500D02*
X13536500Y-7395500D01*
X13536500Y-7554500D02*
X13631500Y-7649500D01*
X13631500Y-7554500D02*
X13536500Y-7649500D01*
X13536500Y-7808500D02*
X13631500Y-7903500D01*
X13631500Y-7808500D02*
X13536500Y-7903500D01*
X13536500Y-8062500D02*
X13631500Y-8157500D01*
X13631500Y-8062500D02*
X13536500Y-8157500D01*
X13536500Y-8316500D02*
X13631500Y-8411500D01*
X13631500Y-8316500D02*
X13536500Y-8411500D01*
X13536500Y-8570500D02*
X13631500Y-8665500D01*
X13631500Y-8570500D02*
X13536500Y-8665500D01*
X13536500Y-8824500D02*
X13631500Y-8919500D01*
X13631500Y-8824500D02*
X13536500Y-8919500D01*
X13536500Y-9078500D02*
X13631500Y-9173500D01*
X13631500Y-9078500D02*
X13536500Y-9173500D01*
X13536500Y-9332500D02*
X13631500Y-9427500D01*
X13631500Y-9332500D02*
X13536500Y-9427500D01*
X13536500Y-9586500D02*
X13631500Y-9681500D01*
X13631500Y-9586500D02*
X13536500Y-9681500D01*
X13536500Y-9840500D02*
X13631500Y-9935500D01*
X13631500Y-9840500D02*
X13536500Y-9935500D01*
X13536500Y-10094500D02*
X13631500Y-10189500D01*
X13631500Y-10094500D02*
X13536500Y-10189500D01*
X13536500Y-10348500D02*
X13631500Y-10443500D01*
X13631500Y-10348500D02*
X13536500Y-10443500D01*
X13536500Y-10602500D02*
X13631500Y-10697500D01*
X13631500Y-10602500D02*
X13536500Y-10697500D01*
X13536500Y-10856500D02*
X13631500Y-10951500D01*
X13631500Y-10856500D02*
X13536500Y-10951500D01*
X13536500Y-11110500D02*
X13631500Y-11205500D01*
X13631500Y-11110500D02*
X13536500Y-11205500D01*
X13536500Y-11364500D02*
X13631500Y-11459500D01*
X13631500Y-11364500D02*
X13536500Y-11459500D01*
X13536500Y-11618500D02*
X13631500Y-11713500D01*
X13631500Y-11618500D02*
X13536500Y-11713500D01*
X13536500Y-11872500D02*
X13631500Y-11967500D01*
X13631500Y-11872500D02*
X13536500Y-11967500D01*
X13536500Y-12126500D02*
X13631500Y-12221500D01*
X13631500Y-12126500D02*
X13536500Y-12221500D01*
X13536500Y-12380500D02*
X13631500Y-12475500D01*
X13631500Y-12380500D02*
X13536500Y-12475500D01*
X13536500Y-12634500D02*
X13631500Y-12729500D01*
X13631500Y-12634500D02*
X13536500Y-12729500D01*
X13536500Y-12888500D02*
X13631500Y-12983500D01*
X13631500Y-12888500D02*
X13536500Y-12983500D01*
X13536500Y-13142500D02*
X13631500Y-13237500D01*
X13631500Y-13142500D02*
X13536500Y-13237500D01*
X13536500Y-13396500D02*
X13631500Y-13491500D01*
X13631500Y-13396500D02*
X13536500Y-13491500D01*
X13536500Y-13650500D02*
X13631500Y-13745500D01*
X13631500Y-13650500D02*
X13536500Y-13745500D01*
X13536500Y-13904500D02*
X13631500Y-13999500D01*
X13631500Y-13904500D02*
X13536500Y-13999500D01*
X13790500Y-6538500D02*
X13885500Y-6633500D01*
X13885500Y-6538500D02*
X13790500Y-6633500D01*
X13790500Y-6792500D02*
X13885500Y-6887500D01*
X13885500Y-6792500D02*
X13790500Y-6887500D01*
X13790500Y-7046500D02*
X13885500Y-7141500D01*
X13885500Y-7046500D02*
X13790500Y-7141500D01*
X13790500Y-7300500D02*
X13885500Y-7395500D01*
X13885500Y-7300500D02*
X13790500Y-7395500D01*
X13790500Y-7554500D02*
X13885500Y-7649500D01*
X13885500Y-7554500D02*
X13790500Y-7649500D01*
X13790500Y-7808500D02*
X13885500Y-7903500D01*
X13885500Y-7808500D02*
X13790500Y-7903500D01*
X13790500Y-8062500D02*
X13885500Y-8157500D01*
X13885500Y-8062500D02*
X13790500Y-8157500D01*
X13790500Y-8316500D02*
X13885500Y-8411500D01*
X13885500Y-8316500D02*
X13790500Y-8411500D01*
X13790500Y-8570500D02*
X13885500Y-8665500D01*
X13885500Y-8570500D02*
X13790500Y-8665500D01*
X13790500Y-8824500D02*
X13885500Y-8919500D01*
X13885500Y-8824500D02*
X13790500Y-8919500D01*
X13790500Y-9078500D02*
X13885500Y-9173500D01*
X13885500Y-9078500D02*
X13790500Y-9173500D01*
X13790500Y-9332500D02*
X13885500Y-9427500D01*
X13885500Y-9332500D02*
X13790500Y-9427500D01*
X13790500Y-9586500D02*
X13885500Y-9681500D01*
X13885500Y-9586500D02*
X13790500Y-9681500D01*
X13790500Y-9840500D02*
X13885500Y-9935500D01*
X13885500Y-9840500D02*
X13790500Y-9935500D01*
X13790500Y-10094500D02*
X13885500Y-10189500D01*
X13885500Y-10094500D02*
X13790500Y-10189500D01*
X13790500Y-10348500D02*
X13885500Y-10443500D01*
X13885500Y-10348500D02*
X13790500Y-10443500D01*
X13790500Y-10602500D02*
X13885500Y-10697500D01*
X13885500Y-10602500D02*
X13790500Y-10697500D01*
X13790500Y-10856500D02*
X13885500Y-10951500D01*
X13885500Y-10856500D02*
X13790500Y-10951500D01*
X13790500Y-11110500D02*
X13885500Y-11205500D01*
X13885500Y-11110500D02*
X13790500Y-11205500D01*
X13790500Y-11364500D02*
X13885500Y-11459500D01*
X13885500Y-11364500D02*
X13790500Y-11459500D01*
X13790500Y-11618500D02*
X13885500Y-11713500D01*
X13885500Y-11618500D02*
X13790500Y-11713500D01*
X13790500Y-11872500D02*
X13885500Y-11967500D01*
X13885500Y-11872500D02*
X13790500Y-11967500D01*
X13790500Y-12126500D02*
X13885500Y-12221500D01*
X13885500Y-12126500D02*
X13790500Y-12221500D01*
X13790500Y-12380500D02*
X13885500Y-12475500D01*
X13885500Y-12380500D02*
X13790500Y-12475500D01*
X13790500Y-12634500D02*
X13885500Y-12729500D01*
X13885500Y-12634500D02*
X13790500Y-12729500D01*
X13790500Y-12888500D02*
X13885500Y-12983500D01*
X13885500Y-12888500D02*
X13790500Y-12983500D01*
X13790500Y-13142500D02*
X13885500Y-13237500D01*
X13885500Y-13142500D02*
X13790500Y-13237500D01*
X13790500Y-13396500D02*
X13885500Y-13491500D01*
X13885500Y-13396500D02*
X13790500Y-13491500D01*
X13790500Y-13650500D02*
X13885500Y-13745500D01*
X13885500Y-13650500D02*
X13790500Y-13745500D01*
X13790500Y-13904500D02*
X13885500Y-13999500D01*
X13885500Y-13904500D02*
X13790500Y-13999500D01*
X14044500Y-6538500D02*
X14139500Y-6633500D01*
X14139500Y-6538500D02*
X14044500Y-6633500D01*
X14044500Y-6792500D02*
X14139500Y-6887500D01*
X14139500Y-6792500D02*
X14044500Y-6887500D01*
X14044500Y-7046500D02*
X14139500Y-7141500D01*
X14139500Y-7046500D02*
X14044500Y-7141500D01*
X14044500Y-7300500D02*
X14139500Y-7395500D01*
X14139500Y-7300500D02*
X14044500Y-7395500D01*
X14044500Y-7554500D02*
X14139500Y-7649500D01*
X14139500Y-7554500D02*
X14044500Y-7649500D01*
X14044500Y-7808500D02*
X14139500Y-7903500D01*
X14139500Y-7808500D02*
X14044500Y-7903500D01*
X14044500Y-8062500D02*
X14139500Y-8157500D01*
X14139500Y-8062500D02*
X14044500Y-8157500D01*
X14044500Y-8316500D02*
X14139500Y-8411500D01*
X14139500Y-8316500D02*
X14044500Y-8411500D01*
X14044500Y-8570500D02*
X14139500Y-8665500D01*
X14139500Y-8570500D02*
X14044500Y-8665500D01*
X14044500Y-8824500D02*
X14139500Y-8919500D01*
X14139500Y-8824500D02*
X14044500Y-8919500D01*
X14044500Y-9078500D02*
X14139500Y-9173500D01*
X14139500Y-9078500D02*
X14044500Y-9173500D01*
X14044500Y-9332500D02*
X14139500Y-9427500D01*
X14139500Y-9332500D02*
X14044500Y-9427500D01*
X14044500Y-9586500D02*
X14139500Y-9681500D01*
X14139500Y-9586500D02*
X14044500Y-9681500D01*
X14044500Y-9840500D02*
X14139500Y-9935500D01*
X14139500Y-9840500D02*
X14044500Y-9935500D01*
X14044500Y-10094500D02*
X14139500Y-10189500D01*
X14139500Y-10094500D02*
X14044500Y-10189500D01*
X14044500Y-10348500D02*
X14139500Y-10443500D01*
X14139500Y-10348500D02*
X14044500Y-10443500D01*
X14044500Y-10602500D02*
X14139500Y-10697500D01*
X14139500Y-10602500D02*
X14044500Y-10697500D01*
X14044500Y-10856500D02*
X14139500Y-10951500D01*
X14139500Y-10856500D02*
X14044500Y-10951500D01*
X14044500Y-11110500D02*
X14139500Y-11205500D01*
X14139500Y-11110500D02*
X14044500Y-11205500D01*
X14044500Y-11364500D02*
X14139500Y-11459500D01*
X14139500Y-11364500D02*
X14044500Y-11459500D01*
X14044500Y-11618500D02*
X14139500Y-11713500D01*
X14139500Y-11618500D02*
X14044500Y-11713500D01*
X14044500Y-11872500D02*
X14139500Y-11967500D01*
X14139500Y-11872500D02*
X14044500Y-11967500D01*
X14044500Y-12126500D02*
X14139500Y-12221500D01*
X14139500Y-12126500D02*
X14044500Y-12221500D01*
X14044500Y-12380500D02*
X14139500Y-12475500D01*
X14139500Y-12380500D02*
X14044500Y-12475500D01*
X14044500Y-12634500D02*
X14139500Y-12729500D01*
X14139500Y-12634500D02*
X14044500Y-12729500D01*
X14044500Y-12888500D02*
X14139500Y-12983500D01*
X14139500Y-12888500D02*
X14044500Y-12983500D01*
X14044500Y-13142500D02*
X14139500Y-13237500D01*
X14139500Y-13142500D02*
X14044500Y-13237500D01*
X14044500Y-13396500D02*
X14139500Y-13491500D01*
X14139500Y-13396500D02*
X14044500Y-13491500D01*
X14044500Y-13650500D02*
X14139500Y-13745500D01*
X14139500Y-13650500D02*
X14044500Y-13745500D01*
X14044500Y-13904500D02*
X14139500Y-13999500D01*
X14139500Y-13904500D02*
X14044500Y-13999500D01*
X14298500Y-6538500D02*
X14393500Y-6633500D01*
X14393500Y-6538500D02*
X14298500Y-6633500D01*
X14298500Y-6792500D02*
X14393500Y-6887500D01*
X14393500Y-6792500D02*
X14298500Y-6887500D01*
X14298500Y-7046500D02*
X14393500Y-7141500D01*
X14393500Y-7046500D02*
X14298500Y-7141500D01*
X14298500Y-7300500D02*
X14393500Y-7395500D01*
X14393500Y-7300500D02*
X14298500Y-7395500D01*
X14298500Y-7554500D02*
X14393500Y-7649500D01*
X14393500Y-7554500D02*
X14298500Y-7649500D01*
X14298500Y-7808500D02*
X14393500Y-7903500D01*
X14393500Y-7808500D02*
X14298500Y-7903500D01*
X14298500Y-8062500D02*
X14393500Y-8157500D01*
X14393500Y-8062500D02*
X14298500Y-8157500D01*
X14298500Y-8316500D02*
X14393500Y-8411500D01*
X14393500Y-8316500D02*
X14298500Y-8411500D01*
X14298500Y-8570500D02*
X14393500Y-8665500D01*
X14393500Y-8570500D02*
X14298500Y-8665500D01*
X14298500Y-8824500D02*
X14393500Y-8919500D01*
X14393500Y-8824500D02*
X14298500Y-8919500D01*
X14298500Y-9078500D02*
X14393500Y-9173500D01*
X14393500Y-9078500D02*
X14298500Y-9173500D01*
X14298500Y-9332500D02*
X14393500Y-9427500D01*
X14393500Y-9332500D02*
X14298500Y-9427500D01*
X14298500Y-9586500D02*
X14393500Y-9681500D01*
X14393500Y-9586500D02*
X14298500Y-9681500D01*
X14298500Y-9840500D02*
X14393500Y-9935500D01*
X14393500Y-9840500D02*
X14298500Y-9935500D01*
X14298500Y-10094500D02*
X14393500Y-10189500D01*
X14393500Y-10094500D02*
X14298500Y-10189500D01*
X14298500Y-10348500D02*
X14393500Y-10443500D01*
X14393500Y-10348500D02*
X14298500Y-10443500D01*
X14298500Y-10602500D02*
X14393500Y-10697500D01*
X14393500Y-10602500D02*
X14298500Y-10697500D01*
X14298500Y-10856500D02*
X14393500Y-10951500D01*
X14393500Y-10856500D02*
X14298500Y-10951500D01*
X14298500Y-11110500D02*
X14393500Y-11205500D01*
X14393500Y-11110500D02*
X14298500Y-11205500D01*
X14298500Y-11364500D02*
X14393500Y-11459500D01*
X14393500Y-11364500D02*
X14298500Y-11459500D01*
X14298500Y-11618500D02*
X14393500Y-11713500D01*
X14393500Y-11618500D02*
X14298500Y-11713500D01*
X14298500Y-11872500D02*
X14393500Y-11967500D01*
X14393500Y-11872500D02*
X14298500Y-11967500D01*
X14298500Y-12126500D02*
X14393500Y-12221500D01*
X14393500Y-12126500D02*
X14298500Y-12221500D01*
X14298500Y-12380500D02*
X14393500Y-12475500D01*
X14393500Y-12380500D02*
X14298500Y-12475500D01*
X14298500Y-12634500D02*
X14393500Y-12729500D01*
X14393500Y-12634500D02*
X14298500Y-12729500D01*
X14298500Y-12888500D02*
X14393500Y-12983500D01*
X14393500Y-12888500D02*
X14298500Y-12983500D01*
X14298500Y-13142500D02*
X14393500Y-13237500D01*
X14393500Y-13142500D02*
X14298500Y-13237500D01*
X14298500Y-13396500D02*
X14393500Y-13491500D01*
X14393500Y-13396500D02*
X14298500Y-13491500D01*
X14298500Y-13650500D02*
X14393500Y-13745500D01*
X14393500Y-13650500D02*
X14298500Y-13745500D01*
X14298500Y-13904500D02*
X14393500Y-13999500D01*
X14393500Y-13904500D02*
X14298500Y-13999500D01*
X14806500Y-6538500D02*
X14901500Y-6633500D01*
X14901500Y-6538500D02*
X14806500Y-6633500D01*
X14806500Y-6792500D02*
X14901500Y-6887500D01*
X14901500Y-6792500D02*
X14806500Y-6887500D01*
X14806500Y-7046500D02*
X14901500Y-7141500D01*
X14901500Y-7046500D02*
X14806500Y-7141500D01*
X14806500Y-7300500D02*
X14901500Y-7395500D01*
X14901500Y-7300500D02*
X14806500Y-7395500D01*
X14806500Y-7554500D02*
X14901500Y-7649500D01*
X14901500Y-7554500D02*
X14806500Y-7649500D01*
X14806500Y-7808500D02*
X14901500Y-7903500D01*
X14901500Y-7808500D02*
X14806500Y-7903500D01*
X14806500Y-8062500D02*
X14901500Y-8157500D01*
X14901500Y-8062500D02*
X14806500Y-8157500D01*
X14806500Y-8316500D02*
X14901500Y-8411500D01*
X14901500Y-8316500D02*
X14806500Y-8411500D01*
X14806500Y-8570500D02*
X14901500Y-8665500D01*
X14901500Y-8570500D02*
X14806500Y-8665500D01*
X14806500Y-8824500D02*
X14901500Y-8919500D01*
X14901500Y-8824500D02*
X14806500Y-8919500D01*
X14806500Y-9078500D02*
X14901500Y-9173500D01*
X14901500Y-9078500D02*
X14806500Y-9173500D01*
X14806500Y-9332500D02*
X14901500Y-9427500D01*
X14901500Y-9332500D02*
X14806500Y-9427500D01*
X14806500Y-9586500D02*
X14901500Y-9681500D01*
X14901500Y-9586500D02*
X14806500Y-9681500D01*
X14806500Y-9840500D02*
X14901500Y-9935500D01*
X14901500Y-9840500D02*
X14806500Y-9935500D01*
X14806500Y-10094500D02*
X14901500Y-10189500D01*
X14901500Y-10094500D02*
X14806500Y-10189500D01*
X14806500Y-10348500D02*
X14901500Y-10443500D01*
X14901500Y-10348500D02*
X14806500Y-10443500D01*
X14806500Y-10602500D02*
X14901500Y-10697500D01*
X14901500Y-10602500D02*
X14806500Y-10697500D01*
X14806500Y-10856500D02*
X14901500Y-10951500D01*
X14901500Y-10856500D02*
X14806500Y-10951500D01*
X14806500Y-11110500D02*
X14901500Y-11205500D01*
X14901500Y-11110500D02*
X14806500Y-11205500D01*
X14806500Y-11364500D02*
X14901500Y-11459500D01*
X14901500Y-11364500D02*
X14806500Y-11459500D01*
X14806500Y-11618500D02*
X14901500Y-11713500D01*
X14901500Y-11618500D02*
X14806500Y-11713500D01*
X14806500Y-11872500D02*
X14901500Y-11967500D01*
X14901500Y-11872500D02*
X14806500Y-11967500D01*
X14806500Y-12126500D02*
X14901500Y-12221500D01*
X14901500Y-12126500D02*
X14806500Y-12221500D01*
X14806500Y-12380500D02*
X14901500Y-12475500D01*
X14901500Y-12380500D02*
X14806500Y-12475500D01*
X14806500Y-12634500D02*
X14901500Y-12729500D01*
X14901500Y-12634500D02*
X14806500Y-12729500D01*
X14806500Y-12888500D02*
X14901500Y-12983500D01*
X14901500Y-12888500D02*
X14806500Y-12983500D01*
X14806500Y-13142500D02*
X14901500Y-13237500D01*
X14901500Y-13142500D02*
X14806500Y-13237500D01*
X14806500Y-13396500D02*
X14901500Y-13491500D01*
X14901500Y-13396500D02*
X14806500Y-13491500D01*
X14806500Y-13650500D02*
X14901500Y-13745500D01*
X14901500Y-13650500D02*
X14806500Y-13745500D01*
X14806500Y-13904500D02*
X14901500Y-13999500D01*
X14901500Y-13904500D02*
X14806500Y-13999500D01*
X15060500Y-6538500D02*
X15155500Y-6633500D01*
X15155500Y-6538500D02*
X15060500Y-6633500D01*
X15060500Y-6792500D02*
X15155500Y-6887500D01*
X15155500Y-6792500D02*
X15060500Y-6887500D01*
X15060500Y-7046500D02*
X15155500Y-7141500D01*
X15155500Y-7046500D02*
X15060500Y-7141500D01*
X15060500Y-7300500D02*
X15155500Y-7395500D01*
X15155500Y-7300500D02*
X15060500Y-7395500D01*
X15060500Y-7554500D02*
X15155500Y-7649500D01*
X15155500Y-7554500D02*
X15060500Y-7649500D01*
X15060500Y-7808500D02*
X15155500Y-7903500D01*
X15155500Y-7808500D02*
X15060500Y-7903500D01*
X15060500Y-8062500D02*
X15155500Y-8157500D01*
X15155500Y-8062500D02*
X15060500Y-8157500D01*
X15060500Y-8316500D02*
X15155500Y-8411500D01*
X15155500Y-8316500D02*
X15060500Y-8411500D01*
X15060500Y-8570500D02*
X15155500Y-8665500D01*
X15155500Y-8570500D02*
X15060500Y-8665500D01*
X15060500Y-8824500D02*
X15155500Y-8919500D01*
X15155500Y-8824500D02*
X15060500Y-8919500D01*
X15060500Y-9078500D02*
X15155500Y-9173500D01*
X15155500Y-9078500D02*
X15060500Y-9173500D01*
X15060500Y-9332500D02*
X15155500Y-9427500D01*
X15155500Y-9332500D02*
X15060500Y-9427500D01*
X15060500Y-9586500D02*
X15155500Y-9681500D01*
X15155500Y-9586500D02*
X15060500Y-9681500D01*
X15060500Y-9840500D02*
X15155500Y-9935500D01*
X15155500Y-9840500D02*
X15060500Y-9935500D01*
X15060500Y-10094500D02*
X15155500Y-10189500D01*
X15155500Y-10094500D02*
X15060500Y-10189500D01*
X15060500Y-10348500D02*
X15155500Y-10443500D01*
X15155500Y-10348500D02*
X15060500Y-10443500D01*
X15060500Y-10602500D02*
X15155500Y-10697500D01*
X15155500Y-10602500D02*
X15060500Y-10697500D01*
X15060500Y-10856500D02*
X15155500Y-10951500D01*
X15155500Y-10856500D02*
X15060500Y-10951500D01*
X15060500Y-11110500D02*
X15155500Y-11205500D01*
X15155500Y-11110500D02*
X15060500Y-11205500D01*
X15060500Y-11364500D02*
X15155500Y-11459500D01*
X15155500Y-11364500D02*
X15060500Y-11459500D01*
X15060500Y-11618500D02*
X15155500Y-11713500D01*
X15155500Y-11618500D02*
X15060500Y-11713500D01*
X15060500Y-11872500D02*
X15155500Y-11967500D01*
X15155500Y-11872500D02*
X15060500Y-11967500D01*
X15060500Y-12126500D02*
X15155500Y-12221500D01*
X15155500Y-12126500D02*
X15060500Y-12221500D01*
X15060500Y-12380500D02*
X15155500Y-12475500D01*
X15155500Y-12380500D02*
X15060500Y-12475500D01*
X15060500Y-12634500D02*
X15155500Y-12729500D01*
X15155500Y-12634500D02*
X15060500Y-12729500D01*
X15060500Y-12888500D02*
X15155500Y-12983500D01*
X15155500Y-12888500D02*
X15060500Y-12983500D01*
X15060500Y-13142500D02*
X15155500Y-13237500D01*
X15155500Y-13142500D02*
X15060500Y-13237500D01*
X15060500Y-13396500D02*
X15155500Y-13491500D01*
X15155500Y-13396500D02*
X15060500Y-13491500D01*
X15060500Y-13650500D02*
X15155500Y-13745500D01*
X15155500Y-13650500D02*
X15060500Y-13745500D01*
X15060500Y-13904500D02*
X15155500Y-13999500D01*
X15155500Y-13904500D02*
X15060500Y-13999500D01*
X15314500Y-6538500D02*
X15409500Y-6633500D01*
X15409500Y-6538500D02*
X15314500Y-6633500D01*
X15314500Y-6792500D02*
X15409500Y-6887500D01*
X15409500Y-6792500D02*
X15314500Y-6887500D01*
X15314500Y-7046500D02*
X15409500Y-7141500D01*
X15409500Y-7046500D02*
X15314500Y-7141500D01*
X15314500Y-7300500D02*
X15409500Y-7395500D01*
X15409500Y-7300500D02*
X15314500Y-7395500D01*
X15314500Y-7554500D02*
X15409500Y-7649500D01*
X15409500Y-7554500D02*
X15314500Y-7649500D01*
X15314500Y-7808500D02*
X15409500Y-7903500D01*
X15409500Y-7808500D02*
X15314500Y-7903500D01*
X15314500Y-8062500D02*
X15409500Y-8157500D01*
X15409500Y-8062500D02*
X15314500Y-8157500D01*
X15314500Y-8316500D02*
X15409500Y-8411500D01*
X15409500Y-8316500D02*
X15314500Y-8411500D01*
X15314500Y-8570500D02*
X15409500Y-8665500D01*
X15409500Y-8570500D02*
X15314500Y-8665500D01*
X15314500Y-8824500D02*
X15409500Y-8919500D01*
X15409500Y-8824500D02*
X15314500Y-8919500D01*
X15314500Y-9078500D02*
X15409500Y-9173500D01*
X15409500Y-9078500D02*
X15314500Y-9173500D01*
X15314500Y-9332500D02*
X15409500Y-9427500D01*
X15409500Y-9332500D02*
X15314500Y-9427500D01*
X15314500Y-9586500D02*
X15409500Y-9681500D01*
X15409500Y-9586500D02*
X15314500Y-9681500D01*
X15314500Y-9840500D02*
X15409500Y-9935500D01*
X15409500Y-9840500D02*
X15314500Y-9935500D01*
X15314500Y-10094500D02*
X15409500Y-10189500D01*
X15409500Y-10094500D02*
X15314500Y-10189500D01*
X15314500Y-10348500D02*
X15409500Y-10443500D01*
X15409500Y-10348500D02*
X15314500Y-10443500D01*
X15314500Y-10602500D02*
X15409500Y-10697500D01*
X15409500Y-10602500D02*
X15314500Y-10697500D01*
X15314500Y-10856500D02*
X15409500Y-10951500D01*
X15409500Y-10856500D02*
X15314500Y-10951500D01*
X15314500Y-11110500D02*
X15409500Y-11205500D01*
X15409500Y-11110500D02*
X15314500Y-11205500D01*
X15314500Y-11364500D02*
X15409500Y-11459500D01*
X15409500Y-11364500D02*
X15314500Y-11459500D01*
X15314500Y-11618500D02*
X15409500Y-11713500D01*
X15409500Y-11618500D02*
X15314500Y-11713500D01*
X15314500Y-11872500D02*
X15409500Y-11967500D01*
X15409500Y-11872500D02*
X15314500Y-11967500D01*
X15314500Y-12126500D02*
X15409500Y-12221500D01*
X15409500Y-12126500D02*
X15314500Y-12221500D01*
X15314500Y-12380500D02*
X15409500Y-12475500D01*
X15409500Y-12380500D02*
X15314500Y-12475500D01*
X15314500Y-12634500D02*
X15409500Y-12729500D01*
X15409500Y-12634500D02*
X15314500Y-12729500D01*
X15314500Y-12888500D02*
X15409500Y-12983500D01*
X15409500Y-12888500D02*
X15314500Y-12983500D01*
X15314500Y-13142500D02*
X15409500Y-13237500D01*
X15409500Y-13142500D02*
X15314500Y-13237500D01*
X15314500Y-13396500D02*
X15409500Y-13491500D01*
X15409500Y-13396500D02*
X15314500Y-13491500D01*
X15314500Y-13650500D02*
X15409500Y-13745500D01*
X15409500Y-13650500D02*
X15314500Y-13745500D01*
X15314500Y-13904500D02*
X15409500Y-13999500D01*
X15409500Y-13904500D02*
X15314500Y-13999500D01*
X15568500Y-6538500D02*
X15663500Y-6633500D01*
X15663500Y-6538500D02*
X15568500Y-6633500D01*
X15568500Y-6792500D02*
X15663500Y-6887500D01*
X15663500Y-6792500D02*
X15568500Y-6887500D01*
X15568500Y-7046500D02*
X15663500Y-7141500D01*
X15663500Y-7046500D02*
X15568500Y-7141500D01*
X15568500Y-7300500D02*
X15663500Y-7395500D01*
X15663500Y-7300500D02*
X15568500Y-7395500D01*
X15568500Y-7554500D02*
X15663500Y-7649500D01*
X15663500Y-7554500D02*
X15568500Y-7649500D01*
X15568500Y-7808500D02*
X15663500Y-7903500D01*
X15663500Y-7808500D02*
X15568500Y-7903500D01*
X15568500Y-8062500D02*
X15663500Y-8157500D01*
X15663500Y-8062500D02*
X15568500Y-8157500D01*
X15568500Y-8316500D02*
X15663500Y-8411500D01*
X15663500Y-8316500D02*
X15568500Y-8411500D01*
X15568500Y-8570500D02*
X15663500Y-8665500D01*
X15663500Y-8570500D02*
X15568500Y-8665500D01*
X15568500Y-8824500D02*
X15663500Y-8919500D01*
X15663500Y-8824500D02*
X15568500Y-8919500D01*
X15568500Y-9078500D02*
X15663500Y-9173500D01*
X15663500Y-9078500D02*
X15568500Y-9173500D01*
X15568500Y-9332500D02*
X15663500Y-9427500D01*
X15663500Y-9332500D02*
X15568500Y-9427500D01*
X15568500Y-9586500D02*
X15663500Y-9681500D01*
X15663500Y-9586500D02*
X15568500Y-9681500D01*
X15568500Y-9840500D02*
X15663500Y-9935500D01*
X15663500Y-9840500D02*
X15568500Y-9935500D01*
X15568500Y-10094500D02*
X15663500Y-10189500D01*
X15663500Y-10094500D02*
X15568500Y-10189500D01*
X15568500Y-10348500D02*
X15663500Y-10443500D01*
X15663500Y-10348500D02*
X15568500Y-10443500D01*
X15568500Y-10602500D02*
X15663500Y-10697500D01*
X15663500Y-10602500D02*
X15568500Y-10697500D01*
X15568500Y-10856500D02*
X15663500Y-10951500D01*
X15663500Y-10856500D02*
X15568500Y-10951500D01*
X15568500Y-11110500D02*
X15663500Y-11205500D01*
X15663500Y-11110500D02*
X15568500Y-11205500D01*
X15568500Y-11364500D02*
X15663500Y-11459500D01*
X15663500Y-11364500D02*
X15568500Y-11459500D01*
X15568500Y-11618500D02*
X15663500Y-11713500D01*
X15663500Y-11618500D02*
X15568500Y-11713500D01*
X15568500Y-11872500D02*
X15663500Y-11967500D01*
X15663500Y-11872500D02*
X15568500Y-11967500D01*
X15568500Y-12126500D02*
X15663500Y-12221500D01*
X15663500Y-12126500D02*
X15568500Y-12221500D01*
X15568500Y-12380500D02*
X15663500Y-12475500D01*
X15663500Y-12380500D02*
X15568500Y-12475500D01*
X15568500Y-12634500D02*
X15663500Y-12729500D01*
X15663500Y-12634500D02*
X15568500Y-12729500D01*
X15568500Y-12888500D02*
X15663500Y-12983500D01*
X15663500Y-12888500D02*
X15568500Y-12983500D01*
X15568500Y-13142500D02*
X15663500Y-13237500D01*
X15663500Y-13142500D02*
X15568500Y-13237500D01*
X15568500Y-13396500D02*
X15663500Y-13491500D01*
X15663500Y-13396500D02*
X15568500Y-13491500D01*
X15568500Y-13650500D02*
X15663500Y-13745500D01*
X15663500Y-13650500D02*
X15568500Y-13745500D01*
X15568500Y-13904500D02*
X15663500Y-13999500D01*
X15663500Y-13904500D02*
X15568500Y-13999500D01*
X15822500Y-6538500D02*
X15917500Y-6633500D01*
X15917500Y-6538500D02*
X15822500Y-6633500D01*
X15822500Y-6792500D02*
X15917500Y-6887500D01*
X15917500Y-6792500D02*
X15822500Y-6887500D01*
X15822500Y-7046500D02*
X15917500Y-7141500D01*
X15917500Y-7046500D02*
X15822500Y-7141500D01*
X15822500Y-7300500D02*
X15917500Y-7395500D01*
X15917500Y-7300500D02*
X15822500Y-7395500D01*
X15822500Y-7554500D02*
X15917500Y-7649500D01*
X15917500Y-7554500D02*
X15822500Y-7649500D01*
X15822500Y-7808500D02*
X15917500Y-7903500D01*
X15917500Y-7808500D02*
X15822500Y-7903500D01*
X15822500Y-8062500D02*
X15917500Y-8157500D01*
X15917500Y-8062500D02*
X15822500Y-8157500D01*
X15822500Y-8316500D02*
X15917500Y-8411500D01*
X15917500Y-8316500D02*
X15822500Y-8411500D01*
X15822500Y-8570500D02*
X15917500Y-8665500D01*
X15917500Y-8570500D02*
X15822500Y-8665500D01*
X15822500Y-8824500D02*
X15917500Y-8919500D01*
X15917500Y-8824500D02*
X15822500Y-8919500D01*
X15822500Y-9078500D02*
X15917500Y-9173500D01*
X15917500Y-9078500D02*
X15822500Y-9173500D01*
X15822500Y-9332500D02*
X15917500Y-9427500D01*
X15917500Y-9332500D02*
X15822500Y-9427500D01*
X15822500Y-9586500D02*
X15917500Y-9681500D01*
X15917500Y-9586500D02*
X15822500Y-9681500D01*
X15822500Y-9840500D02*
X15917500Y-9935500D01*
X15917500Y-9840500D02*
X15822500Y-9935500D01*
X15822500Y-10094500D02*
X15917500Y-10189500D01*
X15917500Y-10094500D02*
X15822500Y-10189500D01*
X15822500Y-10348500D02*
X15917500Y-10443500D01*
X15917500Y-10348500D02*
X15822500Y-10443500D01*
X15822500Y-10602500D02*
X15917500Y-10697500D01*
X15917500Y-10602500D02*
X15822500Y-10697500D01*
X15822500Y-10856500D02*
X15917500Y-10951500D01*
X15917500Y-10856500D02*
X15822500Y-10951500D01*
X15822500Y-11110500D02*
X15917500Y-11205500D01*
X15917500Y-11110500D02*
X15822500Y-11205500D01*
X15822500Y-11364500D02*
X15917500Y-11459500D01*
X15917500Y-11364500D02*
X15822500Y-11459500D01*
X15822500Y-11618500D02*
X15917500Y-11713500D01*
X15917500Y-11618500D02*
X15822500Y-11713500D01*
X15822500Y-11872500D02*
X15917500Y-11967500D01*
X15917500Y-11872500D02*
X15822500Y-11967500D01*
X15822500Y-12126500D02*
X15917500Y-12221500D01*
X15917500Y-12126500D02*
X15822500Y-12221500D01*
X15822500Y-12380500D02*
X15917500Y-12475500D01*
X15917500Y-12380500D02*
X15822500Y-12475500D01*
X15822500Y-12634500D02*
X15917500Y-12729500D01*
X15917500Y-12634500D02*
X15822500Y-12729500D01*
X15822500Y-12888500D02*
X15917500Y-12983500D01*
X15917500Y-12888500D02*
X15822500Y-12983500D01*
X15822500Y-13142500D02*
X15917500Y-13237500D01*
X15917500Y-13142500D02*
X15822500Y-13237500D01*
X15822500Y-13396500D02*
X15917500Y-13491500D01*
X15917500Y-13396500D02*
X15822500Y-13491500D01*
X15822500Y-13650500D02*
X15917500Y-13745500D01*
X15917500Y-13650500D02*
X15822500Y-13745500D01*
X15822500Y-13904500D02*
X15917500Y-13999500D01*
X15917500Y-13904500D02*
X15822500Y-13999500D01*
X16330500Y-6538500D02*
X16425500Y-6633500D01*
X16425500Y-6538500D02*
X16330500Y-6633500D01*
X16330500Y-6792500D02*
X16425500Y-6887500D01*
X16425500Y-6792500D02*
X16330500Y-6887500D01*
X16330500Y-7046500D02*
X16425500Y-7141500D01*
X16425500Y-7046500D02*
X16330500Y-7141500D01*
X16330500Y-7300500D02*
X16425500Y-7395500D01*
X16425500Y-7300500D02*
X16330500Y-7395500D01*
X16330500Y-7554500D02*
X16425500Y-7649500D01*
X16425500Y-7554500D02*
X16330500Y-7649500D01*
X16330500Y-7808500D02*
X16425500Y-7903500D01*
X16425500Y-7808500D02*
X16330500Y-7903500D01*
X16330500Y-8062500D02*
X16425500Y-8157500D01*
X16425500Y-8062500D02*
X16330500Y-8157500D01*
X16330500Y-8316500D02*
X16425500Y-8411500D01*
X16425500Y-8316500D02*
X16330500Y-8411500D01*
X16330500Y-8570500D02*
X16425500Y-8665500D01*
X16425500Y-8570500D02*
X16330500Y-8665500D01*
X16330500Y-8824500D02*
X16425500Y-8919500D01*
X16425500Y-8824500D02*
X16330500Y-8919500D01*
X16330500Y-9078500D02*
X16425500Y-9173500D01*
X16425500Y-9078500D02*
X16330500Y-9173500D01*
X16330500Y-9332500D02*
X16425500Y-9427500D01*
X16425500Y-9332500D02*
X16330500Y-9427500D01*
X16330500Y-9586500D02*
X16425500Y-9681500D01*
X16425500Y-9586500D02*
X16330500Y-9681500D01*
X16330500Y-10602500D02*
X16425500Y-10697500D01*
X16425500Y-10602500D02*
X16330500Y-10697500D01*
X16330500Y-10856500D02*
X16425500Y-10951500D01*
X16425500Y-10856500D02*
X16330500Y-10951500D01*
X16330500Y-11110500D02*
X16425500Y-11205500D01*
X16425500Y-11110500D02*
X16330500Y-11205500D01*
X16330500Y-11364500D02*
X16425500Y-11459500D01*
X16425500Y-11364500D02*
X16330500Y-11459500D01*
X16330500Y-11618500D02*
X16425500Y-11713500D01*
X16425500Y-11618500D02*
X16330500Y-11713500D01*
X16330500Y-11872500D02*
X16425500Y-11967500D01*
X16425500Y-11872500D02*
X16330500Y-11967500D01*
X16330500Y-12126500D02*
X16425500Y-12221500D01*
X16425500Y-12126500D02*
X16330500Y-12221500D01*
X16330500Y-12380500D02*
X16425500Y-12475500D01*
X16425500Y-12380500D02*
X16330500Y-12475500D01*
X16330500Y-12634500D02*
X16425500Y-12729500D01*
X16425500Y-12634500D02*
X16330500Y-12729500D01*
X16330500Y-12888500D02*
X16425500Y-12983500D01*
X16425500Y-12888500D02*
X16330500Y-12983500D01*
X16330500Y-13142500D02*
X16425500Y-13237500D01*
X16425500Y-13142500D02*
X16330500Y-13237500D01*
X16330500Y-13396500D02*
X16425500Y-13491500D01*
X16425500Y-13396500D02*
X16330500Y-13491500D01*
X16330500Y-13650500D02*
X16425500Y-13745500D01*
X16425500Y-13650500D02*
X16330500Y-13745500D01*
X16330500Y-13904500D02*
X16425500Y-13999500D01*
X16425500Y-13904500D02*
X16330500Y-13999500D01*
X16584500Y-6538500D02*
X16679500Y-6633500D01*
X16679500Y-6538500D02*
X16584500Y-6633500D01*
X16584500Y-6792500D02*
X16679500Y-6887500D01*
X16679500Y-6792500D02*
X16584500Y-6887500D01*
X16584500Y-7046500D02*
X16679500Y-7141500D01*
X16679500Y-7046500D02*
X16584500Y-7141500D01*
X16584500Y-7300500D02*
X16679500Y-7395500D01*
X16679500Y-7300500D02*
X16584500Y-7395500D01*
X16584500Y-7554500D02*
X16679500Y-7649500D01*
X16679500Y-7554500D02*
X16584500Y-7649500D01*
X16584500Y-7808500D02*
X16679500Y-7903500D01*
X16679500Y-7808500D02*
X16584500Y-7903500D01*
X16584500Y-8062500D02*
X16679500Y-8157500D01*
X16679500Y-8062500D02*
X16584500Y-8157500D01*
X16584500Y-8316500D02*
X16679500Y-8411500D01*
X16679500Y-8316500D02*
X16584500Y-8411500D01*
X16584500Y-8570500D02*
X16679500Y-8665500D01*
X16679500Y-8570500D02*
X16584500Y-8665500D01*
X16584500Y-8824500D02*
X16679500Y-8919500D01*
X16679500Y-8824500D02*
X16584500Y-8919500D01*
X16584500Y-9078500D02*
X16679500Y-9173500D01*
X16679500Y-9078500D02*
X16584500Y-9173500D01*
X16584500Y-9332500D02*
X16679500Y-9427500D01*
X16679500Y-9332500D02*
X16584500Y-9427500D01*
X16584500Y-9586500D02*
X16679500Y-9681500D01*
X16679500Y-9586500D02*
X16584500Y-9681500D01*
X16584500Y-10602500D02*
X16679500Y-10697500D01*
X16679500Y-10602500D02*
X16584500Y-10697500D01*
X16584500Y-10856500D02*
X16679500Y-10951500D01*
X16679500Y-10856500D02*
X16584500Y-10951500D01*
X16584500Y-11110500D02*
X16679500Y-11205500D01*
X16679500Y-11110500D02*
X16584500Y-11205500D01*
X16584500Y-11364500D02*
X16679500Y-11459500D01*
X16679500Y-11364500D02*
X16584500Y-11459500D01*
X16584500Y-11618500D02*
X16679500Y-11713500D01*
X16679500Y-11618500D02*
X16584500Y-11713500D01*
X16584500Y-11872500D02*
X16679500Y-11967500D01*
X16679500Y-11872500D02*
X16584500Y-11967500D01*
X16584500Y-12126500D02*
X16679500Y-12221500D01*
X16679500Y-12126500D02*
X16584500Y-12221500D01*
X16584500Y-12380500D02*
X16679500Y-12475500D01*
X16679500Y-12380500D02*
X16584500Y-12475500D01*
X16584500Y-12634500D02*
X16679500Y-12729500D01*
X16679500Y-12634500D02*
X16584500Y-12729500D01*
X16584500Y-12888500D02*
X16679500Y-12983500D01*
X16679500Y-12888500D02*
X16584500Y-12983500D01*
X16584500Y-13142500D02*
X16679500Y-13237500D01*
X16679500Y-13142500D02*
X16584500Y-13237500D01*
X16584500Y-13396500D02*
X16679500Y-13491500D01*
X16679500Y-13396500D02*
X16584500Y-13491500D01*
X16584500Y-13650500D02*
X16679500Y-13745500D01*
X16679500Y-13650500D02*
X16584500Y-13745500D01*
X16584500Y-13904500D02*
X16679500Y-13999500D01*
X16679500Y-13904500D02*
X16584500Y-13999500D01*
D13*
X12310000Y-4700000D02*
G75*
G02*
X12090000Y-4700000I-110000J0D01*
G01*
X12090000Y-4700000D02*
G75*
G02*
X12310000Y-4700000I110000J0D01*
G01*
X12310000Y-14600000D02*
G75*
G02*
X12090000Y-14600000I-110000J0D01*
G01*
X12090000Y-14600000D02*
G75*
G02*
X12310000Y-14600000I110000J0D01*
G01*
X17110000Y-4700000D02*
G75*
G02*
X16890000Y-4700000I-110000J0D01*
G01*
X16890000Y-4700000D02*
G75*
G02*
X17110000Y-4700000I110000J0D01*
G01*
X17110000Y-14600000D02*
G75*
G02*
X16890000Y-14600000I-110000J0D01*
G01*
X16890000Y-14600000D02*
G75*
G02*
X17110000Y-14600000I110000J0D01*
G01*
D11*
X12059507Y-15312754D02*
X12059507Y-15112754D01*
X12059507Y-15112754D02*
X12107126Y-15112754D01*
X12107126Y-15112754D02*
X12135697Y-15122278D01*
X12135697Y-15122278D02*
X12154745Y-15141325D01*
X12154745Y-15141325D02*
X12164269Y-15160373D01*
X12164269Y-15160373D02*
X12173792Y-15198468D01*
X12173792Y-15198468D02*
X12173792Y-15227039D01*
X12173792Y-15227039D02*
X12164269Y-15265135D01*
X12164269Y-15265135D02*
X12154745Y-15284182D01*
X12154745Y-15284182D02*
X12135697Y-15303230D01*
X12135697Y-15303230D02*
X12107126Y-15312754D01*
X12107126Y-15312754D02*
X12059507Y-15312754D01*
X12259507Y-15312754D02*
X12259507Y-15179420D01*
X12259507Y-15217516D02*
X12269031Y-15198468D01*
X12269031Y-15198468D02*
X12278554Y-15188944D01*
X12278554Y-15188944D02*
X12297602Y-15179420D01*
X12297602Y-15179420D02*
X12316650Y-15179420D01*
X12383316Y-15312754D02*
X12383316Y-15179420D01*
X12383316Y-15112754D02*
X12373792Y-15122278D01*
X12373792Y-15122278D02*
X12383316Y-15131801D01*
X12383316Y-15131801D02*
X12392840Y-15122278D01*
X12392840Y-15122278D02*
X12383316Y-15112754D01*
X12383316Y-15112754D02*
X12383316Y-15131801D01*
X12507126Y-15312754D02*
X12488078Y-15303230D01*
X12488078Y-15303230D02*
X12478554Y-15284182D01*
X12478554Y-15284182D02*
X12478554Y-15112754D01*
X12611888Y-15312754D02*
X12592840Y-15303230D01*
X12592840Y-15303230D02*
X12583316Y-15284182D01*
X12583316Y-15284182D02*
X12583316Y-15112754D01*
X12840459Y-15312754D02*
X12840459Y-15112754D01*
X12840459Y-15112754D02*
X12907126Y-15255611D01*
X12907126Y-15255611D02*
X12973792Y-15112754D01*
X12973792Y-15112754D02*
X12973792Y-15312754D01*
X13154745Y-15312754D02*
X13154745Y-15207992D01*
X13154745Y-15207992D02*
X13145221Y-15188944D01*
X13145221Y-15188944D02*
X13126173Y-15179420D01*
X13126173Y-15179420D02*
X13088078Y-15179420D01*
X13088078Y-15179420D02*
X13069031Y-15188944D01*
X13154745Y-15303230D02*
X13135697Y-15312754D01*
X13135697Y-15312754D02*
X13088078Y-15312754D01*
X13088078Y-15312754D02*
X13069031Y-15303230D01*
X13069031Y-15303230D02*
X13059507Y-15284182D01*
X13059507Y-15284182D02*
X13059507Y-15265135D01*
X13059507Y-15265135D02*
X13069031Y-15246087D01*
X13069031Y-15246087D02*
X13088078Y-15236563D01*
X13088078Y-15236563D02*
X13135697Y-15236563D01*
X13135697Y-15236563D02*
X13154745Y-15227039D01*
X13249983Y-15179420D02*
X13249983Y-15379420D01*
X13249983Y-15188944D02*
X13269031Y-15179420D01*
X13269031Y-15179420D02*
X13307126Y-15179420D01*
X13307126Y-15179420D02*
X13326173Y-15188944D01*
X13326173Y-15188944D02*
X13335697Y-15198468D01*
X13335697Y-15198468D02*
X13345221Y-15217516D01*
X13345221Y-15217516D02*
X13345221Y-15274658D01*
X13345221Y-15274658D02*
X13335697Y-15293706D01*
X13335697Y-15293706D02*
X13326173Y-15303230D01*
X13326173Y-15303230D02*
X13307126Y-15312754D01*
X13307126Y-15312754D02*
X13269031Y-15312754D01*
X13269031Y-15312754D02*
X13249983Y-15303230D01*
X13430935Y-15293706D02*
X13440459Y-15303230D01*
X13440459Y-15303230D02*
X13430935Y-15312754D01*
X13430935Y-15312754D02*
X13421412Y-15303230D01*
X13421412Y-15303230D02*
X13430935Y-15293706D01*
X13430935Y-15293706D02*
X13430935Y-15312754D01*
X13430935Y-15188944D02*
X13440459Y-15198468D01*
X13440459Y-15198468D02*
X13430935Y-15207992D01*
X13430935Y-15207992D02*
X13421412Y-15198468D01*
X13421412Y-15198468D02*
X13430935Y-15188944D01*
X13430935Y-15188944D02*
X13430935Y-15207992D01*
D12*
X11703730Y-15593770D02*
X11798730Y-15688770D01*
X11798730Y-15593770D02*
X11703730Y-15688770D01*
D11*
X12097602Y-15532754D02*
X12116650Y-15532754D01*
X12116650Y-15532754D02*
X12135697Y-15542278D01*
X12135697Y-15542278D02*
X12145221Y-15551801D01*
X12145221Y-15551801D02*
X12154745Y-15570849D01*
X12154745Y-15570849D02*
X12164269Y-15608944D01*
X12164269Y-15608944D02*
X12164269Y-15656563D01*
X12164269Y-15656563D02*
X12154745Y-15694658D01*
X12154745Y-15694658D02*
X12145221Y-15713706D01*
X12145221Y-15713706D02*
X12135697Y-15723230D01*
X12135697Y-15723230D02*
X12116650Y-15732754D01*
X12116650Y-15732754D02*
X12097602Y-15732754D01*
X12097602Y-15732754D02*
X12078554Y-15723230D01*
X12078554Y-15723230D02*
X12069031Y-15713706D01*
X12069031Y-15713706D02*
X12059507Y-15694658D01*
X12059507Y-15694658D02*
X12049983Y-15656563D01*
X12049983Y-15656563D02*
X12049983Y-15608944D01*
X12049983Y-15608944D02*
X12059507Y-15570849D01*
X12059507Y-15570849D02*
X12069031Y-15551801D01*
X12069031Y-15551801D02*
X12078554Y-15542278D01*
X12078554Y-15542278D02*
X12097602Y-15532754D01*
X12249983Y-15713706D02*
X12259507Y-15723230D01*
X12259507Y-15723230D02*
X12249983Y-15732754D01*
X12249983Y-15732754D02*
X12240459Y-15723230D01*
X12240459Y-15723230D02*
X12249983Y-15713706D01*
X12249983Y-15713706D02*
X12249983Y-15732754D01*
X12354745Y-15732754D02*
X12392840Y-15732754D01*
X12392840Y-15732754D02*
X12411888Y-15723230D01*
X12411888Y-15723230D02*
X12421412Y-15713706D01*
X12421412Y-15713706D02*
X12440459Y-15685135D01*
X12440459Y-15685135D02*
X12449983Y-15647039D01*
X12449983Y-15647039D02*
X12449983Y-15570849D01*
X12449983Y-15570849D02*
X12440459Y-15551801D01*
X12440459Y-15551801D02*
X12430935Y-15542278D01*
X12430935Y-15542278D02*
X12411888Y-15532754D01*
X12411888Y-15532754D02*
X12373792Y-15532754D01*
X12373792Y-15532754D02*
X12354745Y-15542278D01*
X12354745Y-15542278D02*
X12345221Y-15551801D01*
X12345221Y-15551801D02*
X12335697Y-15570849D01*
X12335697Y-15570849D02*
X12335697Y-15618468D01*
X12335697Y-15618468D02*
X12345221Y-15637516D01*
X12345221Y-15637516D02*
X12354745Y-15647039D01*
X12354745Y-15647039D02*
X12373792Y-15656563D01*
X12373792Y-15656563D02*
X12411888Y-15656563D01*
X12411888Y-15656563D02*
X12430935Y-15647039D01*
X12430935Y-15647039D02*
X12440459Y-15637516D01*
X12440459Y-15637516D02*
X12449983Y-15618468D01*
X12630935Y-15532754D02*
X12535697Y-15532754D01*
X12535697Y-15532754D02*
X12526173Y-15627992D01*
X12526173Y-15627992D02*
X12535697Y-15618468D01*
X12535697Y-15618468D02*
X12554745Y-15608944D01*
X12554745Y-15608944D02*
X12602364Y-15608944D01*
X12602364Y-15608944D02*
X12621412Y-15618468D01*
X12621412Y-15618468D02*
X12630935Y-15627992D01*
X12630935Y-15627992D02*
X12640459Y-15647039D01*
X12640459Y-15647039D02*
X12640459Y-15694658D01*
X12640459Y-15694658D02*
X12630935Y-15713706D01*
X12630935Y-15713706D02*
X12621412Y-15723230D01*
X12621412Y-15723230D02*
X12602364Y-15732754D01*
X12602364Y-15732754D02*
X12554745Y-15732754D01*
X12554745Y-15732754D02*
X12535697Y-15723230D01*
X12535697Y-15723230D02*
X12526173Y-15713706D01*
X12764269Y-15532754D02*
X12783316Y-15532754D01*
X12783316Y-15532754D02*
X12802364Y-15542278D01*
X12802364Y-15542278D02*
X12811888Y-15551801D01*
X12811888Y-15551801D02*
X12821412Y-15570849D01*
X12821412Y-15570849D02*
X12830935Y-15608944D01*
X12830935Y-15608944D02*
X12830935Y-15656563D01*
X12830935Y-15656563D02*
X12821412Y-15694658D01*
X12821412Y-15694658D02*
X12811888Y-15713706D01*
X12811888Y-15713706D02*
X12802364Y-15723230D01*
X12802364Y-15723230D02*
X12783316Y-15732754D01*
X12783316Y-15732754D02*
X12764269Y-15732754D01*
X12764269Y-15732754D02*
X12745221Y-15723230D01*
X12745221Y-15723230D02*
X12735697Y-15713706D01*
X12735697Y-15713706D02*
X12726173Y-15694658D01*
X12726173Y-15694658D02*
X12716650Y-15656563D01*
X12716650Y-15656563D02*
X12716650Y-15608944D01*
X12716650Y-15608944D02*
X12726173Y-15570849D01*
X12726173Y-15570849D02*
X12735697Y-15551801D01*
X12735697Y-15551801D02*
X12745221Y-15542278D01*
X12745221Y-15542278D02*
X12764269Y-15532754D01*
X12916650Y-15732754D02*
X12916650Y-15599420D01*
X12916650Y-15618468D02*
X12926173Y-15608944D01*
X12926173Y-15608944D02*
X12945221Y-15599420D01*
X12945221Y-15599420D02*
X12973793Y-15599420D01*
X12973793Y-15599420D02*
X12992840Y-15608944D01*
X12992840Y-15608944D02*
X13002364Y-15627992D01*
X13002364Y-15627992D02*
X13002364Y-15732754D01*
X13002364Y-15627992D02*
X13011888Y-15608944D01*
X13011888Y-15608944D02*
X13030935Y-15599420D01*
X13030935Y-15599420D02*
X13059507Y-15599420D01*
X13059507Y-15599420D02*
X13078554Y-15608944D01*
X13078554Y-15608944D02*
X13088078Y-15627992D01*
X13088078Y-15627992D02*
X13088078Y-15732754D01*
X13183316Y-15732754D02*
X13183316Y-15599420D01*
X13183316Y-15618468D02*
X13192840Y-15608944D01*
X13192840Y-15608944D02*
X13211888Y-15599420D01*
X13211888Y-15599420D02*
X13240459Y-15599420D01*
X13240459Y-15599420D02*
X13259507Y-15608944D01*
X13259507Y-15608944D02*
X13269031Y-15627992D01*
X13269031Y-15627992D02*
X13269031Y-15732754D01*
X13269031Y-15627992D02*
X13278554Y-15608944D01*
X13278554Y-15608944D02*
X13297602Y-15599420D01*
X13297602Y-15599420D02*
X13326173Y-15599420D01*
X13326173Y-15599420D02*
X13345221Y-15608944D01*
X13345221Y-15608944D02*
X13354745Y-15627992D01*
X13354745Y-15627992D02*
X13354745Y-15732754D01*
X13745221Y-15523230D02*
X13573793Y-15780373D01*
X14002364Y-15532754D02*
X14021412Y-15532754D01*
X14021412Y-15532754D02*
X14040459Y-15542278D01*
X14040459Y-15542278D02*
X14049983Y-15551801D01*
X14049983Y-15551801D02*
X14059507Y-15570849D01*
X14059507Y-15570849D02*
X14069031Y-15608944D01*
X14069031Y-15608944D02*
X14069031Y-15656563D01*
X14069031Y-15656563D02*
X14059507Y-15694658D01*
X14059507Y-15694658D02*
X14049983Y-15713706D01*
X14049983Y-15713706D02*
X14040459Y-15723230D01*
X14040459Y-15723230D02*
X14021412Y-15732754D01*
X14021412Y-15732754D02*
X14002364Y-15732754D01*
X14002364Y-15732754D02*
X13983316Y-15723230D01*
X13983316Y-15723230D02*
X13973793Y-15713706D01*
X13973793Y-15713706D02*
X13964269Y-15694658D01*
X13964269Y-15694658D02*
X13954745Y-15656563D01*
X13954745Y-15656563D02*
X13954745Y-15608944D01*
X13954745Y-15608944D02*
X13964269Y-15570849D01*
X13964269Y-15570849D02*
X13973793Y-15551801D01*
X13973793Y-15551801D02*
X13983316Y-15542278D01*
X13983316Y-15542278D02*
X14002364Y-15532754D01*
X14154745Y-15713706D02*
X14164269Y-15723230D01*
X14164269Y-15723230D02*
X14154745Y-15732754D01*
X14154745Y-15732754D02*
X14145221Y-15723230D01*
X14145221Y-15723230D02*
X14154745Y-15713706D01*
X14154745Y-15713706D02*
X14154745Y-15732754D01*
X14288078Y-15532754D02*
X14307126Y-15532754D01*
X14307126Y-15532754D02*
X14326174Y-15542278D01*
X14326174Y-15542278D02*
X14335697Y-15551801D01*
X14335697Y-15551801D02*
X14345221Y-15570849D01*
X14345221Y-15570849D02*
X14354745Y-15608944D01*
X14354745Y-15608944D02*
X14354745Y-15656563D01*
X14354745Y-15656563D02*
X14345221Y-15694658D01*
X14345221Y-15694658D02*
X14335697Y-15713706D01*
X14335697Y-15713706D02*
X14326174Y-15723230D01*
X14326174Y-15723230D02*
X14307126Y-15732754D01*
X14307126Y-15732754D02*
X14288078Y-15732754D01*
X14288078Y-15732754D02*
X14269031Y-15723230D01*
X14269031Y-15723230D02*
X14259507Y-15713706D01*
X14259507Y-15713706D02*
X14249983Y-15694658D01*
X14249983Y-15694658D02*
X14240459Y-15656563D01*
X14240459Y-15656563D02*
X14240459Y-15608944D01*
X14240459Y-15608944D02*
X14249983Y-15570849D01*
X14249983Y-15570849D02*
X14259507Y-15551801D01*
X14259507Y-15551801D02*
X14269031Y-15542278D01*
X14269031Y-15542278D02*
X14288078Y-15532754D01*
X14421412Y-15532754D02*
X14545221Y-15532754D01*
X14545221Y-15532754D02*
X14478555Y-15608944D01*
X14478555Y-15608944D02*
X14507126Y-15608944D01*
X14507126Y-15608944D02*
X14526174Y-15618468D01*
X14526174Y-15618468D02*
X14535697Y-15627992D01*
X14535697Y-15627992D02*
X14545221Y-15647039D01*
X14545221Y-15647039D02*
X14545221Y-15694658D01*
X14545221Y-15694658D02*
X14535697Y-15713706D01*
X14535697Y-15713706D02*
X14526174Y-15723230D01*
X14526174Y-15723230D02*
X14507126Y-15732754D01*
X14507126Y-15732754D02*
X14449983Y-15732754D01*
X14449983Y-15732754D02*
X14430936Y-15723230D01*
X14430936Y-15723230D02*
X14421412Y-15713706D01*
X14611888Y-15532754D02*
X14745221Y-15532754D01*
X14745221Y-15532754D02*
X14659507Y-15732754D01*
X14907126Y-15599420D02*
X14907126Y-15732754D01*
X14859507Y-15523230D02*
X14811888Y-15666087D01*
X14811888Y-15666087D02*
X14935697Y-15666087D01*
X15002364Y-15532754D02*
X15002364Y-15570849D01*
X15078555Y-15532754D02*
X15078555Y-15570849D01*
X15373793Y-15808944D02*
X15364269Y-15799420D01*
X15364269Y-15799420D02*
X15345221Y-15770849D01*
X15345221Y-15770849D02*
X15335698Y-15751801D01*
X15335698Y-15751801D02*
X15326174Y-15723230D01*
X15326174Y-15723230D02*
X15316650Y-15675611D01*
X15316650Y-15675611D02*
X15316650Y-15637516D01*
X15316650Y-15637516D02*
X15326174Y-15589897D01*
X15326174Y-15589897D02*
X15335698Y-15561325D01*
X15335698Y-15561325D02*
X15345221Y-15542278D01*
X15345221Y-15542278D02*
X15364269Y-15513706D01*
X15364269Y-15513706D02*
X15373793Y-15504182D01*
X15535698Y-15599420D02*
X15535698Y-15732754D01*
X15488078Y-15523230D02*
X15440459Y-15666087D01*
X15440459Y-15666087D02*
X15564269Y-15666087D01*
X15678555Y-15532754D02*
X15697602Y-15532754D01*
X15697602Y-15532754D02*
X15716650Y-15542278D01*
X15716650Y-15542278D02*
X15726174Y-15551801D01*
X15726174Y-15551801D02*
X15735698Y-15570849D01*
X15735698Y-15570849D02*
X15745221Y-15608944D01*
X15745221Y-15608944D02*
X15745221Y-15656563D01*
X15745221Y-15656563D02*
X15735698Y-15694658D01*
X15735698Y-15694658D02*
X15726174Y-15713706D01*
X15726174Y-15713706D02*
X15716650Y-15723230D01*
X15716650Y-15723230D02*
X15697602Y-15732754D01*
X15697602Y-15732754D02*
X15678555Y-15732754D01*
X15678555Y-15732754D02*
X15659507Y-15723230D01*
X15659507Y-15723230D02*
X15649983Y-15713706D01*
X15649983Y-15713706D02*
X15640459Y-15694658D01*
X15640459Y-15694658D02*
X15630936Y-15656563D01*
X15630936Y-15656563D02*
X15630936Y-15608944D01*
X15630936Y-15608944D02*
X15640459Y-15570849D01*
X15640459Y-15570849D02*
X15649983Y-15551801D01*
X15649983Y-15551801D02*
X15659507Y-15542278D01*
X15659507Y-15542278D02*
X15678555Y-15532754D01*
X15859507Y-15618468D02*
X15840459Y-15608944D01*
X15840459Y-15608944D02*
X15830936Y-15599420D01*
X15830936Y-15599420D02*
X15821412Y-15580373D01*
X15821412Y-15580373D02*
X15821412Y-15570849D01*
X15821412Y-15570849D02*
X15830936Y-15551801D01*
X15830936Y-15551801D02*
X15840459Y-15542278D01*
X15840459Y-15542278D02*
X15859507Y-15532754D01*
X15859507Y-15532754D02*
X15897602Y-15532754D01*
X15897602Y-15532754D02*
X15916650Y-15542278D01*
X15916650Y-15542278D02*
X15926174Y-15551801D01*
X15926174Y-15551801D02*
X15935698Y-15570849D01*
X15935698Y-15570849D02*
X15935698Y-15580373D01*
X15935698Y-15580373D02*
X15926174Y-15599420D01*
X15926174Y-15599420D02*
X15916650Y-15608944D01*
X15916650Y-15608944D02*
X15897602Y-15618468D01*
X15897602Y-15618468D02*
X15859507Y-15618468D01*
X15859507Y-15618468D02*
X15840459Y-15627992D01*
X15840459Y-15627992D02*
X15830936Y-15637516D01*
X15830936Y-15637516D02*
X15821412Y-15656563D01*
X15821412Y-15656563D02*
X15821412Y-15694658D01*
X15821412Y-15694658D02*
X15830936Y-15713706D01*
X15830936Y-15713706D02*
X15840459Y-15723230D01*
X15840459Y-15723230D02*
X15859507Y-15732754D01*
X15859507Y-15732754D02*
X15897602Y-15732754D01*
X15897602Y-15732754D02*
X15916650Y-15723230D01*
X15916650Y-15723230D02*
X15926174Y-15713706D01*
X15926174Y-15713706D02*
X15935698Y-15694658D01*
X15935698Y-15694658D02*
X15935698Y-15656563D01*
X15935698Y-15656563D02*
X15926174Y-15637516D01*
X15926174Y-15637516D02*
X15916650Y-15627992D01*
X15916650Y-15627992D02*
X15897602Y-15618468D01*
X16173793Y-15732754D02*
X16173793Y-15532754D01*
X16259507Y-15732754D02*
X16259507Y-15627992D01*
X16259507Y-15627992D02*
X16249983Y-15608944D01*
X16249983Y-15608944D02*
X16230936Y-15599420D01*
X16230936Y-15599420D02*
X16202364Y-15599420D01*
X16202364Y-15599420D02*
X16183317Y-15608944D01*
X16183317Y-15608944D02*
X16173793Y-15618468D01*
X16383317Y-15732754D02*
X16364269Y-15723230D01*
X16364269Y-15723230D02*
X16354745Y-15713706D01*
X16354745Y-15713706D02*
X16345221Y-15694658D01*
X16345221Y-15694658D02*
X16345221Y-15637516D01*
X16345221Y-15637516D02*
X16354745Y-15618468D01*
X16354745Y-15618468D02*
X16364269Y-15608944D01*
X16364269Y-15608944D02*
X16383317Y-15599420D01*
X16383317Y-15599420D02*
X16411888Y-15599420D01*
X16411888Y-15599420D02*
X16430936Y-15608944D01*
X16430936Y-15608944D02*
X16440460Y-15618468D01*
X16440460Y-15618468D02*
X16449983Y-15637516D01*
X16449983Y-15637516D02*
X16449983Y-15694658D01*
X16449983Y-15694658D02*
X16440460Y-15713706D01*
X16440460Y-15713706D02*
X16430936Y-15723230D01*
X16430936Y-15723230D02*
X16411888Y-15732754D01*
X16411888Y-15732754D02*
X16383317Y-15732754D01*
X16564269Y-15732754D02*
X16545221Y-15723230D01*
X16545221Y-15723230D02*
X16535698Y-15704182D01*
X16535698Y-15704182D02*
X16535698Y-15532754D01*
X16716650Y-15723230D02*
X16697602Y-15732754D01*
X16697602Y-15732754D02*
X16659507Y-15732754D01*
X16659507Y-15732754D02*
X16640460Y-15723230D01*
X16640460Y-15723230D02*
X16630936Y-15704182D01*
X16630936Y-15704182D02*
X16630936Y-15627992D01*
X16630936Y-15627992D02*
X16640460Y-15608944D01*
X16640460Y-15608944D02*
X16659507Y-15599420D01*
X16659507Y-15599420D02*
X16697602Y-15599420D01*
X16697602Y-15599420D02*
X16716650Y-15608944D01*
X16716650Y-15608944D02*
X16726174Y-15627992D01*
X16726174Y-15627992D02*
X16726174Y-15647039D01*
X16726174Y-15647039D02*
X16630936Y-15666087D01*
X16802364Y-15723230D02*
X16821412Y-15732754D01*
X16821412Y-15732754D02*
X16859507Y-15732754D01*
X16859507Y-15732754D02*
X16878555Y-15723230D01*
X16878555Y-15723230D02*
X16888079Y-15704182D01*
X16888079Y-15704182D02*
X16888079Y-15694658D01*
X16888079Y-15694658D02*
X16878555Y-15675611D01*
X16878555Y-15675611D02*
X16859507Y-15666087D01*
X16859507Y-15666087D02*
X16830936Y-15666087D01*
X16830936Y-15666087D02*
X16811888Y-15656563D01*
X16811888Y-15656563D02*
X16802364Y-15637516D01*
X16802364Y-15637516D02*
X16802364Y-15627992D01*
X16802364Y-15627992D02*
X16811888Y-15608944D01*
X16811888Y-15608944D02*
X16830936Y-15599420D01*
X16830936Y-15599420D02*
X16859507Y-15599420D01*
X16859507Y-15599420D02*
X16878555Y-15608944D01*
X16954745Y-15808944D02*
X16964269Y-15799420D01*
X16964269Y-15799420D02*
X16983317Y-15770849D01*
X16983317Y-15770849D02*
X16992841Y-15751801D01*
X16992841Y-15751801D02*
X17002364Y-15723230D01*
X17002364Y-15723230D02*
X17011888Y-15675611D01*
X17011888Y-15675611D02*
X17011888Y-15637516D01*
X17011888Y-15637516D02*
X17002364Y-15589897D01*
X17002364Y-15589897D02*
X16992841Y-15561325D01*
X16992841Y-15561325D02*
X16983317Y-15542278D01*
X16983317Y-15542278D02*
X16964269Y-15513706D01*
X16964269Y-15513706D02*
X16954745Y-15504182D01*
X11798730Y-15905270D02*
G75*
G02*
X11598730Y-15905270I-100000J0D01*
G01*
X11598730Y-15905270D02*
G75*
G02*
X11798730Y-15905270I100000J0D01*
G01*
X12049983Y-15815801D02*
X12059507Y-15806278D01*
X12059507Y-15806278D02*
X12078554Y-15796754D01*
X12078554Y-15796754D02*
X12126173Y-15796754D01*
X12126173Y-15796754D02*
X12145221Y-15806278D01*
X12145221Y-15806278D02*
X12154745Y-15815801D01*
X12154745Y-15815801D02*
X12164269Y-15834849D01*
X12164269Y-15834849D02*
X12164269Y-15853897D01*
X12164269Y-15853897D02*
X12154745Y-15882468D01*
X12154745Y-15882468D02*
X12040459Y-15996754D01*
X12040459Y-15996754D02*
X12164269Y-15996754D01*
X12249983Y-15977706D02*
X12259507Y-15987230D01*
X12259507Y-15987230D02*
X12249983Y-15996754D01*
X12249983Y-15996754D02*
X12240459Y-15987230D01*
X12240459Y-15987230D02*
X12249983Y-15977706D01*
X12249983Y-15977706D02*
X12249983Y-15996754D01*
X12335697Y-15815801D02*
X12345221Y-15806278D01*
X12345221Y-15806278D02*
X12364269Y-15796754D01*
X12364269Y-15796754D02*
X12411888Y-15796754D01*
X12411888Y-15796754D02*
X12430935Y-15806278D01*
X12430935Y-15806278D02*
X12440459Y-15815801D01*
X12440459Y-15815801D02*
X12449983Y-15834849D01*
X12449983Y-15834849D02*
X12449983Y-15853897D01*
X12449983Y-15853897D02*
X12440459Y-15882468D01*
X12440459Y-15882468D02*
X12326173Y-15996754D01*
X12326173Y-15996754D02*
X12449983Y-15996754D01*
X12573792Y-15796754D02*
X12592840Y-15796754D01*
X12592840Y-15796754D02*
X12611888Y-15806278D01*
X12611888Y-15806278D02*
X12621412Y-15815801D01*
X12621412Y-15815801D02*
X12630935Y-15834849D01*
X12630935Y-15834849D02*
X12640459Y-15872944D01*
X12640459Y-15872944D02*
X12640459Y-15920563D01*
X12640459Y-15920563D02*
X12630935Y-15958658D01*
X12630935Y-15958658D02*
X12621412Y-15977706D01*
X12621412Y-15977706D02*
X12611888Y-15987230D01*
X12611888Y-15987230D02*
X12592840Y-15996754D01*
X12592840Y-15996754D02*
X12573792Y-15996754D01*
X12573792Y-15996754D02*
X12554745Y-15987230D01*
X12554745Y-15987230D02*
X12545221Y-15977706D01*
X12545221Y-15977706D02*
X12535697Y-15958658D01*
X12535697Y-15958658D02*
X12526173Y-15920563D01*
X12526173Y-15920563D02*
X12526173Y-15872944D01*
X12526173Y-15872944D02*
X12535697Y-15834849D01*
X12535697Y-15834849D02*
X12545221Y-15815801D01*
X12545221Y-15815801D02*
X12554745Y-15806278D01*
X12554745Y-15806278D02*
X12573792Y-15796754D01*
X12764269Y-15796754D02*
X12783316Y-15796754D01*
X12783316Y-15796754D02*
X12802364Y-15806278D01*
X12802364Y-15806278D02*
X12811888Y-15815801D01*
X12811888Y-15815801D02*
X12821412Y-15834849D01*
X12821412Y-15834849D02*
X12830935Y-15872944D01*
X12830935Y-15872944D02*
X12830935Y-15920563D01*
X12830935Y-15920563D02*
X12821412Y-15958658D01*
X12821412Y-15958658D02*
X12811888Y-15977706D01*
X12811888Y-15977706D02*
X12802364Y-15987230D01*
X12802364Y-15987230D02*
X12783316Y-15996754D01*
X12783316Y-15996754D02*
X12764269Y-15996754D01*
X12764269Y-15996754D02*
X12745221Y-15987230D01*
X12745221Y-15987230D02*
X12735697Y-15977706D01*
X12735697Y-15977706D02*
X12726173Y-15958658D01*
X12726173Y-15958658D02*
X12716650Y-15920563D01*
X12716650Y-15920563D02*
X12716650Y-15872944D01*
X12716650Y-15872944D02*
X12726173Y-15834849D01*
X12726173Y-15834849D02*
X12735697Y-15815801D01*
X12735697Y-15815801D02*
X12745221Y-15806278D01*
X12745221Y-15806278D02*
X12764269Y-15796754D01*
X12916650Y-15996754D02*
X12916650Y-15863420D01*
X12916650Y-15882468D02*
X12926173Y-15872944D01*
X12926173Y-15872944D02*
X12945221Y-15863420D01*
X12945221Y-15863420D02*
X12973793Y-15863420D01*
X12973793Y-15863420D02*
X12992840Y-15872944D01*
X12992840Y-15872944D02*
X13002364Y-15891992D01*
X13002364Y-15891992D02*
X13002364Y-15996754D01*
X13002364Y-15891992D02*
X13011888Y-15872944D01*
X13011888Y-15872944D02*
X13030935Y-15863420D01*
X13030935Y-15863420D02*
X13059507Y-15863420D01*
X13059507Y-15863420D02*
X13078554Y-15872944D01*
X13078554Y-15872944D02*
X13088078Y-15891992D01*
X13088078Y-15891992D02*
X13088078Y-15996754D01*
X13183316Y-15996754D02*
X13183316Y-15863420D01*
X13183316Y-15882468D02*
X13192840Y-15872944D01*
X13192840Y-15872944D02*
X13211888Y-15863420D01*
X13211888Y-15863420D02*
X13240459Y-15863420D01*
X13240459Y-15863420D02*
X13259507Y-15872944D01*
X13259507Y-15872944D02*
X13269031Y-15891992D01*
X13269031Y-15891992D02*
X13269031Y-15996754D01*
X13269031Y-15891992D02*
X13278554Y-15872944D01*
X13278554Y-15872944D02*
X13297602Y-15863420D01*
X13297602Y-15863420D02*
X13326173Y-15863420D01*
X13326173Y-15863420D02*
X13345221Y-15872944D01*
X13345221Y-15872944D02*
X13354745Y-15891992D01*
X13354745Y-15891992D02*
X13354745Y-15996754D01*
X13745221Y-15787230D02*
X13573793Y-16044373D01*
X14002364Y-15796754D02*
X14021412Y-15796754D01*
X14021412Y-15796754D02*
X14040459Y-15806278D01*
X14040459Y-15806278D02*
X14049983Y-15815801D01*
X14049983Y-15815801D02*
X14059507Y-15834849D01*
X14059507Y-15834849D02*
X14069031Y-15872944D01*
X14069031Y-15872944D02*
X14069031Y-15920563D01*
X14069031Y-15920563D02*
X14059507Y-15958658D01*
X14059507Y-15958658D02*
X14049983Y-15977706D01*
X14049983Y-15977706D02*
X14040459Y-15987230D01*
X14040459Y-15987230D02*
X14021412Y-15996754D01*
X14021412Y-15996754D02*
X14002364Y-15996754D01*
X14002364Y-15996754D02*
X13983316Y-15987230D01*
X13983316Y-15987230D02*
X13973793Y-15977706D01*
X13973793Y-15977706D02*
X13964269Y-15958658D01*
X13964269Y-15958658D02*
X13954745Y-15920563D01*
X13954745Y-15920563D02*
X13954745Y-15872944D01*
X13954745Y-15872944D02*
X13964269Y-15834849D01*
X13964269Y-15834849D02*
X13973793Y-15815801D01*
X13973793Y-15815801D02*
X13983316Y-15806278D01*
X13983316Y-15806278D02*
X14002364Y-15796754D01*
X14154745Y-15977706D02*
X14164269Y-15987230D01*
X14164269Y-15987230D02*
X14154745Y-15996754D01*
X14154745Y-15996754D02*
X14145221Y-15987230D01*
X14145221Y-15987230D02*
X14154745Y-15977706D01*
X14154745Y-15977706D02*
X14154745Y-15996754D01*
X14288078Y-15796754D02*
X14307126Y-15796754D01*
X14307126Y-15796754D02*
X14326174Y-15806278D01*
X14326174Y-15806278D02*
X14335697Y-15815801D01*
X14335697Y-15815801D02*
X14345221Y-15834849D01*
X14345221Y-15834849D02*
X14354745Y-15872944D01*
X14354745Y-15872944D02*
X14354745Y-15920563D01*
X14354745Y-15920563D02*
X14345221Y-15958658D01*
X14345221Y-15958658D02*
X14335697Y-15977706D01*
X14335697Y-15977706D02*
X14326174Y-15987230D01*
X14326174Y-15987230D02*
X14307126Y-15996754D01*
X14307126Y-15996754D02*
X14288078Y-15996754D01*
X14288078Y-15996754D02*
X14269031Y-15987230D01*
X14269031Y-15987230D02*
X14259507Y-15977706D01*
X14259507Y-15977706D02*
X14249983Y-15958658D01*
X14249983Y-15958658D02*
X14240459Y-15920563D01*
X14240459Y-15920563D02*
X14240459Y-15872944D01*
X14240459Y-15872944D02*
X14249983Y-15834849D01*
X14249983Y-15834849D02*
X14259507Y-15815801D01*
X14259507Y-15815801D02*
X14269031Y-15806278D01*
X14269031Y-15806278D02*
X14288078Y-15796754D01*
X14469031Y-15882468D02*
X14449983Y-15872944D01*
X14449983Y-15872944D02*
X14440459Y-15863420D01*
X14440459Y-15863420D02*
X14430936Y-15844373D01*
X14430936Y-15844373D02*
X14430936Y-15834849D01*
X14430936Y-15834849D02*
X14440459Y-15815801D01*
X14440459Y-15815801D02*
X14449983Y-15806278D01*
X14449983Y-15806278D02*
X14469031Y-15796754D01*
X14469031Y-15796754D02*
X14507126Y-15796754D01*
X14507126Y-15796754D02*
X14526174Y-15806278D01*
X14526174Y-15806278D02*
X14535697Y-15815801D01*
X14535697Y-15815801D02*
X14545221Y-15834849D01*
X14545221Y-15834849D02*
X14545221Y-15844373D01*
X14545221Y-15844373D02*
X14535697Y-15863420D01*
X14535697Y-15863420D02*
X14526174Y-15872944D01*
X14526174Y-15872944D02*
X14507126Y-15882468D01*
X14507126Y-15882468D02*
X14469031Y-15882468D01*
X14469031Y-15882468D02*
X14449983Y-15891992D01*
X14449983Y-15891992D02*
X14440459Y-15901516D01*
X14440459Y-15901516D02*
X14430936Y-15920563D01*
X14430936Y-15920563D02*
X14430936Y-15958658D01*
X14430936Y-15958658D02*
X14440459Y-15977706D01*
X14440459Y-15977706D02*
X14449983Y-15987230D01*
X14449983Y-15987230D02*
X14469031Y-15996754D01*
X14469031Y-15996754D02*
X14507126Y-15996754D01*
X14507126Y-15996754D02*
X14526174Y-15987230D01*
X14526174Y-15987230D02*
X14535697Y-15977706D01*
X14535697Y-15977706D02*
X14545221Y-15958658D01*
X14545221Y-15958658D02*
X14545221Y-15920563D01*
X14545221Y-15920563D02*
X14535697Y-15901516D01*
X14535697Y-15901516D02*
X14526174Y-15891992D01*
X14526174Y-15891992D02*
X14507126Y-15882468D01*
X14716650Y-15796754D02*
X14678555Y-15796754D01*
X14678555Y-15796754D02*
X14659507Y-15806278D01*
X14659507Y-15806278D02*
X14649983Y-15815801D01*
X14649983Y-15815801D02*
X14630936Y-15844373D01*
X14630936Y-15844373D02*
X14621412Y-15882468D01*
X14621412Y-15882468D02*
X14621412Y-15958658D01*
X14621412Y-15958658D02*
X14630936Y-15977706D01*
X14630936Y-15977706D02*
X14640459Y-15987230D01*
X14640459Y-15987230D02*
X14659507Y-15996754D01*
X14659507Y-15996754D02*
X14697602Y-15996754D01*
X14697602Y-15996754D02*
X14716650Y-15987230D01*
X14716650Y-15987230D02*
X14726174Y-15977706D01*
X14726174Y-15977706D02*
X14735697Y-15958658D01*
X14735697Y-15958658D02*
X14735697Y-15911039D01*
X14735697Y-15911039D02*
X14726174Y-15891992D01*
X14726174Y-15891992D02*
X14716650Y-15882468D01*
X14716650Y-15882468D02*
X14697602Y-15872944D01*
X14697602Y-15872944D02*
X14659507Y-15872944D01*
X14659507Y-15872944D02*
X14640459Y-15882468D01*
X14640459Y-15882468D02*
X14630936Y-15891992D01*
X14630936Y-15891992D02*
X14621412Y-15911039D01*
X14907126Y-15796754D02*
X14869031Y-15796754D01*
X14869031Y-15796754D02*
X14849983Y-15806278D01*
X14849983Y-15806278D02*
X14840459Y-15815801D01*
X14840459Y-15815801D02*
X14821412Y-15844373D01*
X14821412Y-15844373D02*
X14811888Y-15882468D01*
X14811888Y-15882468D02*
X14811888Y-15958658D01*
X14811888Y-15958658D02*
X14821412Y-15977706D01*
X14821412Y-15977706D02*
X14830936Y-15987230D01*
X14830936Y-15987230D02*
X14849983Y-15996754D01*
X14849983Y-15996754D02*
X14888078Y-15996754D01*
X14888078Y-15996754D02*
X14907126Y-15987230D01*
X14907126Y-15987230D02*
X14916650Y-15977706D01*
X14916650Y-15977706D02*
X14926174Y-15958658D01*
X14926174Y-15958658D02*
X14926174Y-15911039D01*
X14926174Y-15911039D02*
X14916650Y-15891992D01*
X14916650Y-15891992D02*
X14907126Y-15882468D01*
X14907126Y-15882468D02*
X14888078Y-15872944D01*
X14888078Y-15872944D02*
X14849983Y-15872944D01*
X14849983Y-15872944D02*
X14830936Y-15882468D01*
X14830936Y-15882468D02*
X14821412Y-15891992D01*
X14821412Y-15891992D02*
X14811888Y-15911039D01*
X15002364Y-15796754D02*
X15002364Y-15834849D01*
X15078555Y-15796754D02*
X15078555Y-15834849D01*
X15373793Y-16072944D02*
X15364269Y-16063420D01*
X15364269Y-16063420D02*
X15345221Y-16034849D01*
X15345221Y-16034849D02*
X15335698Y-16015801D01*
X15335698Y-16015801D02*
X15326174Y-15987230D01*
X15326174Y-15987230D02*
X15316650Y-15939611D01*
X15316650Y-15939611D02*
X15316650Y-15901516D01*
X15316650Y-15901516D02*
X15326174Y-15853897D01*
X15326174Y-15853897D02*
X15335698Y-15825325D01*
X15335698Y-15825325D02*
X15345221Y-15806278D01*
X15345221Y-15806278D02*
X15364269Y-15777706D01*
X15364269Y-15777706D02*
X15373793Y-15768182D01*
X15535698Y-15863420D02*
X15535698Y-15996754D01*
X15488078Y-15787230D02*
X15440459Y-15930087D01*
X15440459Y-15930087D02*
X15564269Y-15930087D01*
X15792840Y-15996754D02*
X15792840Y-15796754D01*
X15878555Y-15996754D02*
X15878555Y-15891992D01*
X15878555Y-15891992D02*
X15869031Y-15872944D01*
X15869031Y-15872944D02*
X15849983Y-15863420D01*
X15849983Y-15863420D02*
X15821412Y-15863420D01*
X15821412Y-15863420D02*
X15802364Y-15872944D01*
X15802364Y-15872944D02*
X15792840Y-15882468D01*
X16002364Y-15996754D02*
X15983317Y-15987230D01*
X15983317Y-15987230D02*
X15973793Y-15977706D01*
X15973793Y-15977706D02*
X15964269Y-15958658D01*
X15964269Y-15958658D02*
X15964269Y-15901516D01*
X15964269Y-15901516D02*
X15973793Y-15882468D01*
X15973793Y-15882468D02*
X15983317Y-15872944D01*
X15983317Y-15872944D02*
X16002364Y-15863420D01*
X16002364Y-15863420D02*
X16030936Y-15863420D01*
X16030936Y-15863420D02*
X16049983Y-15872944D01*
X16049983Y-15872944D02*
X16059507Y-15882468D01*
X16059507Y-15882468D02*
X16069031Y-15901516D01*
X16069031Y-15901516D02*
X16069031Y-15958658D01*
X16069031Y-15958658D02*
X16059507Y-15977706D01*
X16059507Y-15977706D02*
X16049983Y-15987230D01*
X16049983Y-15987230D02*
X16030936Y-15996754D01*
X16030936Y-15996754D02*
X16002364Y-15996754D01*
X16183317Y-15996754D02*
X16164269Y-15987230D01*
X16164269Y-15987230D02*
X16154745Y-15968182D01*
X16154745Y-15968182D02*
X16154745Y-15796754D01*
X16335698Y-15987230D02*
X16316650Y-15996754D01*
X16316650Y-15996754D02*
X16278555Y-15996754D01*
X16278555Y-15996754D02*
X16259507Y-15987230D01*
X16259507Y-15987230D02*
X16249983Y-15968182D01*
X16249983Y-15968182D02*
X16249983Y-15891992D01*
X16249983Y-15891992D02*
X16259507Y-15872944D01*
X16259507Y-15872944D02*
X16278555Y-15863420D01*
X16278555Y-15863420D02*
X16316650Y-15863420D01*
X16316650Y-15863420D02*
X16335698Y-15872944D01*
X16335698Y-15872944D02*
X16345221Y-15891992D01*
X16345221Y-15891992D02*
X16345221Y-15911039D01*
X16345221Y-15911039D02*
X16249983Y-15930087D01*
X16421412Y-15987230D02*
X16440460Y-15996754D01*
X16440460Y-15996754D02*
X16478555Y-15996754D01*
X16478555Y-15996754D02*
X16497602Y-15987230D01*
X16497602Y-15987230D02*
X16507126Y-15968182D01*
X16507126Y-15968182D02*
X16507126Y-15958658D01*
X16507126Y-15958658D02*
X16497602Y-15939611D01*
X16497602Y-15939611D02*
X16478555Y-15930087D01*
X16478555Y-15930087D02*
X16449983Y-15930087D01*
X16449983Y-15930087D02*
X16430936Y-15920563D01*
X16430936Y-15920563D02*
X16421412Y-15901516D01*
X16421412Y-15901516D02*
X16421412Y-15891992D01*
X16421412Y-15891992D02*
X16430936Y-15872944D01*
X16430936Y-15872944D02*
X16449983Y-15863420D01*
X16449983Y-15863420D02*
X16478555Y-15863420D01*
X16478555Y-15863420D02*
X16497602Y-15872944D01*
X16573793Y-16072944D02*
X16583317Y-16063420D01*
X16583317Y-16063420D02*
X16602364Y-16034849D01*
X16602364Y-16034849D02*
X16611888Y-16015801D01*
X16611888Y-16015801D02*
X16621412Y-15987230D01*
X16621412Y-15987230D02*
X16630936Y-15939611D01*
X16630936Y-15939611D02*
X16630936Y-15901516D01*
X16630936Y-15901516D02*
X16621412Y-15853897D01*
X16621412Y-15853897D02*
X16611888Y-15825325D01*
X16611888Y-15825325D02*
X16602364Y-15806278D01*
X16602364Y-15806278D02*
X16583317Y-15777706D01*
X16583317Y-15777706D02*
X16573793Y-15768182D01*
M02*
