M48
; DRILL file {KiCad 8.0.2} date 2024-08-26T09:39:54-0600
; FORMAT={-:-/ absolute / metric / decimal}
; #@! TF.CreationDate,2024-08-26T09:39:54-06:00
; #@! TF.GenerationSoftware,Kicad,Pcbnew,8.0.2
; #@! TF.FileFunction,Plated,1,2,PTH
FMAT,2
METRIC
; #@! TA.AperFunction,Plated,PTH,ComponentDrill
T1C0.950
; #@! TA.AperFunction,Plated,PTH,ComponentDrill
T2C2.200
%
G90
G05
T1
X125.68Y-65.86
X125.68Y-68.4
X125.68Y-70.94
X125.68Y-73.48
X125.68Y-76.02
X125.68Y-78.56
X125.68Y-81.1
X125.68Y-83.64
X125.68Y-86.18
X125.68Y-88.72
X125.68Y-91.26
X125.68Y-93.8
X125.68Y-96.34
X125.68Y-106.5
X125.68Y-109.04
X125.68Y-111.58
X125.68Y-114.12
X125.68Y-116.66
X125.68Y-119.2
X125.68Y-121.74
X125.68Y-124.28
X125.68Y-126.82
X125.68Y-129.36
X125.68Y-131.9
X125.68Y-134.44
X125.68Y-136.98
X125.68Y-139.52
X128.22Y-65.86
X128.22Y-68.4
X128.22Y-70.94
X128.22Y-73.48
X128.22Y-76.02
X128.22Y-78.56
X128.22Y-81.1
X128.22Y-83.64
X128.22Y-86.18
X128.22Y-88.72
X128.22Y-91.26
X128.22Y-93.8
X128.22Y-96.34
X128.22Y-106.5
X128.22Y-109.04
X128.22Y-111.58
X128.22Y-114.12
X128.22Y-116.66
X128.22Y-119.2
X128.22Y-121.74
X128.22Y-124.28
X128.22Y-126.82
X128.22Y-129.36
X128.22Y-131.9
X128.22Y-134.44
X128.22Y-136.98
X128.22Y-139.52
X133.3Y-65.86
X133.3Y-68.4
X133.3Y-70.94
X133.3Y-73.48
X133.3Y-76.02
X133.3Y-78.56
X133.3Y-81.1
X133.3Y-83.64
X133.3Y-86.18
X133.3Y-88.72
X133.3Y-91.26
X133.3Y-93.8
X133.3Y-96.34
X133.3Y-98.88
X133.3Y-101.42
X133.3Y-103.96
X133.3Y-106.5
X133.3Y-109.04
X133.3Y-111.58
X133.3Y-114.12
X133.3Y-116.66
X133.3Y-119.2
X133.3Y-121.74
X133.3Y-124.28
X133.3Y-126.82
X133.3Y-129.36
X133.3Y-131.9
X133.3Y-134.44
X133.3Y-136.98
X133.3Y-139.52
X135.84Y-65.86
X135.84Y-68.4
X135.84Y-70.94
X135.84Y-73.48
X135.84Y-76.02
X135.84Y-78.56
X135.84Y-81.1
X135.84Y-83.64
X135.84Y-86.18
X135.84Y-88.72
X135.84Y-91.26
X135.84Y-93.8
X135.84Y-96.34
X135.84Y-98.88
X135.84Y-101.42
X135.84Y-103.96
X135.84Y-106.5
X135.84Y-109.04
X135.84Y-111.58
X135.84Y-114.12
X135.84Y-116.66
X135.84Y-119.2
X135.84Y-121.74
X135.84Y-124.28
X135.84Y-126.82
X135.84Y-129.36
X135.84Y-131.9
X135.84Y-134.44
X135.84Y-136.98
X135.84Y-139.52
X138.38Y-65.86
X138.38Y-68.4
X138.38Y-70.94
X138.38Y-73.48
X138.38Y-76.02
X138.38Y-78.56
X138.38Y-81.1
X138.38Y-83.64
X138.38Y-86.18
X138.38Y-88.72
X138.38Y-91.26
X138.38Y-93.8
X138.38Y-96.34
X138.38Y-98.88
X138.38Y-101.42
X138.38Y-103.96
X138.38Y-106.5
X138.38Y-109.04
X138.38Y-111.58
X138.38Y-114.12
X138.38Y-116.66
X138.38Y-119.2
X138.38Y-121.74
X138.38Y-124.28
X138.38Y-126.82
X138.38Y-129.36
X138.38Y-131.9
X138.38Y-134.44
X138.38Y-136.98
X138.38Y-139.52
X140.92Y-65.86
X140.92Y-68.4
X140.92Y-70.94
X140.92Y-73.48
X140.92Y-76.02
X140.92Y-78.56
X140.92Y-81.1
X140.92Y-83.64
X140.92Y-86.18
X140.92Y-88.72
X140.92Y-91.26
X140.92Y-93.8
X140.92Y-96.34
X140.92Y-98.88
X140.92Y-101.42
X140.92Y-103.96
X140.92Y-106.5
X140.92Y-109.04
X140.92Y-111.58
X140.92Y-114.12
X140.92Y-116.66
X140.92Y-119.2
X140.92Y-121.74
X140.92Y-124.28
X140.92Y-126.82
X140.92Y-129.36
X140.92Y-131.9
X140.92Y-134.44
X140.92Y-136.98
X140.92Y-139.52
X143.46Y-65.86
X143.46Y-68.4
X143.46Y-70.94
X143.46Y-73.48
X143.46Y-76.02
X143.46Y-78.56
X143.46Y-81.1
X143.46Y-83.64
X143.46Y-86.18
X143.46Y-88.72
X143.46Y-91.26
X143.46Y-93.8
X143.46Y-96.34
X143.46Y-98.88
X143.46Y-101.42
X143.46Y-103.96
X143.46Y-106.5
X143.46Y-109.04
X143.46Y-111.58
X143.46Y-114.12
X143.46Y-116.66
X143.46Y-119.2
X143.46Y-121.74
X143.46Y-124.28
X143.46Y-126.82
X143.46Y-129.36
X143.46Y-131.9
X143.46Y-134.44
X143.46Y-136.98
X143.46Y-139.52
X148.54Y-65.86
X148.54Y-68.4
X148.54Y-70.94
X148.54Y-73.48
X148.54Y-76.02
X148.54Y-78.56
X148.54Y-81.1
X148.54Y-83.64
X148.54Y-86.18
X148.54Y-88.72
X148.54Y-91.26
X148.54Y-93.8
X148.54Y-96.34
X148.54Y-98.88
X148.54Y-101.42
X148.54Y-103.96
X148.54Y-106.5
X148.54Y-109.04
X148.54Y-111.58
X148.54Y-114.12
X148.54Y-116.66
X148.54Y-119.2
X148.54Y-121.74
X148.54Y-124.28
X148.54Y-126.82
X148.54Y-129.36
X148.54Y-131.9
X148.54Y-134.44
X148.54Y-136.98
X148.54Y-139.52
X151.08Y-65.86
X151.08Y-68.4
X151.08Y-70.94
X151.08Y-73.48
X151.08Y-76.02
X151.08Y-78.56
X151.08Y-81.1
X151.08Y-83.64
X151.08Y-86.18
X151.08Y-88.72
X151.08Y-91.26
X151.08Y-93.8
X151.08Y-96.34
X151.08Y-98.88
X151.08Y-101.42
X151.08Y-103.96
X151.08Y-106.5
X151.08Y-109.04
X151.08Y-111.58
X151.08Y-114.12
X151.08Y-116.66
X151.08Y-119.2
X151.08Y-121.74
X151.08Y-124.28
X151.08Y-126.82
X151.08Y-129.36
X151.08Y-131.9
X151.08Y-134.44
X151.08Y-136.98
X151.08Y-139.52
X153.62Y-65.86
X153.62Y-68.4
X153.62Y-70.94
X153.62Y-73.48
X153.62Y-76.02
X153.62Y-78.56
X153.62Y-81.1
X153.62Y-83.64
X153.62Y-86.18
X153.62Y-88.72
X153.62Y-91.26
X153.62Y-93.8
X153.62Y-96.34
X153.62Y-98.88
X153.62Y-101.42
X153.62Y-103.96
X153.62Y-106.5
X153.62Y-109.04
X153.62Y-111.58
X153.62Y-114.12
X153.62Y-116.66
X153.62Y-119.2
X153.62Y-121.74
X153.62Y-124.28
X153.62Y-126.82
X153.62Y-129.36
X153.62Y-131.9
X153.62Y-134.44
X153.62Y-136.98
X153.62Y-139.52
X156.16Y-65.86
X156.16Y-68.4
X156.16Y-70.94
X156.16Y-73.48
X156.16Y-76.02
X156.16Y-78.56
X156.16Y-81.1
X156.16Y-83.64
X156.16Y-86.18
X156.16Y-88.72
X156.16Y-91.26
X156.16Y-93.8
X156.16Y-96.34
X156.16Y-98.88
X156.16Y-101.42
X156.16Y-103.96
X156.16Y-106.5
X156.16Y-109.04
X156.16Y-111.58
X156.16Y-114.12
X156.16Y-116.66
X156.16Y-119.2
X156.16Y-121.74
X156.16Y-124.28
X156.16Y-126.82
X156.16Y-129.36
X156.16Y-131.9
X156.16Y-134.44
X156.16Y-136.98
X156.16Y-139.52
X158.7Y-65.86
X158.7Y-68.4
X158.7Y-70.94
X158.7Y-73.48
X158.7Y-76.02
X158.7Y-78.56
X158.7Y-81.1
X158.7Y-83.64
X158.7Y-86.18
X158.7Y-88.72
X158.7Y-91.26
X158.7Y-93.8
X158.7Y-96.34
X158.7Y-98.88
X158.7Y-101.42
X158.7Y-103.96
X158.7Y-106.5
X158.7Y-109.04
X158.7Y-111.58
X158.7Y-114.12
X158.7Y-116.66
X158.7Y-119.2
X158.7Y-121.74
X158.7Y-124.28
X158.7Y-126.82
X158.7Y-129.36
X158.7Y-131.9
X158.7Y-134.44
X158.7Y-136.98
X158.7Y-139.52
X163.78Y-65.86
X163.78Y-68.4
X163.78Y-70.94
X163.78Y-73.48
X163.78Y-76.02
X163.78Y-78.56
X163.78Y-81.1
X163.78Y-83.64
X163.78Y-86.18
X163.78Y-88.72
X163.78Y-91.26
X163.78Y-93.8
X163.78Y-96.34
X163.78Y-106.5
X163.78Y-109.04
X163.78Y-111.58
X163.78Y-114.12
X163.78Y-116.66
X163.78Y-119.2
X163.78Y-121.74
X163.78Y-124.28
X163.78Y-126.82
X163.78Y-129.36
X163.78Y-131.9
X163.78Y-134.44
X163.78Y-136.98
X163.78Y-139.52
X166.32Y-65.86
X166.32Y-68.4
X166.32Y-70.94
X166.32Y-73.48
X166.32Y-76.02
X166.32Y-78.56
X166.32Y-81.1
X166.32Y-83.64
X166.32Y-86.18
X166.32Y-88.72
X166.32Y-91.26
X166.32Y-93.8
X166.32Y-96.34
X166.32Y-106.5
X166.32Y-109.04
X166.32Y-111.58
X166.32Y-114.12
X166.32Y-116.66
X166.32Y-119.2
X166.32Y-121.74
X166.32Y-124.28
X166.32Y-126.82
X166.32Y-129.36
X166.32Y-131.9
X166.32Y-134.44
X166.32Y-136.98
X166.32Y-139.52
T2
X122.0Y-47.0
X122.0Y-146.0
X170.0Y-47.0
X170.0Y-146.0
M30
